%TF.GenerationSoftware,KiCad,Pcbnew,9.0.4*%
%TF.CreationDate,2025-12-11T19:56:23+01:00*%
%TF.ProjectId,iCEBrainstorm,69434542-7261-4696-9e73-746f726d2e6b,rev?*%
%TF.SameCoordinates,Original*%
%TF.FileFunction,Copper,L1,Top*%
%TF.FilePolarity,Positive*%
%FSLAX46Y46*%
G04 Gerber Fmt 4.6, Leading zero omitted, Abs format (unit mm)*
G04 Created by KiCad (PCBNEW 9.0.4) date 2025-12-11 19:56:23*
%MOMM*%
%LPD*%
G01*
G04 APERTURE LIST*
G04 Aperture macros list*
%AMRoundRect*
0 Rectangle with rounded corners*
0 $1 Rounding radius*
0 $2 $3 $4 $5 $6 $7 $8 $9 X,Y pos of 4 corners*
0 Add a 4 corners polygon primitive as box body*
4,1,4,$2,$3,$4,$5,$6,$7,$8,$9,$2,$3,0*
0 Add four circle primitives for the rounded corners*
1,1,$1+$1,$2,$3*
1,1,$1+$1,$4,$5*
1,1,$1+$1,$6,$7*
1,1,$1+$1,$8,$9*
0 Add four rect primitives between the rounded corners*
20,1,$1+$1,$2,$3,$4,$5,0*
20,1,$1+$1,$4,$5,$6,$7,0*
20,1,$1+$1,$6,$7,$8,$9,0*
20,1,$1+$1,$8,$9,$2,$3,0*%
%AMRotRect*
0 Rectangle, with rotation*
0 The origin of the aperture is its center*
0 $1 length*
0 $2 width*
0 $3 Rotation angle, in degrees counterclockwise*
0 Add horizontal line*
21,1,$1,$2,0,0,$3*%
%AMFreePoly0*
4,1,23,0.500000,-0.750000,0.000000,-0.750000,0.000000,-0.745722,-0.065263,-0.745722,-0.191342,-0.711940,-0.304381,-0.646677,-0.396677,-0.554381,-0.461940,-0.441342,-0.495722,-0.315263,-0.495722,-0.250000,-0.500000,-0.250000,-0.500000,0.250000,-0.495722,0.250000,-0.495722,0.315263,-0.461940,0.441342,-0.396677,0.554381,-0.304381,0.646677,-0.191342,0.711940,-0.065263,0.745722,0.000000,0.745722,
0.000000,0.750000,0.500000,0.750000,0.500000,-0.750000,0.500000,-0.750000,$1*%
%AMFreePoly1*
4,1,23,0.000000,0.745722,0.065263,0.745722,0.191342,0.711940,0.304381,0.646677,0.396677,0.554381,0.461940,0.441342,0.495722,0.315263,0.495722,0.250000,0.500000,0.250000,0.500000,-0.250000,0.495722,-0.250000,0.495722,-0.315263,0.461940,-0.441342,0.396677,-0.554381,0.304381,-0.646677,0.191342,-0.711940,0.065263,-0.745722,0.000000,-0.745722,0.000000,-0.750000,-0.500000,-0.750000,
-0.500000,0.750000,0.000000,0.750000,0.000000,0.745722,0.000000,0.745722,$1*%
G04 Aperture macros list end*
%TA.AperFunction,EtchedComponent*%
%ADD10C,0.000000*%
%TD*%
%TA.AperFunction,SMDPad,CuDef*%
%ADD11RoundRect,0.242500X0.457500X-0.242500X0.457500X0.242500X-0.457500X0.242500X-0.457500X-0.242500X0*%
%TD*%
%TA.AperFunction,SMDPad,CuDef*%
%ADD12RoundRect,0.250000X0.475000X-0.250000X0.475000X0.250000X-0.475000X0.250000X-0.475000X-0.250000X0*%
%TD*%
%TA.AperFunction,SMDPad,CuDef*%
%ADD13RoundRect,0.200000X0.200000X0.275000X-0.200000X0.275000X-0.200000X-0.275000X0.200000X-0.275000X0*%
%TD*%
%TA.AperFunction,SMDPad,CuDef*%
%ADD14RoundRect,0.200000X-0.200000X-0.275000X0.200000X-0.275000X0.200000X0.275000X-0.200000X0.275000X0*%
%TD*%
%TA.AperFunction,SMDPad,CuDef*%
%ADD15O,2.250000X0.630000*%
%TD*%
%TA.AperFunction,SMDPad,CuDef*%
%ADD16RoundRect,0.225000X0.225000X0.250000X-0.225000X0.250000X-0.225000X-0.250000X0.225000X-0.250000X0*%
%TD*%
%TA.AperFunction,SMDPad,CuDef*%
%ADD17RoundRect,0.250000X-0.300000X1.000000X-0.300000X-1.000000X0.300000X-1.000000X0.300000X1.000000X0*%
%TD*%
%TA.AperFunction,ComponentPad*%
%ADD18C,0.500000*%
%TD*%
%TA.AperFunction,SMDPad,CuDef*%
%ADD19RoundRect,0.250000X-1.550000X0.920000X-1.550000X-0.920000X1.550000X-0.920000X1.550000X0.920000X0*%
%TD*%
%TA.AperFunction,SMDPad,CuDef*%
%ADD20RoundRect,0.250000X-0.250000X-0.475000X0.250000X-0.475000X0.250000X0.475000X-0.250000X0.475000X0*%
%TD*%
%TA.AperFunction,ComponentPad*%
%ADD21C,5.400000*%
%TD*%
%TA.AperFunction,SMDPad,CuDef*%
%ADD22RoundRect,0.225000X-0.335876X-0.017678X-0.017678X-0.335876X0.335876X0.017678X0.017678X0.335876X0*%
%TD*%
%TA.AperFunction,SMDPad,CuDef*%
%ADD23RoundRect,0.242500X-0.457500X0.242500X-0.457500X-0.242500X0.457500X-0.242500X0.457500X0.242500X0*%
%TD*%
%TA.AperFunction,SMDPad,CuDef*%
%ADD24FreePoly0,270.000000*%
%TD*%
%TA.AperFunction,SMDPad,CuDef*%
%ADD25FreePoly1,270.000000*%
%TD*%
%TA.AperFunction,SMDPad,CuDef*%
%ADD26RoundRect,0.200000X0.275000X-0.200000X0.275000X0.200000X-0.275000X0.200000X-0.275000X-0.200000X0*%
%TD*%
%TA.AperFunction,SMDPad,CuDef*%
%ADD27RoundRect,0.225000X-0.017678X0.335876X-0.335876X0.017678X0.017678X-0.335876X0.335876X-0.017678X0*%
%TD*%
%TA.AperFunction,SMDPad,CuDef*%
%ADD28RoundRect,0.250000X-0.475000X0.250000X-0.475000X-0.250000X0.475000X-0.250000X0.475000X0.250000X0*%
%TD*%
%TA.AperFunction,ComponentPad*%
%ADD29R,1.700000X1.700000*%
%TD*%
%TA.AperFunction,ComponentPad*%
%ADD30C,1.700000*%
%TD*%
%TA.AperFunction,SMDPad,CuDef*%
%ADD31RoundRect,0.200000X-0.275000X0.200000X-0.275000X-0.200000X0.275000X-0.200000X0.275000X0.200000X0*%
%TD*%
%TA.AperFunction,SMDPad,CuDef*%
%ADD32RoundRect,0.225000X-0.225000X-0.250000X0.225000X-0.250000X0.225000X0.250000X-0.225000X0.250000X0*%
%TD*%
%TA.AperFunction,ComponentPad*%
%ADD33RoundRect,0.250000X-0.550000X-0.550000X0.550000X-0.550000X0.550000X0.550000X-0.550000X0.550000X0*%
%TD*%
%TA.AperFunction,ComponentPad*%
%ADD34C,1.600000*%
%TD*%
%TA.AperFunction,SMDPad,CuDef*%
%ADD35RoundRect,0.250000X0.250000X-0.600000X0.250000X0.600000X-0.250000X0.600000X-0.250000X-0.600000X0*%
%TD*%
%TA.AperFunction,SMDPad,CuDef*%
%ADD36RoundRect,0.225000X0.017678X-0.335876X0.335876X-0.017678X-0.017678X0.335876X-0.335876X0.017678X0*%
%TD*%
%TA.AperFunction,SMDPad,CuDef*%
%ADD37RoundRect,0.250000X-0.250000X0.600000X-0.250000X-0.600000X0.250000X-0.600000X0.250000X0.600000X0*%
%TD*%
%TA.AperFunction,SMDPad,CuDef*%
%ADD38RoundRect,0.062500X-0.309359X0.220971X0.220971X-0.309359X0.309359X-0.220971X-0.220971X0.309359X0*%
%TD*%
%TA.AperFunction,SMDPad,CuDef*%
%ADD39RoundRect,0.062500X-0.309359X-0.220971X-0.220971X-0.309359X0.309359X0.220971X0.220971X0.309359X0*%
%TD*%
%TA.AperFunction,HeatsinkPad*%
%ADD40RotRect,5.600000X5.600000X315.000000*%
%TD*%
%TA.AperFunction,SMDPad,CuDef*%
%ADD41RoundRect,0.250000X-0.565685X0.070711X0.070711X-0.565685X0.565685X-0.070711X-0.070711X0.565685X0*%
%TD*%
%TA.AperFunction,SMDPad,CuDef*%
%ADD42RoundRect,0.150000X0.150000X-0.590000X0.150000X0.590000X-0.150000X0.590000X-0.150000X-0.590000X0*%
%TD*%
%TA.AperFunction,SMDPad,CuDef*%
%ADD43R,0.300000X1.400000*%
%TD*%
%TA.AperFunction,SMDPad,CuDef*%
%ADD44R,0.500000X1.400000*%
%TD*%
%TA.AperFunction,ComponentPad*%
%ADD45O,1.300000X2.300000*%
%TD*%
%TA.AperFunction,ComponentPad*%
%ADD46O,1.300000X2.100000*%
%TD*%
%TA.AperFunction,SMDPad,CuDef*%
%ADD47RoundRect,0.500000X2.000000X1.000000X-2.000000X1.000000X-2.000000X-1.000000X2.000000X-1.000000X0*%
%TD*%
%TA.AperFunction,SMDPad,CuDef*%
%ADD48RoundRect,0.225000X-0.250000X0.225000X-0.250000X-0.225000X0.250000X-0.225000X0.250000X0.225000X0*%
%TD*%
%TA.AperFunction,SMDPad,CuDef*%
%ADD49FreePoly0,45.000000*%
%TD*%
%TA.AperFunction,SMDPad,CuDef*%
%ADD50FreePoly1,45.000000*%
%TD*%
%TA.AperFunction,SMDPad,CuDef*%
%ADD51FreePoly0,315.000000*%
%TD*%
%TA.AperFunction,SMDPad,CuDef*%
%ADD52FreePoly1,315.000000*%
%TD*%
%TA.AperFunction,SMDPad,CuDef*%
%ADD53RoundRect,0.225000X0.250000X-0.225000X0.250000X0.225000X-0.250000X0.225000X-0.250000X-0.225000X0*%
%TD*%
%TA.AperFunction,SMDPad,CuDef*%
%ADD54RoundRect,0.250000X0.250000X0.475000X-0.250000X0.475000X-0.250000X-0.475000X0.250000X-0.475000X0*%
%TD*%
%TA.AperFunction,SMDPad,CuDef*%
%ADD55RoundRect,0.075000X-0.441942X-0.548008X0.548008X0.441942X0.441942X0.548008X-0.548008X-0.441942X0*%
%TD*%
%TA.AperFunction,SMDPad,CuDef*%
%ADD56RoundRect,0.075000X0.441942X-0.548008X0.548008X-0.441942X-0.441942X0.548008X-0.548008X0.441942X0*%
%TD*%
%TA.AperFunction,SMDPad,CuDef*%
%ADD57RoundRect,0.225000X0.335876X0.017678X0.017678X0.335876X-0.335876X-0.017678X-0.017678X-0.335876X0*%
%TD*%
%TA.AperFunction,SMDPad,CuDef*%
%ADD58RoundRect,0.087500X-0.225000X-0.087500X0.225000X-0.087500X0.225000X0.087500X-0.225000X0.087500X0*%
%TD*%
%TA.AperFunction,SMDPad,CuDef*%
%ADD59RoundRect,0.087500X-0.087500X-0.225000X0.087500X-0.225000X0.087500X0.225000X-0.087500X0.225000X0*%
%TD*%
%TA.AperFunction,SMDPad,CuDef*%
%ADD60RoundRect,0.220000X-0.380000X0.220000X-0.380000X-0.220000X0.380000X-0.220000X0.380000X0.220000X0*%
%TD*%
%TA.AperFunction,ViaPad*%
%ADD61C,0.600000*%
%TD*%
%TA.AperFunction,Conductor*%
%ADD62C,0.300000*%
%TD*%
%TA.AperFunction,Conductor*%
%ADD63C,0.200000*%
%TD*%
G04 APERTURE END LIST*
D10*
%TA.AperFunction,EtchedComponent*%
%TO.C,JP1*%
G36*
X125878800Y-77399200D02*
G01*
X125278800Y-77399200D01*
X125278800Y-76899200D01*
X125878800Y-76899200D01*
X125878800Y-77399200D01*
G37*
%TD.AperFunction*%
%TA.AperFunction,EtchedComponent*%
%TO.C,JP6*%
G36*
X104528909Y-99730355D02*
G01*
X104175355Y-100083909D01*
X103751091Y-99659645D01*
X104104645Y-99306091D01*
X104528909Y-99730355D01*
G37*
%TD.AperFunction*%
%TA.AperFunction,EtchedComponent*%
%TO.C,JP9*%
G36*
X108338909Y-103540355D02*
G01*
X107985355Y-103893909D01*
X107561091Y-103469645D01*
X107914645Y-103116091D01*
X108338909Y-103540355D01*
G37*
%TD.AperFunction*%
%TA.AperFunction,EtchedComponent*%
%TO.C,JP7*%
G36*
X110243909Y-105445355D02*
G01*
X109890355Y-105798909D01*
X109466091Y-105374645D01*
X109819645Y-105021091D01*
X110243909Y-105445355D01*
G37*
%TD.AperFunction*%
%TA.AperFunction,EtchedComponent*%
%TO.C,JP8*%
G36*
X106433909Y-101635355D02*
G01*
X106080355Y-101988909D01*
X105656091Y-101564645D01*
X106009645Y-101211091D01*
X106433909Y-101635355D01*
G37*
%TD.AperFunction*%
%TD*%
D11*
%TO.P,D3,1*%
%TO.N,Net-(D3-Pad1)*%
X96520000Y-69520000D03*
%TO.P,D3,2*%
%TO.N,VBUS*%
X96520000Y-67640000D03*
%TD*%
D12*
%TO.P,C29,1*%
%TO.N,+3V3*%
X108585000Y-80960000D03*
%TO.P,C29,2*%
%TO.N,GND*%
X108585000Y-79060000D03*
%TD*%
D13*
%TO.P,R17,1*%
%TO.N,Net-(R17-Pad1)*%
X122740000Y-109220000D03*
%TO.P,R17,2*%
%TO.N,GND*%
X121100000Y-109220000D03*
%TD*%
D14*
%TO.P,R10,1*%
%TO.N,+3V3*%
X121100000Y-107442000D03*
%TO.P,R10,2*%
%TO.N,/FPGA_BOOT*%
X122740000Y-107442000D03*
%TD*%
D15*
%TO.P,U5,1,CS#*%
%TO.N,/FPGA_SPI_CS*%
X96800000Y-109215000D03*
%TO.P,U5,2,DO*%
%TO.N,/FPGA_SPI_SI*%
X96800000Y-110485000D03*
%TO.P,U5,3,IO2*%
%TO.N,Net-(U5-IO2)*%
X96800000Y-111765000D03*
%TO.P,U5,4,GND*%
%TO.N,GND*%
X96800000Y-113035000D03*
%TO.P,U5,5,DI*%
%TO.N,/FPGA_SPI_SO*%
X103860000Y-113035000D03*
%TO.P,U5,6,CLK*%
%TO.N,/FPGA_SPI_SCK*%
X103860000Y-111765000D03*
%TO.P,U5,7,IO3*%
%TO.N,Net-(U5-IO3)*%
X103860000Y-110485000D03*
%TO.P,U5,8,VCC*%
%TO.N,+3V3*%
X103860000Y-109215000D03*
%TD*%
D16*
%TO.P,C10,1*%
%TO.N,/NRST*%
X81425000Y-74295000D03*
%TO.P,C10,2*%
%TO.N,GND*%
X79865000Y-74295000D03*
%TD*%
D17*
%TO.P,U2,1,GND*%
%TO.N,GND*%
X125335000Y-68375000D03*
%TO.P,U2,2,VOUT*%
%TO.N,+1V2*%
X127635000Y-68375000D03*
%TO.P,U2,3,VIN*%
%TO.N,VBUS*%
X129935000Y-68375000D03*
D18*
%TO.P,U2,4,VOUT*%
%TO.N,+1V2*%
X128635000Y-62405000D03*
X127635000Y-62405000D03*
D19*
X127635000Y-62405000D03*
D18*
X126635000Y-62405000D03*
%TD*%
D20*
%TO.P,C4,1*%
%TO.N,GND*%
X124735000Y-71405000D03*
%TO.P,C4,2*%
%TO.N,+1V2*%
X126635000Y-71405000D03*
%TD*%
D21*
%TO.P,H2,1,1*%
%TO.N,unconnected-(H2-Pad1)*%
X136000000Y-64000000D03*
%TD*%
D13*
%TO.P,R8,1*%
%TO.N,/BOOT0*%
X122740000Y-100330000D03*
%TO.P,R8,2*%
%TO.N,GND*%
X121100000Y-100330000D03*
%TD*%
%TO.P,R21,1*%
%TO.N,+3V3*%
X122486000Y-76200000D03*
%TO.P,R21,2*%
%TO.N,/FPGA_NRST*%
X120846000Y-76200000D03*
%TD*%
D22*
%TO.P,C24,1*%
%TO.N,+3V3*%
X116542457Y-91396457D03*
%TO.P,C24,2*%
%TO.N,GND*%
X117645543Y-92499543D03*
%TD*%
D23*
%TO.P,D5,1*%
%TO.N,Net-(D5-Pad1)*%
X104140000Y-121920000D03*
%TO.P,D5,2*%
%TO.N,/OUT0*%
X104140000Y-123800000D03*
%TD*%
D24*
%TO.P,JP1,1,A*%
%TO.N,+3V3*%
X125578800Y-76499200D03*
D25*
%TO.P,JP1,2,B*%
%TO.N,+2V5*%
X125578800Y-77799200D03*
%TD*%
D26*
%TO.P,R23,1*%
%TO.N,Net-(D5-Pad1)*%
X104140000Y-119870000D03*
%TO.P,R23,2*%
%TO.N,GND*%
X104140000Y-118230000D03*
%TD*%
D16*
%TO.P,C27,1*%
%TO.N,+1V2*%
X105682000Y-84582000D03*
%TO.P,C27,2*%
%TO.N,GND*%
X104122000Y-84582000D03*
%TD*%
D13*
%TO.P,R30,1*%
%TO.N,+3V3*%
X93060000Y-122095000D03*
%TO.P,R30,2*%
%TO.N,Net-(S3-B)*%
X91420000Y-122095000D03*
%TD*%
D20*
%TO.P,C1,1*%
%TO.N,GND*%
X74185000Y-71425000D03*
%TO.P,C1,2*%
%TO.N,VBUS*%
X76085000Y-71425000D03*
%TD*%
D27*
%TO.P,C30,1*%
%TO.N,+3V3*%
X108247543Y-94444457D03*
%TO.P,C30,2*%
%TO.N,GND*%
X107144457Y-95547543D03*
%TD*%
D28*
%TO.P,C23,1*%
%TO.N,+3V3*%
X121666000Y-91506000D03*
%TO.P,C23,2*%
%TO.N,GND*%
X121666000Y-93406000D03*
%TD*%
D21*
%TO.P,H1,1,1*%
%TO.N,unconnected-(H1-Pad1)*%
X64000000Y-64000000D03*
%TD*%
D27*
%TO.P,C7,1*%
%TO.N,+2V5*%
X109263543Y-95460457D03*
%TO.P,C7,2*%
%TO.N,GND*%
X108160457Y-96563543D03*
%TD*%
D11*
%TO.P,D2,1*%
%TO.N,Net-(D2-Pad1)*%
X99060000Y-69520000D03*
%TO.P,D2,2*%
%TO.N,+3V3*%
X99060000Y-67640000D03*
%TD*%
D29*
%TO.P,J4,1,Pin_1*%
%TO.N,+3V3*%
X69850000Y-123190000D03*
D30*
%TO.P,J4,2,Pin_2*%
%TO.N,GND*%
X69850000Y-125730000D03*
%TD*%
D20*
%TO.P,C2,1*%
%TO.N,GND*%
X128735000Y-71405000D03*
%TO.P,C2,2*%
%TO.N,VBUS*%
X130635000Y-71405000D03*
%TD*%
D22*
%TO.P,C26,1*%
%TO.N,+1V2*%
X115018457Y-93809457D03*
%TO.P,C26,2*%
%TO.N,GND*%
X116121543Y-94912543D03*
%TD*%
D13*
%TO.P,R38,1*%
%TO.N,Net-(J16-CC2)*%
X109590000Y-69850000D03*
%TO.P,R38,2*%
%TO.N,GND*%
X107950000Y-69850000D03*
%TD*%
D29*
%TO.P,J10,1,Pin_1*%
%TO.N,/RGB0*%
X133350000Y-90170000D03*
D30*
%TO.P,J10,2,Pin_2*%
%TO.N,/RGB1*%
X133350000Y-87630000D03*
%TO.P,J10,3,Pin_3*%
%TO.N,/RGB2*%
X133350000Y-85090000D03*
%TD*%
D31*
%TO.P,R5,1*%
%TO.N,Net-(D2-Pad1)*%
X99060000Y-71570000D03*
%TO.P,R5,2*%
%TO.N,GND*%
X99060000Y-73210000D03*
%TD*%
D16*
%TO.P,C16,1*%
%TO.N,+3V3*%
X82550000Y-104394000D03*
%TO.P,C16,2*%
%TO.N,GND*%
X80990000Y-104394000D03*
%TD*%
D14*
%TO.P,R3,1*%
%TO.N,Net-(J1-CC1)*%
X91059000Y-69850000D03*
%TO.P,R3,2*%
%TO.N,GND*%
X92699000Y-69850000D03*
%TD*%
D32*
%TO.P,C32,1*%
%TO.N,/BTN1*%
X114025000Y-120345000D03*
%TO.P,C32,2*%
%TO.N,GND*%
X115585000Y-120345000D03*
%TD*%
D33*
%TO.P,SW1,1*%
%TO.N,/BOOT0*%
X125730000Y-100330000D03*
D34*
%TO.P,SW1,2*%
%TO.N,/BOOT1*%
X125730000Y-102870000D03*
%TO.P,SW1,3*%
%TO.N,/FPGA_BOOT*%
X125730000Y-105410000D03*
%TO.P,SW1,4*%
%TO.N,/FPGA_SPI_CS*%
X125730000Y-107950000D03*
%TO.P,SW1,5*%
%TO.N,/IN0*%
X125730000Y-110490000D03*
%TO.P,SW1,6*%
%TO.N,/FPGA_GLOBAL_0*%
X125730000Y-113030000D03*
%TO.P,SW1,7*%
%TO.N,/IN2*%
X125730000Y-115570000D03*
%TO.P,SW1,8*%
%TO.N,/FPGA_GLOBAL_1*%
X125730000Y-118110000D03*
%TO.P,SW1,9*%
%TO.N,+3V3*%
X133350000Y-118110000D03*
%TO.P,SW1,10*%
X133350000Y-115570000D03*
%TO.P,SW1,11*%
X133350000Y-113030000D03*
%TO.P,SW1,12*%
X133350000Y-110490000D03*
%TO.P,SW1,13*%
%TO.N,Net-(R18-Pad1)*%
X133350000Y-107950000D03*
%TO.P,SW1,14*%
%TO.N,Net-(R17-Pad1)*%
X133350000Y-105410000D03*
%TO.P,SW1,15*%
%TO.N,Net-(R16-Pad1)*%
X133350000Y-102870000D03*
%TO.P,SW1,16*%
%TO.N,Net-(R15-Pad1)*%
X133350000Y-100330000D03*
%TD*%
D31*
%TO.P,R6,1*%
%TO.N,Net-(D3-Pad1)*%
X96520000Y-71545000D03*
%TO.P,R6,2*%
%TO.N,GND*%
X96520000Y-73185000D03*
%TD*%
%TO.P,R41,1*%
%TO.N,Net-(U6-CS)*%
X88340000Y-109182000D03*
%TO.P,R41,2*%
%TO.N,GND*%
X88340000Y-110822000D03*
%TD*%
%TO.P,R28,1*%
%TO.N,+3V3*%
X94488000Y-109035000D03*
%TO.P,R28,2*%
%TO.N,Net-(U5-IO2)*%
X94488000Y-110675000D03*
%TD*%
D23*
%TO.P,D7,1*%
%TO.N,Net-(D7-Pad1)*%
X99060000Y-121920000D03*
%TO.P,D7,2*%
%TO.N,/OUT2*%
X99060000Y-123800000D03*
%TD*%
%TO.P,D4,1*%
%TO.N,GND*%
X104140000Y-67640000D03*
%TO.P,D4,2*%
%TO.N,Net-(U4B-CDONE)*%
X104140000Y-69520000D03*
%TD*%
D21*
%TO.P,H4,1,1*%
%TO.N,unconnected-(H4-Pad1)*%
X136000000Y-126000000D03*
%TD*%
D35*
%TO.P,S3,1,A*%
%TO.N,unconnected-(S3-A-Pad1)*%
X85780000Y-125220000D03*
%TO.P,S3,2,B*%
%TO.N,Net-(S3-B)*%
X85780000Y-118620000D03*
%TO.P,S3,3,C*%
%TO.N,unconnected-(S3-C-Pad3)*%
X89480000Y-125220000D03*
%TO.P,S3,4,D*%
%TO.N,/BTN0*%
X89480000Y-118620000D03*
%TD*%
D31*
%TO.P,R19,1*%
%TO.N,+3V3*%
X79756000Y-77920000D03*
%TO.P,R19,2*%
%TO.N,/I2C1_SDA*%
X79756000Y-79560000D03*
%TD*%
D16*
%TO.P,C31,1*%
%TO.N,+3V3*%
X101110000Y-114935000D03*
%TO.P,C31,2*%
%TO.N,GND*%
X99550000Y-114935000D03*
%TD*%
D36*
%TO.P,C12,1*%
%TO.N,+3V3*%
X81026000Y-85598000D03*
%TO.P,C12,2*%
%TO.N,GND*%
X82129086Y-84494914D03*
%TD*%
D17*
%TO.P,U1,1,GND*%
%TO.N,GND*%
X70725000Y-68375000D03*
%TO.P,U1,2,VOUT*%
%TO.N,+3V3*%
X73025000Y-68375000D03*
%TO.P,U1,3,VIN*%
%TO.N,VBUS*%
X75325000Y-68375000D03*
D18*
%TO.P,U1,4,VOUT*%
%TO.N,+3V3*%
X74025000Y-62405000D03*
X73025000Y-62405000D03*
D19*
X73025000Y-62405000D03*
D18*
X72025000Y-62405000D03*
%TD*%
D27*
%TO.P,C8,1*%
%TO.N,+3V3*%
X98893086Y-91352914D03*
%TO.P,C8,2*%
%TO.N,GND*%
X97790000Y-92456000D03*
%TD*%
D13*
%TO.P,R33,1*%
%TO.N,+3V3*%
X115625000Y-122095000D03*
%TO.P,R33,2*%
%TO.N,Net-(S4-B)*%
X113985000Y-122095000D03*
%TD*%
D37*
%TO.P,S1,1,A*%
%TO.N,unconnected-(S1-A-Pad1)*%
X82495000Y-65280000D03*
%TO.P,S1,2,B*%
%TO.N,/NRST*%
X82495000Y-71880000D03*
%TO.P,S1,3,C*%
%TO.N,unconnected-(S1-C-Pad3)*%
X78795000Y-65280000D03*
%TO.P,S1,4,D*%
%TO.N,GND*%
X78795000Y-71880000D03*
%TD*%
D29*
%TO.P,J7,1,Pin_1*%
%TO.N,/IN0*%
X129540000Y-124460000D03*
D30*
%TO.P,J7,2,Pin_2*%
%TO.N,/FPGA_GLOBAL_0*%
X127000000Y-124460000D03*
%TO.P,J7,3,Pin_3*%
%TO.N,/IN2*%
X124460000Y-124460000D03*
%TO.P,J7,4,Pin_4*%
%TO.N,/FPGA_GLOBAL_1*%
X121920000Y-124460000D03*
%TD*%
D16*
%TO.P,C18,1*%
%TO.N,+3.3VA*%
X82550000Y-99454000D03*
%TO.P,C18,2*%
%TO.N,GND*%
X80990000Y-99454000D03*
%TD*%
D26*
%TO.P,R22,1*%
%TO.N,+3V3*%
X104140000Y-73185000D03*
%TO.P,R22,2*%
%TO.N,Net-(U4B-CDONE)*%
X104140000Y-71545000D03*
%TD*%
%TO.P,R25,1*%
%TO.N,Net-(D7-Pad1)*%
X99060000Y-119870000D03*
%TO.P,R25,2*%
%TO.N,GND*%
X99060000Y-118230000D03*
%TD*%
D35*
%TO.P,S4,1,A*%
%TO.N,unconnected-(S4-A-Pad1)*%
X108005000Y-125220000D03*
%TO.P,S4,2,B*%
%TO.N,Net-(S4-B)*%
X108005000Y-118620000D03*
%TO.P,S4,3,C*%
%TO.N,unconnected-(S4-C-Pad3)*%
X111705000Y-125220000D03*
%TO.P,S4,4,D*%
%TO.N,/BTN1*%
X111705000Y-118620000D03*
%TD*%
D32*
%TO.P,C34,1*%
%TO.N,+3V3*%
X84310000Y-114252000D03*
%TO.P,C34,2*%
%TO.N,GND*%
X85870000Y-114252000D03*
%TD*%
D26*
%TO.P,R26,1*%
%TO.N,Net-(D8-Pad1)*%
X96520000Y-119870000D03*
%TO.P,R26,2*%
%TO.N,GND*%
X96520000Y-118230000D03*
%TD*%
D31*
%TO.P,R42,1*%
%TO.N,/FPGA_USB_D-*%
X112395000Y-75576000D03*
%TO.P,R42,2*%
%TO.N,/FUD-*%
X112395000Y-77216000D03*
%TD*%
D21*
%TO.P,H3,1,1*%
%TO.N,unconnected-(H3-Pad1)*%
X64000000Y-126000000D03*
%TD*%
D38*
%TO.P,U4,1,VCCIO_2*%
%TO.N,+3V3*%
X110638864Y-84524777D03*
%TO.P,U4,2,IOB_6a*%
%TO.N,/USART1_RX*%
X110285311Y-84878330D03*
%TO.P,U4,3,IOB_9b*%
%TO.N,/USART1_TX*%
X109931757Y-85231884D03*
%TO.P,U4,4,IOB_8a*%
%TO.N,/SPI2_MOSI*%
X109578204Y-85585437D03*
%TO.P,U4,5,VCC*%
%TO.N,+1V2*%
X109224651Y-85938990D03*
%TO.P,U4,6,IOB_13b*%
%TO.N,/SPI2_MISO*%
X108871097Y-86292544D03*
%TO.P,U4,7,CDONE*%
%TO.N,Net-(U4B-CDONE)*%
X108517544Y-86646097D03*
%TO.P,U4,8,~{CRESET}*%
%TO.N,/FPGA_NRST*%
X108163990Y-86999651D03*
%TO.P,U4,9,IOB_16a*%
%TO.N,/FPGA_BOOT*%
X107810437Y-87353204D03*
%TO.P,U4,10,IOB_18a*%
%TO.N,/SPI2_SCK*%
X107456884Y-87706757D03*
%TO.P,U4,11,IOB_20a*%
%TO.N,/SPI2_NSS*%
X107103330Y-88060311D03*
%TO.P,U4,12,IOB_22a*%
%TO.N,/FPGA_BUS0*%
X106749777Y-88413864D03*
D39*
%TO.P,U4,13,IOB_24a*%
%TO.N,/FPGA_BUS1*%
X106749777Y-89386136D03*
%TO.P,U4,14,IOB_32a_SPI_SO*%
%TO.N,Net-(JP6-B)*%
X107103330Y-89739689D03*
%TO.P,U4,15,IOB_34a_SPI_SCK*%
%TO.N,Net-(JP8-B)*%
X107456884Y-90093243D03*
%TO.P,U4,16,IOB_35b_SPI_SS*%
%TO.N,Net-(JP9-B)*%
X107810437Y-90446796D03*
%TO.P,U4,17,IOB_33b_SPI_SI*%
%TO.N,Net-(JP7-B)*%
X108163990Y-90800349D03*
%TO.P,U4,18,IOB_31b*%
%TO.N,/I2C1_SDA*%
X108517544Y-91153903D03*
%TO.P,U4,19,IOB_29b*%
%TO.N,/I2C1_SCL*%
X108871097Y-91507456D03*
%TO.P,U4,20,IOB_25b_G3*%
%TO.N,/FPGA_CLK*%
X109224651Y-91861010D03*
%TO.P,U4,21,IOB_23b*%
%TO.N,unconnected-(U4B-IOB_23b-Pad21)*%
X109578204Y-92214563D03*
%TO.P,U4,22,SPI_VCCIO1*%
%TO.N,+3V3*%
X109931757Y-92568116D03*
%TO.P,U4,23,IOT_37a*%
%TO.N,/FPGA_IO_3*%
X110285311Y-92921670D03*
%TO.P,U4,24,VPP_2V5*%
%TO.N,+2V5*%
X110638864Y-93275223D03*
D38*
%TO.P,U4,25,IOT_36b*%
%TO.N,/OUT0*%
X111611136Y-93275223D03*
%TO.P,U4,26,IOT_39a*%
%TO.N,/OUT1*%
X111964689Y-92921670D03*
%TO.P,U4,27,IOT_38b*%
%TO.N,/OUT2*%
X112318243Y-92568116D03*
%TO.P,U4,28,IOT_41a*%
%TO.N,/OUT3*%
X112671796Y-92214563D03*
%TO.P,U4,29,VCCPLL*%
%TO.N,/VCCPLL*%
X113025349Y-91861010D03*
%TO.P,U4,30,VCC*%
%TO.N,+1V2*%
X113378903Y-91507456D03*
%TO.P,U4,31,IOT_42b*%
%TO.N,/BTN0*%
X113732456Y-91153903D03*
%TO.P,U4,32,IOT_43a*%
%TO.N,/BTN1*%
X114086010Y-90800349D03*
%TO.P,U4,33,VCCIO_0*%
%TO.N,+3V3*%
X114439563Y-90446796D03*
%TO.P,U4,34,IOT_44b*%
%TO.N,/IN0*%
X114793116Y-90093243D03*
%TO.P,U4,35,IOT_46b_G0*%
%TO.N,/FPGA_GLOBAL_0*%
X115146670Y-89739689D03*
%TO.P,U4,36,IOT_48b*%
%TO.N,/IN2*%
X115500223Y-89386136D03*
D39*
%TO.P,U4,37,IOT_45a_G1*%
%TO.N,/FPGA_GLOBAL_1*%
X115500223Y-88413864D03*
%TO.P,U4,38,IOT_50b*%
%TO.N,/FPGA_IO_2*%
X115146670Y-88060311D03*
%TO.P,U4,39,RGB0*%
%TO.N,/RGB0*%
X114793116Y-87706757D03*
%TO.P,U4,40,RGB1*%
%TO.N,/RGB1*%
X114439563Y-87353204D03*
%TO.P,U4,41,RGB2*%
%TO.N,/RGB2*%
X114086010Y-86999651D03*
%TO.P,U4,42,IOT_51a*%
%TO.N,/FPGA_IO_1*%
X113732456Y-86646097D03*
%TO.P,U4,43,IOT_49a*%
%TO.N,/FUPP*%
X113378903Y-86292544D03*
%TO.P,U4,44,IOB_3b_G6*%
%TO.N,/FPGA_GLOBAL_6*%
X113025349Y-85938990D03*
%TO.P,U4,45,IOB_5b*%
%TO.N,/FUD-*%
X112671796Y-85585437D03*
%TO.P,U4,46,IOB_0a*%
%TO.N,unconnected-(U4C-IOB_0a-Pad46)*%
X112318243Y-85231884D03*
%TO.P,U4,47,IOB_2a*%
%TO.N,/FPGA_IO_0*%
X111964689Y-84878330D03*
%TO.P,U4,48,IOB_4a*%
%TO.N,/FUD+*%
X111611136Y-84524777D03*
D40*
%TO.P,U4,49,GND*%
%TO.N,GND*%
X111125000Y-88900000D03*
%TD*%
D41*
%TO.P,X1,1,OSC*%
%TO.N,/OSC_IN*%
X78609929Y-95729437D03*
%TO.P,X1,2,GND*%
%TO.N,GND*%
X80165563Y-97285071D03*
%TO.P,X1,3,OSC*%
%TO.N,/OSC_OUT*%
X81410071Y-96040563D03*
%TO.P,X1,4,GND*%
%TO.N,GND*%
X79854437Y-94484929D03*
%TD*%
D42*
%TO.P,Q1,1,G*%
%TO.N,+1V2*%
X99380000Y-77140000D03*
%TO.P,Q1,2,S*%
%TO.N,GND*%
X101280000Y-77140000D03*
%TO.P,Q1,3,D*%
%TO.N,Net-(Q1-D)*%
X100330000Y-75260000D03*
%TD*%
D20*
%TO.P,C5,1*%
%TO.N,+2V5*%
X127878800Y-78399200D03*
%TO.P,C5,2*%
%TO.N,GND*%
X129778800Y-78399200D03*
%TD*%
D43*
%TO.P,J16,A5,CC1*%
%TO.N,Net-(J16-CC1)*%
X112363000Y-67524000D03*
%TO.P,J16,A6,D+*%
%TO.N,/FPGA_USB_D+*%
X111363000Y-67524000D03*
%TO.P,J16,A7,D-*%
%TO.N,/FPGA_USB_D-*%
X110863000Y-67524000D03*
%TO.P,J16,A8,SBU1*%
%TO.N,unconnected-(J16-SBU1-PadA8)*%
X109863000Y-67524000D03*
D44*
%TO.P,J16,A9B4,VBUS*%
%TO.N,VBUS*%
X108713000Y-67524000D03*
%TO.P,J16,A12B1,GND*%
%TO.N,GND*%
X107913000Y-67524000D03*
D43*
%TO.P,J16,B5,CC2*%
%TO.N,Net-(J16-CC2)*%
X109363000Y-67524000D03*
%TO.P,J16,B6,D+*%
%TO.N,/FPGA_USB_D+*%
X110363000Y-67524000D03*
%TO.P,J16,B7,D-*%
%TO.N,/FPGA_USB_D-*%
X111863000Y-67524000D03*
%TO.P,J16,B8,SBU2*%
%TO.N,unconnected-(J16-SBU2-PadB8)*%
X112863000Y-67524000D03*
D44*
%TO.P,J16,B9A4,VBUS*%
%TO.N,VBUS*%
X113513000Y-67524000D03*
%TO.P,J16,B12A1,GND*%
%TO.N,GND*%
X114313000Y-67524000D03*
D45*
%TO.P,J16,S1,SHIELD*%
X115443000Y-66844000D03*
D46*
X115443000Y-62644000D03*
D18*
X113113000Y-64024000D03*
X113113000Y-62024000D03*
D47*
X111113000Y-63024000D03*
D18*
X109113000Y-64024000D03*
X109113000Y-62024000D03*
D45*
X106783000Y-66844000D03*
D46*
X106783000Y-62644000D03*
%TD*%
D14*
%TO.P,R14,1*%
%TO.N,GND*%
X121100000Y-118110000D03*
%TO.P,R14,2*%
%TO.N,/FPGA_GLOBAL_1*%
X122740000Y-118110000D03*
%TD*%
%TO.P,R9,1*%
%TO.N,GND*%
X121100000Y-103886000D03*
%TO.P,R9,2*%
%TO.N,/BOOT1*%
X122740000Y-103886000D03*
%TD*%
D29*
%TO.P,J2,1,Pin_1*%
%TO.N,/PA15*%
X66040000Y-80010000D03*
D30*
%TO.P,J2,2,Pin_2*%
%TO.N,/PC10*%
X66040000Y-82550000D03*
%TO.P,J2,3,Pin_3*%
%TO.N,/PC11*%
X66040000Y-85090000D03*
%TO.P,J2,4,Pin_4*%
%TO.N,/PC12*%
X66040000Y-87630000D03*
%TO.P,J2,5,Pin_5*%
%TO.N,/PD2*%
X66040000Y-90170000D03*
%TO.P,J2,6,Pin_6*%
%TO.N,/PB4*%
X66040000Y-92710000D03*
%TO.P,J2,7,Pin_7*%
%TO.N,/PB9*%
X66040000Y-95250000D03*
%TO.P,J2,8,Pin_8*%
%TO.N,/PC13*%
X66040000Y-97790000D03*
%TO.P,J2,9,Pin_9*%
%TO.N,/PC14*%
X66040000Y-100330000D03*
%TO.P,J2,10,Pin_10*%
%TO.N,/PC15*%
X66040000Y-102870000D03*
%TO.P,J2,11,Pin_11*%
%TO.N,/PC0*%
X66040000Y-105410000D03*
%TO.P,J2,12,Pin_12*%
%TO.N,/PC1*%
X66040000Y-107950000D03*
%TO.P,J2,13,Pin_13*%
%TO.N,/PC2*%
X66040000Y-110490000D03*
%TO.P,J2,14,Pin_14*%
%TO.N,/PC3*%
X66040000Y-113030000D03*
%TO.P,J2,15,Pin_15*%
%TO.N,/PA0*%
X66040000Y-115570000D03*
%TO.P,J2,16,Pin_16*%
%TO.N,/PA1*%
X66040000Y-118110000D03*
%TD*%
D26*
%TO.P,R27,1*%
%TO.N,Net-(D9-Pad1)*%
X89535000Y-75115000D03*
%TO.P,R27,2*%
%TO.N,GND*%
X89535000Y-73475000D03*
%TD*%
D20*
%TO.P,C3,1*%
%TO.N,GND*%
X70375000Y-71425000D03*
%TO.P,C3,2*%
%TO.N,+3V3*%
X72275000Y-71425000D03*
%TD*%
D48*
%TO.P,C33,1*%
%TO.N,+3V3*%
X88392000Y-112758000D03*
%TO.P,C33,2*%
%TO.N,GND*%
X88392000Y-114318000D03*
%TD*%
D13*
%TO.P,R16,1*%
%TO.N,Net-(R16-Pad1)*%
X122740000Y-105664000D03*
%TO.P,R16,2*%
%TO.N,+3V3*%
X121100000Y-105664000D03*
%TD*%
D23*
%TO.P,D8,1*%
%TO.N,Net-(D8-Pad1)*%
X96520000Y-121920000D03*
%TO.P,D8,2*%
%TO.N,/OUT3*%
X96520000Y-123800000D03*
%TD*%
D14*
%TO.P,R34,1*%
%TO.N,Net-(U6-SDO{slash}SA0)*%
X84270000Y-107502000D03*
%TO.P,R34,2*%
%TO.N,GND*%
X85910000Y-107502000D03*
%TD*%
D49*
%TO.P,JP6,1,A*%
%TO.N,/FPGA_SPI_SO*%
X103680381Y-100154619D03*
D50*
%TO.P,JP6,2,B*%
%TO.N,Net-(JP6-B)*%
X104599619Y-99235381D03*
%TD*%
D22*
%TO.P,C13,1*%
%TO.N,+3V3*%
X92031457Y-79331457D03*
%TO.P,C13,2*%
%TO.N,GND*%
X93134543Y-80434543D03*
%TD*%
D13*
%TO.P,R15,1*%
%TO.N,Net-(R15-Pad1)*%
X122740000Y-102108000D03*
%TO.P,R15,2*%
%TO.N,+3V3*%
X121100000Y-102108000D03*
%TD*%
D31*
%TO.P,R2,1*%
%TO.N,Net-(D1-Pad1)*%
X101600000Y-71570000D03*
%TO.P,R2,2*%
%TO.N,Net-(Q1-D)*%
X101600000Y-73210000D03*
%TD*%
D32*
%TO.P,C28,1*%
%TO.N,/BTN0*%
X91460000Y-120345000D03*
%TO.P,C28,2*%
%TO.N,GND*%
X93020000Y-120345000D03*
%TD*%
D27*
%TO.P,C19,1*%
%TO.N,+3.3VA*%
X85387543Y-96984457D03*
%TO.P,C19,2*%
%TO.N,GND*%
X84284457Y-98087543D03*
%TD*%
D11*
%TO.P,D1,1*%
%TO.N,Net-(D1-Pad1)*%
X101600000Y-69520000D03*
%TO.P,D1,2*%
%TO.N,VBUS*%
X101600000Y-67640000D03*
%TD*%
D23*
%TO.P,D6,1*%
%TO.N,Net-(D6-Pad1)*%
X101600000Y-121920000D03*
%TO.P,D6,2*%
%TO.N,/OUT1*%
X101600000Y-123800000D03*
%TD*%
D51*
%TO.P,JP3,1,A*%
%TO.N,/SPI1_SCK*%
X92250381Y-103045381D03*
D52*
%TO.P,JP3,2,B*%
%TO.N,/FPGA_SPI_SCK*%
X93169619Y-103964619D03*
%TD*%
D53*
%TO.P,C25,1*%
%TO.N,+3V3*%
X110490000Y-82314000D03*
%TO.P,C25,2*%
%TO.N,GND*%
X110490000Y-80754000D03*
%TD*%
D20*
%TO.P,C22,1*%
%TO.N,+3V3*%
X127878800Y-76149200D03*
%TO.P,C22,2*%
%TO.N,GND*%
X129778800Y-76149200D03*
%TD*%
D49*
%TO.P,JP9,1,A*%
%TO.N,/FPGA_SPI_CS*%
X107490381Y-103964619D03*
D50*
%TO.P,JP9,2,B*%
%TO.N,Net-(JP9-B)*%
X108409619Y-103045381D03*
%TD*%
D54*
%TO.P,C15,1*%
%TO.N,+3V3*%
X79817000Y-90297000D03*
%TO.P,C15,2*%
%TO.N,GND*%
X77917000Y-90297000D03*
%TD*%
D31*
%TO.P,R36,1*%
%TO.N,Net-(U6-SCX)*%
X81840000Y-112682000D03*
%TO.P,R36,2*%
%TO.N,GND*%
X81840000Y-114322000D03*
%TD*%
D13*
%TO.P,R18,1*%
%TO.N,Net-(R18-Pad1)*%
X122740000Y-110998000D03*
%TO.P,R18,2*%
%TO.N,GND*%
X121100000Y-110998000D03*
%TD*%
D55*
%TO.P,U3,1,VBAT*%
%TO.N,+3V3*%
X82870519Y-90261181D03*
%TO.P,U3,2,PC13*%
%TO.N,/PC13*%
X83224072Y-90614734D03*
%TO.P,U3,3,PC14*%
%TO.N,/PC14*%
X83577625Y-90968287D03*
%TO.P,U3,4,PC15*%
%TO.N,/PC15*%
X83931179Y-91321841D03*
%TO.P,U3,5,PH0*%
%TO.N,/OSC_IN*%
X84284732Y-91675394D03*
%TO.P,U3,6,PH1*%
%TO.N,/OSC_OUT*%
X84638286Y-92028948D03*
%TO.P,U3,7,NRST*%
%TO.N,/NRST*%
X84991839Y-92382501D03*
%TO.P,U3,8,PC0*%
%TO.N,/PC0*%
X85345392Y-92736054D03*
%TO.P,U3,9,PC1*%
%TO.N,/PC1*%
X85698946Y-93089608D03*
%TO.P,U3,10,PC2*%
%TO.N,/PC2*%
X86052499Y-93443161D03*
%TO.P,U3,11,PC3*%
%TO.N,/PC3*%
X86406052Y-93796714D03*
%TO.P,U3,12,VSSA*%
%TO.N,GND*%
X86759606Y-94150268D03*
%TO.P,U3,13,VDDA*%
%TO.N,+3.3VA*%
X87113159Y-94503821D03*
%TO.P,U3,14,PA0*%
%TO.N,/PA0*%
X87466713Y-94857375D03*
%TO.P,U3,15,PA1*%
%TO.N,/PA1*%
X87820266Y-95210928D03*
%TO.P,U3,16,PA2*%
%TO.N,/USART2_TX*%
X88173819Y-95564481D03*
D56*
%TO.P,U3,17,PA3*%
%TO.N,/USART2_RX*%
X90896181Y-95564481D03*
%TO.P,U3,18,VSS*%
%TO.N,GND*%
X91249734Y-95210928D03*
%TO.P,U3,19,VDD*%
%TO.N,+3V3*%
X91603287Y-94857375D03*
%TO.P,U3,20,PA4*%
%TO.N,Net-(JP2-A)*%
X91956841Y-94503821D03*
%TO.P,U3,21,PA5*%
%TO.N,/SPI1_SCK*%
X92310394Y-94150268D03*
%TO.P,U3,22,PA6*%
%TO.N,/SPI1_MISO*%
X92663948Y-93796714D03*
%TO.P,U3,23,PA7*%
%TO.N,/SPI1_MOSI*%
X93017501Y-93443161D03*
%TO.P,U3,24,PC4*%
%TO.N,/FPGA_BUS1*%
X93371054Y-93089608D03*
%TO.P,U3,25,PC5*%
%TO.N,/FPGA_BUS0*%
X93724608Y-92736054D03*
%TO.P,U3,26,PB0*%
%TO.N,/I2S5_CK*%
X94078161Y-92382501D03*
%TO.P,U3,27,PB1*%
%TO.N,/I2S5_WS*%
X94431714Y-92028948D03*
%TO.P,U3,28,PB2*%
%TO.N,/BOOT1*%
X94785268Y-91675394D03*
%TO.P,U3,29,PB10*%
%TO.N,unconnected-(U3-PB10-Pad29)*%
X95138821Y-91321841D03*
%TO.P,U3,30,VCAP_1*%
%TO.N,Net-(U3-VCAP_1)*%
X95492375Y-90968287D03*
%TO.P,U3,31,VSS*%
%TO.N,GND*%
X95845928Y-90614734D03*
%TO.P,U3,32,VDD*%
%TO.N,+3V3*%
X96199481Y-90261181D03*
D55*
%TO.P,U3,33,PB12*%
%TO.N,/SPI2_NSS*%
X96199481Y-87538819D03*
%TO.P,U3,34,PB13*%
%TO.N,/SPI2_SCK*%
X95845928Y-87185266D03*
%TO.P,U3,35,PB14*%
%TO.N,/SPI2_MISO*%
X95492375Y-86831713D03*
%TO.P,U3,36,PB15*%
%TO.N,/SPI2_MOSI*%
X95138821Y-86478159D03*
%TO.P,U3,37,PC6*%
%TO.N,unconnected-(U3-PC6-Pad37)*%
X94785268Y-86124606D03*
%TO.P,U3,38,PC7*%
%TO.N,unconnected-(U3-PC7-Pad38)*%
X94431714Y-85771052D03*
%TO.P,U3,39,PC8*%
%TO.N,unconnected-(U3-PC8-Pad39)*%
X94078161Y-85417499D03*
%TO.P,U3,40,PC9*%
%TO.N,/FPGA_CLK*%
X93724608Y-85063946D03*
%TO.P,U3,41,PA8*%
%TO.N,/FPGA_GLOBAL_6*%
X93371054Y-84710392D03*
%TO.P,U3,42,PA9*%
%TO.N,/USART1_TX*%
X93017501Y-84356839D03*
%TO.P,U3,43,PA10*%
%TO.N,/USART1_RX*%
X92663948Y-84003286D03*
%TO.P,U3,44,PA11*%
%TO.N,/USB_D-*%
X92310394Y-83649732D03*
%TO.P,U3,45,PA12*%
%TO.N,/USB_D+*%
X91956841Y-83296179D03*
%TO.P,U3,46,PA13*%
%TO.N,/SWDIO*%
X91603287Y-82942625D03*
%TO.P,U3,47,VSS*%
%TO.N,GND*%
X91249734Y-82589072D03*
%TO.P,U3,48,VDD*%
%TO.N,+3V3*%
X90896181Y-82235519D03*
D56*
%TO.P,U3,49,PA14*%
%TO.N,/SWCLK*%
X88173819Y-82235519D03*
%TO.P,U3,50,PA15*%
%TO.N,/PA15*%
X87820266Y-82589072D03*
%TO.P,U3,51,PC10*%
%TO.N,/PC10*%
X87466713Y-82942625D03*
%TO.P,U3,52,PC11*%
%TO.N,/PC11*%
X87113159Y-83296179D03*
%TO.P,U3,53,PC12*%
%TO.N,/PC12*%
X86759606Y-83649732D03*
%TO.P,U3,54,PD2*%
%TO.N,/PD2*%
X86406052Y-84003286D03*
%TO.P,U3,55,PB3*%
%TO.N,/SWO*%
X86052499Y-84356839D03*
%TO.P,U3,56,PB4*%
%TO.N,/PB4*%
X85698946Y-84710392D03*
%TO.P,U3,57,PB5*%
%TO.N,/OUT_STM*%
X85345392Y-85063946D03*
%TO.P,U3,58,PB6*%
%TO.N,/I2C1_SCL*%
X84991839Y-85417499D03*
%TO.P,U3,59,PB7*%
%TO.N,/I2C1_SDA*%
X84638286Y-85771052D03*
%TO.P,U3,60,BOOT0*%
%TO.N,/BOOT0*%
X84284732Y-86124606D03*
%TO.P,U3,61,PB8*%
%TO.N,/I2S5_SD*%
X83931179Y-86478159D03*
%TO.P,U3,62,PB9*%
%TO.N,/PB9*%
X83577625Y-86831713D03*
%TO.P,U3,63,VSS*%
%TO.N,GND*%
X83224072Y-87185266D03*
%TO.P,U3,64,VDD*%
%TO.N,+3V3*%
X82870519Y-87538819D03*
%TD*%
D49*
%TO.P,JP7,1,A*%
%TO.N,/FPGA_SPI_SI*%
X109395381Y-105869619D03*
D50*
%TO.P,JP7,2,B*%
%TO.N,Net-(JP7-B)*%
X110314619Y-104950381D03*
%TD*%
D29*
%TO.P,J15,1,Pin_1*%
%TO.N,+3V3*%
X69850000Y-115570000D03*
D30*
%TO.P,J15,2,Pin_2*%
%TO.N,/FPGA_SPI_CS*%
X69850000Y-113030000D03*
%TO.P,J15,3,Pin_3*%
%TO.N,/FPGA_SPI_SI*%
X69850000Y-110490000D03*
%TO.P,J15,4,Pin_4*%
%TO.N,/FPGA_SPI_SO*%
X69850000Y-107950000D03*
%TO.P,J15,5,Pin_5*%
%TO.N,/FPGA_SPI_SCK*%
X69850000Y-105410000D03*
%TO.P,J15,6,Pin_6*%
%TO.N,GND*%
X69850000Y-102870000D03*
%TD*%
D14*
%TO.P,R12,1*%
%TO.N,GND*%
X121100000Y-114554000D03*
%TO.P,R12,2*%
%TO.N,/FPGA_GLOBAL_0*%
X122740000Y-114554000D03*
%TD*%
D28*
%TO.P,C9,1*%
%TO.N,/VCCPLL*%
X114808000Y-97830600D03*
%TO.P,C9,2*%
%TO.N,GND*%
X114808000Y-99730600D03*
%TD*%
D57*
%TO.P,C14,1*%
%TO.N,GND*%
X97877086Y-94575086D03*
%TO.P,C14,2*%
%TO.N,Net-(U3-VCAP_1)*%
X96774000Y-93472000D03*
%TD*%
D14*
%TO.P,R1,1*%
%TO.N,+1V2*%
X99510000Y-80010000D03*
%TO.P,R1,2*%
%TO.N,GND*%
X101150000Y-80010000D03*
%TD*%
D29*
%TO.P,J13,1,Pin_1*%
%TO.N,/USART2_TX*%
X69850000Y-118110000D03*
D30*
%TO.P,J13,2,Pin_2*%
%TO.N,/USART2_RX*%
X69850000Y-120650000D03*
%TD*%
D14*
%TO.P,R11,1*%
%TO.N,GND*%
X121100000Y-112776000D03*
%TO.P,R11,2*%
%TO.N,/IN0*%
X122740000Y-112776000D03*
%TD*%
D23*
%TO.P,D9,1*%
%TO.N,Net-(D9-Pad1)*%
X89535000Y-77165000D03*
%TO.P,D9,2*%
%TO.N,/OUT_STM*%
X89535000Y-79045000D03*
%TD*%
D29*
%TO.P,J12,1,Pin_1*%
%TO.N,/I2C1_SCL*%
X66040000Y-74930000D03*
D30*
%TO.P,J12,2,Pin_2*%
%TO.N,/I2C1_SDA*%
X66040000Y-77470000D03*
%TD*%
D43*
%TO.P,J1,A5,CC1*%
%TO.N,Net-(J1-CC1)*%
X90785000Y-67500000D03*
%TO.P,J1,A6,D+*%
%TO.N,/USB_D+*%
X89785000Y-67500000D03*
%TO.P,J1,A7,D-*%
%TO.N,/USB_D-*%
X89285000Y-67500000D03*
%TO.P,J1,A8,SBU1*%
%TO.N,unconnected-(J1-SBU1-PadA8)*%
X88285000Y-67500000D03*
D44*
%TO.P,J1,A9B4,VBUS*%
%TO.N,VBUS*%
X87135000Y-67500000D03*
%TO.P,J1,A12B1,GND*%
%TO.N,GND*%
X86335000Y-67500000D03*
D43*
%TO.P,J1,B5,CC2*%
%TO.N,Net-(J1-CC2)*%
X87785000Y-67500000D03*
%TO.P,J1,B6,D+*%
%TO.N,/USB_D+*%
X88785000Y-67500000D03*
%TO.P,J1,B7,D-*%
%TO.N,/USB_D-*%
X90285000Y-67500000D03*
%TO.P,J1,B8,SBU2*%
%TO.N,unconnected-(J1-SBU2-PadB8)*%
X91285000Y-67500000D03*
D44*
%TO.P,J1,B9A4,VBUS*%
%TO.N,VBUS*%
X91935000Y-67500000D03*
%TO.P,J1,B12A1,GND*%
%TO.N,GND*%
X92735000Y-67500000D03*
D45*
%TO.P,J1,S1,SHIELD*%
X93865000Y-66820000D03*
D46*
X93865000Y-62620000D03*
D18*
X91535000Y-64000000D03*
X91535000Y-62000000D03*
D47*
X89535000Y-63000000D03*
D18*
X87535000Y-64000000D03*
X87535000Y-62000000D03*
D45*
X85205000Y-66820000D03*
D46*
X85205000Y-62620000D03*
%TD*%
D29*
%TO.P,J5,1,Pin_1*%
%TO.N,+3V3*%
X133350000Y-69850000D03*
D30*
%TO.P,J5,2,Pin_2*%
%TO.N,GND*%
X133350000Y-72390000D03*
%TD*%
D29*
%TO.P,J9,1,Pin_1*%
%TO.N,/I2S5_CK*%
X69850000Y-100330000D03*
D30*
%TO.P,J9,2,Pin_2*%
%TO.N,/I2S5_WS*%
X69850000Y-97790000D03*
%TO.P,J9,3,Pin_3*%
%TO.N,/I2S5_SD*%
X69850000Y-95250000D03*
%TD*%
D37*
%TO.P,S2,1,A*%
%TO.N,unconnected-(S2-A-Pad1)*%
X121865000Y-65280000D03*
%TO.P,S2,2,B*%
%TO.N,/FPGA_NRST*%
X121865000Y-71880000D03*
%TO.P,S2,3,C*%
%TO.N,unconnected-(S2-C-Pad3)*%
X118165000Y-65280000D03*
%TO.P,S2,4,D*%
%TO.N,GND*%
X118165000Y-71880000D03*
%TD*%
D26*
%TO.P,R7,1*%
%TO.N,/VCCPLL*%
X116713000Y-98686200D03*
%TO.P,R7,2*%
%TO.N,+1V2*%
X116713000Y-97046200D03*
%TD*%
D31*
%TO.P,R31,1*%
%TO.N,+3V3*%
X106045000Y-109035000D03*
%TO.P,R31,2*%
%TO.N,Net-(U5-IO3)*%
X106045000Y-110675000D03*
%TD*%
%TO.P,R20,1*%
%TO.N,+3V3*%
X81280000Y-77920000D03*
%TO.P,R20,2*%
%TO.N,/I2C1_SCL*%
X81280000Y-79560000D03*
%TD*%
%TO.P,R43,1*%
%TO.N,/FPGA_USB_D+*%
X110871000Y-75576000D03*
%TO.P,R43,2*%
%TO.N,/FUD+*%
X110871000Y-77216000D03*
%TD*%
D13*
%TO.P,R29,1*%
%TO.N,GND*%
X93060000Y-118595000D03*
%TO.P,R29,2*%
%TO.N,/BTN0*%
X91420000Y-118595000D03*
%TD*%
D58*
%TO.P,U6,1,SDO/SA0*%
%TO.N,Net-(U6-SDO{slash}SA0)*%
X83927500Y-110502000D03*
%TO.P,U6,2,SDX*%
%TO.N,Net-(U6-SDX)*%
X83927500Y-111002000D03*
%TO.P,U6,3,SCX*%
%TO.N,Net-(U6-SCX)*%
X83927500Y-111502000D03*
%TO.P,U6,4,INT1*%
%TO.N,unconnected-(U6-INT1-Pad4)*%
X83927500Y-112002000D03*
D59*
%TO.P,U6,5,VDDIO*%
%TO.N,+3V3*%
X84590000Y-112164500D03*
%TO.P,U6,6,GND*%
%TO.N,GND*%
X85090000Y-112164500D03*
%TO.P,U6,7,GND*%
X85590000Y-112164500D03*
D58*
%TO.P,U6,8,VDD*%
%TO.N,+3V3*%
X86252500Y-112002000D03*
%TO.P,U6,9,INT2*%
%TO.N,unconnected-(U6-INT2-Pad9)*%
X86252500Y-111502000D03*
%TO.P,U6,10,NC*%
%TO.N,unconnected-(U6-NC-Pad10)*%
X86252500Y-111002000D03*
%TO.P,U6,11,NC*%
%TO.N,unconnected-(U6-NC-Pad11)*%
X86252500Y-110502000D03*
D59*
%TO.P,U6,12,CS*%
%TO.N,Net-(U6-CS)*%
X85590000Y-110339500D03*
%TO.P,U6,13,SCL*%
%TO.N,/I2C1_SCL*%
X85090000Y-110339500D03*
%TO.P,U6,14,SDA*%
%TO.N,/I2C1_SDA*%
X84590000Y-110339500D03*
%TD*%
D29*
%TO.P,J14,1,Pin_1*%
%TO.N,/USART1_TX*%
X104140000Y-80645000D03*
D30*
%TO.P,J14,2,Pin_2*%
%TO.N,/USART1_RX*%
X104140000Y-78105000D03*
%TD*%
D22*
%TO.P,C20,1*%
%TO.N,/OSC_OUT*%
X83268457Y-94698457D03*
%TO.P,C20,2*%
%TO.N,GND*%
X84371543Y-95801543D03*
%TD*%
D51*
%TO.P,JP5,1,A*%
%TO.N,/SPI1_MOSI*%
X96060381Y-99235381D03*
D52*
%TO.P,JP5,2,B*%
%TO.N,/FPGA_SPI_SO*%
X96979619Y-100154619D03*
%TD*%
D29*
%TO.P,J11,1,Pin_1*%
%TO.N,/FPGA_IO_0*%
X133350000Y-74930000D03*
D30*
%TO.P,J11,2,Pin_2*%
%TO.N,/FPGA_IO_1*%
X133350000Y-77470000D03*
%TO.P,J11,3,Pin_3*%
%TO.N,/FPGA_IO_2*%
X133350000Y-80010000D03*
%TO.P,J11,4,Pin_4*%
%TO.N,/FPGA_IO_3*%
X133350000Y-82550000D03*
%TD*%
D51*
%TO.P,JP4,1,A*%
%TO.N,/SPI1_MISO*%
X94155381Y-101140381D03*
D52*
%TO.P,JP4,2,B*%
%TO.N,/FPGA_SPI_SI*%
X95074619Y-102059619D03*
%TD*%
D13*
%TO.P,R40,1*%
%TO.N,/FUPP*%
X115374000Y-76581000D03*
%TO.P,R40,2*%
%TO.N,/FPGA_USB_D+*%
X113734000Y-76581000D03*
%TD*%
D22*
%TO.P,C6,1*%
%TO.N,/VCCPLL*%
X114256457Y-94952457D03*
%TO.P,C6,2*%
%TO.N,GND*%
X115359543Y-96055543D03*
%TD*%
D29*
%TO.P,J3,1,Pin_1*%
%TO.N,+3V3*%
X69850000Y-80010000D03*
D30*
%TO.P,J3,2,Pin_2*%
%TO.N,/SWCLK*%
X69850000Y-82550000D03*
%TO.P,J3,3,Pin_3*%
%TO.N,/SWDIO*%
X69850000Y-85090000D03*
%TO.P,J3,4,Pin_4*%
%TO.N,/SWO*%
X69850000Y-87630000D03*
%TO.P,J3,5,Pin_5*%
%TO.N,/NRST*%
X69850000Y-90170000D03*
%TO.P,J3,6,Pin_6*%
%TO.N,GND*%
X69850000Y-92710000D03*
%TD*%
D13*
%TO.P,R39,1*%
%TO.N,/FUPP*%
X115374000Y-75184000D03*
%TO.P,R39,2*%
%TO.N,/FPGA_USB_D-*%
X113734000Y-75184000D03*
%TD*%
D16*
%TO.P,C21,1*%
%TO.N,/FPGA_NRST*%
X120795000Y-74280000D03*
%TO.P,C21,2*%
%TO.N,GND*%
X119235000Y-74280000D03*
%TD*%
D22*
%TO.P,C17,1*%
%TO.N,GND*%
X80728457Y-92158457D03*
%TO.P,C17,2*%
%TO.N,/OSC_IN*%
X81831543Y-93261543D03*
%TD*%
D51*
%TO.P,JP2,1,A*%
%TO.N,Net-(JP2-A)*%
X90345381Y-104950381D03*
D52*
%TO.P,JP2,2,B*%
%TO.N,/FPGA_SPI_CS*%
X91264619Y-105869619D03*
%TD*%
D14*
%TO.P,R13,1*%
%TO.N,GND*%
X121100000Y-116332000D03*
%TO.P,R13,2*%
%TO.N,/IN2*%
X122740000Y-116332000D03*
%TD*%
D13*
%TO.P,R32,1*%
%TO.N,GND*%
X115625000Y-118595000D03*
%TO.P,R32,2*%
%TO.N,/BTN1*%
X113985000Y-118595000D03*
%TD*%
D49*
%TO.P,JP8,1,A*%
%TO.N,/FPGA_SPI_SCK*%
X105585381Y-102059619D03*
D50*
%TO.P,JP8,2,B*%
%TO.N,Net-(JP8-B)*%
X106504619Y-101140381D03*
%TD*%
D27*
%TO.P,C11,1*%
%TO.N,+3V3*%
X93261543Y-96603457D03*
%TO.P,C11,2*%
%TO.N,GND*%
X92158457Y-97706543D03*
%TD*%
D14*
%TO.P,R37,1*%
%TO.N,Net-(J16-CC1)*%
X112718000Y-69850000D03*
%TO.P,R37,2*%
%TO.N,GND*%
X114358000Y-69850000D03*
%TD*%
D29*
%TO.P,J6,1,Pin_1*%
%TO.N,+3V3*%
X133350000Y-92710000D03*
D30*
%TO.P,J6,2,Pin_2*%
%TO.N,GND*%
X133350000Y-95250000D03*
%TD*%
D26*
%TO.P,R24,1*%
%TO.N,Net-(D6-Pad1)*%
X101600000Y-119870000D03*
%TO.P,R24,2*%
%TO.N,GND*%
X101600000Y-118230000D03*
%TD*%
D60*
%TO.P,FB1,1*%
%TO.N,+3.3VA*%
X81770000Y-100894000D03*
%TO.P,FB1,2*%
%TO.N,+3V3*%
X81770000Y-103014000D03*
%TD*%
D13*
%TO.P,R4,1*%
%TO.N,Net-(J1-CC2)*%
X87815000Y-69850000D03*
%TO.P,R4,2*%
%TO.N,GND*%
X86175000Y-69850000D03*
%TD*%
D26*
%TO.P,R35,1*%
%TO.N,Net-(U6-SDX)*%
X81840000Y-110822000D03*
%TO.P,R35,2*%
%TO.N,GND*%
X81840000Y-109182000D03*
%TD*%
D61*
%TO.N,/NRST*%
X84455000Y-75057000D03*
X84455000Y-89789000D03*
X73555714Y-86464285D03*
%TO.N,GND*%
X111125000Y-88138000D03*
X111125000Y-89662000D03*
X126619000Y-72771000D03*
X79865000Y-73025000D03*
X107652457Y-96055543D03*
X121100000Y-110109000D03*
X79248000Y-104394000D03*
X81280000Y-83693000D03*
X97790000Y-73152000D03*
X115613543Y-95420543D03*
X121666000Y-94488000D03*
X89535000Y-72644000D03*
X104140000Y-66294000D03*
X89408000Y-110871000D03*
X121100000Y-113665000D03*
X83566000Y-96647000D03*
X114782600Y-100838000D03*
X111887000Y-88900000D03*
X99060000Y-117221000D03*
X101600000Y-117221000D03*
X103124000Y-84582000D03*
X94488000Y-113030000D03*
X119154500Y-72869500D03*
X81788000Y-115316000D03*
X109673500Y-79937500D03*
X87122000Y-114252000D03*
X91440000Y-98425000D03*
X72263000Y-72771000D03*
X121158000Y-103124000D03*
X115585000Y-119380000D03*
X104140000Y-117221000D03*
X129778800Y-77292200D03*
X79052400Y-91432400D03*
X117976000Y-93091000D03*
X121100000Y-117221000D03*
X93060000Y-119507000D03*
X70725000Y-70231000D03*
X81026000Y-98425000D03*
X82931000Y-109093000D03*
X121158000Y-99314000D03*
X96520000Y-117221000D03*
X80538386Y-93619386D03*
X86868000Y-107569000D03*
X93345000Y-79375000D03*
X111125000Y-88900000D03*
X125335000Y-70231000D03*
X110363000Y-88900000D03*
X97877086Y-93599000D03*
X101280000Y-78867000D03*
%TO.N,+3V3*%
X90951957Y-80410957D03*
X87249000Y-112002000D03*
X76962000Y-75057000D03*
X121666000Y-90424000D03*
X106821000Y-109855000D03*
X121100000Y-106553000D03*
X84590000Y-113157000D03*
X93345000Y-109093000D03*
X107442000Y-93853000D03*
X121158000Y-101346000D03*
X103759000Y-114935000D03*
X80137000Y-84709000D03*
X93091000Y-123063000D03*
X81661000Y-90261181D03*
X99060000Y-66294000D03*
X116542457Y-91396457D03*
X92583000Y-96647000D03*
X115570000Y-123063000D03*
X104140000Y-74168000D03*
X82469000Y-103713000D03*
X73025000Y-70231000D03*
X123317000Y-76200000D03*
X127889000Y-74803000D03*
X109474000Y-82042000D03*
X116967000Y-91821000D03*
X97790000Y-91352914D03*
X73025000Y-65278000D03*
%TO.N,/BOOT0*%
X87065990Y-89374741D03*
%TO.N,/BOOT1*%
X95631000Y-93345000D03*
%TO.N,+1V2*%
X127635000Y-70231000D03*
X106934000Y-84582000D03*
X114694724Y-92823276D03*
X99380000Y-78867000D03*
X127635000Y-65528000D03*
X116987827Y-95885000D03*
%TO.N,/VCCPLL*%
X116713000Y-99695000D03*
X114256457Y-96520000D03*
%TO.N,/SWCLK*%
X83439000Y-77343000D03*
%TO.N,/SWDIO*%
X82804000Y-78740000D03*
%TO.N,Net-(U4B-CDONE)*%
X102123883Y-86058000D03*
X102108000Y-81661000D03*
%TO.N,/SWO*%
X82205000Y-79629000D03*
%TO.N,/USART2_TX*%
X88138000Y-96774000D03*
%TO.N,/USART2_RX*%
X90551000Y-96774000D03*
%TO.N,+2V5*%
X127889000Y-79756000D03*
X110638864Y-94234000D03*
%TO.N,VBUS*%
X129935000Y-70231000D03*
X113538000Y-68834000D03*
X101600000Y-66294000D03*
X87122000Y-68834000D03*
X91948000Y-68834000D03*
X108712000Y-68834000D03*
X75325000Y-70231000D03*
X96520000Y-66294000D03*
%TO.N,/FPGA_NRST*%
X102787199Y-86589522D03*
X116459000Y-83566000D03*
%TO.N,/PC2*%
X84963000Y-94869000D03*
%TO.N,/PC14*%
X82042000Y-91821000D03*
%TO.N,/PC12*%
X84396052Y-79382638D03*
%TO.N,/I2S5_WS*%
X92964000Y-90424000D03*
%TO.N,/USART1_TX*%
X106807000Y-82931000D03*
%TO.N,/PC15*%
X82550000Y-92456000D03*
%TO.N,/I2S5_SD*%
X84963000Y-88011000D03*
%TO.N,/FPGA_SPI_SCK*%
X88074500Y-104965500D03*
X95153135Y-104998865D03*
X102552500Y-105092500D03*
%TO.N,/PC1*%
X84328000Y-94234000D03*
%TO.N,/PC0*%
X84074000Y-93472000D03*
%TO.N,/FPGA_SPI_CS*%
X104140000Y-105791000D03*
X93805000Y-106220000D03*
%TO.N,/I2S5_CK*%
X71755000Y-102489000D03*
X92583000Y-91186000D03*
%TO.N,/FPGA_BOOT*%
X103557564Y-86948747D03*
%TO.N,/PC13*%
X81102525Y-90881525D03*
%TO.N,/PC11*%
X85245977Y-79371188D03*
%TO.N,/PC3*%
X87376000Y-92837000D03*
%TO.N,/PC10*%
X86095952Y-79377952D03*
%TO.N,/FPGA_CLK*%
X95059500Y-84518500D03*
X108675395Y-92595195D03*
%TO.N,/FPGA_SPI_SI*%
X105664000Y-106934000D03*
X89281000Y-106045000D03*
X98882525Y-108204000D03*
%TO.N,/FPGA_SPI_SO*%
X97790000Y-101727000D03*
X89662000Y-103378000D03*
%TO.N,/FPGA_GLOBAL_1*%
X120142000Y-118110000D03*
%TO.N,/FPGA_GLOBAL_6*%
X96647000Y-83947000D03*
X114046000Y-84328000D03*
%TO.N,/IN0*%
X118429000Y-110871000D03*
%TO.N,/IN2*%
X119380000Y-115570000D03*
%TO.N,/I2C1_SDA*%
X90297000Y-92583000D03*
X103251000Y-89611200D03*
X84582000Y-108712000D03*
X107111800Y-92735400D03*
%TO.N,/I2C1_SCL*%
X104546400Y-88569800D03*
X94615000Y-89789000D03*
X91440000Y-92075000D03*
X85344000Y-108966000D03*
X94488000Y-88392000D03*
X107886500Y-92646500D03*
%TO.N,/PA15*%
X86945930Y-79371536D03*
%TO.N,/PA0*%
X86360000Y-96139000D03*
%TO.N,/PB4*%
X82296000Y-81218000D03*
%TO.N,/PA1*%
X86995000Y-96647000D03*
%TO.N,/PB9*%
X82931000Y-85344000D03*
%TO.N,/PD2*%
X83546700Y-79349379D03*
%TO.N,/FPGA_GLOBAL_0*%
X118745000Y-113030000D03*
%TO.N,/FPGA_IO_2*%
X126111000Y-87376000D03*
%TO.N,/FPGA_IO_3*%
X123317000Y-88900000D03*
X128270000Y-87630000D03*
X109474000Y-93980000D03*
%TO.N,/FPGA_IO_0*%
X112433288Y-84332761D03*
%TD*%
D62*
%TO.N,/NRST*%
X85563763Y-91810577D02*
X85563763Y-90897763D01*
X85563763Y-90897763D02*
X81130284Y-86464284D01*
X84991839Y-92382501D02*
X85563763Y-91810577D01*
X81130284Y-86464284D02*
X73555716Y-86464284D01*
X81425000Y-74295000D02*
X81425000Y-72950000D01*
X81425000Y-74295000D02*
X83693000Y-74295000D01*
X81425000Y-72950000D02*
X82495000Y-71880000D01*
X83693000Y-74295000D02*
X84455000Y-75057000D01*
%TO.N,GND*%
X92158457Y-97706543D02*
X91440000Y-98425000D01*
X85108331Y-95801543D02*
X86759606Y-94150268D01*
X97757000Y-73185000D02*
X97790000Y-73152000D01*
X114358000Y-67569000D02*
X114313000Y-67524000D01*
X85910000Y-107502000D02*
X86801000Y-107502000D01*
X126101000Y-72771000D02*
X126619000Y-72771000D01*
X87122000Y-114252000D02*
X88326000Y-114252000D01*
X104122000Y-84582000D02*
X103124000Y-84582000D01*
X93060000Y-119507000D02*
X93060000Y-120305000D01*
X91822581Y-97370667D02*
X91822581Y-95783775D01*
X99060000Y-118230000D02*
X99060000Y-117221000D01*
X121100000Y-113665000D02*
X121100000Y-110109000D01*
X101280000Y-77140000D02*
X101280000Y-78740000D01*
X125335000Y-68375000D02*
X125335000Y-70231000D01*
X99060000Y-73210000D02*
X97848000Y-73210000D01*
X115613543Y-95420543D02*
X116121543Y-94912543D01*
X88326000Y-114252000D02*
X88392000Y-114318000D01*
X81026000Y-98145508D02*
X81026000Y-98425000D01*
X82081914Y-84494914D02*
X81280000Y-83693000D01*
X101600000Y-117221000D02*
X101600000Y-118230000D01*
X92699000Y-67536000D02*
X92735000Y-67500000D01*
X80990000Y-104394000D02*
X79248000Y-104394000D01*
X101280000Y-78740000D02*
X101280000Y-79880000D01*
X92158457Y-97706543D02*
X91822581Y-97370667D01*
X79778457Y-92158457D02*
X79052400Y-91432400D01*
X80165563Y-97285071D02*
X81026000Y-98145508D01*
X91822581Y-95783775D02*
X91249734Y-95210928D01*
X121100000Y-103886000D02*
X121100000Y-103182000D01*
X85885000Y-67500000D02*
X85205000Y-66820000D01*
X114808000Y-99730600D02*
X114808000Y-100812600D01*
X80990000Y-99454000D02*
X80990000Y-98461000D01*
X74185000Y-71425000D02*
X72839000Y-72771000D01*
X85090000Y-112164500D02*
X85590000Y-112164500D01*
X101280000Y-79880000D02*
X101150000Y-80010000D01*
X115359543Y-95674543D02*
X115613543Y-95420543D01*
X97650000Y-113035000D02*
X99550000Y-114935000D01*
X89359000Y-110822000D02*
X89408000Y-110871000D01*
X126619000Y-72771000D02*
X127369000Y-72771000D01*
X93134543Y-79585457D02*
X93345000Y-79375000D01*
X93185000Y-67500000D02*
X93865000Y-66820000D01*
X121100000Y-110109000D02*
X121100000Y-109220000D01*
X96800000Y-113035000D02*
X97650000Y-113035000D01*
X79052400Y-91432400D02*
X77917000Y-90297000D01*
X127369000Y-72771000D02*
X128735000Y-71405000D01*
X121100000Y-103182000D02*
X121158000Y-103124000D01*
X70725000Y-71075000D02*
X70375000Y-71425000D01*
X121100000Y-99372000D02*
X121158000Y-99314000D01*
X80990000Y-98461000D02*
X81026000Y-98425000D01*
X115585000Y-120345000D02*
X115585000Y-119380000D01*
X97687194Y-92456000D02*
X95845928Y-90614734D01*
X89535000Y-73475000D02*
X89535000Y-72644000D01*
X114358000Y-69850000D02*
X114358000Y-68707000D01*
X86335000Y-67500000D02*
X85885000Y-67500000D01*
X79865000Y-74295000D02*
X79865000Y-73025000D01*
X114808000Y-100812600D02*
X114782600Y-100838000D01*
X108585000Y-79060000D02*
X108796000Y-79060000D01*
X108796000Y-79060000D02*
X109673500Y-79937500D01*
X97877086Y-94575086D02*
X97877086Y-93599000D01*
X117645543Y-92499543D02*
X117976000Y-92830000D01*
X107913000Y-67524000D02*
X107913000Y-68834000D01*
X84371543Y-95841457D02*
X83566000Y-96647000D01*
X121100000Y-117221000D02*
X121100000Y-113665000D01*
X114358000Y-68707000D02*
X114358000Y-67569000D01*
X93134543Y-80434543D02*
X93134543Y-79585457D01*
X107913000Y-68834000D02*
X107913000Y-69813000D01*
X117976000Y-92830000D02*
X117976000Y-93091000D01*
X72263000Y-72771000D02*
X71721000Y-72771000D01*
X81840000Y-114322000D02*
X81840000Y-115264000D01*
X93060000Y-120305000D02*
X93020000Y-120345000D01*
X119154500Y-72869500D02*
X118165000Y-71880000D01*
X70725000Y-70231000D02*
X70725000Y-71075000D01*
X119235000Y-72950000D02*
X119154500Y-72869500D01*
X82129086Y-84494914D02*
X82129086Y-86090280D01*
X94493000Y-113035000D02*
X94488000Y-113030000D01*
X121100000Y-100330000D02*
X121100000Y-99372000D01*
X80538386Y-93800980D02*
X80538386Y-93619386D01*
X125335000Y-70231000D02*
X125335000Y-70805000D01*
X115585000Y-118635000D02*
X115625000Y-118595000D01*
X104140000Y-117221000D02*
X104140000Y-118230000D01*
X80728457Y-92158457D02*
X80728457Y-93429314D01*
X82129086Y-86090280D02*
X83224072Y-87185266D01*
X79865000Y-73025000D02*
X79865000Y-72950000D01*
X109673500Y-79937500D02*
X110490000Y-80754000D01*
X70725000Y-68375000D02*
X70725000Y-70231000D01*
X85870000Y-114252000D02*
X87122000Y-114252000D01*
X115585000Y-119380000D02*
X115585000Y-118635000D01*
X92735000Y-67500000D02*
X93185000Y-67500000D01*
X92699000Y-69850000D02*
X92699000Y-67536000D01*
X93134543Y-80704263D02*
X93134543Y-80434543D01*
X129778800Y-77292200D02*
X129778800Y-76149200D01*
X97877086Y-93599000D02*
X97877086Y-92543086D01*
X84371543Y-95801543D02*
X85108331Y-95801543D01*
X96520000Y-117221000D02*
X96520000Y-118230000D01*
X114763000Y-67524000D02*
X115443000Y-66844000D01*
X86175000Y-67660000D02*
X86335000Y-67500000D01*
X81840000Y-109182000D02*
X82842000Y-109182000D01*
X79865000Y-72950000D02*
X78795000Y-71880000D01*
X84284457Y-98087543D02*
X84284457Y-97365457D01*
X86175000Y-69850000D02*
X86175000Y-67660000D01*
X107144457Y-95547543D02*
X107652457Y-96055543D01*
X85590000Y-113972000D02*
X85590000Y-112164500D01*
X79854437Y-94484929D02*
X80538386Y-93800980D01*
X97790000Y-92456000D02*
X97687194Y-92456000D01*
X119235000Y-74280000D02*
X119235000Y-72950000D01*
X84371543Y-95801543D02*
X84371543Y-95841457D01*
X124735000Y-71405000D02*
X126101000Y-72771000D01*
X85870000Y-114252000D02*
X85590000Y-113972000D01*
X125335000Y-70805000D02*
X124735000Y-71405000D01*
X114313000Y-67524000D02*
X114763000Y-67524000D01*
X82842000Y-109182000D02*
X82931000Y-109093000D01*
X82129086Y-84494914D02*
X82081914Y-84494914D01*
X71721000Y-72771000D02*
X70375000Y-71425000D01*
X121666000Y-93406000D02*
X121666000Y-94488000D01*
X91249734Y-82589072D02*
X93134543Y-80704263D01*
X84284457Y-97365457D02*
X83566000Y-96647000D01*
X81840000Y-115264000D02*
X81788000Y-115316000D01*
X97877086Y-92543086D02*
X97790000Y-92456000D01*
X121100000Y-118110000D02*
X121100000Y-117221000D01*
X107652457Y-96055543D02*
X108160457Y-96563543D01*
X107463000Y-67524000D02*
X106783000Y-66844000D01*
X88340000Y-110822000D02*
X89359000Y-110822000D01*
X107913000Y-67524000D02*
X107463000Y-67524000D01*
X93060000Y-118595000D02*
X93060000Y-119507000D01*
X129778800Y-78399200D02*
X129778800Y-77292200D01*
X96800000Y-113035000D02*
X94493000Y-113035000D01*
X80728457Y-93429314D02*
X80538386Y-93619386D01*
X86801000Y-107502000D02*
X86868000Y-107569000D01*
X115359543Y-96055543D02*
X115359543Y-95674543D01*
X97848000Y-73210000D02*
X97790000Y-73152000D01*
X104140000Y-67640000D02*
X104140000Y-66294000D01*
X72839000Y-72771000D02*
X72263000Y-72771000D01*
X96520000Y-73185000D02*
X97757000Y-73185000D01*
X107913000Y-69813000D02*
X107950000Y-69850000D01*
X80728457Y-92158457D02*
X79778457Y-92158457D01*
%TO.N,+3V3*%
X87636000Y-112002000D02*
X88392000Y-112758000D01*
X73025000Y-65278000D02*
X73025000Y-62405000D01*
X81026000Y-85598000D02*
X81026000Y-85694300D01*
X79852819Y-90261181D02*
X79817000Y-90297000D01*
X84590000Y-112164500D02*
X84590000Y-113157000D01*
X108585000Y-80960000D02*
X109474000Y-81849000D01*
X79756000Y-77851000D02*
X76962000Y-75057000D01*
X116542457Y-91396457D02*
X116147000Y-91001000D01*
X106821000Y-109811000D02*
X106045000Y-109035000D01*
X108247543Y-94252330D02*
X108247543Y-94444457D01*
X108247543Y-94444457D02*
X107656086Y-93853000D01*
X97790000Y-91352914D02*
X97291214Y-91352914D01*
X82550000Y-104394000D02*
X82550000Y-103794000D01*
X109746000Y-82314000D02*
X109474000Y-82042000D01*
X73025000Y-70675000D02*
X72275000Y-71425000D01*
X81026000Y-85694300D02*
X82870519Y-87538819D01*
X93060000Y-122095000D02*
X93060000Y-123032000D01*
X115625000Y-122881000D02*
X115570000Y-122936000D01*
X73025000Y-68375000D02*
X73025000Y-65278000D01*
X82550000Y-103794000D02*
X82469000Y-103713000D01*
X107656086Y-93853000D02*
X107442000Y-93853000D01*
X109931757Y-92568116D02*
X108247543Y-94252330D01*
X109474000Y-81849000D02*
X109474000Y-82042000D01*
X116147000Y-91001000D02*
X114993767Y-91001000D01*
X122486000Y-76200000D02*
X123317000Y-76200000D01*
X87249000Y-112002000D02*
X87636000Y-112002000D01*
X127878800Y-76149200D02*
X127878800Y-74813200D01*
X103759000Y-114935000D02*
X106821000Y-111873000D01*
X110490000Y-84375913D02*
X110638864Y-84524777D01*
X110490000Y-82314000D02*
X110490000Y-84375913D01*
X79756000Y-77920000D02*
X79756000Y-77851000D01*
X105865000Y-109215000D02*
X106045000Y-109035000D01*
X90896181Y-82235519D02*
X90896181Y-80466733D01*
X97291214Y-91352914D02*
X96199481Y-90261181D01*
X115625000Y-122095000D02*
X115625000Y-122881000D01*
X121100000Y-101404000D02*
X121158000Y-101346000D01*
X110490000Y-82314000D02*
X109746000Y-82314000D01*
X86252500Y-112002000D02*
X87249000Y-112002000D01*
X99060000Y-67640000D02*
X99060000Y-66294000D01*
X127878800Y-74813200D02*
X127889000Y-74803000D01*
X114993767Y-91001000D02*
X114439563Y-90446796D01*
X81661000Y-90261181D02*
X79852819Y-90261181D01*
X93261543Y-96515631D02*
X91603287Y-94857375D01*
X121100000Y-106553000D02*
X121100000Y-105664000D01*
X73025000Y-70231000D02*
X73025000Y-70675000D01*
X73025000Y-68375000D02*
X73025000Y-70231000D01*
X98893086Y-91352914D02*
X97790000Y-91352914D01*
X103860000Y-109215000D02*
X105865000Y-109215000D01*
X93060000Y-123032000D02*
X93091000Y-123063000D01*
X94488000Y-109035000D02*
X93403000Y-109035000D01*
X81026000Y-85598000D02*
X80137000Y-84709000D01*
X116542457Y-91396457D02*
X116967000Y-91821000D01*
X79756000Y-77920000D02*
X81280000Y-77920000D01*
X104140000Y-73185000D02*
X104140000Y-74168000D01*
X101110000Y-114935000D02*
X103759000Y-114935000D01*
X82870519Y-90261181D02*
X81661000Y-90261181D01*
X121100000Y-102108000D02*
X121100000Y-101404000D01*
X82469000Y-103713000D02*
X81770000Y-103014000D01*
X92626543Y-96603457D02*
X92583000Y-96647000D01*
X121100000Y-107442000D02*
X121100000Y-106553000D01*
X125578800Y-76499200D02*
X127528800Y-76499200D01*
X121666000Y-91506000D02*
X121666000Y-90424000D01*
X127528800Y-76499200D02*
X127878800Y-76149200D01*
X84590000Y-113972000D02*
X84310000Y-114252000D01*
X90896181Y-80466733D02*
X90951957Y-80410957D01*
X90951957Y-80410957D02*
X92031457Y-79331457D01*
X93403000Y-109035000D02*
X93345000Y-109093000D01*
X93261543Y-96603457D02*
X92626543Y-96603457D01*
X106821000Y-109855000D02*
X106821000Y-109811000D01*
X93261543Y-96603457D02*
X93261543Y-96515631D01*
X106821000Y-111873000D02*
X106821000Y-109855000D01*
X84590000Y-113157000D02*
X84590000Y-113972000D01*
%TO.N,+3.3VA*%
X84015430Y-99454000D02*
X85387543Y-98081887D01*
X85387543Y-98081887D02*
X85387543Y-96984457D01*
X81770000Y-100894000D02*
X82550000Y-100114000D01*
X85387543Y-96229437D02*
X87113159Y-94503821D01*
X82550000Y-99454000D02*
X84015430Y-99454000D01*
X85387543Y-96984457D02*
X85387543Y-96229437D01*
X82550000Y-100114000D02*
X82550000Y-99454000D01*
%TO.N,/BOOT0*%
X122740000Y-100330000D02*
X123952000Y-100330000D01*
X87065990Y-88905864D02*
X84284732Y-86124606D01*
X87065990Y-89374741D02*
X87065990Y-88905864D01*
X123952000Y-100330000D02*
X125730000Y-100330000D01*
%TO.N,/OSC_IN*%
X82698583Y-93261543D02*
X81831543Y-93261543D01*
X84284732Y-91675394D02*
X82698583Y-93261543D01*
X81831543Y-93261543D02*
X81831543Y-93923453D01*
X81831543Y-93923453D02*
X80025559Y-95729437D01*
X80025559Y-95729437D02*
X78609929Y-95729437D01*
%TO.N,/BOOT1*%
X124714000Y-103886000D02*
X125730000Y-102870000D01*
X95631000Y-93345000D02*
X95631000Y-92521126D01*
X122740000Y-103886000D02*
X124714000Y-103886000D01*
X95631000Y-92521126D02*
X94785268Y-91675394D01*
%TO.N,+1V2*%
X127635000Y-68375000D02*
X127635000Y-65528000D01*
X115018457Y-93809457D02*
X115018457Y-93147010D01*
X127635000Y-65528000D02*
X127635000Y-62405000D01*
X99380000Y-78867000D02*
X99380000Y-79880000D01*
X99380000Y-77140000D02*
X99380000Y-78867000D01*
X116840000Y-97046200D02*
X116987827Y-96898373D01*
X115018457Y-93147010D02*
X114694724Y-92823276D01*
X116078000Y-93809457D02*
X115018457Y-93809457D01*
X127635000Y-68375000D02*
X127635000Y-70231000D01*
X127635000Y-70231000D02*
X127635000Y-70405000D01*
X107867661Y-84582000D02*
X109224651Y-85938990D01*
X116115887Y-93809457D02*
X116078000Y-93809457D01*
X106934000Y-84582000D02*
X107867661Y-84582000D01*
X116987827Y-94681397D02*
X116115887Y-93809457D01*
X127635000Y-70405000D02*
X126635000Y-71405000D01*
X114694724Y-92823276D02*
X113378903Y-91507456D01*
X116987827Y-96898373D02*
X116987827Y-95885000D01*
X105682000Y-84582000D02*
X106934000Y-84582000D01*
X116987827Y-95885000D02*
X116987827Y-94681397D01*
X99380000Y-79880000D02*
X99510000Y-80010000D01*
%TO.N,/VCCPLL*%
X116713000Y-98686200D02*
X116713000Y-99695000D01*
X113640220Y-94336220D02*
X114256457Y-94952457D01*
X114256457Y-97279057D02*
X114256457Y-96520000D01*
X115663600Y-98686200D02*
X114808000Y-97830600D01*
X113025349Y-91861010D02*
X113640220Y-92475881D01*
X114808000Y-97830600D02*
X114256457Y-97279057D01*
X113640220Y-92475881D02*
X113640220Y-94336220D01*
X114256457Y-96520000D02*
X114256457Y-94952457D01*
X116713000Y-98686200D02*
X115663600Y-98686200D01*
%TO.N,/OSC_OUT*%
X84638286Y-92028948D02*
X83268457Y-93398777D01*
X83268457Y-94698457D02*
X82752177Y-94698457D01*
X83268457Y-93398777D02*
X83268457Y-94698457D01*
X82752177Y-94698457D02*
X81410071Y-96040563D01*
%TO.N,/SWCLK*%
X88173819Y-79664819D02*
X85852000Y-77343000D01*
X88173819Y-82235519D02*
X88173819Y-79664819D01*
X85852000Y-77343000D02*
X83439000Y-77343000D01*
%TO.N,/SWDIO*%
X86360000Y-76581000D02*
X87884000Y-78105000D01*
X83312000Y-76581000D02*
X86360000Y-76581000D01*
X94234000Y-80397162D02*
X92260460Y-82370702D01*
X92260460Y-82370702D02*
X92175210Y-82370702D01*
X92175210Y-82370702D02*
X91603287Y-82942625D01*
X82804000Y-77089000D02*
X83312000Y-76581000D01*
X82804000Y-78740000D02*
X82804000Y-77089000D01*
X93218000Y-78105000D02*
X94234000Y-79121000D01*
X94234000Y-79121000D02*
X94234000Y-80397162D01*
X87884000Y-78105000D02*
X93218000Y-78105000D01*
%TO.N,Net-(U3-VCAP_1)*%
X96774000Y-93472000D02*
X96774000Y-92249912D01*
X96774000Y-92249912D02*
X95492375Y-90968287D01*
%TO.N,/OUT_STM*%
X85917315Y-85635869D02*
X85345392Y-85063946D01*
X89535000Y-79045000D02*
X89535000Y-82550000D01*
X89535000Y-82550000D02*
X86449131Y-85635869D01*
X86449131Y-85635869D02*
X85917315Y-85635869D01*
%TO.N,Net-(D5-Pad1)*%
X104140000Y-119870000D02*
X104140000Y-121920000D01*
%TO.N,Net-(U4B-CDONE)*%
X102373883Y-85808000D02*
X102123883Y-86058000D01*
X104140000Y-69520000D02*
X104140000Y-71545000D01*
X102743000Y-81026000D02*
X102108000Y-81661000D01*
X107679447Y-85808000D02*
X102373883Y-85808000D01*
X108517544Y-86646097D02*
X107679447Y-85808000D01*
X104140000Y-71545000D02*
X102743000Y-72942000D01*
X102743000Y-72942000D02*
X102743000Y-81026000D01*
%TO.N,Net-(D9-Pad1)*%
X89535000Y-77165000D02*
X89535000Y-75115000D01*
%TO.N,/SWO*%
X82931000Y-81235340D02*
X86052499Y-84356839D01*
X82205000Y-79629000D02*
X82296000Y-79629000D01*
X82931000Y-80264000D02*
X82931000Y-81235340D01*
X82296000Y-79629000D02*
X82931000Y-80264000D01*
%TO.N,Net-(J16-CC1)*%
X112718000Y-69850000D02*
X112363000Y-69495000D01*
X112363000Y-69495000D02*
X112363000Y-67524000D01*
%TO.N,Net-(Q1-D)*%
X100330000Y-74480000D02*
X101600000Y-73210000D01*
X100330000Y-75260000D02*
X100330000Y-74480000D01*
%TO.N,Net-(JP2-A)*%
X90345381Y-104950381D02*
X90345381Y-100617049D01*
X94127827Y-96407665D02*
X93457335Y-95737173D01*
X94127827Y-96834603D02*
X94127827Y-96407665D01*
X93190193Y-95737173D02*
X91956841Y-94503821D01*
X90345381Y-100617049D02*
X94127827Y-96834603D01*
X93457335Y-95737173D02*
X93190193Y-95737173D01*
%TO.N,/BTN1*%
X114025000Y-118635000D02*
X113985000Y-118595000D01*
X114025000Y-120345000D02*
X114025000Y-118635000D01*
X115443000Y-91567000D02*
X114852661Y-91567000D01*
X114852661Y-91567000D02*
X114086010Y-90800349D01*
X113985000Y-118595000D02*
X113985000Y-111187396D01*
X118110000Y-107062396D02*
X118110000Y-94234000D01*
X113985000Y-111187396D02*
X118110000Y-107062396D01*
X111705000Y-118620000D02*
X113960000Y-118620000D01*
X118110000Y-94234000D02*
X115443000Y-91567000D01*
X113960000Y-118620000D02*
X113985000Y-118595000D01*
%TO.N,/BTN0*%
X115993827Y-93048173D02*
X117616000Y-94670345D01*
X114681000Y-92075000D02*
X115020654Y-92075000D01*
X117602000Y-94656346D02*
X115993827Y-93048173D01*
X94488000Y-124333000D02*
X96139000Y-125984000D01*
X91395000Y-118620000D02*
X91420000Y-118595000D01*
X105604840Y-125984000D02*
X107204000Y-124384840D01*
X89480000Y-118620000D02*
X91395000Y-118620000D01*
X107204000Y-115300000D02*
X117602000Y-104902000D01*
X117602000Y-104902000D02*
X117602000Y-94656346D01*
X91460000Y-120345000D02*
X91460000Y-118635000D01*
X113759903Y-91153903D02*
X114681000Y-92075000D01*
X94488000Y-122301000D02*
X94488000Y-124333000D01*
X107204000Y-124384840D02*
X107204000Y-115300000D01*
X91460000Y-120345000D02*
X92400000Y-121285000D01*
X96139000Y-125984000D02*
X105604840Y-125984000D01*
X91460000Y-118635000D02*
X91420000Y-118595000D01*
X93472000Y-121285000D02*
X94488000Y-122301000D01*
X113732456Y-91153903D02*
X113759903Y-91153903D01*
X115020654Y-92075000D02*
X115993827Y-93048173D01*
X92400000Y-121285000D02*
X93472000Y-121285000D01*
%TO.N,Net-(JP8-B)*%
X107456884Y-90093243D02*
X105378173Y-92171954D01*
X106504619Y-98252411D02*
X106504619Y-101140381D01*
X105378173Y-92171954D02*
X105378173Y-97125965D01*
X105378173Y-97125965D02*
X106504619Y-98252411D01*
%TO.N,/USART2_TX*%
X88138000Y-95600300D02*
X88173819Y-95564481D01*
X88138000Y-96774000D02*
X88138000Y-95600300D01*
%TO.N,/USART2_RX*%
X90896181Y-95564481D02*
X90896181Y-96428819D01*
X90896181Y-96428819D02*
X90551000Y-96774000D01*
%TO.N,/SPI1_SCK*%
X93447299Y-95287173D02*
X92310394Y-94150268D01*
X94577827Y-97020999D02*
X94577827Y-96221269D01*
X94577827Y-96221269D02*
X93643731Y-95287173D01*
X93643731Y-95287173D02*
X93447299Y-95287173D01*
X92250381Y-103045381D02*
X92250381Y-99348445D01*
X92250381Y-99348445D02*
X94577827Y-97020999D01*
%TO.N,/SPI1_MISO*%
X93332319Y-94465085D02*
X92663948Y-93796714D01*
X95027827Y-96034873D02*
X93458039Y-94465085D01*
X94155381Y-101140381D02*
X95027827Y-100267935D01*
X95027827Y-100267935D02*
X95027827Y-96034873D01*
X93458039Y-94465085D02*
X93332319Y-94465085D01*
%TO.N,/SPI1_MOSI*%
X93072511Y-93443161D02*
X96060381Y-96431031D01*
X96060381Y-96431031D02*
X96060381Y-99235381D01*
X93017501Y-93443161D02*
X93072511Y-93443161D01*
D63*
%TO.N,/FUD+*%
X112717512Y-79062512D02*
X112717512Y-79296517D01*
X112444662Y-79569367D02*
X112444662Y-79896517D01*
X112717512Y-82115308D02*
X112717512Y-83241625D01*
X112717512Y-80169367D02*
X112717512Y-80496517D01*
X112717512Y-80496517D02*
X112717512Y-82115308D01*
X111907188Y-78252188D02*
X111973140Y-78318140D01*
X111973140Y-78318140D02*
X112717512Y-79062512D01*
X110871000Y-77216000D02*
X111907188Y-78252188D01*
X112717512Y-83241625D02*
X111611136Y-84348001D01*
X111611136Y-84348001D02*
X111611136Y-84524777D01*
X112444662Y-79896517D02*
G75*
G03*
X112581087Y-80032938I136438J17D01*
G01*
X112581087Y-79432942D02*
G75*
G03*
X112444642Y-79569367I13J-136458D01*
G01*
X112717512Y-79296517D02*
G75*
G02*
X112581087Y-79432912I-136412J17D01*
G01*
X112581087Y-80032942D02*
G75*
G02*
X112717558Y-80169367I13J-136458D01*
G01*
%TO.N,/FUD-*%
X113067512Y-85189721D02*
X113067512Y-78776115D01*
X112671796Y-85585437D02*
X113067512Y-85189721D01*
X113067512Y-78776115D02*
X112395000Y-78103603D01*
X112395000Y-78103603D02*
X112395000Y-77216000D01*
D62*
%TO.N,Net-(S3-B)*%
X89255000Y-122095000D02*
X85780000Y-118620000D01*
X91420000Y-122095000D02*
X89255000Y-122095000D01*
%TO.N,Net-(JP9-B)*%
X105828173Y-96939569D02*
X108409619Y-99521015D01*
X108409619Y-99521015D02*
X108409619Y-103045381D01*
X107810437Y-90446796D02*
X105828173Y-92429060D01*
X105828173Y-92429060D02*
X105828173Y-96939569D01*
%TO.N,Net-(U5-IO2)*%
X95578000Y-111765000D02*
X96800000Y-111765000D01*
X94488000Y-110675000D02*
X95578000Y-111765000D01*
%TO.N,Net-(J16-CC2)*%
X109363000Y-69623000D02*
X109363000Y-67524000D01*
X109590000Y-69850000D02*
X109363000Y-69623000D01*
%TO.N,Net-(JP6-B)*%
X104599619Y-99235381D02*
X104599619Y-92254605D01*
X104599619Y-92254605D02*
X107108933Y-89745292D01*
%TO.N,Net-(U5-IO3)*%
X105855000Y-110485000D02*
X106045000Y-110675000D01*
X103860000Y-110485000D02*
X105855000Y-110485000D01*
%TO.N,+2V5*%
X125578800Y-77799200D02*
X127278800Y-77799200D01*
X127278800Y-77799200D02*
X127878800Y-78399200D01*
X110638864Y-93275223D02*
X110638864Y-94234000D01*
X127878800Y-79745800D02*
X127889000Y-79756000D01*
X127878800Y-78399200D02*
X127878800Y-79745800D01*
X109263543Y-95460457D02*
X110490000Y-94234000D01*
X110490000Y-94234000D02*
X110638864Y-94234000D01*
%TO.N,Net-(JP7-B)*%
X110314619Y-104950381D02*
X110314619Y-100789619D01*
X106278173Y-96753173D02*
X106278173Y-92686166D01*
X106278173Y-92686166D02*
X108163990Y-90800349D01*
X110314619Y-100789619D02*
X106278173Y-96753173D01*
%TO.N,VBUS*%
X112854636Y-66167000D02*
X113513000Y-66825364D01*
X96520000Y-67640000D02*
X96520000Y-66294000D01*
X109371364Y-66167000D02*
X112854636Y-66167000D01*
X87135000Y-67500000D02*
X87135000Y-68821000D01*
X75325000Y-70665000D02*
X76085000Y-71425000D01*
X129935000Y-70231000D02*
X129935000Y-70705000D01*
X75325000Y-68375000D02*
X75325000Y-70231000D01*
X108713000Y-68706000D02*
X108712000Y-68707000D01*
X91935000Y-68821000D02*
X91948000Y-68834000D01*
X87135000Y-68821000D02*
X87122000Y-68834000D01*
X113513000Y-68682000D02*
X113538000Y-68707000D01*
X108713000Y-66825364D02*
X109359182Y-66179182D01*
X87789364Y-66147000D02*
X91280636Y-66147000D01*
X87135000Y-66815000D02*
X87128182Y-66808182D01*
X109359182Y-66179182D02*
X109371364Y-66167000D01*
X129935000Y-68375000D02*
X129935000Y-70231000D01*
X108713000Y-67524000D02*
X108713000Y-68706000D01*
X75325000Y-70231000D02*
X75325000Y-70665000D01*
X91280636Y-66147000D02*
X91935000Y-66801364D01*
X113513000Y-67524000D02*
X113513000Y-68682000D01*
X87128182Y-66808182D02*
X87789364Y-66147000D01*
X108713000Y-67524000D02*
X108713000Y-66825364D01*
X91935000Y-67500000D02*
X91935000Y-68821000D01*
X113513000Y-66825364D02*
X113513000Y-67524000D01*
X91935000Y-66801364D02*
X91935000Y-67500000D01*
X87135000Y-67500000D02*
X87135000Y-66815000D01*
X101600000Y-67640000D02*
X101600000Y-66294000D01*
X129935000Y-70705000D02*
X130635000Y-71405000D01*
%TO.N,Net-(D2-Pad1)*%
X99060000Y-69520000D02*
X99060000Y-71570000D01*
%TO.N,Net-(J1-CC2)*%
X87815000Y-67530000D02*
X87785000Y-67500000D01*
X87815000Y-69850000D02*
X87815000Y-67530000D01*
%TO.N,Net-(J1-CC1)*%
X91059000Y-69850000D02*
X90785000Y-69576000D01*
X90785000Y-69576000D02*
X90785000Y-67500000D01*
%TO.N,/SPI2_MISO*%
X96966088Y-85358000D02*
X107936553Y-85358000D01*
X95492375Y-86831713D02*
X96966088Y-85358000D01*
X107936553Y-85358000D02*
X108871097Y-86292544D01*
%TO.N,/FPGA_NRST*%
X107422339Y-86258000D02*
X103118721Y-86258000D01*
X120846000Y-76200000D02*
X120846000Y-79179000D01*
X120846000Y-74331000D02*
X120795000Y-74280000D01*
X120846000Y-76200000D02*
X120846000Y-74331000D01*
X120795000Y-74280000D02*
X120795000Y-72950000D01*
X120795000Y-72950000D02*
X121865000Y-71880000D01*
X103118721Y-86258000D02*
X102787199Y-86589522D01*
X108163990Y-86999651D02*
X107422339Y-86258000D01*
X120846000Y-79179000D02*
X116459000Y-83566000D01*
%TO.N,Net-(R15-Pad1)*%
X131911000Y-101769000D02*
X123079000Y-101769000D01*
X133350000Y-100330000D02*
X131911000Y-101769000D01*
X123079000Y-101769000D02*
X122740000Y-102108000D01*
%TO.N,Net-(S4-B)*%
X113985000Y-122095000D02*
X111480000Y-122095000D01*
X111480000Y-122095000D02*
X108005000Y-118620000D01*
%TO.N,Net-(R16-Pad1)*%
X123825000Y-105664000D02*
X125180000Y-104309000D01*
X125180000Y-104309000D02*
X131911000Y-104309000D01*
X131911000Y-104309000D02*
X133350000Y-102870000D01*
X122740000Y-105664000D02*
X123825000Y-105664000D01*
%TO.N,/PC2*%
X86052499Y-93443161D02*
X84963000Y-94532660D01*
X84963000Y-94532660D02*
X84963000Y-94869000D01*
%TO.N,Net-(D3-Pad1)*%
X96520000Y-69520000D02*
X96520000Y-71545000D01*
%TO.N,/PC14*%
X83577625Y-90968287D02*
X82724912Y-91821000D01*
X82724912Y-91821000D02*
X82042000Y-91821000D01*
%TO.N,/PC12*%
X84455000Y-79441586D02*
X84396052Y-79382638D01*
X86759606Y-83649732D02*
X84455000Y-81345126D01*
X84455000Y-81345126D02*
X84455000Y-79441586D01*
%TO.N,/SPI2_SCK*%
X107038907Y-87288780D02*
X107456884Y-87706757D01*
X104207481Y-87288780D02*
X107038907Y-87288780D01*
X103848261Y-87648000D02*
X104207481Y-87288780D01*
X95845928Y-87185266D02*
X96417852Y-86613342D01*
X102126000Y-87648000D02*
X103848261Y-87648000D01*
X96417852Y-86613342D02*
X101091342Y-86613342D01*
X101091342Y-86613342D02*
X102126000Y-87648000D01*
%TO.N,/I2S5_WS*%
X92964000Y-90561234D02*
X92964000Y-90424000D01*
X94431714Y-92028948D02*
X92964000Y-90561234D01*
%TO.N,/USART1_TX*%
X93017501Y-84356839D02*
X94118510Y-83255830D01*
X94118510Y-83255830D02*
X106807000Y-83255830D01*
X106807000Y-83255830D02*
X107955703Y-83255830D01*
X107955703Y-83255830D02*
X109931757Y-85231884D01*
X106807000Y-82931000D02*
X106807000Y-83255830D01*
%TO.N,/PC15*%
X82797020Y-92456000D02*
X82550000Y-92456000D01*
X83931179Y-91321841D02*
X82797020Y-92456000D01*
%TO.N,/I2S5_SD*%
X83931179Y-86478159D02*
X84963000Y-87509980D01*
X84963000Y-87509980D02*
X84963000Y-88011000D01*
%TO.N,/FPGA_SPI_SCK*%
X93169619Y-103964619D02*
X94118889Y-103964619D01*
X74295000Y-105156000D02*
X74309000Y-105170000D01*
X74168000Y-105156000D02*
X74916000Y-105156000D01*
X103065000Y-111765000D02*
X102434000Y-111134000D01*
X103860000Y-111765000D02*
X103065000Y-111765000D01*
X70104000Y-105156000D02*
X69850000Y-105410000D01*
X87870000Y-105170000D02*
X88074500Y-104965500D01*
X102434000Y-111134000D02*
X102434000Y-105211000D01*
X75565000Y-105170000D02*
X87870000Y-105170000D01*
X94118889Y-103964619D02*
X95153135Y-104998865D01*
X105585381Y-102059619D02*
X102552500Y-105092500D01*
X74916000Y-105156000D02*
X74930000Y-105170000D01*
X74295000Y-105156000D02*
X70104000Y-105156000D01*
X74168000Y-105156000D02*
X74295000Y-105156000D01*
X74930000Y-105170000D02*
X75565000Y-105170000D01*
X102434000Y-105211000D02*
X102552500Y-105092500D01*
X74309000Y-105170000D02*
X74930000Y-105170000D01*
%TO.N,/SPI2_MOSI*%
X97832065Y-83784915D02*
X107777682Y-83784915D01*
X95138821Y-86478159D02*
X97832065Y-83784915D01*
X107777682Y-83784915D02*
X109578204Y-85585437D01*
%TO.N,/PC1*%
X85698946Y-93089608D02*
X84554554Y-94234000D01*
X84554554Y-94234000D02*
X84328000Y-94234000D01*
%TO.N,Net-(R17-Pad1)*%
X122740000Y-109220000D02*
X125280000Y-106680000D01*
X132080000Y-106680000D02*
X133350000Y-105410000D01*
X125280000Y-106680000D02*
X132080000Y-106680000D01*
%TO.N,/PC0*%
X85345392Y-92736054D02*
X84609446Y-93472000D01*
X84609446Y-93472000D02*
X84074000Y-93472000D01*
%TO.N,/FPGA_SPI_CS*%
X91264619Y-105869619D02*
X93454619Y-105869619D01*
X105966381Y-103964619D02*
X104140000Y-105791000D01*
X91264619Y-105869619D02*
X90454238Y-106680000D01*
X96800000Y-109215000D02*
X93805000Y-106220000D01*
X76200000Y-106680000D02*
X69850000Y-113030000D01*
X107490381Y-103964619D02*
X105966381Y-103964619D01*
X90454238Y-106680000D02*
X76200000Y-106680000D01*
X93454619Y-105869619D02*
X93805000Y-106220000D01*
%TO.N,/I2S5_CK*%
X71755000Y-102489000D02*
X71755000Y-102235000D01*
X94078161Y-92382501D02*
X92881660Y-91186000D01*
X71755000Y-102235000D02*
X69850000Y-100330000D01*
X92881660Y-91186000D02*
X92583000Y-91186000D01*
%TO.N,/FPGA_BOOT*%
X103667531Y-86838780D02*
X103557564Y-86948747D01*
X123698000Y-107442000D02*
X125730000Y-105410000D01*
X107296013Y-86838780D02*
X103667531Y-86838780D01*
X122740000Y-107442000D02*
X123698000Y-107442000D01*
X107810437Y-87353204D02*
X107296013Y-86838780D01*
%TO.N,/PC13*%
X81407658Y-91186658D02*
X81102525Y-90881525D01*
X83224072Y-90614734D02*
X82652148Y-91186658D01*
X82652148Y-91186658D02*
X81407658Y-91186658D01*
%TO.N,/PC11*%
X85217000Y-81400020D02*
X85217000Y-79400165D01*
X85217000Y-79400165D02*
X85245977Y-79371188D01*
X87113159Y-83296179D02*
X85217000Y-81400020D01*
%TO.N,/PC3*%
X86416286Y-93796714D02*
X87376000Y-92837000D01*
X86406052Y-93796714D02*
X86416286Y-93796714D01*
%TO.N,Net-(R18-Pad1)*%
X124518000Y-109220000D02*
X132080000Y-109220000D01*
X132080000Y-109220000D02*
X133350000Y-107950000D01*
X122740000Y-110998000D02*
X124518000Y-109220000D01*
%TO.N,/PC10*%
X87466713Y-82942625D02*
X86106000Y-81581912D01*
X86106000Y-81581912D02*
X86106000Y-79388000D01*
X86106000Y-79388000D02*
X86095952Y-79377952D01*
%TO.N,/USART1_RX*%
X107702982Y-82296000D02*
X108207491Y-82800509D01*
X108207491Y-82800509D02*
X110285311Y-84878330D01*
X105918000Y-79883000D02*
X105918000Y-80511018D01*
X93862404Y-82804830D02*
X105663170Y-82804830D01*
X106172000Y-82296000D02*
X107702982Y-82296000D01*
X105918000Y-80511018D02*
X108207491Y-82800509D01*
X92663948Y-84003286D02*
X93862404Y-82804830D01*
X105663170Y-82804830D02*
X106172000Y-82296000D01*
X104140000Y-78105000D02*
X105918000Y-79883000D01*
%TO.N,/RGB2*%
X114086010Y-86999651D02*
X115995661Y-85090000D01*
X115995661Y-85090000D02*
X133350000Y-85090000D01*
%TO.N,/RGB1*%
X131445000Y-85725000D02*
X116067767Y-85725000D01*
X133350000Y-87630000D02*
X131445000Y-85725000D01*
X116067767Y-85725000D02*
X114439563Y-87353204D01*
%TO.N,/RGB0*%
X116266873Y-86233000D02*
X129413000Y-86233000D01*
X114793116Y-87706757D02*
X116266873Y-86233000D01*
X129413000Y-86233000D02*
X133350000Y-90170000D01*
%TO.N,/FPGA_CLK*%
X93724608Y-85063946D02*
X94296532Y-84492022D01*
X109224651Y-91861010D02*
X108675395Y-92410266D01*
X95033022Y-84492022D02*
X95059500Y-84518500D01*
X94296532Y-84492022D02*
X95033022Y-84492022D01*
X108675395Y-92410266D02*
X108675395Y-92595195D01*
%TO.N,/FPGA_SPI_SI*%
X95074619Y-102059619D02*
X98882525Y-105867525D01*
X74168000Y-106172000D02*
X89154000Y-106172000D01*
X97595000Y-110485000D02*
X98882525Y-109197475D01*
X96800000Y-110485000D02*
X97595000Y-110485000D01*
X98882525Y-109197475D02*
X98882525Y-108204000D01*
X69850000Y-110490000D02*
X74168000Y-106172000D01*
X89154000Y-106172000D02*
X89281000Y-106045000D01*
X109395381Y-105869619D02*
X106728381Y-105869619D01*
X98882525Y-105867525D02*
X98882525Y-108204000D01*
X106728381Y-105869619D02*
X105664000Y-106934000D01*
%TO.N,/FPGA_SPI_SO*%
X101484000Y-102351000D02*
X101484000Y-111517000D01*
X89362605Y-104820395D02*
X88519000Y-105664000D01*
X89662000Y-104493904D02*
X89362605Y-104793299D01*
X96979619Y-100154619D02*
X103680381Y-100154619D01*
X89662000Y-103378000D02*
X89662000Y-104493904D01*
X88519000Y-105664000D02*
X72136000Y-105664000D01*
X103002000Y-113035000D02*
X103860000Y-113035000D01*
X101484000Y-111517000D02*
X103002000Y-113035000D01*
X89362605Y-104793299D02*
X89362605Y-104820395D01*
X72136000Y-105664000D02*
X69850000Y-107950000D01*
X103680381Y-100154619D02*
X101484000Y-102351000D01*
X96979619Y-100916619D02*
X97790000Y-101727000D01*
X96979619Y-100154619D02*
X96979619Y-100916619D01*
%TO.N,/FPGA_GLOBAL_1*%
X125730000Y-120650000D02*
X125730000Y-118110000D01*
X122740000Y-118110000D02*
X125730000Y-118110000D01*
X120142000Y-91440000D02*
X117115864Y-88413864D01*
X121920000Y-124460000D02*
X125730000Y-120650000D01*
X117115864Y-88413864D02*
X115500223Y-88413864D01*
X120142000Y-118110000D02*
X120142000Y-91440000D01*
D63*
%TO.N,/USB_D+*%
X95533000Y-79755376D02*
X92654556Y-82633820D01*
X92654556Y-82633820D02*
X92619200Y-82633820D01*
X89785000Y-67500000D02*
X89810000Y-67525000D01*
X89810000Y-70697198D02*
X93792816Y-74680014D01*
X89734000Y-68451000D02*
X88884000Y-68451000D01*
X94641344Y-75528542D02*
X95533000Y-76420198D01*
X89785000Y-67500000D02*
X89785000Y-68400000D01*
X89785000Y-68400000D02*
X89734000Y-68451000D01*
X93792816Y-75141794D02*
X93986189Y-75335167D01*
X89810000Y-67525000D02*
X89810000Y-70697198D01*
X88785000Y-68352000D02*
X88785000Y-67500000D01*
X88884000Y-68451000D02*
X88785000Y-68352000D01*
X94447970Y-75335167D02*
X94641344Y-75528542D01*
X95533000Y-76420198D02*
X95533000Y-77952002D01*
X95533000Y-77952002D02*
X95533000Y-79755376D01*
X92619200Y-82633820D02*
X91956841Y-83296179D01*
X93986189Y-75335167D02*
G75*
G03*
X94217080Y-75335168I115446J115446D01*
G01*
X94217080Y-75335167D02*
G75*
G02*
X94447970Y-75335167I115445J-115445D01*
G01*
X93792816Y-74680014D02*
G75*
G02*
X93792857Y-74910945I-115416J-115486D01*
G01*
X93792816Y-74910904D02*
G75*
G03*
X93792865Y-75141745I115484J-115396D01*
G01*
%TO.N,/USB_D-*%
X92310394Y-83649732D02*
X92972753Y-82987373D01*
X90234000Y-66549000D02*
X90285000Y-66600000D01*
X89285000Y-66648000D02*
X89384000Y-66549000D01*
X89384000Y-66549000D02*
X90234000Y-66549000D01*
X92972753Y-82987373D02*
X92972753Y-82952017D01*
X90285000Y-66600000D02*
X90285000Y-67500000D01*
X90260000Y-70510802D02*
X95983000Y-76233802D01*
X90260000Y-67525000D02*
X90260000Y-70510802D01*
X90285000Y-67500000D02*
X90260000Y-67525000D01*
X89285000Y-67500000D02*
X89285000Y-66648000D01*
X92972753Y-82952017D02*
X95983000Y-79941770D01*
X95983000Y-79941770D02*
X95983000Y-76233802D01*
%TO.N,/FPGA_USB_D+*%
X111363000Y-68574001D02*
X111388000Y-68599001D01*
X111860000Y-76565000D02*
X110871000Y-75576000D01*
X110871000Y-74769750D02*
X110871000Y-75576000D01*
X111388000Y-68599001D02*
X111388000Y-74252750D01*
X113718000Y-76565000D02*
X111860000Y-76565000D01*
X111363000Y-68424000D02*
X111363000Y-67524000D01*
X111388000Y-74252750D02*
X110871000Y-74769750D01*
X110363000Y-68376000D02*
X110462000Y-68475000D01*
X110363000Y-67524000D02*
X110363000Y-68376000D01*
X111363000Y-67524000D02*
X111363000Y-68574001D01*
X111312000Y-68475000D02*
X111363000Y-68424000D01*
X113734000Y-76581000D02*
X113718000Y-76565000D01*
X110462000Y-68475000D02*
X111312000Y-68475000D01*
%TO.N,/FPGA_USB_D-*%
X112395000Y-75576000D02*
X113342000Y-75576000D01*
X111863000Y-67524000D02*
X111863000Y-68574001D01*
X111838000Y-68599001D02*
X111838000Y-74246000D01*
X111838000Y-74246000D02*
X112395000Y-74803000D01*
X113342000Y-75576000D02*
X113734000Y-75184000D01*
X112395000Y-74803000D02*
X112395000Y-75576000D01*
X111863000Y-67524000D02*
X111863000Y-66672000D01*
X111863000Y-68574001D02*
X111838000Y-68599001D01*
X110863000Y-66624000D02*
X110863000Y-67524000D01*
X111863000Y-66672000D02*
X111764000Y-66573000D01*
X111764000Y-66573000D02*
X110914000Y-66573000D01*
X110914000Y-66573000D02*
X110863000Y-66624000D01*
D62*
%TO.N,/FPGA_GLOBAL_6*%
X96520000Y-83820000D02*
X96647000Y-83947000D01*
X114046000Y-84918339D02*
X114046000Y-84328000D01*
X113025349Y-85938990D02*
X114046000Y-84918339D01*
X94261446Y-83820000D02*
X96520000Y-83820000D01*
X93371054Y-84710392D02*
X94261446Y-83820000D01*
%TO.N,Net-(D1-Pad1)*%
X101600000Y-69520000D02*
X101600000Y-71570000D01*
%TO.N,/OUT0*%
X111611136Y-107780666D02*
X111611136Y-93275223D01*
X105141000Y-122799000D02*
X105141000Y-114250802D01*
X105141000Y-114250802D02*
X111611136Y-107780666D01*
X104140000Y-123800000D02*
X105141000Y-122799000D01*
%TO.N,/OUT1*%
X112285220Y-93242201D02*
X112285220Y-107805780D01*
X105664000Y-114427000D02*
X105664000Y-123823604D01*
X111964689Y-92921670D02*
X112285220Y-93242201D01*
X105664000Y-123823604D02*
X104901604Y-124586000D01*
X104901604Y-124586000D02*
X102386000Y-124586000D01*
X102386000Y-124586000D02*
X101600000Y-123800000D01*
X112285220Y-107805780D02*
X105664000Y-114427000D01*
%TO.N,Net-(D6-Pad1)*%
X101600000Y-119870000D02*
X101600000Y-121920000D01*
%TO.N,/OUT2*%
X112737220Y-108115780D02*
X112737220Y-92987093D01*
X106172000Y-124077604D02*
X106172000Y-114681000D01*
X112737220Y-92987093D02*
X112318243Y-92568116D01*
X99060000Y-123800000D02*
X100296000Y-125036000D01*
X106172000Y-114681000D02*
X112737220Y-108115780D01*
X100296000Y-125036000D02*
X105213604Y-125036000D01*
X105213604Y-125036000D02*
X106172000Y-124077604D01*
%TO.N,Net-(D7-Pad1)*%
X99060000Y-119870000D02*
X99060000Y-121920000D01*
%TO.N,/OUT3*%
X106680000Y-124206000D02*
X105400000Y-125486000D01*
X105400000Y-125486000D02*
X98206000Y-125486000D01*
X113189220Y-108425780D02*
X106680000Y-114935000D01*
X106680000Y-114935000D02*
X106680000Y-124206000D01*
X98206000Y-125486000D02*
X96520000Y-123800000D01*
X113189220Y-92731987D02*
X113189220Y-108425780D01*
X112671796Y-92214563D02*
X113189220Y-92731987D01*
%TO.N,Net-(D8-Pad1)*%
X96520000Y-121920000D02*
X96520000Y-119870000D01*
%TO.N,/IN0*%
X123444000Y-112776000D02*
X125730000Y-110490000D01*
X129540000Y-124460000D02*
X129540000Y-114300000D01*
X114793116Y-90093243D02*
X115230046Y-90530173D01*
X115230046Y-90530173D02*
X116946173Y-90530173D01*
X122740000Y-112776000D02*
X123444000Y-112776000D01*
X118612500Y-92196500D02*
X118612500Y-110687500D01*
X118612500Y-110687500D02*
X118429000Y-110871000D01*
X116946173Y-90530173D02*
X118612500Y-92196500D01*
X129540000Y-114300000D02*
X125730000Y-110490000D01*
%TO.N,/IN2*%
X122740000Y-116332000D02*
X124968000Y-116332000D01*
X126831000Y-122089000D02*
X126831000Y-116671000D01*
X119634000Y-91694000D02*
X117326136Y-89386136D01*
X124460000Y-124460000D02*
X126831000Y-122089000D01*
X126831000Y-116671000D02*
X125730000Y-115570000D01*
X119634000Y-115316000D02*
X119634000Y-91694000D01*
X119380000Y-115570000D02*
X119634000Y-115316000D01*
X124968000Y-116332000D02*
X125730000Y-115570000D01*
X117326136Y-89386136D02*
X115500223Y-89386136D01*
%TO.N,/I2C1_SDA*%
X90297000Y-91429766D02*
X87698617Y-88831383D01*
X80078617Y-81211383D02*
X79756000Y-80888766D01*
X79756000Y-80888766D02*
X79756000Y-79560000D01*
X89331800Y-89027000D02*
X102666800Y-89027000D01*
X87894234Y-89027000D02*
X89331800Y-89027000D01*
X80020234Y-81153000D02*
X80078617Y-81211383D01*
X84590000Y-110339500D02*
X84590000Y-108720000D01*
X84638286Y-85771052D02*
X80078617Y-81211383D01*
X70104000Y-77470000D02*
X73787000Y-81153000D01*
X102666800Y-89027000D02*
X103251000Y-89611200D01*
X73787000Y-81153000D02*
X80020234Y-81153000D01*
X107111800Y-92559647D02*
X108517544Y-91153903D01*
X84638286Y-85771052D02*
X87698617Y-88831383D01*
X87698617Y-88831383D02*
X87894234Y-89027000D01*
X107111800Y-92735400D02*
X107111800Y-92559647D01*
X66040000Y-77470000D02*
X70104000Y-77470000D01*
X84590000Y-108720000D02*
X84582000Y-108712000D01*
X90297000Y-92583000D02*
X90297000Y-91429766D01*
%TO.N,/I2C1_SCL*%
X84991839Y-85417499D02*
X88144140Y-88569800D01*
X84991839Y-85417499D02*
X81280000Y-81705660D01*
X81280000Y-79560000D02*
X80460000Y-78740000D01*
X88144140Y-88569800D02*
X93472000Y-88569800D01*
X72136000Y-78740000D02*
X68326000Y-74930000D01*
X80460000Y-78740000D02*
X72136000Y-78740000D01*
X107886500Y-92492053D02*
X107886500Y-92646500D01*
X81280000Y-81705660D02*
X81280000Y-79560000D01*
X85090000Y-110339500D02*
X85090000Y-109220000D01*
X91440000Y-90170000D02*
X91948000Y-89662000D01*
X108871097Y-91507456D02*
X107886500Y-92492053D01*
X94488000Y-88442800D02*
X94361000Y-88569800D01*
X94488000Y-89662000D02*
X94615000Y-89789000D01*
X94488000Y-88392000D02*
X94488000Y-88442800D01*
X93472000Y-88569800D02*
X94361000Y-88569800D01*
X91440000Y-92075000D02*
X91440000Y-90170000D01*
X94361000Y-88569800D02*
X104546400Y-88569800D01*
X91948000Y-89662000D02*
X94488000Y-89662000D01*
X85090000Y-109220000D02*
X85344000Y-108966000D01*
X68326000Y-74930000D02*
X66040000Y-74930000D01*
%TO.N,/SPI2_NSS*%
X104032657Y-88100000D02*
X96760662Y-88100000D01*
X96760662Y-88100000D02*
X96199481Y-87538819D01*
X106783799Y-87740780D02*
X104391877Y-87740780D01*
X107103330Y-88060311D02*
X106783799Y-87740780D01*
X104391877Y-87740780D02*
X104032657Y-88100000D01*
%TO.N,Net-(U6-CS)*%
X88340000Y-109182000D02*
X86435001Y-109182000D01*
X85590000Y-110027001D02*
X85590000Y-110339500D01*
X86435001Y-109182000D02*
X85590000Y-110027001D01*
%TO.N,Net-(U6-SCX)*%
X81840000Y-112682000D02*
X83020000Y-111502000D01*
X83020000Y-111502000D02*
X83927500Y-111502000D01*
%TO.N,Net-(U6-SDX)*%
X82020000Y-111002000D02*
X83927500Y-111002000D01*
X81840000Y-110822000D02*
X82020000Y-111002000D01*
%TO.N,Net-(U6-SDO{slash}SA0)*%
X83927500Y-110502000D02*
X83927500Y-107844500D01*
X83927500Y-107844500D02*
X84270000Y-107502000D01*
%TO.N,/PA15*%
X87796072Y-82589072D02*
X86945930Y-81738930D01*
X86945930Y-81738930D02*
X86945930Y-79371536D01*
X87820266Y-82589072D02*
X87796072Y-82589072D01*
%TO.N,/PA0*%
X86360000Y-95964088D02*
X86360000Y-96139000D01*
X87466713Y-94857375D02*
X86360000Y-95964088D01*
%TO.N,/PB4*%
X85698946Y-84710392D02*
X82296000Y-81307446D01*
X82296000Y-81307446D02*
X82296000Y-81218000D01*
%TO.N,/PA1*%
X86995000Y-96036194D02*
X86995000Y-96647000D01*
X87820266Y-95210928D02*
X86995000Y-96036194D01*
%TO.N,/PB9*%
X83577625Y-86831713D02*
X82931000Y-86185088D01*
X82931000Y-86185088D02*
X82931000Y-85344000D01*
%TO.N,/PD2*%
X83566000Y-81163234D02*
X83566000Y-79368679D01*
X86406052Y-84003286D02*
X83566000Y-81163234D01*
X83566000Y-79368679D02*
X83546700Y-79349379D01*
%TO.N,/FPGA_BUS0*%
X93724608Y-92736054D02*
X96746554Y-95758000D01*
X106023136Y-88413864D02*
X106749777Y-88413864D01*
X96746554Y-95758000D02*
X98679000Y-95758000D01*
X98679000Y-95758000D02*
X106023136Y-88413864D01*
%TO.N,/FPGA_BUS1*%
X105812864Y-89386136D02*
X98990000Y-96209000D01*
X98990000Y-96209000D02*
X96490446Y-96209000D01*
X106749777Y-89386136D02*
X105812864Y-89386136D01*
X96490446Y-96209000D02*
X93371054Y-93089608D01*
%TO.N,/FPGA_GLOBAL_0*%
X124206000Y-114554000D02*
X125730000Y-113030000D01*
X117238220Y-90060220D02*
X119062500Y-91884500D01*
X125730000Y-113030000D02*
X128016000Y-115316000D01*
X128016000Y-123444000D02*
X127000000Y-124460000D01*
X128016000Y-115316000D02*
X128016000Y-123444000D01*
X119062500Y-112712500D02*
X118745000Y-113030000D01*
X115467201Y-90060220D02*
X117238220Y-90060220D01*
X122740000Y-114554000D02*
X124206000Y-114554000D01*
X119062500Y-91884500D02*
X119062500Y-112712500D01*
X115146670Y-89739689D02*
X115467201Y-90060220D01*
%TO.N,/FUPP*%
X115374000Y-84265776D02*
X115374000Y-76581000D01*
X113363067Y-86276708D02*
X115374000Y-84265776D01*
X115374000Y-75184000D02*
X115374000Y-76581000D01*
%TO.N,/FPGA_IO_1*%
X113732456Y-86646097D02*
X115796553Y-84582000D01*
X115796553Y-84582000D02*
X126238000Y-84582000D01*
X126238000Y-84582000D02*
X133350000Y-77470000D01*
%TO.N,/FPGA_IO_2*%
X115830981Y-87376000D02*
X126111000Y-87376000D01*
X115146670Y-88060311D02*
X115830981Y-87376000D01*
%TO.N,/FPGA_IO_3*%
X109474000Y-93732981D02*
X109474000Y-93980000D01*
X127000000Y-88900000D02*
X128270000Y-87630000D01*
X123317000Y-88900000D02*
X127000000Y-88900000D01*
X110285311Y-92921670D02*
X109474000Y-93732981D01*
%TO.N,/FPGA_IO_0*%
X112433288Y-84409731D02*
X111964689Y-84878330D01*
X112433288Y-84332761D02*
X112433288Y-84409731D01*
%TD*%
M02*
