M48
; DRILL file {KiCad 9.0.4} date 2025-12-11T19:56:23+0100
; FORMAT={-:-/ absolute / inch / decimal}
; #@! TF.CreationDate,2025-12-11T19:56:23+01:00
; #@! TF.GenerationSoftware,Kicad,Pcbnew,9.0.4
; #@! TF.FileFunction,Plated,1,4,PTH
FMAT,2
INCH
; #@! TA.AperFunction,Plated,PTH,ViaDrill
T1C0.0118
; #@! TA.AperFunction,Plated,PTH,ComponentDrill
T2C0.0118
; #@! TA.AperFunction,Plated,PTH,ComponentDrill
T3C0.0197
; #@! TA.AperFunction,Plated,PTH,ComponentDrill
T4C0.0315
; #@! TA.AperFunction,Plated,PTH,ComponentDrill
T5C0.0394
; #@! TA.AperFunction,Plated,PTH,ComponentDrill
T6C0.1063
%
G90
G05
T1
X2.7844Y-2.765
X2.825Y-4.035
X2.845Y-2.865
X2.875Y-2.57
X2.875Y-2.765
X2.8959Y-3.4041
X2.9656Y-2.765
X3.03Y-2.955
X3.1123Y-3.5997
X3.12Y-4.11
X3.1443Y-2.875
X3.155Y-3.335
X3.1708Y-3.6858
X3.19Y-3.875
X3.193Y-3.578
X3.2Y-3.295
X3.215Y-3.5536
X3.22Y-4.54
X3.23Y-3.615
X3.2364Y-3.135
X3.24Y-3.1976
X3.2468Y-4.0832
X3.25Y-3.64
X3.26Y-3.1
X3.265Y-3.36
X3.265Y-4.295
X3.285Y-3.045
X3.2892Y-3.124
X3.29Y-3.805
X3.31Y-3.68
X3.32Y-3.71
X3.3227Y-3.1253
X3.325Y-2.955
X3.325Y-3.535
X3.33Y-4.28
X3.3303Y-4.455
X3.345Y-3.465
X3.345Y-3.735
X3.3561Y-3.1248
X3.36Y-4.29
X3.3896Y-3.1251
X3.4Y-3.785
X3.42Y-4.235
X3.4231Y-3.1249
X3.425Y-3.805
X3.4278Y-3.5187
X3.43Y-2.71
X3.43Y-4.4981
X3.435Y-4.4095
X3.44Y-3.655
X3.4675Y-4.1325
X3.47Y-3.81
X3.515Y-4.175
X3.52Y-4.365
X3.525Y-2.86
X3.53Y-4.07
X3.555Y-3.645
X3.565Y-3.81
X3.5808Y-3.1658
X3.6Y-3.625
X3.6Y-3.875
X3.62Y-2.71
X3.645Y-3.59
X3.645Y-3.805
X3.66Y-3.56
X3.6638Y-4.705
X3.665Y-4.845
X3.675Y-3.125
X3.675Y-4.295
X3.6931Y-4.1819
X3.72Y-3.48
X3.72Y-4.45
X3.725Y-3.535
X3.7425Y-3.3275
X3.7462Y-4.1338
X3.765Y-3.675
X3.8Y-2.61
X3.8Y-4.615
X3.805Y-3.305
X3.85Y-2.88
X3.85Y-3.5966
X3.85Y-4.005
X3.8534Y-3.685
X3.893Y-4.26
X3.9Y-2.61
X3.9Y-4.615
X3.9126Y-3.105
X3.9874Y-3.105
X4.0Y-2.61
X4.0Y-4.615
X4.02Y-3.215
X4.0206Y-3.3881
X4.0375Y-4.1375
X4.0467Y-3.409
X4.06Y-3.33
X4.065Y-3.528
X4.0771Y-3.4232
X4.085Y-4.525
X4.1Y-2.61
X4.1Y-2.92
X4.1Y-4.165
X4.1Y-4.615
X4.116Y-3.487
X4.16Y-4.21
X4.205Y-3.265
X4.2056Y-4.325
X4.21Y-3.33
X4.217Y-3.651
X4.23Y-3.695
X4.2383Y-3.7817
X4.2475Y-3.6475
X4.2786Y-3.6455
X4.28Y-2.71
X4.31Y-3.23
X4.31Y-3.7
X4.3179Y-3.1471
X4.345Y-3.5
X4.3559Y-3.71
X4.375Y-3.47
X4.375Y-3.5
X4.375Y-3.53
X4.405Y-3.5
X4.4265Y-3.3202
X4.47Y-2.71
X4.49Y-3.32
X4.4983Y-3.8
X4.5155Y-3.6545
X4.519Y-3.97
X4.55Y-4.845
X4.5506Y-4.7
X4.5517Y-3.7567
X4.585Y-3.29
X4.5883Y-3.5983
X4.595Y-3.925
X4.605Y-3.615
X4.6058Y-3.775
X4.6447Y-3.665
X4.6626Y-4.365
X4.675Y-4.45
X4.6911Y-2.8689
X4.7Y-4.55
X4.73Y-4.65
X4.7677Y-4.195
X4.7677Y-4.335
X4.7677Y-4.475
X4.7677Y-4.615
X4.77Y-3.91
X4.77Y-3.99
X4.77Y-4.06
X4.79Y-3.56
X4.79Y-3.72
X4.855Y-3.0
X4.855Y-3.5
X4.9344Y-2.765
X4.965Y-3.44
X4.985Y-2.865
X5.025Y-2.5798
X5.025Y-2.765
X5.035Y-2.945
X5.035Y-3.14
X5.05Y-3.45
X5.1094Y-3.043
X5.1156Y-2.765
T2
X2.8356Y-2.4569
X2.875Y-2.4569
X2.9144Y-2.4569
X3.4463Y-2.4409
X3.4463Y-2.5197
X3.6037Y-2.4409
X3.6037Y-2.5197
X4.2958Y-2.4419
X4.2958Y-2.5206
X4.4533Y-2.4419
X4.4533Y-2.5206
X4.9856Y-2.4569
X5.025Y-2.4569
X5.0644Y-2.4569
T4
X4.95Y-3.95
X4.95Y-4.05
X4.95Y-4.15
X4.95Y-4.25
X4.95Y-4.35
X4.95Y-4.45
X4.95Y-4.55
X4.95Y-4.65
X5.25Y-3.95
X5.25Y-4.05
X5.25Y-4.15
X5.25Y-4.25
X5.25Y-4.35
X5.25Y-4.45
X5.25Y-4.55
X5.25Y-4.65
T5
X2.6Y-2.95
X2.6Y-3.05
X2.6Y-3.15
X2.6Y-3.25
X2.6Y-3.35
X2.6Y-3.45
X2.6Y-3.55
X2.6Y-3.65
X2.6Y-3.75
X2.6Y-3.85
X2.6Y-3.95
X2.6Y-4.05
X2.6Y-4.15
X2.6Y-4.25
X2.6Y-4.35
X2.6Y-4.45
X2.6Y-4.55
X2.6Y-4.65
X2.75Y-3.15
X2.75Y-3.25
X2.75Y-3.35
X2.75Y-3.45
X2.75Y-3.55
X2.75Y-3.65
X2.75Y-3.75
X2.75Y-3.85
X2.75Y-3.95
X2.75Y-4.05
X2.75Y-4.15
X2.75Y-4.25
X2.75Y-4.35
X2.75Y-4.45
X2.75Y-4.55
X2.75Y-4.65
X2.75Y-4.75
X2.75Y-4.85
X2.75Y-4.95
X4.1Y-3.075
X4.1Y-3.175
X4.8Y-4.9
X4.9Y-4.9
X5.0Y-4.9
X5.1Y-4.9
X5.25Y-2.75
X5.25Y-2.85
X5.25Y-2.95
X5.25Y-3.05
X5.25Y-3.15
X5.25Y-3.25
X5.25Y-3.35
X5.25Y-3.45
X5.25Y-3.55
X5.25Y-3.65
X5.25Y-3.75
T6
X2.5197Y-2.5197
X2.5197Y-4.9606
X5.3543Y-2.5197
X5.3543Y-4.9606
T3
G00X3.3545Y-2.4811
M15
G01X3.3545Y-2.4496
M16
G05
G00X3.3545Y-2.6524
M15
G01X3.3545Y-2.6091
M16
G05
G00X3.6955Y-2.4811
M15
G01X3.6955Y-2.4496
M16
G05
G00X3.6955Y-2.6524
M15
G01X3.6955Y-2.6091
M16
G05
G00X4.2041Y-2.482
M15
G01X4.2041Y-2.4506
M16
G05
G00X4.2041Y-2.6533
M15
G01X4.2041Y-2.61
M16
G05
G00X4.545Y-2.482
M15
G01X4.545Y-2.4506
M16
G05
G00X4.545Y-2.6533
M15
G01X4.545Y-2.61
M16
G05
M30
