%TF.GenerationSoftware,KiCad,Pcbnew,9.0.4*%
%TF.CreationDate,2025-11-02T13:02:32+01:00*%
%TF.ProjectId,iCEBrainstorm,69434542-7261-4696-9e73-746f726d2e6b,rev?*%
%TF.SameCoordinates,Original*%
%TF.FileFunction,Legend,Top*%
%TF.FilePolarity,Positive*%
%FSLAX46Y46*%
G04 Gerber Fmt 4.6, Leading zero omitted, Abs format (unit mm)*
G04 Created by KiCad (PCBNEW 9.0.4) date 2025-11-02 13:02:32*
%MOMM*%
%LPD*%
G01*
G04 APERTURE LIST*
G04 Aperture macros list*
%AMRoundRect*
0 Rectangle with rounded corners*
0 $1 Rounding radius*
0 $2 $3 $4 $5 $6 $7 $8 $9 X,Y pos of 4 corners*
0 Add a 4 corners polygon primitive as box body*
4,1,4,$2,$3,$4,$5,$6,$7,$8,$9,$2,$3,0*
0 Add four circle primitives for the rounded corners*
1,1,$1+$1,$2,$3*
1,1,$1+$1,$4,$5*
1,1,$1+$1,$6,$7*
1,1,$1+$1,$8,$9*
0 Add four rect primitives between the rounded corners*
20,1,$1+$1,$2,$3,$4,$5,0*
20,1,$1+$1,$4,$5,$6,$7,0*
20,1,$1+$1,$6,$7,$8,$9,0*
20,1,$1+$1,$8,$9,$2,$3,0*%
G04 Aperture macros list end*
%ADD10C,0.150000*%
%ADD11C,0.120000*%
%ADD12RoundRect,0.250000X-0.600000X-0.250000X0.600000X-0.250000X0.600000X0.250000X-0.600000X0.250000X0*%
%ADD13RoundRect,0.244000X-0.244000X-0.269000X0.244000X-0.269000X0.244000X0.269000X-0.244000X0.269000X0*%
%ADD14RoundRect,0.219000X-0.219000X-0.294000X0.219000X-0.294000X0.219000X0.294000X-0.219000X0.294000X0*%
%ADD15RoundRect,0.050000X-0.375000X-0.050000X0.375000X-0.050000X0.375000X0.050000X-0.375000X0.050000X0*%
%ADD16RoundRect,0.050000X-0.050000X-0.375000X0.050000X-0.375000X0.050000X0.375000X-0.050000X0.375000X0*%
%ADD17C,0.500000*%
%ADD18RoundRect,0.250000X-0.575000X-0.575000X0.575000X-0.575000X0.575000X0.575000X-0.575000X0.575000X0*%
%ADD19RoundRect,0.062500X-0.375000X-0.062500X0.375000X-0.062500X0.375000X0.062500X-0.375000X0.062500X0*%
%ADD20RoundRect,0.062500X-0.062500X-0.375000X0.062500X-0.375000X0.062500X0.375000X-0.062500X0.375000X0*%
%ADD21R,5.600000X5.600000*%
%ADD22RoundRect,0.250000X-0.450000X-0.350000X0.450000X-0.350000X0.450000X0.350000X-0.450000X0.350000X0*%
%ADD23RoundRect,0.269000X-0.269000X-0.494000X0.269000X-0.494000X0.269000X0.494000X-0.269000X0.494000X0*%
%ADD24RoundRect,0.075000X-0.665000X-0.075000X0.665000X-0.075000X0.665000X0.075000X-0.665000X0.075000X0*%
%ADD25RoundRect,0.075000X-0.075000X-0.665000X0.075000X-0.665000X0.075000X0.665000X-0.075000X0.665000X0*%
%ADD26RoundRect,0.220000X-0.220000X-0.380000X0.220000X-0.380000X0.220000X0.380000X-0.220000X0.380000X0*%
%ADD27RoundRect,0.050000X-0.362500X-0.050000X0.362500X-0.050000X0.362500X0.050000X-0.362500X0.050000X0*%
%ADD28RoundRect,0.050000X-0.050000X-0.362500X0.050000X-0.362500X0.050000X0.362500X-0.050000X0.362500X0*%
%ADD29R,2.700000X2.700000*%
G04 APERTURE END LIST*
D10*
X105600595Y-63874819D02*
X105600595Y-64684342D01*
X105600595Y-64684342D02*
X105648214Y-64779580D01*
X105648214Y-64779580D02*
X105695833Y-64827200D01*
X105695833Y-64827200D02*
X105791071Y-64874819D01*
X105791071Y-64874819D02*
X105981547Y-64874819D01*
X105981547Y-64874819D02*
X106076785Y-64827200D01*
X106076785Y-64827200D02*
X106124404Y-64779580D01*
X106124404Y-64779580D02*
X106172023Y-64684342D01*
X106172023Y-64684342D02*
X106172023Y-63874819D01*
X106552976Y-63874819D02*
X107172023Y-63874819D01*
X107172023Y-63874819D02*
X106838690Y-64255771D01*
X106838690Y-64255771D02*
X106981547Y-64255771D01*
X106981547Y-64255771D02*
X107076785Y-64303390D01*
X107076785Y-64303390D02*
X107124404Y-64351009D01*
X107124404Y-64351009D02*
X107172023Y-64446247D01*
X107172023Y-64446247D02*
X107172023Y-64684342D01*
X107172023Y-64684342D02*
X107124404Y-64779580D01*
X107124404Y-64779580D02*
X107076785Y-64827200D01*
X107076785Y-64827200D02*
X106981547Y-64874819D01*
X106981547Y-64874819D02*
X106695833Y-64874819D01*
X106695833Y-64874819D02*
X106600595Y-64827200D01*
X106600595Y-64827200D02*
X106552976Y-64779580D01*
X117875595Y-76724819D02*
X117875595Y-77534342D01*
X117875595Y-77534342D02*
X117923214Y-77629580D01*
X117923214Y-77629580D02*
X117970833Y-77677200D01*
X117970833Y-77677200D02*
X118066071Y-77724819D01*
X118066071Y-77724819D02*
X118256547Y-77724819D01*
X118256547Y-77724819D02*
X118351785Y-77677200D01*
X118351785Y-77677200D02*
X118399404Y-77629580D01*
X118399404Y-77629580D02*
X118447023Y-77534342D01*
X118447023Y-77534342D02*
X118447023Y-76724819D01*
X119351785Y-77058152D02*
X119351785Y-77724819D01*
X119113690Y-76677200D02*
X118875595Y-77391485D01*
X118875595Y-77391485D02*
X119494642Y-77391485D01*
%TO.C,S1*%
X74750000Y-67980000D02*
X74750000Y-70320000D01*
X75130000Y-70810000D02*
X76020000Y-71700000D01*
X75500000Y-68150000D02*
X76300000Y-67350000D01*
X75500000Y-70150000D02*
X75500000Y-68150000D01*
X76020000Y-66600000D02*
X75130000Y-67490000D01*
X76020000Y-66600000D02*
X78580000Y-66600000D01*
X76020000Y-71700000D02*
X78580000Y-71700000D01*
X76300000Y-67350000D02*
X78200000Y-67350000D01*
X76400000Y-71050000D02*
X75500000Y-70150000D01*
X78100000Y-71050000D02*
X76400000Y-71050000D01*
X78200000Y-67350000D02*
X79100000Y-68250000D01*
X78580000Y-66600000D02*
X79470000Y-67490000D01*
X79100000Y-68250000D02*
X79100000Y-70050000D01*
X79100000Y-70050000D02*
X78100000Y-71050000D01*
X79470000Y-70810000D02*
X78580000Y-71700000D01*
X79850000Y-67980000D02*
X79850000Y-70320000D01*
X74080000Y-66650000D02*
G75*
G02*
X74020000Y-66650000I-30000J0D01*
G01*
X74020000Y-66650000D02*
G75*
G02*
X74080000Y-66650000I30000J0D01*
G01*
X78580000Y-69150000D02*
G75*
G02*
X76020000Y-69150000I-1280000J0D01*
G01*
X76020000Y-69150000D02*
G75*
G02*
X78580000Y-69150000I1280000J0D01*
G01*
%TO.C,U2*%
X116090000Y-55990000D02*
X116090000Y-55780000D01*
X116090000Y-58760000D02*
X116090000Y-58310000D01*
X116540000Y-55540000D02*
X116390000Y-55540000D01*
X116540000Y-58760000D02*
X116090000Y-58760000D01*
X118860000Y-55540000D02*
X119310000Y-55540000D01*
X118860000Y-58760000D02*
X119310000Y-58760000D01*
X119310000Y-55540000D02*
X119310000Y-55990000D01*
X119310000Y-58760000D02*
X119310000Y-58310000D01*
D11*
X116090000Y-55540000D02*
X115850000Y-55210000D01*
X116330000Y-55210000D01*
X116090000Y-55540000D01*
G36*
X116090000Y-55540000D02*
G01*
X115850000Y-55210000D01*
X116330000Y-55210000D01*
X116090000Y-55540000D01*
G37*
%TO.C,U3*%
X102752500Y-66115000D02*
X102752500Y-65880000D01*
X102752500Y-72860000D02*
X102752500Y-72385000D01*
X103227500Y-65640000D02*
X103052500Y-65640000D01*
X103227500Y-72860000D02*
X102752500Y-72860000D01*
X109497500Y-65640000D02*
X109972500Y-65640000D01*
X109497500Y-72860000D02*
X109972500Y-72860000D01*
X109972500Y-65640000D02*
X109972500Y-66115000D01*
X109972500Y-72860000D02*
X109972500Y-72385000D01*
X102752500Y-65640000D02*
X102512500Y-65310000D01*
X102992500Y-65310000D01*
X102752500Y-65640000D01*
G36*
X102752500Y-65640000D02*
G01*
X102512500Y-65310000D01*
X102992500Y-65310000D01*
X102752500Y-65640000D01*
G37*
D10*
%TO.C,X1*%
X124200000Y-62470000D02*
X124200000Y-63820000D01*
X124200000Y-63820000D02*
X125800000Y-63820000D01*
%TO.C,U1*%
X104940000Y-52750000D02*
X104940000Y-53200000D01*
X104940000Y-59970000D02*
X104940000Y-59520000D01*
X105390000Y-52750000D02*
X104940000Y-52750000D01*
X105390000Y-59970000D02*
X104940000Y-59970000D01*
X111710000Y-52750000D02*
X112160000Y-52750000D01*
X111710000Y-59970000D02*
X112160000Y-59970000D01*
X112160000Y-52750000D02*
X112160000Y-53200000D01*
X112160000Y-59970000D02*
X112160000Y-59520000D01*
D11*
X104350000Y-53200000D02*
X104010000Y-52730000D01*
X104690000Y-52730000D01*
X104350000Y-53200000D01*
G36*
X104350000Y-53200000D02*
G01*
X104010000Y-52730000D01*
X104690000Y-52730000D01*
X104350000Y-53200000D01*
G37*
D10*
%TO.C,FB1*%
X98565000Y-79300000D02*
X99365000Y-79300000D01*
X98565000Y-80420000D02*
X99365000Y-80420000D01*
D11*
%TO.C,U4*%
X116527500Y-79040000D02*
X116527500Y-78730000D01*
X116527500Y-82710000D02*
X116527500Y-82160000D01*
X117077500Y-78490000D02*
X116827500Y-78490000D01*
X117077500Y-82710000D02*
X116527500Y-82710000D01*
X120197500Y-78490000D02*
X120747500Y-78490000D01*
X120197500Y-82710000D02*
X120747500Y-82710000D01*
X120747500Y-78490000D02*
X120747500Y-79040000D01*
X120747500Y-82710000D02*
X120747500Y-82160000D01*
X116527500Y-78490000D02*
X116287500Y-78160000D01*
X116767500Y-78160000D01*
X116527500Y-78490000D01*
G36*
X116527500Y-78490000D02*
G01*
X116287500Y-78160000D01*
X116767500Y-78160000D01*
X116527500Y-78490000D01*
G37*
%TD*%
%LPC*%
D12*
%TO.C,S1*%
X74000000Y-67300000D03*
X80600000Y-67300000D03*
X74000000Y-71000000D03*
X80600000Y-71000000D03*
%TD*%
D13*
%TO.C,C1*%
X93985000Y-58950000D03*
X95545000Y-58950000D03*
%TD*%
D14*
%TO.C,R1*%
X93845000Y-76950000D03*
X95485000Y-76950000D03*
%TD*%
D15*
%TO.C,U2*%
X116250000Y-56350000D03*
X116250000Y-56750000D03*
X116250000Y-57150000D03*
X116250000Y-57550000D03*
X116250000Y-57950000D03*
D16*
X116900000Y-58600000D03*
X117300000Y-58600000D03*
X117700000Y-58600000D03*
X118100000Y-58600000D03*
X118500000Y-58600000D03*
D15*
X119150000Y-57950000D03*
X119150000Y-57550000D03*
X119150000Y-57150000D03*
X119150000Y-56750000D03*
X119150000Y-56350000D03*
D16*
X118500000Y-55700000D03*
X118100000Y-55700000D03*
X117700000Y-55700000D03*
X117300000Y-55700000D03*
X116900000Y-55700000D03*
D17*
X117700000Y-57150000D03*
D18*
X117700000Y-57150000D03*
%TD*%
D13*
%TO.C,C7*%
X93985000Y-70200000D03*
X95545000Y-70200000D03*
%TD*%
%TO.C,C4*%
X93985000Y-65700000D03*
X95545000Y-65700000D03*
%TD*%
%TO.C,C2*%
X93985000Y-61200000D03*
X95545000Y-61200000D03*
%TD*%
%TO.C,C8*%
X93985000Y-72450000D03*
X95545000Y-72450000D03*
%TD*%
D19*
%TO.C,U3*%
X102925000Y-66500000D03*
X102925000Y-67000000D03*
X102925000Y-67500000D03*
X102925000Y-68000000D03*
X102925000Y-68500000D03*
X102925000Y-69000000D03*
X102925000Y-69500000D03*
X102925000Y-70000000D03*
X102925000Y-70500000D03*
X102925000Y-71000000D03*
X102925000Y-71500000D03*
X102925000Y-72000000D03*
D20*
X103612500Y-72687500D03*
X104112500Y-72687500D03*
X104612500Y-72687500D03*
X105112500Y-72687500D03*
X105612500Y-72687500D03*
X106112500Y-72687500D03*
X106612500Y-72687500D03*
X107112500Y-72687500D03*
X107612500Y-72687500D03*
X108112500Y-72687500D03*
X108612500Y-72687500D03*
X109112500Y-72687500D03*
D19*
X109800000Y-72000000D03*
X109800000Y-71500000D03*
X109800000Y-71000000D03*
X109800000Y-70500000D03*
X109800000Y-70000000D03*
X109800000Y-69500000D03*
X109800000Y-69000000D03*
X109800000Y-68500000D03*
X109800000Y-68000000D03*
X109800000Y-67500000D03*
X109800000Y-67000000D03*
X109800000Y-66500000D03*
D20*
X109112500Y-65812500D03*
X108612500Y-65812500D03*
X108112500Y-65812500D03*
X107612500Y-65812500D03*
X107112500Y-65812500D03*
X106612500Y-65812500D03*
X106112500Y-65812500D03*
X105612500Y-65812500D03*
X105112500Y-65812500D03*
X104612500Y-65812500D03*
X104112500Y-65812500D03*
X103612500Y-65812500D03*
D21*
X106362500Y-69250000D03*
%TD*%
D22*
%TO.C,X1*%
X125100000Y-63000000D03*
X127300000Y-63000000D03*
X127300000Y-61240000D03*
X125100000Y-61240000D03*
%TD*%
D13*
%TO.C,C5*%
X93985000Y-67950000D03*
X95545000Y-67950000D03*
%TD*%
%TO.C,C9*%
X93985000Y-74700000D03*
X95545000Y-74700000D03*
%TD*%
D23*
%TO.C,C6*%
X102515000Y-80010000D03*
X104415000Y-80010000D03*
%TD*%
D24*
%TO.C,U1*%
X104390000Y-53610000D03*
X104390000Y-54110000D03*
X104390000Y-54610000D03*
X104390000Y-55110000D03*
X104390000Y-55610000D03*
X104390000Y-56110000D03*
X104390000Y-56610000D03*
X104390000Y-57110000D03*
X104390000Y-57610000D03*
X104390000Y-58110000D03*
X104390000Y-58610000D03*
X104390000Y-59110000D03*
D25*
X105800000Y-60520000D03*
X106300000Y-60520000D03*
X106800000Y-60520000D03*
X107300000Y-60520000D03*
X107800000Y-60520000D03*
X108300000Y-60520000D03*
X108800000Y-60520000D03*
X109300000Y-60520000D03*
X109800000Y-60520000D03*
X110300000Y-60520000D03*
X110800000Y-60520000D03*
X111300000Y-60520000D03*
D24*
X112710000Y-59110000D03*
X112710000Y-58610000D03*
X112710000Y-58110000D03*
X112710000Y-57610000D03*
X112710000Y-57110000D03*
X112710000Y-56610000D03*
X112710000Y-56110000D03*
X112710000Y-55610000D03*
X112710000Y-55110000D03*
X112710000Y-54610000D03*
X112710000Y-54110000D03*
X112710000Y-53610000D03*
D25*
X111300000Y-52200000D03*
X110800000Y-52200000D03*
X110300000Y-52200000D03*
X109800000Y-52200000D03*
X109300000Y-52200000D03*
X108800000Y-52200000D03*
X108300000Y-52200000D03*
X107800000Y-52200000D03*
X107300000Y-52200000D03*
X106800000Y-52200000D03*
X106300000Y-52200000D03*
X105800000Y-52200000D03*
%TD*%
D13*
%TO.C,C3*%
X93985000Y-63450000D03*
X95545000Y-63450000D03*
%TD*%
D26*
%TO.C,FB1*%
X97905000Y-79860000D03*
X100025000Y-79860000D03*
%TD*%
D27*
%TO.C,U4*%
X116675000Y-79400000D03*
X116675000Y-79800000D03*
X116675000Y-80200000D03*
X116675000Y-80600000D03*
X116675000Y-81000000D03*
X116675000Y-81400000D03*
X116675000Y-81800000D03*
D28*
X117437500Y-82562500D03*
X117837500Y-82562500D03*
X118237500Y-82562500D03*
X118637500Y-82562500D03*
X119037500Y-82562500D03*
X119437500Y-82562500D03*
X119837500Y-82562500D03*
D27*
X120600000Y-81800000D03*
X120600000Y-81400000D03*
X120600000Y-81000000D03*
X120600000Y-80600000D03*
X120600000Y-80200000D03*
X120600000Y-79800000D03*
X120600000Y-79400000D03*
D28*
X119837500Y-78637500D03*
X119437500Y-78637500D03*
X119037500Y-78637500D03*
X118637500Y-78637500D03*
X118237500Y-78637500D03*
X117837500Y-78637500D03*
X117437500Y-78637500D03*
D29*
X118637500Y-80600000D03*
%TD*%
%LPD*%
M02*
