M48
; DRILL file {KiCad 9.0.4} date 2025-11-27T13:39:18+0100
; FORMAT={-:-/ absolute / inch / decimal}
; #@! TF.CreationDate,2025-11-27T13:39:18+01:00
; #@! TF.GenerationSoftware,Kicad,Pcbnew,9.0.4
; #@! TF.FileFunction,Plated,1,2,PTH
FMAT,2
INCH
; #@! TA.AperFunction,Plated,PTH,ComponentDrill
T1C0.0118
; #@! TA.AperFunction,Plated,PTH,ComponentDrill
T2C0.0197
; #@! TA.AperFunction,Plated,PTH,ComponentDrill
T3C0.0256
; #@! TA.AperFunction,Plated,PTH,ComponentDrill
T4C0.0315
; #@! TA.AperFunction,Plated,PTH,ComponentDrill
T5C0.1063
%
G90
G05
T1
X2.1752Y-3.0709
X2.1752Y-3.1102
X2.1752Y-3.1496
X3.2677Y-2.6378
X3.2677Y-2.7165
X3.4252Y-2.6378
X3.4252Y-2.7165
X4.4488Y-2.6378
X4.4488Y-2.7165
X4.6063Y-2.6378
X4.6063Y-2.7165
X6.1024Y-3.1299
X6.1024Y-3.1693
X6.1024Y-3.2087
T3
X2.7756Y-6.5551
X2.7756Y-6.6051
X2.7854Y-5.5713
X2.7854Y-5.6213
X2.7854Y-5.6713
X2.7854Y-5.7213
X2.7854Y-5.7713
X2.7854Y-5.8213
X2.7854Y-5.8713
X2.7854Y-5.9213
X2.7854Y-5.9713
X2.7854Y-6.0213
X2.7854Y-6.0713
X2.7854Y-6.1213
X2.7854Y-6.1713
X2.7854Y-6.2213
X2.7854Y-6.2713
X2.7854Y-6.3213
X3.4835Y-5.5118
X3.5335Y-5.5118
X3.5835Y-5.5118
X3.6335Y-5.5118
X3.6614Y-6.8602
X3.6614Y-6.9102
X3.6614Y-6.9602
X3.6835Y-5.5118
X3.7335Y-5.5118
X3.9453Y-4.1142
X3.9567Y-7.0563
X3.9567Y-7.1063
X3.9953Y-4.1142
X4.0453Y-4.1142
X4.0953Y-4.1142
X4.1453Y-4.1142
X4.1953Y-4.1142
X4.4087Y-6.9488
X4.4587Y-6.9488
X4.5087Y-6.9488
X4.6744Y-6.9488
X4.7244Y-6.9488
X6.752Y-3.8437
X6.752Y-3.8937
X6.752Y-3.9437
X6.752Y-3.9937
X6.752Y-4.0437
X6.752Y-4.0937
X6.752Y-4.1437
X6.752Y-4.1937
X7.313Y-4.0323
X7.313Y-4.0823
X7.313Y-4.1323
X7.313Y-4.1823
X7.313Y-4.2323
X7.313Y-4.2823
X7.313Y-4.3323
X7.313Y-4.3823
T4
X1.0039Y-3.3583
X1.0039Y-3.4583
X1.0039Y-3.5583
X1.0039Y-3.6583
X1.0039Y-3.7583
X1.0039Y-3.8583
X1.0039Y-3.9583
X1.0039Y-4.0583
X1.3039Y-3.3583
X1.3039Y-3.4583
X1.3039Y-3.5583
X1.3039Y-3.6583
X1.3039Y-3.7583
X1.3039Y-3.8583
X1.3039Y-3.9583
X1.3039Y-4.0583
X6.09Y-3.744
X6.09Y-3.844
X6.09Y-3.944
X6.09Y-4.044
X6.09Y-4.144
X6.09Y-4.244
X6.09Y-4.344
X6.09Y-4.444
X6.39Y-3.744
X6.39Y-3.844
X6.39Y-3.944
X6.39Y-4.044
X6.39Y-4.144
X6.39Y-4.244
X6.39Y-4.344
X6.39Y-4.444
T5
X2.7559Y-2.7559
X2.7559Y-5.1181
X5.1181Y-2.7559
X5.1181Y-5.1181
T2
G00X3.176Y-2.678
M15
G01X3.176Y-2.6465
M16
G05
G00X3.176Y-2.8492
M15
G01X3.176Y-2.8059
M16
G05
G00X3.5169Y-2.678
M15
G01X3.5169Y-2.6465
M16
G05
G00X3.5169Y-2.8492
M15
G01X3.5169Y-2.8059
M16
G05
G00X4.3571Y-2.678
M15
G01X4.3571Y-2.6465
M16
G05
G00X4.3571Y-2.8492
M15
G01X4.3571Y-2.8059
M16
G05
G00X4.698Y-2.678
M15
G01X4.698Y-2.6465
M16
G05
G00X4.698Y-2.8492
M15
G01X4.698Y-2.8059
M16
G05
M30
