%TF.GenerationSoftware,KiCad,Pcbnew,9.0.4*%
%TF.CreationDate,2025-11-02T13:02:32+01:00*%
%TF.ProjectId,iCEBrainstorm,69434542-7261-4696-9e73-746f726d2e6b,rev?*%
%TF.SameCoordinates,Original*%
%TF.FileFunction,Soldermask,Top*%
%TF.FilePolarity,Negative*%
%FSLAX46Y46*%
G04 Gerber Fmt 4.6, Leading zero omitted, Abs format (unit mm)*
G04 Created by KiCad (PCBNEW 9.0.4) date 2025-11-02 13:02:32*
%MOMM*%
%LPD*%
G01*
G04 APERTURE LIST*
G04 Aperture macros list*
%AMRoundRect*
0 Rectangle with rounded corners*
0 $1 Rounding radius*
0 $2 $3 $4 $5 $6 $7 $8 $9 X,Y pos of 4 corners*
0 Add a 4 corners polygon primitive as box body*
4,1,4,$2,$3,$4,$5,$6,$7,$8,$9,$2,$3,0*
0 Add four circle primitives for the rounded corners*
1,1,$1+$1,$2,$3*
1,1,$1+$1,$4,$5*
1,1,$1+$1,$6,$7*
1,1,$1+$1,$8,$9*
0 Add four rect primitives between the rounded corners*
20,1,$1+$1,$2,$3,$4,$5,0*
20,1,$1+$1,$4,$5,$6,$7,0*
20,1,$1+$1,$6,$7,$8,$9,0*
20,1,$1+$1,$8,$9,$2,$3,0*%
G04 Aperture macros list end*
%ADD10RoundRect,0.250000X-0.600000X-0.250000X0.600000X-0.250000X0.600000X0.250000X-0.600000X0.250000X0*%
%ADD11RoundRect,0.244000X-0.244000X-0.269000X0.244000X-0.269000X0.244000X0.269000X-0.244000X0.269000X0*%
%ADD12RoundRect,0.219000X-0.219000X-0.294000X0.219000X-0.294000X0.219000X0.294000X-0.219000X0.294000X0*%
%ADD13RoundRect,0.050000X-0.375000X-0.050000X0.375000X-0.050000X0.375000X0.050000X-0.375000X0.050000X0*%
%ADD14RoundRect,0.050000X-0.050000X-0.375000X0.050000X-0.375000X0.050000X0.375000X-0.050000X0.375000X0*%
%ADD15C,0.500000*%
%ADD16RoundRect,0.250000X-0.575000X-0.575000X0.575000X-0.575000X0.575000X0.575000X-0.575000X0.575000X0*%
%ADD17RoundRect,0.062500X-0.375000X-0.062500X0.375000X-0.062500X0.375000X0.062500X-0.375000X0.062500X0*%
%ADD18RoundRect,0.062500X-0.062500X-0.375000X0.062500X-0.375000X0.062500X0.375000X-0.062500X0.375000X0*%
%ADD19R,5.600000X5.600000*%
%ADD20RoundRect,0.250000X-0.450000X-0.350000X0.450000X-0.350000X0.450000X0.350000X-0.450000X0.350000X0*%
%ADD21RoundRect,0.269000X-0.269000X-0.494000X0.269000X-0.494000X0.269000X0.494000X-0.269000X0.494000X0*%
%ADD22RoundRect,0.075000X-0.665000X-0.075000X0.665000X-0.075000X0.665000X0.075000X-0.665000X0.075000X0*%
%ADD23RoundRect,0.075000X-0.075000X-0.665000X0.075000X-0.665000X0.075000X0.665000X-0.075000X0.665000X0*%
%ADD24RoundRect,0.220000X-0.220000X-0.380000X0.220000X-0.380000X0.220000X0.380000X-0.220000X0.380000X0*%
%ADD25RoundRect,0.050000X-0.362500X-0.050000X0.362500X-0.050000X0.362500X0.050000X-0.362500X0.050000X0*%
%ADD26RoundRect,0.050000X-0.050000X-0.362500X0.050000X-0.362500X0.050000X0.362500X-0.050000X0.362500X0*%
%ADD27R,2.700000X2.700000*%
G04 APERTURE END LIST*
D10*
%TO.C,S1*%
X74000000Y-67300000D03*
X80600000Y-67300000D03*
X74000000Y-71000000D03*
X80600000Y-71000000D03*
%TD*%
D11*
%TO.C,C1*%
X93985000Y-58950000D03*
X95545000Y-58950000D03*
%TD*%
D12*
%TO.C,R1*%
X93845000Y-76950000D03*
X95485000Y-76950000D03*
%TD*%
D13*
%TO.C,U2*%
X116250000Y-56350000D03*
X116250000Y-56750000D03*
X116250000Y-57150000D03*
X116250000Y-57550000D03*
X116250000Y-57950000D03*
D14*
X116900000Y-58600000D03*
X117300000Y-58600000D03*
X117700000Y-58600000D03*
X118100000Y-58600000D03*
X118500000Y-58600000D03*
D13*
X119150000Y-57950000D03*
X119150000Y-57550000D03*
X119150000Y-57150000D03*
X119150000Y-56750000D03*
X119150000Y-56350000D03*
D14*
X118500000Y-55700000D03*
X118100000Y-55700000D03*
X117700000Y-55700000D03*
X117300000Y-55700000D03*
X116900000Y-55700000D03*
D15*
X117700000Y-57150000D03*
D16*
X117700000Y-57150000D03*
%TD*%
D11*
%TO.C,C7*%
X93985000Y-70200000D03*
X95545000Y-70200000D03*
%TD*%
%TO.C,C4*%
X93985000Y-65700000D03*
X95545000Y-65700000D03*
%TD*%
%TO.C,C2*%
X93985000Y-61200000D03*
X95545000Y-61200000D03*
%TD*%
%TO.C,C8*%
X93985000Y-72450000D03*
X95545000Y-72450000D03*
%TD*%
D17*
%TO.C,U3*%
X102925000Y-66500000D03*
X102925000Y-67000000D03*
X102925000Y-67500000D03*
X102925000Y-68000000D03*
X102925000Y-68500000D03*
X102925000Y-69000000D03*
X102925000Y-69500000D03*
X102925000Y-70000000D03*
X102925000Y-70500000D03*
X102925000Y-71000000D03*
X102925000Y-71500000D03*
X102925000Y-72000000D03*
D18*
X103612500Y-72687500D03*
X104112500Y-72687500D03*
X104612500Y-72687500D03*
X105112500Y-72687500D03*
X105612500Y-72687500D03*
X106112500Y-72687500D03*
X106612500Y-72687500D03*
X107112500Y-72687500D03*
X107612500Y-72687500D03*
X108112500Y-72687500D03*
X108612500Y-72687500D03*
X109112500Y-72687500D03*
D17*
X109800000Y-72000000D03*
X109800000Y-71500000D03*
X109800000Y-71000000D03*
X109800000Y-70500000D03*
X109800000Y-70000000D03*
X109800000Y-69500000D03*
X109800000Y-69000000D03*
X109800000Y-68500000D03*
X109800000Y-68000000D03*
X109800000Y-67500000D03*
X109800000Y-67000000D03*
X109800000Y-66500000D03*
D18*
X109112500Y-65812500D03*
X108612500Y-65812500D03*
X108112500Y-65812500D03*
X107612500Y-65812500D03*
X107112500Y-65812500D03*
X106612500Y-65812500D03*
X106112500Y-65812500D03*
X105612500Y-65812500D03*
X105112500Y-65812500D03*
X104612500Y-65812500D03*
X104112500Y-65812500D03*
X103612500Y-65812500D03*
D19*
X106362500Y-69250000D03*
%TD*%
D20*
%TO.C,X1*%
X125100000Y-63000000D03*
X127300000Y-63000000D03*
X127300000Y-61240000D03*
X125100000Y-61240000D03*
%TD*%
D11*
%TO.C,C5*%
X93985000Y-67950000D03*
X95545000Y-67950000D03*
%TD*%
%TO.C,C9*%
X93985000Y-74700000D03*
X95545000Y-74700000D03*
%TD*%
D21*
%TO.C,C6*%
X102515000Y-80010000D03*
X104415000Y-80010000D03*
%TD*%
D22*
%TO.C,U1*%
X104390000Y-53610000D03*
X104390000Y-54110000D03*
X104390000Y-54610000D03*
X104390000Y-55110000D03*
X104390000Y-55610000D03*
X104390000Y-56110000D03*
X104390000Y-56610000D03*
X104390000Y-57110000D03*
X104390000Y-57610000D03*
X104390000Y-58110000D03*
X104390000Y-58610000D03*
X104390000Y-59110000D03*
D23*
X105800000Y-60520000D03*
X106300000Y-60520000D03*
X106800000Y-60520000D03*
X107300000Y-60520000D03*
X107800000Y-60520000D03*
X108300000Y-60520000D03*
X108800000Y-60520000D03*
X109300000Y-60520000D03*
X109800000Y-60520000D03*
X110300000Y-60520000D03*
X110800000Y-60520000D03*
X111300000Y-60520000D03*
D22*
X112710000Y-59110000D03*
X112710000Y-58610000D03*
X112710000Y-58110000D03*
X112710000Y-57610000D03*
X112710000Y-57110000D03*
X112710000Y-56610000D03*
X112710000Y-56110000D03*
X112710000Y-55610000D03*
X112710000Y-55110000D03*
X112710000Y-54610000D03*
X112710000Y-54110000D03*
X112710000Y-53610000D03*
D23*
X111300000Y-52200000D03*
X110800000Y-52200000D03*
X110300000Y-52200000D03*
X109800000Y-52200000D03*
X109300000Y-52200000D03*
X108800000Y-52200000D03*
X108300000Y-52200000D03*
X107800000Y-52200000D03*
X107300000Y-52200000D03*
X106800000Y-52200000D03*
X106300000Y-52200000D03*
X105800000Y-52200000D03*
%TD*%
D11*
%TO.C,C3*%
X93985000Y-63450000D03*
X95545000Y-63450000D03*
%TD*%
D24*
%TO.C,FB1*%
X97905000Y-79860000D03*
X100025000Y-79860000D03*
%TD*%
D25*
%TO.C,U4*%
X116675000Y-79400000D03*
X116675000Y-79800000D03*
X116675000Y-80200000D03*
X116675000Y-80600000D03*
X116675000Y-81000000D03*
X116675000Y-81400000D03*
X116675000Y-81800000D03*
D26*
X117437500Y-82562500D03*
X117837500Y-82562500D03*
X118237500Y-82562500D03*
X118637500Y-82562500D03*
X119037500Y-82562500D03*
X119437500Y-82562500D03*
X119837500Y-82562500D03*
D25*
X120600000Y-81800000D03*
X120600000Y-81400000D03*
X120600000Y-81000000D03*
X120600000Y-80600000D03*
X120600000Y-80200000D03*
X120600000Y-79800000D03*
X120600000Y-79400000D03*
D26*
X119837500Y-78637500D03*
X119437500Y-78637500D03*
X119037500Y-78637500D03*
X118637500Y-78637500D03*
X118237500Y-78637500D03*
X117837500Y-78637500D03*
X117437500Y-78637500D03*
D27*
X118637500Y-80600000D03*
%TD*%
M02*
