%TF.GenerationSoftware,KiCad,Pcbnew,9.0.4*%
%TF.CreationDate,2025-11-27T13:39:18+01:00*%
%TF.ProjectId,iCEBrainstorm,69434542-7261-4696-9e73-746f726d2e6b,rev?*%
%TF.SameCoordinates,Original*%
%TF.FileFunction,Legend,Bot*%
%TF.FilePolarity,Positive*%
%FSLAX46Y46*%
G04 Gerber Fmt 4.6, Leading zero omitted, Abs format (unit mm)*
G04 Created by KiCad (PCBNEW 9.0.4) date 2025-11-27 13:39:18*
%MOMM*%
%LPD*%
G01*
G04 APERTURE LIST*
G04 Aperture macros list*
%AMRoundRect*
0 Rectangle with rounded corners*
0 $1 Rounding radius*
0 $2 $3 $4 $5 $6 $7 $8 $9 X,Y pos of 4 corners*
0 Add a 4 corners polygon primitive as box body*
4,1,4,$2,$3,$4,$5,$6,$7,$8,$9,$2,$3,0*
0 Add four circle primitives for the rounded corners*
1,1,$1+$1,$2,$3*
1,1,$1+$1,$4,$5*
1,1,$1+$1,$6,$7*
1,1,$1+$1,$8,$9*
0 Add four rect primitives between the rounded corners*
20,1,$1+$1,$2,$3,$4,$5,0*
20,1,$1+$1,$4,$5,$6,$7,0*
20,1,$1+$1,$6,$7,$8,$9,0*
20,1,$1+$1,$8,$9,$2,$3,0*%
G04 Aperture macros list end*
%ADD10C,0.150000*%
%ADD11C,5.400000*%
%ADD12R,1.000000X1.000000*%
%ADD13C,1.000000*%
%ADD14RoundRect,0.250000X-0.550000X-0.550000X0.550000X-0.550000X0.550000X0.550000X-0.550000X0.550000X0*%
%ADD15C,1.600000*%
%ADD16C,0.600000*%
%ADD17O,1.300000X2.300000*%
%ADD18O,1.300000X2.100000*%
%ADD19C,0.500000*%
%ADD20RoundRect,0.250000X0.550000X0.550000X-0.550000X0.550000X-0.550000X-0.550000X0.550000X-0.550000X0*%
G04 APERTURE END LIST*
D10*
G36*
X78142184Y-128971461D02*
G01*
X78303384Y-128971461D01*
X78303384Y-128461677D01*
X78301030Y-128394519D01*
X78294825Y-128344362D01*
X78285896Y-128307853D01*
X78265937Y-128263964D01*
X78237755Y-128226592D01*
X78200656Y-128194915D01*
X78157499Y-128172194D01*
X78104041Y-128157629D01*
X78037795Y-128152368D01*
X77978836Y-128157047D01*
X77929919Y-128170160D01*
X77889201Y-128190866D01*
X77855296Y-128219095D01*
X77828650Y-128254079D01*
X77808655Y-128297173D01*
X77795684Y-128350086D01*
X77790816Y-128414978D01*
X77943273Y-128430609D01*
X77947432Y-128384359D01*
X77954558Y-128353188D01*
X77963496Y-128333157D01*
X77984014Y-128309142D01*
X78010000Y-128294929D01*
X78043266Y-128289926D01*
X78077872Y-128293887D01*
X78102491Y-128304486D01*
X78119762Y-128320993D01*
X78130535Y-128343585D01*
X78138776Y-128383881D01*
X78142184Y-128450149D01*
X78142184Y-128971461D01*
G37*
G36*
X78479581Y-128168000D02*
G01*
X78479581Y-128962082D01*
X78641367Y-128962082D01*
X78641367Y-128302431D01*
X79043587Y-128302431D01*
X79043587Y-128168000D01*
X78479581Y-128168000D01*
G37*
G36*
X79671730Y-128464999D02*
G01*
X79828583Y-128414978D01*
X79806203Y-128350166D01*
X79778562Y-128297031D01*
X79746039Y-128253874D01*
X79708611Y-128219388D01*
X79665361Y-128192198D01*
X79616196Y-128172300D01*
X79560089Y-128159856D01*
X79495778Y-128155494D01*
X79432654Y-128160088D01*
X79375755Y-128173402D01*
X79324076Y-128195084D01*
X79276814Y-128225259D01*
X79233412Y-128264524D01*
X79197630Y-128309525D01*
X79169331Y-128360803D01*
X79148436Y-128419268D01*
X79135298Y-128486088D01*
X79130684Y-128562647D01*
X79135407Y-128644106D01*
X79148782Y-128714434D01*
X79169907Y-128775216D01*
X79198306Y-128827807D01*
X79233949Y-128873275D01*
X79277492Y-128912831D01*
X79325648Y-128943417D01*
X79379065Y-128965541D01*
X79438666Y-128979219D01*
X79505596Y-128983966D01*
X79578171Y-128978113D01*
X79641111Y-128961387D01*
X79696102Y-128934433D01*
X79744417Y-128897064D01*
X79776404Y-128859867D01*
X79803869Y-128811443D01*
X79826385Y-128749493D01*
X79666259Y-128711977D01*
X79653004Y-128751341D01*
X79633285Y-128783746D01*
X79606957Y-128810309D01*
X79575237Y-128830133D01*
X79539102Y-128842213D01*
X79497390Y-128846408D01*
X79454083Y-128842227D01*
X79416225Y-128830166D01*
X79382710Y-128810380D01*
X79352798Y-128782270D01*
X79330584Y-128749272D01*
X79313242Y-128705553D01*
X79301653Y-128648427D01*
X79297355Y-128574664D01*
X79301686Y-128495862D01*
X79313263Y-128435835D01*
X79330385Y-128390824D01*
X79352016Y-128357678D01*
X79381573Y-128329268D01*
X79414569Y-128309347D01*
X79451720Y-128297240D01*
X79494117Y-128293052D01*
X79535522Y-128297760D01*
X79572114Y-128311502D01*
X79605052Y-128334524D01*
X79631514Y-128365070D01*
X79653958Y-128407534D01*
X79671730Y-128464999D01*
G37*
G36*
X80256350Y-128971461D02*
G01*
X80417550Y-128971461D01*
X80417550Y-128461677D01*
X80415196Y-128394519D01*
X80408991Y-128344362D01*
X80400062Y-128307853D01*
X80380103Y-128263964D01*
X80351921Y-128226592D01*
X80314822Y-128194915D01*
X80271665Y-128172194D01*
X80218208Y-128157629D01*
X80151961Y-128152368D01*
X80093002Y-128157047D01*
X80044085Y-128170160D01*
X80003367Y-128190866D01*
X79969462Y-128219095D01*
X79942816Y-128254079D01*
X79922821Y-128297173D01*
X79909850Y-128350086D01*
X79904982Y-128414978D01*
X80057439Y-128430609D01*
X80061598Y-128384359D01*
X80068724Y-128353188D01*
X80077662Y-128333157D01*
X80098180Y-128309142D01*
X80124166Y-128294929D01*
X80157432Y-128289926D01*
X80192038Y-128293887D01*
X80216657Y-128304486D01*
X80233928Y-128320993D01*
X80244701Y-128343585D01*
X80252943Y-128383881D01*
X80256350Y-128450149D01*
X80256350Y-128971461D01*
G37*
G36*
X80593747Y-128168000D02*
G01*
X80593747Y-128962082D01*
X80755534Y-128962082D01*
X80755534Y-128302431D01*
X81157753Y-128302431D01*
X81157753Y-128168000D01*
X80593747Y-128168000D01*
G37*
G36*
X81785896Y-128464999D02*
G01*
X81942749Y-128414978D01*
X81920369Y-128350166D01*
X81892728Y-128297031D01*
X81860205Y-128253874D01*
X81822777Y-128219388D01*
X81779527Y-128192198D01*
X81730362Y-128172300D01*
X81674255Y-128159856D01*
X81609944Y-128155494D01*
X81546820Y-128160088D01*
X81489921Y-128173402D01*
X81438242Y-128195084D01*
X81390980Y-128225259D01*
X81347578Y-128264524D01*
X81311796Y-128309525D01*
X81283497Y-128360803D01*
X81262603Y-128419268D01*
X81249464Y-128486088D01*
X81244850Y-128562647D01*
X81249574Y-128644106D01*
X81262948Y-128714434D01*
X81284073Y-128775216D01*
X81312472Y-128827807D01*
X81348116Y-128873275D01*
X81391658Y-128912831D01*
X81439814Y-128943417D01*
X81493231Y-128965541D01*
X81552832Y-128979219D01*
X81619762Y-128983966D01*
X81692337Y-128978113D01*
X81755277Y-128961387D01*
X81810269Y-128934433D01*
X81858583Y-128897064D01*
X81890570Y-128859867D01*
X81918036Y-128811443D01*
X81940551Y-128749493D01*
X81780425Y-128711977D01*
X81767170Y-128751341D01*
X81747451Y-128783746D01*
X81721123Y-128810309D01*
X81689403Y-128830133D01*
X81653268Y-128842213D01*
X81611556Y-128846408D01*
X81568249Y-128842227D01*
X81530391Y-128830166D01*
X81496876Y-128810380D01*
X81466964Y-128782270D01*
X81444750Y-128749272D01*
X81427408Y-128705553D01*
X81415819Y-128648427D01*
X81411521Y-128574664D01*
X81415852Y-128495862D01*
X81427429Y-128435835D01*
X81444551Y-128390824D01*
X81466183Y-128357678D01*
X81495739Y-128329268D01*
X81528735Y-128309347D01*
X81565886Y-128297240D01*
X81608283Y-128293052D01*
X81649688Y-128297760D01*
X81686280Y-128311502D01*
X81719218Y-128334524D01*
X81745680Y-128365070D01*
X81768124Y-128407534D01*
X81785896Y-128464999D01*
G37*
G36*
X82370516Y-128971461D02*
G01*
X82531716Y-128971461D01*
X82531716Y-128461677D01*
X82529362Y-128394519D01*
X82523157Y-128344362D01*
X82514229Y-128307853D01*
X82494269Y-128263964D01*
X82466087Y-128226592D01*
X82428988Y-128194915D01*
X82385831Y-128172194D01*
X82332374Y-128157629D01*
X82266127Y-128152368D01*
X82207168Y-128157047D01*
X82158251Y-128170160D01*
X82117534Y-128190866D01*
X82083628Y-128219095D01*
X82056982Y-128254079D01*
X82036987Y-128297173D01*
X82024017Y-128350086D01*
X82019148Y-128414978D01*
X82171605Y-128430609D01*
X82175764Y-128384359D01*
X82182890Y-128353188D01*
X82191828Y-128333157D01*
X82212346Y-128309142D01*
X82238332Y-128294929D01*
X82271598Y-128289926D01*
X82306204Y-128293887D01*
X82330823Y-128304486D01*
X82348095Y-128320993D01*
X82358867Y-128343585D01*
X82367109Y-128383881D01*
X82370516Y-128450149D01*
X82370516Y-128971461D01*
G37*
G36*
X82707913Y-128168000D02*
G01*
X82707913Y-128962082D01*
X82869700Y-128962082D01*
X82869700Y-128302431D01*
X83271919Y-128302431D01*
X83271919Y-128168000D01*
X82707913Y-128168000D01*
G37*
G36*
X83900062Y-128464999D02*
G01*
X84056915Y-128414978D01*
X84034535Y-128350166D01*
X84006894Y-128297031D01*
X83974372Y-128253874D01*
X83936943Y-128219388D01*
X83893693Y-128192198D01*
X83844528Y-128172300D01*
X83788421Y-128159856D01*
X83724110Y-128155494D01*
X83660986Y-128160088D01*
X83604087Y-128173402D01*
X83552408Y-128195084D01*
X83505146Y-128225259D01*
X83461744Y-128264524D01*
X83425962Y-128309525D01*
X83397663Y-128360803D01*
X83376769Y-128419268D01*
X83363630Y-128486088D01*
X83359016Y-128562647D01*
X83363740Y-128644106D01*
X83377114Y-128714434D01*
X83398239Y-128775216D01*
X83426638Y-128827807D01*
X83462282Y-128873275D01*
X83505824Y-128912831D01*
X83553980Y-128943417D01*
X83607397Y-128965541D01*
X83666998Y-128979219D01*
X83733928Y-128983966D01*
X83806504Y-128978113D01*
X83869443Y-128961387D01*
X83924435Y-128934433D01*
X83972749Y-128897064D01*
X84004736Y-128859867D01*
X84032202Y-128811443D01*
X84054717Y-128749493D01*
X83894591Y-128711977D01*
X83881336Y-128751341D01*
X83861617Y-128783746D01*
X83835289Y-128810309D01*
X83803569Y-128830133D01*
X83767434Y-128842213D01*
X83725722Y-128846408D01*
X83682415Y-128842227D01*
X83644557Y-128830166D01*
X83611042Y-128810380D01*
X83581130Y-128782270D01*
X83558916Y-128749272D01*
X83541574Y-128705553D01*
X83529985Y-128648427D01*
X83525687Y-128574664D01*
X83530018Y-128495862D01*
X83541595Y-128435835D01*
X83558717Y-128390824D01*
X83580349Y-128357678D01*
X83609905Y-128329268D01*
X83642901Y-128309347D01*
X83680052Y-128297240D01*
X83722449Y-128293052D01*
X83763854Y-128297760D01*
X83800446Y-128311502D01*
X83833384Y-128334524D01*
X83859846Y-128365070D01*
X83882290Y-128407534D01*
X83900062Y-128464999D01*
G37*
G36*
X84484682Y-128971461D02*
G01*
X84645882Y-128971461D01*
X84645882Y-128461677D01*
X84643529Y-128394519D01*
X84637323Y-128344362D01*
X84628395Y-128307853D01*
X84608435Y-128263964D01*
X84580253Y-128226592D01*
X84543154Y-128194915D01*
X84499997Y-128172194D01*
X84446540Y-128157629D01*
X84380293Y-128152368D01*
X84321334Y-128157047D01*
X84272417Y-128170160D01*
X84231700Y-128190866D01*
X84197795Y-128219095D01*
X84171149Y-128254079D01*
X84151153Y-128297173D01*
X84138183Y-128350086D01*
X84133314Y-128414978D01*
X84285771Y-128430609D01*
X84289930Y-128384359D01*
X84297056Y-128353188D01*
X84305994Y-128333157D01*
X84326512Y-128309142D01*
X84352498Y-128294929D01*
X84385764Y-128289926D01*
X84420370Y-128293887D01*
X84444989Y-128304486D01*
X84462261Y-128320993D01*
X84473033Y-128343585D01*
X84481275Y-128383881D01*
X84484682Y-128450149D01*
X84484682Y-128971461D01*
G37*
G36*
X84822079Y-128168000D02*
G01*
X84822079Y-128962082D01*
X84983866Y-128962082D01*
X84983866Y-128302431D01*
X85386085Y-128302431D01*
X85386085Y-128168000D01*
X84822079Y-128168000D01*
G37*
G36*
X86014229Y-128464999D02*
G01*
X86171081Y-128414978D01*
X86148701Y-128350166D01*
X86121060Y-128297031D01*
X86088538Y-128253874D01*
X86051109Y-128219388D01*
X86007859Y-128192198D01*
X85958694Y-128172300D01*
X85902588Y-128159856D01*
X85838276Y-128155494D01*
X85775153Y-128160088D01*
X85718253Y-128173402D01*
X85666574Y-128195084D01*
X85619312Y-128225259D01*
X85575910Y-128264524D01*
X85540129Y-128309525D01*
X85511829Y-128360803D01*
X85490935Y-128419268D01*
X85477797Y-128486088D01*
X85473182Y-128562647D01*
X85477906Y-128644106D01*
X85491280Y-128714434D01*
X85512405Y-128775216D01*
X85540804Y-128827807D01*
X85576448Y-128873275D01*
X85619990Y-128912831D01*
X85668146Y-128943417D01*
X85721563Y-128965541D01*
X85781164Y-128979219D01*
X85848095Y-128983966D01*
X85920670Y-128978113D01*
X85983609Y-128961387D01*
X86038601Y-128934433D01*
X86086915Y-128897064D01*
X86118903Y-128859867D01*
X86146368Y-128811443D01*
X86168883Y-128749493D01*
X86008758Y-128711977D01*
X85995502Y-128751341D01*
X85975783Y-128783746D01*
X85949455Y-128810309D01*
X85917735Y-128830133D01*
X85881600Y-128842213D01*
X85839888Y-128846408D01*
X85796581Y-128842227D01*
X85758723Y-128830166D01*
X85725208Y-128810380D01*
X85695296Y-128782270D01*
X85673082Y-128749272D01*
X85655740Y-128705553D01*
X85644152Y-128648427D01*
X85639853Y-128574664D01*
X85644184Y-128495862D01*
X85655761Y-128435835D01*
X85672883Y-128390824D01*
X85694515Y-128357678D01*
X85724071Y-128329268D01*
X85757067Y-128309347D01*
X85794218Y-128297240D01*
X85836615Y-128293052D01*
X85878020Y-128297760D01*
X85914612Y-128311502D01*
X85947550Y-128334524D01*
X85974012Y-128365070D01*
X85996456Y-128407534D01*
X86014229Y-128464999D01*
G37*
%LPC*%
D11*
%TO.C,H2*%
X130000000Y-130000000D03*
%TD*%
D12*
%TO.C,J11*%
X171500000Y-106520000D03*
D13*
X171500000Y-105250000D03*
X171500000Y-103980000D03*
X171500000Y-102710000D03*
X171500000Y-101440000D03*
X171500000Y-100170000D03*
X171500000Y-98900000D03*
X171500000Y-97630000D03*
%TD*%
D11*
%TO.C,H1*%
X70000000Y-130000000D03*
%TD*%
D12*
%TO.C,J8*%
X111980000Y-176500000D03*
D13*
X113250000Y-176500000D03*
X114520000Y-176500000D03*
%TD*%
D14*
%TO.C,SW1*%
X25500000Y-85300000D03*
D15*
X25500000Y-87840000D03*
X25500000Y-90380000D03*
X25500000Y-92920000D03*
X25500000Y-95460000D03*
X25500000Y-98000000D03*
X25500000Y-100540000D03*
X25500000Y-103080000D03*
X33120000Y-103080000D03*
X33120000Y-100540000D03*
X33120000Y-98000000D03*
X33120000Y-95460000D03*
X33120000Y-92920000D03*
X33120000Y-90380000D03*
X33120000Y-87840000D03*
X33120000Y-85300000D03*
%TD*%
D11*
%TO.C,H4*%
X130000000Y-70000000D03*
%TD*%
%TO.C,H3*%
X70000000Y-70000000D03*
%TD*%
D16*
%TO.C,J3*%
X117890000Y-71300000D03*
X112110000Y-71300000D03*
D17*
X119330000Y-71820000D03*
D18*
X119330000Y-67620000D03*
D19*
X117000000Y-69000000D03*
X117000000Y-67000000D03*
X113000000Y-69000000D03*
X113000000Y-67000000D03*
D17*
X110670000Y-71820000D03*
D18*
X110670000Y-67620000D03*
%TD*%
D12*
%TO.C,J10*%
X118730000Y-176500000D03*
D13*
X120000000Y-176500000D03*
%TD*%
D12*
%TO.C,J4*%
X70750000Y-160560000D03*
D13*
X70750000Y-159290000D03*
X70750000Y-158020000D03*
X70750000Y-156750000D03*
X70750000Y-155480000D03*
X70750000Y-154210000D03*
X70750000Y-152940000D03*
X70750000Y-151670000D03*
X70750000Y-150400000D03*
X70750000Y-149130000D03*
X70750000Y-147860000D03*
X70750000Y-146590000D03*
X70750000Y-145320000D03*
X70750000Y-144050000D03*
X70750000Y-142780000D03*
X70750000Y-141510000D03*
%TD*%
D12*
%TO.C,J5*%
X106560000Y-104500000D03*
D13*
X105290000Y-104500000D03*
X104020000Y-104500000D03*
X102750000Y-104500000D03*
X101480000Y-104500000D03*
X100210000Y-104500000D03*
%TD*%
D12*
%TO.C,J9*%
X70500000Y-166500000D03*
D13*
X70500000Y-167770000D03*
%TD*%
D12*
%TO.C,J6*%
X100500000Y-179230000D03*
D13*
X100500000Y-180500000D03*
%TD*%
D16*
%TO.C,J1*%
X87890000Y-71300000D03*
X82110000Y-71300000D03*
D17*
X89330000Y-71820000D03*
D18*
X89330000Y-67620000D03*
D19*
X87000000Y-69000000D03*
X87000000Y-67000000D03*
X83000000Y-69000000D03*
X83000000Y-67000000D03*
D17*
X80670000Y-71820000D03*
D18*
X80670000Y-67620000D03*
%TD*%
D12*
%TO.C,J7*%
X93000000Y-174250000D03*
D13*
X93000000Y-175520000D03*
X93000000Y-176790000D03*
%TD*%
D12*
%TO.C,J2*%
X94830000Y-140000000D03*
D13*
X93560000Y-140000000D03*
X92290000Y-140000000D03*
X91020000Y-140000000D03*
X89750000Y-140000000D03*
X88480000Y-140000000D03*
%TD*%
D20*
%TO.C,SW2*%
X162305000Y-112877500D03*
D15*
X162305000Y-110337500D03*
X162305000Y-107797500D03*
X162305000Y-105257500D03*
X162305000Y-102717500D03*
X162305000Y-100177500D03*
X162305000Y-97637500D03*
X162305000Y-95097500D03*
X154685000Y-95097500D03*
X154685000Y-97637500D03*
X154685000Y-100177500D03*
X154685000Y-102717500D03*
X154685000Y-105257500D03*
X154685000Y-107797500D03*
X154685000Y-110337500D03*
X154685000Y-112877500D03*
%TD*%
D12*
%TO.C,J12*%
X185750000Y-111310000D03*
D13*
X185750000Y-110040000D03*
X185750000Y-108770000D03*
X185750000Y-107500000D03*
X185750000Y-106230000D03*
X185750000Y-104960000D03*
X185750000Y-103690000D03*
X185750000Y-102420000D03*
%TD*%
%LPD*%
M02*
