%TF.GenerationSoftware,KiCad,Pcbnew,9.0.4*%
%TF.CreationDate,2025-11-02T13:02:32+01:00*%
%TF.ProjectId,iCEBrainstorm,69434542-7261-4696-9e73-746f726d2e6b,rev?*%
%TF.SameCoordinates,Original*%
%TF.FileFunction,Copper,L1,Top*%
%TF.FilePolarity,Positive*%
%FSLAX46Y46*%
G04 Gerber Fmt 4.6, Leading zero omitted, Abs format (unit mm)*
G04 Created by KiCad (PCBNEW 9.0.4) date 2025-11-02 13:02:32*
%MOMM*%
%LPD*%
G01*
G04 APERTURE LIST*
G04 Aperture macros list*
%AMRoundRect*
0 Rectangle with rounded corners*
0 $1 Rounding radius*
0 $2 $3 $4 $5 $6 $7 $8 $9 X,Y pos of 4 corners*
0 Add a 4 corners polygon primitive as box body*
4,1,4,$2,$3,$4,$5,$6,$7,$8,$9,$2,$3,0*
0 Add four circle primitives for the rounded corners*
1,1,$1+$1,$2,$3*
1,1,$1+$1,$4,$5*
1,1,$1+$1,$6,$7*
1,1,$1+$1,$8,$9*
0 Add four rect primitives between the rounded corners*
20,1,$1+$1,$2,$3,$4,$5,0*
20,1,$1+$1,$4,$5,$6,$7,0*
20,1,$1+$1,$6,$7,$8,$9,0*
20,1,$1+$1,$8,$9,$2,$3,0*%
G04 Aperture macros list end*
%TA.AperFunction,SMDPad,CuDef*%
%ADD10RoundRect,0.250000X-0.600000X-0.250000X0.600000X-0.250000X0.600000X0.250000X-0.600000X0.250000X0*%
%TD*%
%TA.AperFunction,SMDPad,CuDef*%
%ADD11RoundRect,0.225000X-0.225000X-0.250000X0.225000X-0.250000X0.225000X0.250000X-0.225000X0.250000X0*%
%TD*%
%TA.AperFunction,SMDPad,CuDef*%
%ADD12RoundRect,0.200000X-0.200000X-0.275000X0.200000X-0.275000X0.200000X0.275000X-0.200000X0.275000X0*%
%TD*%
%TA.AperFunction,SMDPad,CuDef*%
%ADD13RoundRect,0.050000X-0.375000X-0.050000X0.375000X-0.050000X0.375000X0.050000X-0.375000X0.050000X0*%
%TD*%
%TA.AperFunction,SMDPad,CuDef*%
%ADD14RoundRect,0.050000X-0.050000X-0.375000X0.050000X-0.375000X0.050000X0.375000X-0.050000X0.375000X0*%
%TD*%
%TA.AperFunction,HeatsinkPad*%
%ADD15C,0.500000*%
%TD*%
%TA.AperFunction,HeatsinkPad*%
%ADD16RoundRect,0.250000X-0.575000X-0.575000X0.575000X-0.575000X0.575000X0.575000X-0.575000X0.575000X0*%
%TD*%
%TA.AperFunction,SMDPad,CuDef*%
%ADD17RoundRect,0.062500X-0.375000X-0.062500X0.375000X-0.062500X0.375000X0.062500X-0.375000X0.062500X0*%
%TD*%
%TA.AperFunction,SMDPad,CuDef*%
%ADD18RoundRect,0.062500X-0.062500X-0.375000X0.062500X-0.375000X0.062500X0.375000X-0.062500X0.375000X0*%
%TD*%
%TA.AperFunction,HeatsinkPad*%
%ADD19R,5.600000X5.600000*%
%TD*%
%TA.AperFunction,SMDPad,CuDef*%
%ADD20RoundRect,0.250000X-0.450000X-0.350000X0.450000X-0.350000X0.450000X0.350000X-0.450000X0.350000X0*%
%TD*%
%TA.AperFunction,SMDPad,CuDef*%
%ADD21RoundRect,0.250000X-0.250000X-0.475000X0.250000X-0.475000X0.250000X0.475000X-0.250000X0.475000X0*%
%TD*%
%TA.AperFunction,SMDPad,CuDef*%
%ADD22RoundRect,0.075000X-0.665000X-0.075000X0.665000X-0.075000X0.665000X0.075000X-0.665000X0.075000X0*%
%TD*%
%TA.AperFunction,SMDPad,CuDef*%
%ADD23RoundRect,0.075000X-0.075000X-0.665000X0.075000X-0.665000X0.075000X0.665000X-0.075000X0.665000X0*%
%TD*%
%TA.AperFunction,SMDPad,CuDef*%
%ADD24RoundRect,0.220000X-0.220000X-0.380000X0.220000X-0.380000X0.220000X0.380000X-0.220000X0.380000X0*%
%TD*%
%TA.AperFunction,SMDPad,CuDef*%
%ADD25RoundRect,0.050000X-0.362500X-0.050000X0.362500X-0.050000X0.362500X0.050000X-0.362500X0.050000X0*%
%TD*%
%TA.AperFunction,SMDPad,CuDef*%
%ADD26RoundRect,0.050000X-0.050000X-0.362500X0.050000X-0.362500X0.050000X0.362500X-0.050000X0.362500X0*%
%TD*%
%TA.AperFunction,HeatsinkPad*%
%ADD27R,2.700000X2.700000*%
%TD*%
G04 APERTURE END LIST*
D10*
%TO.P,S1,1,A*%
%TO.N,unconnected-(S1-A-Pad1)*%
X74000000Y-67300000D03*
%TO.P,S1,2,B*%
%TO.N,/NRST*%
X80600000Y-67300000D03*
%TO.P,S1,3,C*%
%TO.N,unconnected-(S1-C-Pad3)*%
X74000000Y-71000000D03*
%TO.P,S1,4,D*%
%TO.N,GND*%
X80600000Y-71000000D03*
%TD*%
D11*
%TO.P,C1,1*%
%TO.N,/NRST*%
X93985000Y-58950000D03*
%TO.P,C1,2*%
%TO.N,GND*%
X95545000Y-58950000D03*
%TD*%
D12*
%TO.P,R1,1*%
%TO.N,Net-(SW1-B)*%
X93845000Y-76950000D03*
%TO.P,R1,2*%
%TO.N,Net-(U1-BOOT0)*%
X95485000Y-76950000D03*
%TD*%
D13*
%TO.P,U2,1,PD7*%
%TO.N,unconnected-(U2-PD7-Pad1)*%
X116250000Y-56350000D03*
%TO.P,U2,2,PA1*%
%TO.N,unconnected-(U2-PA1-Pad2)*%
X116250000Y-56750000D03*
%TO.P,U2,3,PA2*%
%TO.N,unconnected-(U2-PA2-Pad3)*%
X116250000Y-57150000D03*
%TO.P,U2,4,VSS*%
%TO.N,Net-(U2-VSS-Pad21)*%
X116250000Y-57550000D03*
%TO.P,U2,5,PD0*%
%TO.N,unconnected-(U2-PD0-Pad5)*%
X116250000Y-57950000D03*
D14*
%TO.P,U2,6,VDD*%
%TO.N,unconnected-(U2-VDD-Pad6)*%
X116900000Y-58600000D03*
%TO.P,U2,7,PC0*%
%TO.N,unconnected-(U2-PC0-Pad7)*%
X117300000Y-58600000D03*
%TO.P,U2,8,PC1*%
%TO.N,unconnected-(U2-PC1-Pad8)*%
X117700000Y-58600000D03*
%TO.P,U2,9,PC2*%
%TO.N,unconnected-(U2-PC2-Pad9)*%
X118100000Y-58600000D03*
%TO.P,U2,10,PC3*%
%TO.N,unconnected-(U2-PC3-Pad10)*%
X118500000Y-58600000D03*
D13*
%TO.P,U2,11,PC4*%
%TO.N,unconnected-(U2-PC4-Pad11)*%
X119150000Y-57950000D03*
%TO.P,U2,12,PC5*%
%TO.N,unconnected-(U2-PC5-Pad12)*%
X119150000Y-57550000D03*
%TO.P,U2,13,PC6*%
%TO.N,unconnected-(U2-PC6-Pad13)*%
X119150000Y-57150000D03*
%TO.P,U2,14,PC7*%
%TO.N,unconnected-(U2-PC7-Pad14)*%
X119150000Y-56750000D03*
%TO.P,U2,15,PD1*%
%TO.N,unconnected-(U2-PD1-Pad15)*%
X119150000Y-56350000D03*
D14*
%TO.P,U2,16,PD2*%
%TO.N,unconnected-(U2-PD2-Pad16)*%
X118500000Y-55700000D03*
%TO.P,U2,17,PD3*%
%TO.N,unconnected-(U2-PD3-Pad17)*%
X118100000Y-55700000D03*
%TO.P,U2,18,PD4*%
%TO.N,unconnected-(U2-PD4-Pad18)*%
X117700000Y-55700000D03*
%TO.P,U2,19,PD5*%
%TO.N,unconnected-(U2-PD5-Pad19)*%
X117300000Y-55700000D03*
%TO.P,U2,20,PD6*%
%TO.N,unconnected-(U2-PD6-Pad20)*%
X116900000Y-55700000D03*
D15*
%TO.P,U2,21,VSS*%
%TO.N,Net-(U2-VSS-Pad21)*%
X117700000Y-57150000D03*
D16*
X117700000Y-57150000D03*
%TD*%
D11*
%TO.P,C7,1*%
%TO.N,+3V3*%
X93985000Y-70200000D03*
%TO.P,C7,2*%
%TO.N,GND*%
X95545000Y-70200000D03*
%TD*%
%TO.P,C4,1*%
%TO.N,+3V3*%
X93985000Y-65700000D03*
%TO.P,C4,2*%
%TO.N,GND*%
X95545000Y-65700000D03*
%TD*%
%TO.P,C2,1*%
%TO.N,+3V3*%
X93985000Y-61200000D03*
%TO.P,C2,2*%
%TO.N,GND*%
X95545000Y-61200000D03*
%TD*%
%TO.P,C8,1*%
%TO.N,+3.3VA*%
X93985000Y-72450000D03*
%TO.P,C8,2*%
%TO.N,GND*%
X95545000Y-72450000D03*
%TD*%
D17*
%TO.P,U3,1,VCCIO_2*%
%TO.N,unconnected-(U3C-VCCIO_2-Pad1)*%
X102925000Y-66500000D03*
%TO.P,U3,2,IOB_6a*%
%TO.N,unconnected-(U3C-IOB_6a-Pad2)*%
X102925000Y-67000000D03*
%TO.P,U3,3,IOB_9b*%
%TO.N,unconnected-(U3C-IOB_9b-Pad3)*%
X102925000Y-67500000D03*
%TO.P,U3,4,IOB_8a*%
%TO.N,unconnected-(U3C-IOB_8a-Pad4)*%
X102925000Y-68000000D03*
%TO.P,U3,5,VCC*%
%TO.N,Net-(U3D-VCC-Pad30)*%
X102925000Y-68500000D03*
%TO.P,U3,6,IOB_13b*%
%TO.N,unconnected-(U3B-IOB_13b-Pad6)*%
X102925000Y-69000000D03*
%TO.P,U3,7,CDONE*%
%TO.N,unconnected-(U3B-CDONE-Pad7)*%
X102925000Y-69500000D03*
%TO.P,U3,8,~{CRESET}*%
%TO.N,unconnected-(U3B-~{CRESET}-Pad8)*%
X102925000Y-70000000D03*
%TO.P,U3,9,IOB_16a*%
%TO.N,unconnected-(U3B-IOB_16a-Pad9)*%
X102925000Y-70500000D03*
%TO.P,U3,10,IOB_18a*%
%TO.N,unconnected-(U3B-IOB_18a-Pad10)*%
X102925000Y-71000000D03*
%TO.P,U3,11,IOB_20a*%
%TO.N,unconnected-(U3B-IOB_20a-Pad11)*%
X102925000Y-71500000D03*
%TO.P,U3,12,IOB_22a*%
%TO.N,unconnected-(U3B-IOB_22a-Pad12)*%
X102925000Y-72000000D03*
D18*
%TO.P,U3,13,IOB_24a*%
%TO.N,unconnected-(U3B-IOB_24a-Pad13)*%
X103612500Y-72687500D03*
%TO.P,U3,14,IOB_32a_SPI_SO*%
%TO.N,unconnected-(U3B-IOB_32a_SPI_SO-Pad14)*%
X104112500Y-72687500D03*
%TO.P,U3,15,IOB_34a_SPI_SCK*%
%TO.N,unconnected-(U3B-IOB_34a_SPI_SCK-Pad15)*%
X104612500Y-72687500D03*
%TO.P,U3,16,IOB_35b_SPI_SS*%
%TO.N,unconnected-(U3B-IOB_35b_SPI_SS-Pad16)*%
X105112500Y-72687500D03*
%TO.P,U3,17,IOB_33b_SPI_SI*%
%TO.N,unconnected-(U3B-IOB_33b_SPI_SI-Pad17)*%
X105612500Y-72687500D03*
%TO.P,U3,18,IOB_31b*%
%TO.N,unconnected-(U3B-IOB_31b-Pad18)*%
X106112500Y-72687500D03*
%TO.P,U3,19,IOB_29b*%
%TO.N,unconnected-(U3B-IOB_29b-Pad19)*%
X106612500Y-72687500D03*
%TO.P,U3,20,IOB_25b_G3*%
%TO.N,unconnected-(U3B-IOB_25b_G3-Pad20)*%
X107112500Y-72687500D03*
%TO.P,U3,21,IOB_23b*%
%TO.N,unconnected-(U3B-IOB_23b-Pad21)*%
X107612500Y-72687500D03*
%TO.P,U3,22,SPI_VCCIO1*%
%TO.N,unconnected-(U3B-SPI_VCCIO1-Pad22)*%
X108112500Y-72687500D03*
%TO.P,U3,23,IOT_37a*%
%TO.N,unconnected-(U3A-IOT_37a-Pad23)*%
X108612500Y-72687500D03*
%TO.P,U3,24,VPP_2V5*%
%TO.N,unconnected-(U3D-VPP_2V5-Pad24)*%
X109112500Y-72687500D03*
D17*
%TO.P,U3,25,IOT_36b*%
%TO.N,unconnected-(U3A-IOT_36b-Pad25)*%
X109800000Y-72000000D03*
%TO.P,U3,26,IOT_39a*%
%TO.N,unconnected-(U3A-IOT_39a-Pad26)*%
X109800000Y-71500000D03*
%TO.P,U3,27,IOT_38b*%
%TO.N,unconnected-(U3A-IOT_38b-Pad27)*%
X109800000Y-71000000D03*
%TO.P,U3,28,IOT_41a*%
%TO.N,unconnected-(U3A-IOT_41a-Pad28)*%
X109800000Y-70500000D03*
%TO.P,U3,29,VCCPLL*%
%TO.N,unconnected-(U3D-VCCPLL-Pad29)*%
X109800000Y-70000000D03*
%TO.P,U3,30,VCC*%
%TO.N,Net-(U3D-VCC-Pad30)*%
X109800000Y-69500000D03*
%TO.P,U3,31,IOT_42b*%
%TO.N,unconnected-(U3A-IOT_42b-Pad31)*%
X109800000Y-69000000D03*
%TO.P,U3,32,IOT_43a*%
%TO.N,unconnected-(U3A-IOT_43a-Pad32)*%
X109800000Y-68500000D03*
%TO.P,U3,33,VCCIO_0*%
%TO.N,unconnected-(U3A-VCCIO_0-Pad33)*%
X109800000Y-68000000D03*
%TO.P,U3,34,IOT_44b*%
%TO.N,unconnected-(U3A-IOT_44b-Pad34)*%
X109800000Y-67500000D03*
%TO.P,U3,35,IOT_46b_G0*%
%TO.N,unconnected-(U3A-IOT_46b_G0-Pad35)*%
X109800000Y-67000000D03*
%TO.P,U3,36,IOT_48b*%
%TO.N,unconnected-(U3A-IOT_48b-Pad36)*%
X109800000Y-66500000D03*
D18*
%TO.P,U3,37,IOT_45a_G1*%
%TO.N,unconnected-(U3A-IOT_45a_G1-Pad37)*%
X109112500Y-65812500D03*
%TO.P,U3,38,IOT_50b*%
%TO.N,unconnected-(U3A-IOT_50b-Pad38)*%
X108612500Y-65812500D03*
%TO.P,U3,39,RGB0*%
%TO.N,unconnected-(U3A-RGB0-Pad39)*%
X108112500Y-65812500D03*
%TO.P,U3,40,RGB1*%
%TO.N,unconnected-(U3A-RGB1-Pad40)*%
X107612500Y-65812500D03*
%TO.P,U3,41,RGB2*%
%TO.N,unconnected-(U3A-RGB2-Pad41)*%
X107112500Y-65812500D03*
%TO.P,U3,42,IOT_51a*%
%TO.N,unconnected-(U3A-IOT_51a-Pad42)*%
X106612500Y-65812500D03*
%TO.P,U3,43,IOT_49a*%
%TO.N,unconnected-(U3A-IOT_49a-Pad43)*%
X106112500Y-65812500D03*
%TO.P,U3,44,IOB_3b_G6*%
%TO.N,unconnected-(U3C-IOB_3b_G6-Pad44)*%
X105612500Y-65812500D03*
%TO.P,U3,45,IOB_5b*%
%TO.N,unconnected-(U3C-IOB_5b-Pad45)*%
X105112500Y-65812500D03*
%TO.P,U3,46,IOB_0a*%
%TO.N,unconnected-(U3C-IOB_0a-Pad46)*%
X104612500Y-65812500D03*
%TO.P,U3,47,IOB_2a*%
%TO.N,unconnected-(U3C-IOB_2a-Pad47)*%
X104112500Y-65812500D03*
%TO.P,U3,48,IOB_4a*%
%TO.N,unconnected-(U3C-IOB_4a-Pad48)*%
X103612500Y-65812500D03*
D19*
%TO.P,U3,49,GND*%
%TO.N,unconnected-(U3D-GND-Pad49)*%
X106362500Y-69250000D03*
%TD*%
D20*
%TO.P,X1,1,OSC*%
%TO.N,/XPLUS*%
X125100000Y-63000000D03*
%TO.P,X1,2,GND*%
%TO.N,unconnected-(X1-GND-Pad2)*%
X127300000Y-63000000D03*
%TO.P,X1,3,OSC*%
%TO.N,/XMIN*%
X127300000Y-61240000D03*
%TO.P,X1,4,GND*%
%TO.N,unconnected-(X1-GND-Pad4)*%
X125100000Y-61240000D03*
%TD*%
D11*
%TO.P,C5,1*%
%TO.N,+3V3*%
X93985000Y-67950000D03*
%TO.P,C5,2*%
%TO.N,GND*%
X95545000Y-67950000D03*
%TD*%
%TO.P,C9,1*%
%TO.N,+3.3VA*%
X93985000Y-74700000D03*
%TO.P,C9,2*%
%TO.N,GND*%
X95545000Y-74700000D03*
%TD*%
D21*
%TO.P,C6,1*%
%TO.N,+3V3*%
X102515000Y-80010000D03*
%TO.P,C6,2*%
%TO.N,GND*%
X104415000Y-80010000D03*
%TD*%
D22*
%TO.P,U1,1,VBAT*%
%TO.N,+3V3*%
X104390000Y-53610000D03*
%TO.P,U1,2,PC13*%
%TO.N,unconnected-(U1-PC13-Pad2)*%
X104390000Y-54110000D03*
%TO.P,U1,3,PC14*%
%TO.N,unconnected-(U1-PC14-Pad3)*%
X104390000Y-54610000D03*
%TO.P,U1,4,PC15*%
%TO.N,unconnected-(U1-PC15-Pad4)*%
X104390000Y-55110000D03*
%TO.P,U1,5,PD0*%
%TO.N,/XPLUS*%
X104390000Y-55610000D03*
%TO.P,U1,6,PD1*%
%TO.N,/XMIN*%
X104390000Y-56110000D03*
%TO.P,U1,7,NRST*%
%TO.N,/NRST*%
X104390000Y-56610000D03*
%TO.P,U1,8,VSSA*%
%TO.N,GND*%
X104390000Y-57110000D03*
%TO.P,U1,9,VDDA*%
%TO.N,+3.3VA*%
X104390000Y-57610000D03*
%TO.P,U1,10,PA0*%
%TO.N,unconnected-(U1-PA0-Pad10)*%
X104390000Y-58110000D03*
%TO.P,U1,11,PA1*%
%TO.N,unconnected-(U1-PA1-Pad11)*%
X104390000Y-58610000D03*
%TO.P,U1,12,PA2*%
%TO.N,unconnected-(U1-PA2-Pad12)*%
X104390000Y-59110000D03*
D23*
%TO.P,U1,13,PA3*%
%TO.N,unconnected-(U1-PA3-Pad13)*%
X105800000Y-60520000D03*
%TO.P,U1,14,PA4*%
%TO.N,unconnected-(U1-PA4-Pad14)*%
X106300000Y-60520000D03*
%TO.P,U1,15,PA5*%
%TO.N,unconnected-(U1-PA5-Pad15)*%
X106800000Y-60520000D03*
%TO.P,U1,16,PA6*%
%TO.N,unconnected-(U1-PA6-Pad16)*%
X107300000Y-60520000D03*
%TO.P,U1,17,PA7*%
%TO.N,unconnected-(U1-PA7-Pad17)*%
X107800000Y-60520000D03*
%TO.P,U1,18,PB0*%
%TO.N,unconnected-(U1-PB0-Pad18)*%
X108300000Y-60520000D03*
%TO.P,U1,19,PB1*%
%TO.N,unconnected-(U1-PB1-Pad19)*%
X108800000Y-60520000D03*
%TO.P,U1,20,PB2*%
%TO.N,unconnected-(U1-PB2-Pad20)*%
X109300000Y-60520000D03*
%TO.P,U1,21,PB10*%
%TO.N,unconnected-(U1-PB10-Pad21)*%
X109800000Y-60520000D03*
%TO.P,U1,22,PB11*%
%TO.N,unconnected-(U1-PB11-Pad22)*%
X110300000Y-60520000D03*
%TO.P,U1,23,VSS*%
%TO.N,GND*%
X110800000Y-60520000D03*
%TO.P,U1,24,VDD*%
%TO.N,+3V3*%
X111300000Y-60520000D03*
D22*
%TO.P,U1,25,PB12*%
%TO.N,unconnected-(U1-PB12-Pad25)*%
X112710000Y-59110000D03*
%TO.P,U1,26,PB13*%
%TO.N,unconnected-(U1-PB13-Pad26)*%
X112710000Y-58610000D03*
%TO.P,U1,27,PB14*%
%TO.N,unconnected-(U1-PB14-Pad27)*%
X112710000Y-58110000D03*
%TO.P,U1,28,PB15*%
%TO.N,unconnected-(U1-PB15-Pad28)*%
X112710000Y-57610000D03*
%TO.P,U1,29,PA8*%
%TO.N,unconnected-(U1-PA8-Pad29)*%
X112710000Y-57110000D03*
%TO.P,U1,30,PA9*%
%TO.N,unconnected-(U1-PA9-Pad30)*%
X112710000Y-56610000D03*
%TO.P,U1,31,PA10*%
%TO.N,unconnected-(U1-PA10-Pad31)*%
X112710000Y-56110000D03*
%TO.P,U1,32,PA11*%
%TO.N,unconnected-(U1-PA11-Pad32)*%
X112710000Y-55610000D03*
%TO.P,U1,33,PA12*%
%TO.N,unconnected-(U1-PA12-Pad33)*%
X112710000Y-55110000D03*
%TO.P,U1,34,PA13*%
%TO.N,unconnected-(U1-PA13-Pad34)*%
X112710000Y-54610000D03*
%TO.P,U1,35,VSS*%
%TO.N,GND*%
X112710000Y-54110000D03*
%TO.P,U1,36,VDD*%
%TO.N,+3V3*%
X112710000Y-53610000D03*
D23*
%TO.P,U1,37,PA14*%
%TO.N,unconnected-(U1-PA14-Pad37)*%
X111300000Y-52200000D03*
%TO.P,U1,38,PA15*%
%TO.N,unconnected-(U1-PA15-Pad38)*%
X110800000Y-52200000D03*
%TO.P,U1,39,PB3*%
%TO.N,unconnected-(U1-PB3-Pad39)*%
X110300000Y-52200000D03*
%TO.P,U1,40,PB4*%
%TO.N,unconnected-(U1-PB4-Pad40)*%
X109800000Y-52200000D03*
%TO.P,U1,41,PB5*%
%TO.N,unconnected-(U1-PB5-Pad41)*%
X109300000Y-52200000D03*
%TO.P,U1,42,PB6*%
%TO.N,unconnected-(U1-PB6-Pad42)*%
X108800000Y-52200000D03*
%TO.P,U1,43,PB7*%
%TO.N,unconnected-(U1-PB7-Pad43)*%
X108300000Y-52200000D03*
%TO.P,U1,44,BOOT0*%
%TO.N,Net-(U1-BOOT0)*%
X107800000Y-52200000D03*
%TO.P,U1,45,PB8*%
%TO.N,unconnected-(U1-PB8-Pad45)*%
X107300000Y-52200000D03*
%TO.P,U1,46,PB9*%
%TO.N,unconnected-(U1-PB9-Pad46)*%
X106800000Y-52200000D03*
%TO.P,U1,47,VSS*%
%TO.N,GND*%
X106300000Y-52200000D03*
%TO.P,U1,48,VDD*%
%TO.N,+3V3*%
X105800000Y-52200000D03*
%TD*%
D11*
%TO.P,C3,1*%
%TO.N,+3V3*%
X93985000Y-63450000D03*
%TO.P,C3,2*%
%TO.N,GND*%
X95545000Y-63450000D03*
%TD*%
D24*
%TO.P,FB1,1*%
%TO.N,+3.3VA*%
X97905000Y-79860000D03*
%TO.P,FB1,2*%
%TO.N,+3V3*%
X100025000Y-79860000D03*
%TD*%
D25*
%TO.P,U4,1,PC15/CC2*%
%TO.N,unconnected-(U4-PC15{slash}CC2-Pad1)*%
X116675000Y-79400000D03*
%TO.P,U4,2,VDD*%
%TO.N,unconnected-(U4-VDD-Pad2)*%
X116675000Y-79800000D03*
%TO.P,U4,3,PC0*%
%TO.N,unconnected-(U4-PC0-Pad3)*%
X116675000Y-80200000D03*
%TO.P,U4,4,PC3*%
%TO.N,unconnected-(U4-PC3-Pad4)*%
X116675000Y-80600000D03*
%TO.P,U4,5,PA0*%
%TO.N,unconnected-(U4-PA0-Pad5)*%
X116675000Y-81000000D03*
%TO.P,U4,6,PA1*%
%TO.N,unconnected-(U4-PA1-Pad6)*%
X116675000Y-81400000D03*
%TO.P,U4,7,PA2*%
%TO.N,unconnected-(U4-PA2-Pad7)*%
X116675000Y-81800000D03*
D26*
%TO.P,U4,8,PA3*%
%TO.N,unconnected-(U4-PA3-Pad8)*%
X117437500Y-82562500D03*
%TO.P,U4,9,PA4*%
%TO.N,unconnected-(U4-PA4-Pad9)*%
X117837500Y-82562500D03*
%TO.P,U4,10,PA5*%
%TO.N,unconnected-(U4-PA5-Pad10)*%
X118237500Y-82562500D03*
%TO.P,U4,11,PA6*%
%TO.N,unconnected-(U4-PA6-Pad11)*%
X118637500Y-82562500D03*
%TO.P,U4,12,PA7*%
%TO.N,unconnected-(U4-PA7-Pad12)*%
X119037500Y-82562500D03*
%TO.P,U4,13,PB0*%
%TO.N,unconnected-(U4-PB0-Pad13)*%
X119437500Y-82562500D03*
%TO.P,U4,14,PB3*%
%TO.N,unconnected-(U4-PB3-Pad14)*%
X119837500Y-82562500D03*
D25*
%TO.P,U4,15,PB4*%
%TO.N,unconnected-(U4-PB4-Pad15)*%
X120600000Y-81800000D03*
%TO.P,U4,16,PB1/PB5*%
%TO.N,unconnected-(U4-PB1{slash}PB5-Pad16)*%
X120600000Y-81400000D03*
%TO.P,U4,17,PB6*%
%TO.N,unconnected-(U4-PB6-Pad17)*%
X120600000Y-81000000D03*
%TO.P,U4,18,PB7*%
%TO.N,unconnected-(U4-PB7-Pad18)*%
X120600000Y-80600000D03*
%TO.P,U4,19,PB8*%
%TO.N,unconnected-(U4-PB8-Pad19)*%
X120600000Y-80200000D03*
%TO.P,U4,20,PB9*%
%TO.N,unconnected-(U4-PB9-Pad20)*%
X120600000Y-79800000D03*
%TO.P,U4,21,PB10*%
%TO.N,unconnected-(U4-PB10-Pad21)*%
X120600000Y-79400000D03*
D26*
%TO.P,U4,22,PB11*%
%TO.N,unconnected-(U4-PB11-Pad22)*%
X119837500Y-78637500D03*
%TO.P,U4,23,PB12*%
%TO.N,unconnected-(U4-PB12-Pad23)*%
X119437500Y-78637500D03*
%TO.P,U4,24,PC19/DCK*%
%TO.N,unconnected-(U4-PC19{slash}DCK-Pad24)*%
X119037500Y-78637500D03*
%TO.P,U4,25,PC18/DIO*%
%TO.N,unconnected-(U4-PC18{slash}DIO-Pad25)*%
X118637500Y-78637500D03*
%TO.P,U4,26,PC11/PC16/UDM*%
%TO.N,unconnected-(U4-PC11{slash}PC16{slash}UDM-Pad26)*%
X118237500Y-78637500D03*
%TO.P,U4,27,PC10/PC17/UDP*%
%TO.N,unconnected-(U4-PC10{slash}PC17{slash}UDP-Pad27)*%
X117837500Y-78637500D03*
%TO.P,U4,28,PC14/CC1*%
%TO.N,unconnected-(U4-PC14{slash}CC1-Pad28)*%
X117437500Y-78637500D03*
D27*
%TO.P,U4,29,GND*%
%TO.N,unconnected-(U4-GND-Pad29)*%
X118637500Y-80600000D03*
%TD*%
M02*
