%TF.GenerationSoftware,KiCad,Pcbnew,9.0.4*%
%TF.CreationDate,2025-12-11T19:01:58+01:00*%
%TF.ProjectId,iCEBrainstorm,69434542-7261-4696-9e73-746f726d2e6b,rev?*%
%TF.SameCoordinates,Original*%
%TF.FileFunction,Legend,Top*%
%TF.FilePolarity,Positive*%
%FSLAX46Y46*%
G04 Gerber Fmt 4.6, Leading zero omitted, Abs format (unit mm)*
G04 Created by KiCad (PCBNEW 9.0.4) date 2025-12-11 19:01:58*
%MOMM*%
%LPD*%
G01*
G04 APERTURE LIST*
G04 Aperture macros list*
%AMRoundRect*
0 Rectangle with rounded corners*
0 $1 Rounding radius*
0 $2 $3 $4 $5 $6 $7 $8 $9 X,Y pos of 4 corners*
0 Add a 4 corners polygon primitive as box body*
4,1,4,$2,$3,$4,$5,$6,$7,$8,$9,$2,$3,0*
0 Add four circle primitives for the rounded corners*
1,1,$1+$1,$2,$3*
1,1,$1+$1,$4,$5*
1,1,$1+$1,$6,$7*
1,1,$1+$1,$8,$9*
0 Add four rect primitives between the rounded corners*
20,1,$1+$1,$2,$3,$4,$5,0*
20,1,$1+$1,$4,$5,$6,$7,0*
20,1,$1+$1,$6,$7,$8,$9,0*
20,1,$1+$1,$8,$9,$2,$3,0*%
%AMRotRect*
0 Rectangle, with rotation*
0 The origin of the aperture is its center*
0 $1 length*
0 $2 width*
0 $3 Rotation angle, in degrees counterclockwise*
0 Add horizontal line*
21,1,$1,$2,0,0,$3*%
%AMFreePoly0*
4,1,23,0.500000,-0.750000,0.000000,-0.750000,0.000000,-0.745722,-0.065263,-0.745722,-0.191342,-0.711940,-0.304381,-0.646677,-0.396677,-0.554381,-0.461940,-0.441342,-0.495722,-0.315263,-0.495722,-0.250000,-0.500000,-0.250000,-0.500000,0.250000,-0.495722,0.250000,-0.495722,0.315263,-0.461940,0.441342,-0.396677,0.554381,-0.304381,0.646677,-0.191342,0.711940,-0.065263,0.745722,0.000000,0.745722,
0.000000,0.750000,0.500000,0.750000,0.500000,-0.750000,0.500000,-0.750000,$1*%
%AMFreePoly1*
4,1,23,0.000000,0.745722,0.065263,0.745722,0.191342,0.711940,0.304381,0.646677,0.396677,0.554381,0.461940,0.441342,0.495722,0.315263,0.495722,0.250000,0.500000,0.250000,0.500000,-0.250000,0.495722,-0.250000,0.495722,-0.315263,0.461940,-0.441342,0.396677,-0.554381,0.304381,-0.646677,0.191342,-0.711940,0.065263,-0.745722,0.000000,-0.745722,0.000000,-0.750000,-0.500000,-0.750000,
-0.500000,0.750000,0.000000,0.750000,0.000000,0.745722,0.000000,0.745722,$1*%
G04 Aperture macros list end*
%ADD10C,0.100000*%
%ADD11C,0.150000*%
%ADD12C,0.120000*%
%ADD13C,0.000000*%
%ADD14RoundRect,0.261500X0.476500X-0.261500X0.476500X0.261500X-0.476500X0.261500X-0.476500X-0.261500X0*%
%ADD15RoundRect,0.269000X0.494000X-0.269000X0.494000X0.269000X-0.494000X0.269000X-0.494000X-0.269000X0*%
%ADD16RoundRect,0.219000X0.219000X0.294000X-0.219000X0.294000X-0.219000X-0.294000X0.219000X-0.294000X0*%
%ADD17RoundRect,0.219000X-0.219000X-0.294000X0.219000X-0.294000X0.219000X0.294000X-0.219000X0.294000X0*%
%ADD18O,2.250000X0.630000*%
%ADD19RoundRect,0.244000X0.244000X0.269000X-0.244000X0.269000X-0.244000X-0.269000X0.244000X-0.269000X0*%
%ADD20RoundRect,0.250000X-0.300000X1.000000X-0.300000X-1.000000X0.300000X-1.000000X0.300000X1.000000X0*%
%ADD21C,0.500000*%
%ADD22RoundRect,0.250000X-1.550000X0.920000X-1.550000X-0.920000X1.550000X-0.920000X1.550000X0.920000X0*%
%ADD23RoundRect,0.269000X-0.269000X-0.494000X0.269000X-0.494000X0.269000X0.494000X-0.269000X0.494000X0*%
%ADD24C,5.400000*%
%ADD25RoundRect,0.244000X-0.362746X-0.017678X-0.017678X-0.362746X0.362746X0.017678X0.017678X0.362746X0*%
%ADD26RoundRect,0.261500X-0.476500X0.261500X-0.476500X-0.261500X0.476500X-0.261500X0.476500X0.261500X0*%
%ADD27FreePoly0,270.000000*%
%ADD28FreePoly1,270.000000*%
%ADD29RoundRect,0.219000X0.294000X-0.219000X0.294000X0.219000X-0.294000X0.219000X-0.294000X-0.219000X0*%
%ADD30RoundRect,0.244000X-0.017678X0.362746X-0.362746X0.017678X0.017678X-0.362746X0.362746X-0.017678X0*%
%ADD31RoundRect,0.269000X-0.494000X0.269000X-0.494000X-0.269000X0.494000X-0.269000X0.494000X0.269000X0*%
%ADD32R,1.700000X1.700000*%
%ADD33C,1.700000*%
%ADD34RoundRect,0.219000X-0.294000X0.219000X-0.294000X-0.219000X0.294000X-0.219000X0.294000X0.219000X0*%
%ADD35RoundRect,0.244000X-0.244000X-0.269000X0.244000X-0.269000X0.244000X0.269000X-0.244000X0.269000X0*%
%ADD36RoundRect,0.250000X-0.550000X-0.550000X0.550000X-0.550000X0.550000X0.550000X-0.550000X0.550000X0*%
%ADD37C,1.600000*%
%ADD38RoundRect,0.250000X0.250000X-0.600000X0.250000X0.600000X-0.250000X0.600000X-0.250000X-0.600000X0*%
%ADD39RoundRect,0.244000X0.017678X-0.362746X0.362746X-0.017678X-0.017678X0.362746X-0.362746X0.017678X0*%
%ADD40RoundRect,0.250000X-0.250000X0.600000X-0.250000X-0.600000X0.250000X-0.600000X0.250000X0.600000X0*%
%ADD41RoundRect,0.062500X-0.309359X0.220971X0.220971X-0.309359X0.309359X-0.220971X-0.220971X0.309359X0*%
%ADD42RoundRect,0.062500X-0.309359X-0.220971X-0.220971X-0.309359X0.309359X0.220971X0.220971X0.309359X0*%
%ADD43RotRect,5.600000X5.600000X315.000000*%
%ADD44RoundRect,0.250000X-0.565685X0.070711X0.070711X-0.565685X0.565685X-0.070711X-0.070711X0.565685X0*%
%ADD45RoundRect,0.150000X0.150000X-0.590000X0.150000X0.590000X-0.150000X0.590000X-0.150000X-0.590000X0*%
%ADD46C,0.600000*%
%ADD47R,0.300000X1.400000*%
%ADD48R,0.500000X1.400000*%
%ADD49O,1.300000X2.300000*%
%ADD50O,1.300000X2.100000*%
%ADD51RoundRect,0.500000X2.000000X1.000000X-2.000000X1.000000X-2.000000X-1.000000X2.000000X-1.000000X0*%
%ADD52RoundRect,0.244000X-0.269000X0.244000X-0.269000X-0.244000X0.269000X-0.244000X0.269000X0.244000X0*%
%ADD53FreePoly0,45.000000*%
%ADD54FreePoly1,45.000000*%
%ADD55FreePoly0,315.000000*%
%ADD56FreePoly1,315.000000*%
%ADD57RoundRect,0.244000X0.269000X-0.244000X0.269000X0.244000X-0.269000X0.244000X-0.269000X-0.244000X0*%
%ADD58RoundRect,0.269000X0.269000X0.494000X-0.269000X0.494000X-0.269000X-0.494000X0.269000X-0.494000X0*%
%ADD59RoundRect,0.075000X-0.441942X-0.548008X0.548008X0.441942X0.441942X0.548008X-0.548008X-0.441942X0*%
%ADD60RoundRect,0.075000X0.441942X-0.548008X0.548008X-0.441942X-0.441942X0.548008X-0.548008X0.441942X0*%
%ADD61RoundRect,0.244000X0.362746X0.017678X0.017678X0.362746X-0.362746X-0.017678X-0.017678X-0.362746X0*%
%ADD62RoundRect,0.087500X-0.225000X-0.087500X0.225000X-0.087500X0.225000X0.087500X-0.225000X0.087500X0*%
%ADD63RoundRect,0.087500X-0.087500X-0.225000X0.087500X-0.225000X0.087500X0.225000X-0.087500X0.225000X0*%
%ADD64RoundRect,0.220000X-0.380000X0.220000X-0.380000X-0.220000X0.380000X-0.220000X0.380000X0.220000X0*%
G04 APERTURE END LIST*
D10*
X135511265Y-84642657D02*
X135558884Y-84595038D01*
X135558884Y-84595038D02*
X135654122Y-84547419D01*
X135654122Y-84547419D02*
X135892217Y-84547419D01*
X135892217Y-84547419D02*
X135987455Y-84595038D01*
X135987455Y-84595038D02*
X136035074Y-84642657D01*
X136035074Y-84642657D02*
X136082693Y-84737895D01*
X136082693Y-84737895D02*
X136082693Y-84833133D01*
X136082693Y-84833133D02*
X136035074Y-84975990D01*
X136035074Y-84975990D02*
X135463646Y-85547419D01*
X135463646Y-85547419D02*
X136082693Y-85547419D01*
X129997419Y-128668883D02*
X128997419Y-128668883D01*
X129997419Y-128192693D02*
X128997419Y-128192693D01*
X128997419Y-128192693D02*
X129997419Y-127621265D01*
X129997419Y-127621265D02*
X128997419Y-127621265D01*
X128997419Y-126954598D02*
X128997419Y-126859360D01*
X128997419Y-126859360D02*
X129045038Y-126764122D01*
X129045038Y-126764122D02*
X129092657Y-126716503D01*
X129092657Y-126716503D02*
X129187895Y-126668884D01*
X129187895Y-126668884D02*
X129378371Y-126621265D01*
X129378371Y-126621265D02*
X129616466Y-126621265D01*
X129616466Y-126621265D02*
X129806942Y-126668884D01*
X129806942Y-126668884D02*
X129902180Y-126716503D01*
X129902180Y-126716503D02*
X129949800Y-126764122D01*
X129949800Y-126764122D02*
X129997419Y-126859360D01*
X129997419Y-126859360D02*
X129997419Y-126954598D01*
X129997419Y-126954598D02*
X129949800Y-127049836D01*
X129949800Y-127049836D02*
X129902180Y-127097455D01*
X129902180Y-127097455D02*
X129806942Y-127145074D01*
X129806942Y-127145074D02*
X129616466Y-127192693D01*
X129616466Y-127192693D02*
X129378371Y-127192693D01*
X129378371Y-127192693D02*
X129187895Y-127145074D01*
X129187895Y-127145074D02*
X129092657Y-127097455D01*
X129092657Y-127097455D02*
X129045038Y-127049836D01*
X129045038Y-127049836D02*
X128997419Y-126954598D01*
X72058884Y-90627419D02*
X72058884Y-89627419D01*
X72058884Y-89627419D02*
X72630312Y-90627419D01*
X72630312Y-90627419D02*
X72630312Y-89627419D01*
X73677931Y-90627419D02*
X73344598Y-90151228D01*
X73106503Y-90627419D02*
X73106503Y-89627419D01*
X73106503Y-89627419D02*
X73487455Y-89627419D01*
X73487455Y-89627419D02*
X73582693Y-89675038D01*
X73582693Y-89675038D02*
X73630312Y-89722657D01*
X73630312Y-89722657D02*
X73677931Y-89817895D01*
X73677931Y-89817895D02*
X73677931Y-89960752D01*
X73677931Y-89960752D02*
X73630312Y-90055990D01*
X73630312Y-90055990D02*
X73582693Y-90103609D01*
X73582693Y-90103609D02*
X73487455Y-90151228D01*
X73487455Y-90151228D02*
X73106503Y-90151228D01*
X74058884Y-90579800D02*
X74201741Y-90627419D01*
X74201741Y-90627419D02*
X74439836Y-90627419D01*
X74439836Y-90627419D02*
X74535074Y-90579800D01*
X74535074Y-90579800D02*
X74582693Y-90532180D01*
X74582693Y-90532180D02*
X74630312Y-90436942D01*
X74630312Y-90436942D02*
X74630312Y-90341704D01*
X74630312Y-90341704D02*
X74582693Y-90246466D01*
X74582693Y-90246466D02*
X74535074Y-90198847D01*
X74535074Y-90198847D02*
X74439836Y-90151228D01*
X74439836Y-90151228D02*
X74249360Y-90103609D01*
X74249360Y-90103609D02*
X74154122Y-90055990D01*
X74154122Y-90055990D02*
X74106503Y-90008371D01*
X74106503Y-90008371D02*
X74058884Y-89913133D01*
X74058884Y-89913133D02*
X74058884Y-89817895D01*
X74058884Y-89817895D02*
X74106503Y-89722657D01*
X74106503Y-89722657D02*
X74154122Y-89675038D01*
X74154122Y-89675038D02*
X74249360Y-89627419D01*
X74249360Y-89627419D02*
X74487455Y-89627419D01*
X74487455Y-89627419D02*
X74630312Y-89675038D01*
X74916027Y-89627419D02*
X75487455Y-89627419D01*
X75201741Y-90627419D02*
X75201741Y-89627419D01*
X134923884Y-110947419D02*
X134923884Y-109947419D01*
X135400074Y-110947419D02*
X135400074Y-109947419D01*
X135400074Y-109947419D02*
X135971502Y-110947419D01*
X135971502Y-110947419D02*
X135971502Y-109947419D01*
X136638169Y-109947419D02*
X136733407Y-109947419D01*
X136733407Y-109947419D02*
X136828645Y-109995038D01*
X136828645Y-109995038D02*
X136876264Y-110042657D01*
X136876264Y-110042657D02*
X136923883Y-110137895D01*
X136923883Y-110137895D02*
X136971502Y-110328371D01*
X136971502Y-110328371D02*
X136971502Y-110566466D01*
X136971502Y-110566466D02*
X136923883Y-110756942D01*
X136923883Y-110756942D02*
X136876264Y-110852180D01*
X136876264Y-110852180D02*
X136828645Y-110899800D01*
X136828645Y-110899800D02*
X136733407Y-110947419D01*
X136733407Y-110947419D02*
X136638169Y-110947419D01*
X136638169Y-110947419D02*
X136542931Y-110899800D01*
X136542931Y-110899800D02*
X136495312Y-110852180D01*
X136495312Y-110852180D02*
X136447693Y-110756942D01*
X136447693Y-110756942D02*
X136400074Y-110566466D01*
X136400074Y-110566466D02*
X136400074Y-110328371D01*
X136400074Y-110328371D02*
X136447693Y-110137895D01*
X136447693Y-110137895D02*
X136495312Y-110042657D01*
X136495312Y-110042657D02*
X136542931Y-109995038D01*
X136542931Y-109995038D02*
X136638169Y-109947419D01*
X60628884Y-80467419D02*
X60628884Y-79467419D01*
X60628884Y-79467419D02*
X61009836Y-79467419D01*
X61009836Y-79467419D02*
X61105074Y-79515038D01*
X61105074Y-79515038D02*
X61152693Y-79562657D01*
X61152693Y-79562657D02*
X61200312Y-79657895D01*
X61200312Y-79657895D02*
X61200312Y-79800752D01*
X61200312Y-79800752D02*
X61152693Y-79895990D01*
X61152693Y-79895990D02*
X61105074Y-79943609D01*
X61105074Y-79943609D02*
X61009836Y-79991228D01*
X61009836Y-79991228D02*
X60628884Y-79991228D01*
X61581265Y-80181704D02*
X62057455Y-80181704D01*
X61486027Y-80467419D02*
X61819360Y-79467419D01*
X61819360Y-79467419D02*
X62152693Y-80467419D01*
X63009836Y-80467419D02*
X62438408Y-80467419D01*
X62724122Y-80467419D02*
X62724122Y-79467419D01*
X62724122Y-79467419D02*
X62628884Y-79610276D01*
X62628884Y-79610276D02*
X62533646Y-79705514D01*
X62533646Y-79705514D02*
X62438408Y-79753133D01*
X63914598Y-79467419D02*
X63438408Y-79467419D01*
X63438408Y-79467419D02*
X63390789Y-79943609D01*
X63390789Y-79943609D02*
X63438408Y-79895990D01*
X63438408Y-79895990D02*
X63533646Y-79848371D01*
X63533646Y-79848371D02*
X63771741Y-79848371D01*
X63771741Y-79848371D02*
X63866979Y-79895990D01*
X63866979Y-79895990D02*
X63914598Y-79943609D01*
X63914598Y-79943609D02*
X63962217Y-80038847D01*
X63962217Y-80038847D02*
X63962217Y-80276942D01*
X63962217Y-80276942D02*
X63914598Y-80372180D01*
X63914598Y-80372180D02*
X63866979Y-80419800D01*
X63866979Y-80419800D02*
X63771741Y-80467419D01*
X63771741Y-80467419D02*
X63533646Y-80467419D01*
X63533646Y-80467419D02*
X63438408Y-80419800D01*
X63438408Y-80419800D02*
X63390789Y-80372180D01*
X60628884Y-98247419D02*
X60628884Y-97247419D01*
X60628884Y-97247419D02*
X61009836Y-97247419D01*
X61009836Y-97247419D02*
X61105074Y-97295038D01*
X61105074Y-97295038D02*
X61152693Y-97342657D01*
X61152693Y-97342657D02*
X61200312Y-97437895D01*
X61200312Y-97437895D02*
X61200312Y-97580752D01*
X61200312Y-97580752D02*
X61152693Y-97675990D01*
X61152693Y-97675990D02*
X61105074Y-97723609D01*
X61105074Y-97723609D02*
X61009836Y-97771228D01*
X61009836Y-97771228D02*
X60628884Y-97771228D01*
X62200312Y-98152180D02*
X62152693Y-98199800D01*
X62152693Y-98199800D02*
X62009836Y-98247419D01*
X62009836Y-98247419D02*
X61914598Y-98247419D01*
X61914598Y-98247419D02*
X61771741Y-98199800D01*
X61771741Y-98199800D02*
X61676503Y-98104561D01*
X61676503Y-98104561D02*
X61628884Y-98009323D01*
X61628884Y-98009323D02*
X61581265Y-97818847D01*
X61581265Y-97818847D02*
X61581265Y-97675990D01*
X61581265Y-97675990D02*
X61628884Y-97485514D01*
X61628884Y-97485514D02*
X61676503Y-97390276D01*
X61676503Y-97390276D02*
X61771741Y-97295038D01*
X61771741Y-97295038D02*
X61914598Y-97247419D01*
X61914598Y-97247419D02*
X62009836Y-97247419D01*
X62009836Y-97247419D02*
X62152693Y-97295038D01*
X62152693Y-97295038D02*
X62200312Y-97342657D01*
X63152693Y-98247419D02*
X62581265Y-98247419D01*
X62866979Y-98247419D02*
X62866979Y-97247419D01*
X62866979Y-97247419D02*
X62771741Y-97390276D01*
X62771741Y-97390276D02*
X62676503Y-97485514D01*
X62676503Y-97485514D02*
X62581265Y-97533133D01*
X63486027Y-97247419D02*
X64105074Y-97247419D01*
X64105074Y-97247419D02*
X63771741Y-97628371D01*
X63771741Y-97628371D02*
X63914598Y-97628371D01*
X63914598Y-97628371D02*
X64009836Y-97675990D01*
X64009836Y-97675990D02*
X64057455Y-97723609D01*
X64057455Y-97723609D02*
X64105074Y-97818847D01*
X64105074Y-97818847D02*
X64105074Y-98056942D01*
X64105074Y-98056942D02*
X64057455Y-98152180D01*
X64057455Y-98152180D02*
X64009836Y-98199800D01*
X64009836Y-98199800D02*
X63914598Y-98247419D01*
X63914598Y-98247419D02*
X63628884Y-98247419D01*
X63628884Y-98247419D02*
X63533646Y-98199800D01*
X63533646Y-98199800D02*
X63486027Y-98152180D01*
X102057419Y-65212306D02*
X102057419Y-65783734D01*
X102057419Y-65498020D02*
X101057419Y-65498020D01*
X101057419Y-65498020D02*
X101200276Y-65593258D01*
X101200276Y-65593258D02*
X101295514Y-65688496D01*
X101295514Y-65688496D02*
X101343133Y-65783734D01*
X101057419Y-64926591D02*
X102057419Y-64593258D01*
X102057419Y-64593258D02*
X101057419Y-64259925D01*
X101152657Y-63974210D02*
X101105038Y-63926591D01*
X101105038Y-63926591D02*
X101057419Y-63831353D01*
X101057419Y-63831353D02*
X101057419Y-63593258D01*
X101057419Y-63593258D02*
X101105038Y-63498020D01*
X101105038Y-63498020D02*
X101152657Y-63450401D01*
X101152657Y-63450401D02*
X101247895Y-63402782D01*
X101247895Y-63402782D02*
X101343133Y-63402782D01*
X101343133Y-63402782D02*
X101485990Y-63450401D01*
X101485990Y-63450401D02*
X102057419Y-64021829D01*
X102057419Y-64021829D02*
X102057419Y-63402782D01*
X75022419Y-121451428D02*
X75831942Y-121451428D01*
X75831942Y-121451428D02*
X75927180Y-121403809D01*
X75927180Y-121403809D02*
X75974800Y-121356190D01*
X75974800Y-121356190D02*
X76022419Y-121260952D01*
X76022419Y-121260952D02*
X76022419Y-121070476D01*
X76022419Y-121070476D02*
X75974800Y-120975238D01*
X75974800Y-120975238D02*
X75927180Y-120927619D01*
X75927180Y-120927619D02*
X75831942Y-120880000D01*
X75831942Y-120880000D02*
X75022419Y-120880000D01*
X75736704Y-120451428D02*
X75736704Y-119975238D01*
X76022419Y-120546666D02*
X75022419Y-120213333D01*
X75022419Y-120213333D02*
X76022419Y-119880000D01*
X76022419Y-118975238D02*
X75546228Y-119308571D01*
X76022419Y-119546666D02*
X75022419Y-119546666D01*
X75022419Y-119546666D02*
X75022419Y-119165714D01*
X75022419Y-119165714D02*
X75070038Y-119070476D01*
X75070038Y-119070476D02*
X75117657Y-119022857D01*
X75117657Y-119022857D02*
X75212895Y-118975238D01*
X75212895Y-118975238D02*
X75355752Y-118975238D01*
X75355752Y-118975238D02*
X75450990Y-119022857D01*
X75450990Y-119022857D02*
X75498609Y-119070476D01*
X75498609Y-119070476D02*
X75546228Y-119165714D01*
X75546228Y-119165714D02*
X75546228Y-119546666D01*
X75022419Y-118689523D02*
X75022419Y-118118095D01*
X76022419Y-118403809D02*
X75022419Y-118403809D01*
X75117657Y-117832380D02*
X75070038Y-117784761D01*
X75070038Y-117784761D02*
X75022419Y-117689523D01*
X75022419Y-117689523D02*
X75022419Y-117451428D01*
X75022419Y-117451428D02*
X75070038Y-117356190D01*
X75070038Y-117356190D02*
X75117657Y-117308571D01*
X75117657Y-117308571D02*
X75212895Y-117260952D01*
X75212895Y-117260952D02*
X75308133Y-117260952D01*
X75308133Y-117260952D02*
X75450990Y-117308571D01*
X75450990Y-117308571D02*
X76022419Y-117879999D01*
X76022419Y-117879999D02*
X76022419Y-117260952D01*
X60628884Y-93167419D02*
X60628884Y-92167419D01*
X60628884Y-92167419D02*
X61009836Y-92167419D01*
X61009836Y-92167419D02*
X61105074Y-92215038D01*
X61105074Y-92215038D02*
X61152693Y-92262657D01*
X61152693Y-92262657D02*
X61200312Y-92357895D01*
X61200312Y-92357895D02*
X61200312Y-92500752D01*
X61200312Y-92500752D02*
X61152693Y-92595990D01*
X61152693Y-92595990D02*
X61105074Y-92643609D01*
X61105074Y-92643609D02*
X61009836Y-92691228D01*
X61009836Y-92691228D02*
X60628884Y-92691228D01*
X61962217Y-92643609D02*
X62105074Y-92691228D01*
X62105074Y-92691228D02*
X62152693Y-92738847D01*
X62152693Y-92738847D02*
X62200312Y-92834085D01*
X62200312Y-92834085D02*
X62200312Y-92976942D01*
X62200312Y-92976942D02*
X62152693Y-93072180D01*
X62152693Y-93072180D02*
X62105074Y-93119800D01*
X62105074Y-93119800D02*
X62009836Y-93167419D01*
X62009836Y-93167419D02*
X61628884Y-93167419D01*
X61628884Y-93167419D02*
X61628884Y-92167419D01*
X61628884Y-92167419D02*
X61962217Y-92167419D01*
X61962217Y-92167419D02*
X62057455Y-92215038D01*
X62057455Y-92215038D02*
X62105074Y-92262657D01*
X62105074Y-92262657D02*
X62152693Y-92357895D01*
X62152693Y-92357895D02*
X62152693Y-92453133D01*
X62152693Y-92453133D02*
X62105074Y-92548371D01*
X62105074Y-92548371D02*
X62057455Y-92595990D01*
X62057455Y-92595990D02*
X61962217Y-92643609D01*
X61962217Y-92643609D02*
X61628884Y-92643609D01*
X63057455Y-92500752D02*
X63057455Y-93167419D01*
X62819360Y-92119800D02*
X62581265Y-92834085D01*
X62581265Y-92834085D02*
X63200312Y-92834085D01*
X113625476Y-125028609D02*
X113768333Y-125076228D01*
X113768333Y-125076228D02*
X113815952Y-125123847D01*
X113815952Y-125123847D02*
X113863571Y-125219085D01*
X113863571Y-125219085D02*
X113863571Y-125361942D01*
X113863571Y-125361942D02*
X113815952Y-125457180D01*
X113815952Y-125457180D02*
X113768333Y-125504800D01*
X113768333Y-125504800D02*
X113673095Y-125552419D01*
X113673095Y-125552419D02*
X113292143Y-125552419D01*
X113292143Y-125552419D02*
X113292143Y-124552419D01*
X113292143Y-124552419D02*
X113625476Y-124552419D01*
X113625476Y-124552419D02*
X113720714Y-124600038D01*
X113720714Y-124600038D02*
X113768333Y-124647657D01*
X113768333Y-124647657D02*
X113815952Y-124742895D01*
X113815952Y-124742895D02*
X113815952Y-124838133D01*
X113815952Y-124838133D02*
X113768333Y-124933371D01*
X113768333Y-124933371D02*
X113720714Y-124980990D01*
X113720714Y-124980990D02*
X113625476Y-125028609D01*
X113625476Y-125028609D02*
X113292143Y-125028609D01*
X114149286Y-124552419D02*
X114720714Y-124552419D01*
X114435000Y-125552419D02*
X114435000Y-124552419D01*
X115054048Y-125552419D02*
X115054048Y-124552419D01*
X115054048Y-124552419D02*
X115625476Y-125552419D01*
X115625476Y-125552419D02*
X115625476Y-124552419D01*
X116625476Y-125552419D02*
X116054048Y-125552419D01*
X116339762Y-125552419D02*
X116339762Y-124552419D01*
X116339762Y-124552419D02*
X116244524Y-124695276D01*
X116244524Y-124695276D02*
X116149286Y-124790514D01*
X116149286Y-124790514D02*
X116054048Y-124838133D01*
X138363609Y-81406666D02*
X138363609Y-81739999D01*
X138887419Y-81739999D02*
X137887419Y-81739999D01*
X137887419Y-81739999D02*
X137887419Y-81263809D01*
X138887419Y-80882856D02*
X137887419Y-80882856D01*
X137887419Y-80882856D02*
X137887419Y-80501904D01*
X137887419Y-80501904D02*
X137935038Y-80406666D01*
X137935038Y-80406666D02*
X137982657Y-80359047D01*
X137982657Y-80359047D02*
X138077895Y-80311428D01*
X138077895Y-80311428D02*
X138220752Y-80311428D01*
X138220752Y-80311428D02*
X138315990Y-80359047D01*
X138315990Y-80359047D02*
X138363609Y-80406666D01*
X138363609Y-80406666D02*
X138411228Y-80501904D01*
X138411228Y-80501904D02*
X138411228Y-80882856D01*
X137935038Y-79359047D02*
X137887419Y-79454285D01*
X137887419Y-79454285D02*
X137887419Y-79597142D01*
X137887419Y-79597142D02*
X137935038Y-79739999D01*
X137935038Y-79739999D02*
X138030276Y-79835237D01*
X138030276Y-79835237D02*
X138125514Y-79882856D01*
X138125514Y-79882856D02*
X138315990Y-79930475D01*
X138315990Y-79930475D02*
X138458847Y-79930475D01*
X138458847Y-79930475D02*
X138649323Y-79882856D01*
X138649323Y-79882856D02*
X138744561Y-79835237D01*
X138744561Y-79835237D02*
X138839800Y-79739999D01*
X138839800Y-79739999D02*
X138887419Y-79597142D01*
X138887419Y-79597142D02*
X138887419Y-79501904D01*
X138887419Y-79501904D02*
X138839800Y-79359047D01*
X138839800Y-79359047D02*
X138792180Y-79311428D01*
X138792180Y-79311428D02*
X138458847Y-79311428D01*
X138458847Y-79311428D02*
X138458847Y-79501904D01*
X138601704Y-78930475D02*
X138601704Y-78454285D01*
X138887419Y-79025713D02*
X137887419Y-78692380D01*
X137887419Y-78692380D02*
X138887419Y-78359047D01*
X138506466Y-78025713D02*
X138506466Y-77263809D01*
X138887419Y-76787618D02*
X137887419Y-76787618D01*
X137887419Y-76120952D02*
X137887419Y-75930476D01*
X137887419Y-75930476D02*
X137935038Y-75835238D01*
X137935038Y-75835238D02*
X138030276Y-75740000D01*
X138030276Y-75740000D02*
X138220752Y-75692381D01*
X138220752Y-75692381D02*
X138554085Y-75692381D01*
X138554085Y-75692381D02*
X138744561Y-75740000D01*
X138744561Y-75740000D02*
X138839800Y-75835238D01*
X138839800Y-75835238D02*
X138887419Y-75930476D01*
X138887419Y-75930476D02*
X138887419Y-76120952D01*
X138887419Y-76120952D02*
X138839800Y-76216190D01*
X138839800Y-76216190D02*
X138744561Y-76311428D01*
X138744561Y-76311428D02*
X138554085Y-76359047D01*
X138554085Y-76359047D02*
X138220752Y-76359047D01*
X138220752Y-76359047D02*
X138030276Y-76311428D01*
X138030276Y-76311428D02*
X137935038Y-76216190D01*
X137935038Y-76216190D02*
X137887419Y-76120952D01*
X65063810Y-72847419D02*
X65063810Y-71847419D01*
X65492381Y-71942657D02*
X65540000Y-71895038D01*
X65540000Y-71895038D02*
X65635238Y-71847419D01*
X65635238Y-71847419D02*
X65873333Y-71847419D01*
X65873333Y-71847419D02*
X65968571Y-71895038D01*
X65968571Y-71895038D02*
X66016190Y-71942657D01*
X66016190Y-71942657D02*
X66063809Y-72037895D01*
X66063809Y-72037895D02*
X66063809Y-72133133D01*
X66063809Y-72133133D02*
X66016190Y-72275990D01*
X66016190Y-72275990D02*
X65444762Y-72847419D01*
X65444762Y-72847419D02*
X66063809Y-72847419D01*
X67063809Y-72752180D02*
X67016190Y-72799800D01*
X67016190Y-72799800D02*
X66873333Y-72847419D01*
X66873333Y-72847419D02*
X66778095Y-72847419D01*
X66778095Y-72847419D02*
X66635238Y-72799800D01*
X66635238Y-72799800D02*
X66540000Y-72704561D01*
X66540000Y-72704561D02*
X66492381Y-72609323D01*
X66492381Y-72609323D02*
X66444762Y-72418847D01*
X66444762Y-72418847D02*
X66444762Y-72275990D01*
X66444762Y-72275990D02*
X66492381Y-72085514D01*
X66492381Y-72085514D02*
X66540000Y-71990276D01*
X66540000Y-71990276D02*
X66635238Y-71895038D01*
X66635238Y-71895038D02*
X66778095Y-71847419D01*
X66778095Y-71847419D02*
X66873333Y-71847419D01*
X66873333Y-71847419D02*
X67016190Y-71895038D01*
X67016190Y-71895038D02*
X67063809Y-71942657D01*
X72011265Y-88039800D02*
X72154122Y-88087419D01*
X72154122Y-88087419D02*
X72392217Y-88087419D01*
X72392217Y-88087419D02*
X72487455Y-88039800D01*
X72487455Y-88039800D02*
X72535074Y-87992180D01*
X72535074Y-87992180D02*
X72582693Y-87896942D01*
X72582693Y-87896942D02*
X72582693Y-87801704D01*
X72582693Y-87801704D02*
X72535074Y-87706466D01*
X72535074Y-87706466D02*
X72487455Y-87658847D01*
X72487455Y-87658847D02*
X72392217Y-87611228D01*
X72392217Y-87611228D02*
X72201741Y-87563609D01*
X72201741Y-87563609D02*
X72106503Y-87515990D01*
X72106503Y-87515990D02*
X72058884Y-87468371D01*
X72058884Y-87468371D02*
X72011265Y-87373133D01*
X72011265Y-87373133D02*
X72011265Y-87277895D01*
X72011265Y-87277895D02*
X72058884Y-87182657D01*
X72058884Y-87182657D02*
X72106503Y-87135038D01*
X72106503Y-87135038D02*
X72201741Y-87087419D01*
X72201741Y-87087419D02*
X72439836Y-87087419D01*
X72439836Y-87087419D02*
X72582693Y-87135038D01*
X72916027Y-87087419D02*
X73154122Y-88087419D01*
X73154122Y-88087419D02*
X73344598Y-87373133D01*
X73344598Y-87373133D02*
X73535074Y-88087419D01*
X73535074Y-88087419D02*
X73773170Y-87087419D01*
X74344598Y-87087419D02*
X74535074Y-87087419D01*
X74535074Y-87087419D02*
X74630312Y-87135038D01*
X74630312Y-87135038D02*
X74725550Y-87230276D01*
X74725550Y-87230276D02*
X74773169Y-87420752D01*
X74773169Y-87420752D02*
X74773169Y-87754085D01*
X74773169Y-87754085D02*
X74725550Y-87944561D01*
X74725550Y-87944561D02*
X74630312Y-88039800D01*
X74630312Y-88039800D02*
X74535074Y-88087419D01*
X74535074Y-88087419D02*
X74344598Y-88087419D01*
X74344598Y-88087419D02*
X74249360Y-88039800D01*
X74249360Y-88039800D02*
X74154122Y-87944561D01*
X74154122Y-87944561D02*
X74106503Y-87754085D01*
X74106503Y-87754085D02*
X74106503Y-87420752D01*
X74106503Y-87420752D02*
X74154122Y-87230276D01*
X74154122Y-87230276D02*
X74249360Y-87135038D01*
X74249360Y-87135038D02*
X74344598Y-87087419D01*
X98517419Y-65831353D02*
X98517419Y-65212306D01*
X98517419Y-65212306D02*
X98898371Y-65545639D01*
X98898371Y-65545639D02*
X98898371Y-65402782D01*
X98898371Y-65402782D02*
X98945990Y-65307544D01*
X98945990Y-65307544D02*
X98993609Y-65259925D01*
X98993609Y-65259925D02*
X99088847Y-65212306D01*
X99088847Y-65212306D02*
X99326942Y-65212306D01*
X99326942Y-65212306D02*
X99422180Y-65259925D01*
X99422180Y-65259925D02*
X99469800Y-65307544D01*
X99469800Y-65307544D02*
X99517419Y-65402782D01*
X99517419Y-65402782D02*
X99517419Y-65688496D01*
X99517419Y-65688496D02*
X99469800Y-65783734D01*
X99469800Y-65783734D02*
X99422180Y-65831353D01*
X98517419Y-64926591D02*
X99517419Y-64593258D01*
X99517419Y-64593258D02*
X98517419Y-64259925D01*
X98517419Y-64021829D02*
X98517419Y-63402782D01*
X98517419Y-63402782D02*
X98898371Y-63736115D01*
X98898371Y-63736115D02*
X98898371Y-63593258D01*
X98898371Y-63593258D02*
X98945990Y-63498020D01*
X98945990Y-63498020D02*
X98993609Y-63450401D01*
X98993609Y-63450401D02*
X99088847Y-63402782D01*
X99088847Y-63402782D02*
X99326942Y-63402782D01*
X99326942Y-63402782D02*
X99422180Y-63450401D01*
X99422180Y-63450401D02*
X99469800Y-63498020D01*
X99469800Y-63498020D02*
X99517419Y-63593258D01*
X99517419Y-63593258D02*
X99517419Y-63878972D01*
X99517419Y-63878972D02*
X99469800Y-63974210D01*
X99469800Y-63974210D02*
X99422180Y-64021829D01*
X103597419Y-128541741D02*
X103597419Y-128351265D01*
X103597419Y-128351265D02*
X103645038Y-128256027D01*
X103645038Y-128256027D02*
X103740276Y-128160789D01*
X103740276Y-128160789D02*
X103930752Y-128113170D01*
X103930752Y-128113170D02*
X104264085Y-128113170D01*
X104264085Y-128113170D02*
X104454561Y-128160789D01*
X104454561Y-128160789D02*
X104549800Y-128256027D01*
X104549800Y-128256027D02*
X104597419Y-128351265D01*
X104597419Y-128351265D02*
X104597419Y-128541741D01*
X104597419Y-128541741D02*
X104549800Y-128636979D01*
X104549800Y-128636979D02*
X104454561Y-128732217D01*
X104454561Y-128732217D02*
X104264085Y-128779836D01*
X104264085Y-128779836D02*
X103930752Y-128779836D01*
X103930752Y-128779836D02*
X103740276Y-128732217D01*
X103740276Y-128732217D02*
X103645038Y-128636979D01*
X103645038Y-128636979D02*
X103597419Y-128541741D01*
X103597419Y-127684598D02*
X104406942Y-127684598D01*
X104406942Y-127684598D02*
X104502180Y-127636979D01*
X104502180Y-127636979D02*
X104549800Y-127589360D01*
X104549800Y-127589360D02*
X104597419Y-127494122D01*
X104597419Y-127494122D02*
X104597419Y-127303646D01*
X104597419Y-127303646D02*
X104549800Y-127208408D01*
X104549800Y-127208408D02*
X104502180Y-127160789D01*
X104502180Y-127160789D02*
X104406942Y-127113170D01*
X104406942Y-127113170D02*
X103597419Y-127113170D01*
X103597419Y-126779836D02*
X103597419Y-126208408D01*
X104597419Y-126494122D02*
X103597419Y-126494122D01*
X103597419Y-125684598D02*
X103597419Y-125589360D01*
X103597419Y-125589360D02*
X103645038Y-125494122D01*
X103645038Y-125494122D02*
X103692657Y-125446503D01*
X103692657Y-125446503D02*
X103787895Y-125398884D01*
X103787895Y-125398884D02*
X103978371Y-125351265D01*
X103978371Y-125351265D02*
X104216466Y-125351265D01*
X104216466Y-125351265D02*
X104406942Y-125398884D01*
X104406942Y-125398884D02*
X104502180Y-125446503D01*
X104502180Y-125446503D02*
X104549800Y-125494122D01*
X104549800Y-125494122D02*
X104597419Y-125589360D01*
X104597419Y-125589360D02*
X104597419Y-125684598D01*
X104597419Y-125684598D02*
X104549800Y-125779836D01*
X104549800Y-125779836D02*
X104502180Y-125827455D01*
X104502180Y-125827455D02*
X104406942Y-125875074D01*
X104406942Y-125875074D02*
X104216466Y-125922693D01*
X104216466Y-125922693D02*
X103978371Y-125922693D01*
X103978371Y-125922693D02*
X103787895Y-125875074D01*
X103787895Y-125875074D02*
X103692657Y-125827455D01*
X103692657Y-125827455D02*
X103645038Y-125779836D01*
X103645038Y-125779836D02*
X103597419Y-125684598D01*
X60628884Y-105867419D02*
X60628884Y-104867419D01*
X60628884Y-104867419D02*
X61009836Y-104867419D01*
X61009836Y-104867419D02*
X61105074Y-104915038D01*
X61105074Y-104915038D02*
X61152693Y-104962657D01*
X61152693Y-104962657D02*
X61200312Y-105057895D01*
X61200312Y-105057895D02*
X61200312Y-105200752D01*
X61200312Y-105200752D02*
X61152693Y-105295990D01*
X61152693Y-105295990D02*
X61105074Y-105343609D01*
X61105074Y-105343609D02*
X61009836Y-105391228D01*
X61009836Y-105391228D02*
X60628884Y-105391228D01*
X62200312Y-105772180D02*
X62152693Y-105819800D01*
X62152693Y-105819800D02*
X62009836Y-105867419D01*
X62009836Y-105867419D02*
X61914598Y-105867419D01*
X61914598Y-105867419D02*
X61771741Y-105819800D01*
X61771741Y-105819800D02*
X61676503Y-105724561D01*
X61676503Y-105724561D02*
X61628884Y-105629323D01*
X61628884Y-105629323D02*
X61581265Y-105438847D01*
X61581265Y-105438847D02*
X61581265Y-105295990D01*
X61581265Y-105295990D02*
X61628884Y-105105514D01*
X61628884Y-105105514D02*
X61676503Y-105010276D01*
X61676503Y-105010276D02*
X61771741Y-104915038D01*
X61771741Y-104915038D02*
X61914598Y-104867419D01*
X61914598Y-104867419D02*
X62009836Y-104867419D01*
X62009836Y-104867419D02*
X62152693Y-104915038D01*
X62152693Y-104915038D02*
X62200312Y-104962657D01*
X62819360Y-104867419D02*
X62914598Y-104867419D01*
X62914598Y-104867419D02*
X63009836Y-104915038D01*
X63009836Y-104915038D02*
X63057455Y-104962657D01*
X63057455Y-104962657D02*
X63105074Y-105057895D01*
X63105074Y-105057895D02*
X63152693Y-105248371D01*
X63152693Y-105248371D02*
X63152693Y-105486466D01*
X63152693Y-105486466D02*
X63105074Y-105676942D01*
X63105074Y-105676942D02*
X63057455Y-105772180D01*
X63057455Y-105772180D02*
X63009836Y-105819800D01*
X63009836Y-105819800D02*
X62914598Y-105867419D01*
X62914598Y-105867419D02*
X62819360Y-105867419D01*
X62819360Y-105867419D02*
X62724122Y-105819800D01*
X62724122Y-105819800D02*
X62676503Y-105772180D01*
X62676503Y-105772180D02*
X62628884Y-105676942D01*
X62628884Y-105676942D02*
X62581265Y-105486466D01*
X62581265Y-105486466D02*
X62581265Y-105248371D01*
X62581265Y-105248371D02*
X62628884Y-105057895D01*
X62628884Y-105057895D02*
X62676503Y-104962657D01*
X62676503Y-104962657D02*
X62724122Y-104915038D01*
X62724122Y-104915038D02*
X62819360Y-104867419D01*
X72011265Y-85499800D02*
X72154122Y-85547419D01*
X72154122Y-85547419D02*
X72392217Y-85547419D01*
X72392217Y-85547419D02*
X72487455Y-85499800D01*
X72487455Y-85499800D02*
X72535074Y-85452180D01*
X72535074Y-85452180D02*
X72582693Y-85356942D01*
X72582693Y-85356942D02*
X72582693Y-85261704D01*
X72582693Y-85261704D02*
X72535074Y-85166466D01*
X72535074Y-85166466D02*
X72487455Y-85118847D01*
X72487455Y-85118847D02*
X72392217Y-85071228D01*
X72392217Y-85071228D02*
X72201741Y-85023609D01*
X72201741Y-85023609D02*
X72106503Y-84975990D01*
X72106503Y-84975990D02*
X72058884Y-84928371D01*
X72058884Y-84928371D02*
X72011265Y-84833133D01*
X72011265Y-84833133D02*
X72011265Y-84737895D01*
X72011265Y-84737895D02*
X72058884Y-84642657D01*
X72058884Y-84642657D02*
X72106503Y-84595038D01*
X72106503Y-84595038D02*
X72201741Y-84547419D01*
X72201741Y-84547419D02*
X72439836Y-84547419D01*
X72439836Y-84547419D02*
X72582693Y-84595038D01*
X72916027Y-84547419D02*
X73154122Y-85547419D01*
X73154122Y-85547419D02*
X73344598Y-84833133D01*
X73344598Y-84833133D02*
X73535074Y-85547419D01*
X73535074Y-85547419D02*
X73773170Y-84547419D01*
X74154122Y-85547419D02*
X74154122Y-84547419D01*
X74154122Y-84547419D02*
X74392217Y-84547419D01*
X74392217Y-84547419D02*
X74535074Y-84595038D01*
X74535074Y-84595038D02*
X74630312Y-84690276D01*
X74630312Y-84690276D02*
X74677931Y-84785514D01*
X74677931Y-84785514D02*
X74725550Y-84975990D01*
X74725550Y-84975990D02*
X74725550Y-85118847D01*
X74725550Y-85118847D02*
X74677931Y-85309323D01*
X74677931Y-85309323D02*
X74630312Y-85404561D01*
X74630312Y-85404561D02*
X74535074Y-85499800D01*
X74535074Y-85499800D02*
X74392217Y-85547419D01*
X74392217Y-85547419D02*
X74154122Y-85547419D01*
X75154122Y-85547419D02*
X75154122Y-84547419D01*
X75820788Y-84547419D02*
X76011264Y-84547419D01*
X76011264Y-84547419D02*
X76106502Y-84595038D01*
X76106502Y-84595038D02*
X76201740Y-84690276D01*
X76201740Y-84690276D02*
X76249359Y-84880752D01*
X76249359Y-84880752D02*
X76249359Y-85214085D01*
X76249359Y-85214085D02*
X76201740Y-85404561D01*
X76201740Y-85404561D02*
X76106502Y-85499800D01*
X76106502Y-85499800D02*
X76011264Y-85547419D01*
X76011264Y-85547419D02*
X75820788Y-85547419D01*
X75820788Y-85547419D02*
X75725550Y-85499800D01*
X75725550Y-85499800D02*
X75630312Y-85404561D01*
X75630312Y-85404561D02*
X75582693Y-85214085D01*
X75582693Y-85214085D02*
X75582693Y-84880752D01*
X75582693Y-84880752D02*
X75630312Y-84690276D01*
X75630312Y-84690276D02*
X75725550Y-84595038D01*
X75725550Y-84595038D02*
X75820788Y-84547419D01*
X135172217Y-102791109D02*
X135315074Y-102838728D01*
X135315074Y-102838728D02*
X135362693Y-102886347D01*
X135362693Y-102886347D02*
X135410312Y-102981585D01*
X135410312Y-102981585D02*
X135410312Y-103124442D01*
X135410312Y-103124442D02*
X135362693Y-103219680D01*
X135362693Y-103219680D02*
X135315074Y-103267300D01*
X135315074Y-103267300D02*
X135219836Y-103314919D01*
X135219836Y-103314919D02*
X134838884Y-103314919D01*
X134838884Y-103314919D02*
X134838884Y-102314919D01*
X134838884Y-102314919D02*
X135172217Y-102314919D01*
X135172217Y-102314919D02*
X135267455Y-102362538D01*
X135267455Y-102362538D02*
X135315074Y-102410157D01*
X135315074Y-102410157D02*
X135362693Y-102505395D01*
X135362693Y-102505395D02*
X135362693Y-102600633D01*
X135362693Y-102600633D02*
X135315074Y-102695871D01*
X135315074Y-102695871D02*
X135267455Y-102743490D01*
X135267455Y-102743490D02*
X135172217Y-102791109D01*
X135172217Y-102791109D02*
X134838884Y-102791109D01*
X136029360Y-102314919D02*
X136219836Y-102314919D01*
X136219836Y-102314919D02*
X136315074Y-102362538D01*
X136315074Y-102362538D02*
X136410312Y-102457776D01*
X136410312Y-102457776D02*
X136457931Y-102648252D01*
X136457931Y-102648252D02*
X136457931Y-102981585D01*
X136457931Y-102981585D02*
X136410312Y-103172061D01*
X136410312Y-103172061D02*
X136315074Y-103267300D01*
X136315074Y-103267300D02*
X136219836Y-103314919D01*
X136219836Y-103314919D02*
X136029360Y-103314919D01*
X136029360Y-103314919D02*
X135934122Y-103267300D01*
X135934122Y-103267300D02*
X135838884Y-103172061D01*
X135838884Y-103172061D02*
X135791265Y-102981585D01*
X135791265Y-102981585D02*
X135791265Y-102648252D01*
X135791265Y-102648252D02*
X135838884Y-102457776D01*
X135838884Y-102457776D02*
X135934122Y-102362538D01*
X135934122Y-102362538D02*
X136029360Y-102314919D01*
X137076979Y-102314919D02*
X137267455Y-102314919D01*
X137267455Y-102314919D02*
X137362693Y-102362538D01*
X137362693Y-102362538D02*
X137457931Y-102457776D01*
X137457931Y-102457776D02*
X137505550Y-102648252D01*
X137505550Y-102648252D02*
X137505550Y-102981585D01*
X137505550Y-102981585D02*
X137457931Y-103172061D01*
X137457931Y-103172061D02*
X137362693Y-103267300D01*
X137362693Y-103267300D02*
X137267455Y-103314919D01*
X137267455Y-103314919D02*
X137076979Y-103314919D01*
X137076979Y-103314919D02*
X136981741Y-103267300D01*
X136981741Y-103267300D02*
X136886503Y-103172061D01*
X136886503Y-103172061D02*
X136838884Y-102981585D01*
X136838884Y-102981585D02*
X136838884Y-102648252D01*
X136838884Y-102648252D02*
X136886503Y-102457776D01*
X136886503Y-102457776D02*
X136981741Y-102362538D01*
X136981741Y-102362538D02*
X137076979Y-102314919D01*
X137791265Y-102314919D02*
X138362693Y-102314919D01*
X138076979Y-103314919D02*
X138076979Y-102314919D01*
X139219836Y-103314919D02*
X138648408Y-103314919D01*
X138934122Y-103314919D02*
X138934122Y-102314919D01*
X138934122Y-102314919D02*
X138838884Y-102457776D01*
X138838884Y-102457776D02*
X138743646Y-102553014D01*
X138743646Y-102553014D02*
X138648408Y-102600633D01*
X82097381Y-62577552D02*
X82430714Y-63053743D01*
X82668809Y-62577552D02*
X82668809Y-63577552D01*
X82668809Y-63577552D02*
X82287857Y-63577552D01*
X82287857Y-63577552D02*
X82192619Y-63529933D01*
X82192619Y-63529933D02*
X82145000Y-63482314D01*
X82145000Y-63482314D02*
X82097381Y-63387076D01*
X82097381Y-63387076D02*
X82097381Y-63244219D01*
X82097381Y-63244219D02*
X82145000Y-63148981D01*
X82145000Y-63148981D02*
X82192619Y-63101362D01*
X82192619Y-63101362D02*
X82287857Y-63053743D01*
X82287857Y-63053743D02*
X82668809Y-63053743D01*
X81668809Y-63101362D02*
X81335476Y-63101362D01*
X81192619Y-62577552D02*
X81668809Y-62577552D01*
X81668809Y-62577552D02*
X81668809Y-63577552D01*
X81668809Y-63577552D02*
X81192619Y-63577552D01*
X80811666Y-62625172D02*
X80668809Y-62577552D01*
X80668809Y-62577552D02*
X80430714Y-62577552D01*
X80430714Y-62577552D02*
X80335476Y-62625172D01*
X80335476Y-62625172D02*
X80287857Y-62672791D01*
X80287857Y-62672791D02*
X80240238Y-62768029D01*
X80240238Y-62768029D02*
X80240238Y-62863267D01*
X80240238Y-62863267D02*
X80287857Y-62958505D01*
X80287857Y-62958505D02*
X80335476Y-63006124D01*
X80335476Y-63006124D02*
X80430714Y-63053743D01*
X80430714Y-63053743D02*
X80621190Y-63101362D01*
X80621190Y-63101362D02*
X80716428Y-63148981D01*
X80716428Y-63148981D02*
X80764047Y-63196600D01*
X80764047Y-63196600D02*
X80811666Y-63291838D01*
X80811666Y-63291838D02*
X80811666Y-63387076D01*
X80811666Y-63387076D02*
X80764047Y-63482314D01*
X80764047Y-63482314D02*
X80716428Y-63529933D01*
X80716428Y-63529933D02*
X80621190Y-63577552D01*
X80621190Y-63577552D02*
X80383095Y-63577552D01*
X80383095Y-63577552D02*
X80240238Y-63529933D01*
X79811666Y-63101362D02*
X79478333Y-63101362D01*
X79335476Y-62577552D02*
X79811666Y-62577552D01*
X79811666Y-62577552D02*
X79811666Y-63577552D01*
X79811666Y-63577552D02*
X79335476Y-63577552D01*
X79049761Y-63577552D02*
X78478333Y-63577552D01*
X78764047Y-62577552D02*
X78764047Y-63577552D01*
X81883094Y-61015228D02*
X81740237Y-60967608D01*
X81740237Y-60967608D02*
X81502142Y-60967608D01*
X81502142Y-60967608D02*
X81406904Y-61015228D01*
X81406904Y-61015228D02*
X81359285Y-61062847D01*
X81359285Y-61062847D02*
X81311666Y-61158085D01*
X81311666Y-61158085D02*
X81311666Y-61253323D01*
X81311666Y-61253323D02*
X81359285Y-61348561D01*
X81359285Y-61348561D02*
X81406904Y-61396180D01*
X81406904Y-61396180D02*
X81502142Y-61443799D01*
X81502142Y-61443799D02*
X81692618Y-61491418D01*
X81692618Y-61491418D02*
X81787856Y-61539037D01*
X81787856Y-61539037D02*
X81835475Y-61586656D01*
X81835475Y-61586656D02*
X81883094Y-61681894D01*
X81883094Y-61681894D02*
X81883094Y-61777132D01*
X81883094Y-61777132D02*
X81835475Y-61872370D01*
X81835475Y-61872370D02*
X81787856Y-61919989D01*
X81787856Y-61919989D02*
X81692618Y-61967608D01*
X81692618Y-61967608D02*
X81454523Y-61967608D01*
X81454523Y-61967608D02*
X81311666Y-61919989D01*
X81025951Y-61967608D02*
X80454523Y-61967608D01*
X80740237Y-60967608D02*
X80740237Y-61967608D01*
X80121189Y-60967608D02*
X80121189Y-61967608D01*
X80121189Y-61967608D02*
X79787856Y-61253323D01*
X79787856Y-61253323D02*
X79454523Y-61967608D01*
X79454523Y-61967608D02*
X79454523Y-60967608D01*
X135749360Y-89627419D02*
X135844598Y-89627419D01*
X135844598Y-89627419D02*
X135939836Y-89675038D01*
X135939836Y-89675038D02*
X135987455Y-89722657D01*
X135987455Y-89722657D02*
X136035074Y-89817895D01*
X136035074Y-89817895D02*
X136082693Y-90008371D01*
X136082693Y-90008371D02*
X136082693Y-90246466D01*
X136082693Y-90246466D02*
X136035074Y-90436942D01*
X136035074Y-90436942D02*
X135987455Y-90532180D01*
X135987455Y-90532180D02*
X135939836Y-90579800D01*
X135939836Y-90579800D02*
X135844598Y-90627419D01*
X135844598Y-90627419D02*
X135749360Y-90627419D01*
X135749360Y-90627419D02*
X135654122Y-90579800D01*
X135654122Y-90579800D02*
X135606503Y-90532180D01*
X135606503Y-90532180D02*
X135558884Y-90436942D01*
X135558884Y-90436942D02*
X135511265Y-90246466D01*
X135511265Y-90246466D02*
X135511265Y-90008371D01*
X135511265Y-90008371D02*
X135558884Y-89817895D01*
X135558884Y-89817895D02*
X135606503Y-89722657D01*
X135606503Y-89722657D02*
X135654122Y-89675038D01*
X135654122Y-89675038D02*
X135749360Y-89627419D01*
X135511265Y-79562657D02*
X135558884Y-79515038D01*
X135558884Y-79515038D02*
X135654122Y-79467419D01*
X135654122Y-79467419D02*
X135892217Y-79467419D01*
X135892217Y-79467419D02*
X135987455Y-79515038D01*
X135987455Y-79515038D02*
X136035074Y-79562657D01*
X136035074Y-79562657D02*
X136082693Y-79657895D01*
X136082693Y-79657895D02*
X136082693Y-79753133D01*
X136082693Y-79753133D02*
X136035074Y-79895990D01*
X136035074Y-79895990D02*
X135463646Y-80467419D01*
X135463646Y-80467419D02*
X136082693Y-80467419D01*
X60628884Y-103327419D02*
X60628884Y-102327419D01*
X60628884Y-102327419D02*
X61009836Y-102327419D01*
X61009836Y-102327419D02*
X61105074Y-102375038D01*
X61105074Y-102375038D02*
X61152693Y-102422657D01*
X61152693Y-102422657D02*
X61200312Y-102517895D01*
X61200312Y-102517895D02*
X61200312Y-102660752D01*
X61200312Y-102660752D02*
X61152693Y-102755990D01*
X61152693Y-102755990D02*
X61105074Y-102803609D01*
X61105074Y-102803609D02*
X61009836Y-102851228D01*
X61009836Y-102851228D02*
X60628884Y-102851228D01*
X62200312Y-103232180D02*
X62152693Y-103279800D01*
X62152693Y-103279800D02*
X62009836Y-103327419D01*
X62009836Y-103327419D02*
X61914598Y-103327419D01*
X61914598Y-103327419D02*
X61771741Y-103279800D01*
X61771741Y-103279800D02*
X61676503Y-103184561D01*
X61676503Y-103184561D02*
X61628884Y-103089323D01*
X61628884Y-103089323D02*
X61581265Y-102898847D01*
X61581265Y-102898847D02*
X61581265Y-102755990D01*
X61581265Y-102755990D02*
X61628884Y-102565514D01*
X61628884Y-102565514D02*
X61676503Y-102470276D01*
X61676503Y-102470276D02*
X61771741Y-102375038D01*
X61771741Y-102375038D02*
X61914598Y-102327419D01*
X61914598Y-102327419D02*
X62009836Y-102327419D01*
X62009836Y-102327419D02*
X62152693Y-102375038D01*
X62152693Y-102375038D02*
X62200312Y-102422657D01*
X63152693Y-103327419D02*
X62581265Y-103327419D01*
X62866979Y-103327419D02*
X62866979Y-102327419D01*
X62866979Y-102327419D02*
X62771741Y-102470276D01*
X62771741Y-102470276D02*
X62676503Y-102565514D01*
X62676503Y-102565514D02*
X62581265Y-102613133D01*
X64057455Y-102327419D02*
X63581265Y-102327419D01*
X63581265Y-102327419D02*
X63533646Y-102803609D01*
X63533646Y-102803609D02*
X63581265Y-102755990D01*
X63581265Y-102755990D02*
X63676503Y-102708371D01*
X63676503Y-102708371D02*
X63914598Y-102708371D01*
X63914598Y-102708371D02*
X64009836Y-102755990D01*
X64009836Y-102755990D02*
X64057455Y-102803609D01*
X64057455Y-102803609D02*
X64105074Y-102898847D01*
X64105074Y-102898847D02*
X64105074Y-103136942D01*
X64105074Y-103136942D02*
X64057455Y-103232180D01*
X64057455Y-103232180D02*
X64009836Y-103279800D01*
X64009836Y-103279800D02*
X63914598Y-103327419D01*
X63914598Y-103327419D02*
X63676503Y-103327419D01*
X63676503Y-103327419D02*
X63581265Y-103279800D01*
X63581265Y-103279800D02*
X63533646Y-103232180D01*
X72582693Y-125235038D02*
X72487455Y-125187419D01*
X72487455Y-125187419D02*
X72344598Y-125187419D01*
X72344598Y-125187419D02*
X72201741Y-125235038D01*
X72201741Y-125235038D02*
X72106503Y-125330276D01*
X72106503Y-125330276D02*
X72058884Y-125425514D01*
X72058884Y-125425514D02*
X72011265Y-125615990D01*
X72011265Y-125615990D02*
X72011265Y-125758847D01*
X72011265Y-125758847D02*
X72058884Y-125949323D01*
X72058884Y-125949323D02*
X72106503Y-126044561D01*
X72106503Y-126044561D02*
X72201741Y-126139800D01*
X72201741Y-126139800D02*
X72344598Y-126187419D01*
X72344598Y-126187419D02*
X72439836Y-126187419D01*
X72439836Y-126187419D02*
X72582693Y-126139800D01*
X72582693Y-126139800D02*
X72630312Y-126092180D01*
X72630312Y-126092180D02*
X72630312Y-125758847D01*
X72630312Y-125758847D02*
X72439836Y-125758847D01*
X73058884Y-126187419D02*
X73058884Y-125187419D01*
X73058884Y-125187419D02*
X73630312Y-126187419D01*
X73630312Y-126187419D02*
X73630312Y-125187419D01*
X74106503Y-126187419D02*
X74106503Y-125187419D01*
X74106503Y-125187419D02*
X74344598Y-125187419D01*
X74344598Y-125187419D02*
X74487455Y-125235038D01*
X74487455Y-125235038D02*
X74582693Y-125330276D01*
X74582693Y-125330276D02*
X74630312Y-125425514D01*
X74630312Y-125425514D02*
X74677931Y-125615990D01*
X74677931Y-125615990D02*
X74677931Y-125758847D01*
X74677931Y-125758847D02*
X74630312Y-125949323D01*
X74630312Y-125949323D02*
X74582693Y-126044561D01*
X74582693Y-126044561D02*
X74487455Y-126139800D01*
X74487455Y-126139800D02*
X74344598Y-126187419D01*
X74344598Y-126187419D02*
X74106503Y-126187419D01*
X87087419Y-79009523D02*
X87087419Y-78819047D01*
X87087419Y-78819047D02*
X87135038Y-78723809D01*
X87135038Y-78723809D02*
X87230276Y-78628571D01*
X87230276Y-78628571D02*
X87420752Y-78580952D01*
X87420752Y-78580952D02*
X87754085Y-78580952D01*
X87754085Y-78580952D02*
X87944561Y-78628571D01*
X87944561Y-78628571D02*
X88039800Y-78723809D01*
X88039800Y-78723809D02*
X88087419Y-78819047D01*
X88087419Y-78819047D02*
X88087419Y-79009523D01*
X88087419Y-79009523D02*
X88039800Y-79104761D01*
X88039800Y-79104761D02*
X87944561Y-79199999D01*
X87944561Y-79199999D02*
X87754085Y-79247618D01*
X87754085Y-79247618D02*
X87420752Y-79247618D01*
X87420752Y-79247618D02*
X87230276Y-79199999D01*
X87230276Y-79199999D02*
X87135038Y-79104761D01*
X87135038Y-79104761D02*
X87087419Y-79009523D01*
X87087419Y-78152380D02*
X87896942Y-78152380D01*
X87896942Y-78152380D02*
X87992180Y-78104761D01*
X87992180Y-78104761D02*
X88039800Y-78057142D01*
X88039800Y-78057142D02*
X88087419Y-77961904D01*
X88087419Y-77961904D02*
X88087419Y-77771428D01*
X88087419Y-77771428D02*
X88039800Y-77676190D01*
X88039800Y-77676190D02*
X87992180Y-77628571D01*
X87992180Y-77628571D02*
X87896942Y-77580952D01*
X87896942Y-77580952D02*
X87087419Y-77580952D01*
X87087419Y-77247618D02*
X87087419Y-76676190D01*
X88087419Y-76961904D02*
X87087419Y-76961904D01*
X88182657Y-76580952D02*
X88182657Y-75819047D01*
X88039800Y-75628570D02*
X88087419Y-75485713D01*
X88087419Y-75485713D02*
X88087419Y-75247618D01*
X88087419Y-75247618D02*
X88039800Y-75152380D01*
X88039800Y-75152380D02*
X87992180Y-75104761D01*
X87992180Y-75104761D02*
X87896942Y-75057142D01*
X87896942Y-75057142D02*
X87801704Y-75057142D01*
X87801704Y-75057142D02*
X87706466Y-75104761D01*
X87706466Y-75104761D02*
X87658847Y-75152380D01*
X87658847Y-75152380D02*
X87611228Y-75247618D01*
X87611228Y-75247618D02*
X87563609Y-75438094D01*
X87563609Y-75438094D02*
X87515990Y-75533332D01*
X87515990Y-75533332D02*
X87468371Y-75580951D01*
X87468371Y-75580951D02*
X87373133Y-75628570D01*
X87373133Y-75628570D02*
X87277895Y-75628570D01*
X87277895Y-75628570D02*
X87182657Y-75580951D01*
X87182657Y-75580951D02*
X87135038Y-75533332D01*
X87135038Y-75533332D02*
X87087419Y-75438094D01*
X87087419Y-75438094D02*
X87087419Y-75199999D01*
X87087419Y-75199999D02*
X87135038Y-75057142D01*
X87087419Y-74771427D02*
X87087419Y-74199999D01*
X88087419Y-74485713D02*
X87087419Y-74485713D01*
X88087419Y-73866665D02*
X87087419Y-73866665D01*
X87087419Y-73866665D02*
X87801704Y-73533332D01*
X87801704Y-73533332D02*
X87087419Y-73199999D01*
X87087419Y-73199999D02*
X88087419Y-73199999D01*
X72011265Y-82959800D02*
X72154122Y-83007419D01*
X72154122Y-83007419D02*
X72392217Y-83007419D01*
X72392217Y-83007419D02*
X72487455Y-82959800D01*
X72487455Y-82959800D02*
X72535074Y-82912180D01*
X72535074Y-82912180D02*
X72582693Y-82816942D01*
X72582693Y-82816942D02*
X72582693Y-82721704D01*
X72582693Y-82721704D02*
X72535074Y-82626466D01*
X72535074Y-82626466D02*
X72487455Y-82578847D01*
X72487455Y-82578847D02*
X72392217Y-82531228D01*
X72392217Y-82531228D02*
X72201741Y-82483609D01*
X72201741Y-82483609D02*
X72106503Y-82435990D01*
X72106503Y-82435990D02*
X72058884Y-82388371D01*
X72058884Y-82388371D02*
X72011265Y-82293133D01*
X72011265Y-82293133D02*
X72011265Y-82197895D01*
X72011265Y-82197895D02*
X72058884Y-82102657D01*
X72058884Y-82102657D02*
X72106503Y-82055038D01*
X72106503Y-82055038D02*
X72201741Y-82007419D01*
X72201741Y-82007419D02*
X72439836Y-82007419D01*
X72439836Y-82007419D02*
X72582693Y-82055038D01*
X72916027Y-82007419D02*
X73154122Y-83007419D01*
X73154122Y-83007419D02*
X73344598Y-82293133D01*
X73344598Y-82293133D02*
X73535074Y-83007419D01*
X73535074Y-83007419D02*
X73773170Y-82007419D01*
X74725550Y-82912180D02*
X74677931Y-82959800D01*
X74677931Y-82959800D02*
X74535074Y-83007419D01*
X74535074Y-83007419D02*
X74439836Y-83007419D01*
X74439836Y-83007419D02*
X74296979Y-82959800D01*
X74296979Y-82959800D02*
X74201741Y-82864561D01*
X74201741Y-82864561D02*
X74154122Y-82769323D01*
X74154122Y-82769323D02*
X74106503Y-82578847D01*
X74106503Y-82578847D02*
X74106503Y-82435990D01*
X74106503Y-82435990D02*
X74154122Y-82245514D01*
X74154122Y-82245514D02*
X74201741Y-82150276D01*
X74201741Y-82150276D02*
X74296979Y-82055038D01*
X74296979Y-82055038D02*
X74439836Y-82007419D01*
X74439836Y-82007419D02*
X74535074Y-82007419D01*
X74535074Y-82007419D02*
X74677931Y-82055038D01*
X74677931Y-82055038D02*
X74725550Y-82102657D01*
X75630312Y-83007419D02*
X75154122Y-83007419D01*
X75154122Y-83007419D02*
X75154122Y-82007419D01*
X75963646Y-83007419D02*
X75963646Y-82007419D01*
X76535074Y-83007419D02*
X76106503Y-82435990D01*
X76535074Y-82007419D02*
X75963646Y-82578847D01*
X71963646Y-79467419D02*
X72582693Y-79467419D01*
X72582693Y-79467419D02*
X72249360Y-79848371D01*
X72249360Y-79848371D02*
X72392217Y-79848371D01*
X72392217Y-79848371D02*
X72487455Y-79895990D01*
X72487455Y-79895990D02*
X72535074Y-79943609D01*
X72535074Y-79943609D02*
X72582693Y-80038847D01*
X72582693Y-80038847D02*
X72582693Y-80276942D01*
X72582693Y-80276942D02*
X72535074Y-80372180D01*
X72535074Y-80372180D02*
X72487455Y-80419800D01*
X72487455Y-80419800D02*
X72392217Y-80467419D01*
X72392217Y-80467419D02*
X72106503Y-80467419D01*
X72106503Y-80467419D02*
X72011265Y-80419800D01*
X72011265Y-80419800D02*
X71963646Y-80372180D01*
X72868408Y-79467419D02*
X73201741Y-80467419D01*
X73201741Y-80467419D02*
X73535074Y-79467419D01*
X73773170Y-79467419D02*
X74392217Y-79467419D01*
X74392217Y-79467419D02*
X74058884Y-79848371D01*
X74058884Y-79848371D02*
X74201741Y-79848371D01*
X74201741Y-79848371D02*
X74296979Y-79895990D01*
X74296979Y-79895990D02*
X74344598Y-79943609D01*
X74344598Y-79943609D02*
X74392217Y-80038847D01*
X74392217Y-80038847D02*
X74392217Y-80276942D01*
X74392217Y-80276942D02*
X74344598Y-80372180D01*
X74344598Y-80372180D02*
X74296979Y-80419800D01*
X74296979Y-80419800D02*
X74201741Y-80467419D01*
X74201741Y-80467419D02*
X73916027Y-80467419D01*
X73916027Y-80467419D02*
X73820789Y-80419800D01*
X73820789Y-80419800D02*
X73773170Y-80372180D01*
X60628884Y-88087419D02*
X60628884Y-87087419D01*
X60628884Y-87087419D02*
X61009836Y-87087419D01*
X61009836Y-87087419D02*
X61105074Y-87135038D01*
X61105074Y-87135038D02*
X61152693Y-87182657D01*
X61152693Y-87182657D02*
X61200312Y-87277895D01*
X61200312Y-87277895D02*
X61200312Y-87420752D01*
X61200312Y-87420752D02*
X61152693Y-87515990D01*
X61152693Y-87515990D02*
X61105074Y-87563609D01*
X61105074Y-87563609D02*
X61009836Y-87611228D01*
X61009836Y-87611228D02*
X60628884Y-87611228D01*
X62200312Y-87992180D02*
X62152693Y-88039800D01*
X62152693Y-88039800D02*
X62009836Y-88087419D01*
X62009836Y-88087419D02*
X61914598Y-88087419D01*
X61914598Y-88087419D02*
X61771741Y-88039800D01*
X61771741Y-88039800D02*
X61676503Y-87944561D01*
X61676503Y-87944561D02*
X61628884Y-87849323D01*
X61628884Y-87849323D02*
X61581265Y-87658847D01*
X61581265Y-87658847D02*
X61581265Y-87515990D01*
X61581265Y-87515990D02*
X61628884Y-87325514D01*
X61628884Y-87325514D02*
X61676503Y-87230276D01*
X61676503Y-87230276D02*
X61771741Y-87135038D01*
X61771741Y-87135038D02*
X61914598Y-87087419D01*
X61914598Y-87087419D02*
X62009836Y-87087419D01*
X62009836Y-87087419D02*
X62152693Y-87135038D01*
X62152693Y-87135038D02*
X62200312Y-87182657D01*
X63152693Y-88087419D02*
X62581265Y-88087419D01*
X62866979Y-88087419D02*
X62866979Y-87087419D01*
X62866979Y-87087419D02*
X62771741Y-87230276D01*
X62771741Y-87230276D02*
X62676503Y-87325514D01*
X62676503Y-87325514D02*
X62581265Y-87373133D01*
X63533646Y-87182657D02*
X63581265Y-87135038D01*
X63581265Y-87135038D02*
X63676503Y-87087419D01*
X63676503Y-87087419D02*
X63914598Y-87087419D01*
X63914598Y-87087419D02*
X64009836Y-87135038D01*
X64009836Y-87135038D02*
X64057455Y-87182657D01*
X64057455Y-87182657D02*
X64105074Y-87277895D01*
X64105074Y-87277895D02*
X64105074Y-87373133D01*
X64105074Y-87373133D02*
X64057455Y-87515990D01*
X64057455Y-87515990D02*
X63486027Y-88087419D01*
X63486027Y-88087419D02*
X64105074Y-88087419D01*
X72582693Y-92215038D02*
X72487455Y-92167419D01*
X72487455Y-92167419D02*
X72344598Y-92167419D01*
X72344598Y-92167419D02*
X72201741Y-92215038D01*
X72201741Y-92215038D02*
X72106503Y-92310276D01*
X72106503Y-92310276D02*
X72058884Y-92405514D01*
X72058884Y-92405514D02*
X72011265Y-92595990D01*
X72011265Y-92595990D02*
X72011265Y-92738847D01*
X72011265Y-92738847D02*
X72058884Y-92929323D01*
X72058884Y-92929323D02*
X72106503Y-93024561D01*
X72106503Y-93024561D02*
X72201741Y-93119800D01*
X72201741Y-93119800D02*
X72344598Y-93167419D01*
X72344598Y-93167419D02*
X72439836Y-93167419D01*
X72439836Y-93167419D02*
X72582693Y-93119800D01*
X72582693Y-93119800D02*
X72630312Y-93072180D01*
X72630312Y-93072180D02*
X72630312Y-92738847D01*
X72630312Y-92738847D02*
X72439836Y-92738847D01*
X73058884Y-93167419D02*
X73058884Y-92167419D01*
X73058884Y-92167419D02*
X73630312Y-93167419D01*
X73630312Y-93167419D02*
X73630312Y-92167419D01*
X74106503Y-93167419D02*
X74106503Y-92167419D01*
X74106503Y-92167419D02*
X74344598Y-92167419D01*
X74344598Y-92167419D02*
X74487455Y-92215038D01*
X74487455Y-92215038D02*
X74582693Y-92310276D01*
X74582693Y-92310276D02*
X74630312Y-92405514D01*
X74630312Y-92405514D02*
X74677931Y-92595990D01*
X74677931Y-92595990D02*
X74677931Y-92738847D01*
X74677931Y-92738847D02*
X74630312Y-92929323D01*
X74630312Y-92929323D02*
X74582693Y-93024561D01*
X74582693Y-93024561D02*
X74487455Y-93119800D01*
X74487455Y-93119800D02*
X74344598Y-93167419D01*
X74344598Y-93167419D02*
X74106503Y-93167419D01*
X72582693Y-102375038D02*
X72487455Y-102327419D01*
X72487455Y-102327419D02*
X72344598Y-102327419D01*
X72344598Y-102327419D02*
X72201741Y-102375038D01*
X72201741Y-102375038D02*
X72106503Y-102470276D01*
X72106503Y-102470276D02*
X72058884Y-102565514D01*
X72058884Y-102565514D02*
X72011265Y-102755990D01*
X72011265Y-102755990D02*
X72011265Y-102898847D01*
X72011265Y-102898847D02*
X72058884Y-103089323D01*
X72058884Y-103089323D02*
X72106503Y-103184561D01*
X72106503Y-103184561D02*
X72201741Y-103279800D01*
X72201741Y-103279800D02*
X72344598Y-103327419D01*
X72344598Y-103327419D02*
X72439836Y-103327419D01*
X72439836Y-103327419D02*
X72582693Y-103279800D01*
X72582693Y-103279800D02*
X72630312Y-103232180D01*
X72630312Y-103232180D02*
X72630312Y-102898847D01*
X72630312Y-102898847D02*
X72439836Y-102898847D01*
X73058884Y-103327419D02*
X73058884Y-102327419D01*
X73058884Y-102327419D02*
X73630312Y-103327419D01*
X73630312Y-103327419D02*
X73630312Y-102327419D01*
X74106503Y-103327419D02*
X74106503Y-102327419D01*
X74106503Y-102327419D02*
X74344598Y-102327419D01*
X74344598Y-102327419D02*
X74487455Y-102375038D01*
X74487455Y-102375038D02*
X74582693Y-102470276D01*
X74582693Y-102470276D02*
X74630312Y-102565514D01*
X74630312Y-102565514D02*
X74677931Y-102755990D01*
X74677931Y-102755990D02*
X74677931Y-102898847D01*
X74677931Y-102898847D02*
X74630312Y-103089323D01*
X74630312Y-103089323D02*
X74582693Y-103184561D01*
X74582693Y-103184561D02*
X74487455Y-103279800D01*
X74487455Y-103279800D02*
X74344598Y-103327419D01*
X74344598Y-103327419D02*
X74106503Y-103327419D01*
X76022419Y-98742380D02*
X75022419Y-98742380D01*
X75117657Y-98313809D02*
X75070038Y-98266190D01*
X75070038Y-98266190D02*
X75022419Y-98170952D01*
X75022419Y-98170952D02*
X75022419Y-97932857D01*
X75022419Y-97932857D02*
X75070038Y-97837619D01*
X75070038Y-97837619D02*
X75117657Y-97790000D01*
X75117657Y-97790000D02*
X75212895Y-97742381D01*
X75212895Y-97742381D02*
X75308133Y-97742381D01*
X75308133Y-97742381D02*
X75450990Y-97790000D01*
X75450990Y-97790000D02*
X76022419Y-98361428D01*
X76022419Y-98361428D02*
X76022419Y-97742381D01*
X75974800Y-97361428D02*
X76022419Y-97218571D01*
X76022419Y-97218571D02*
X76022419Y-96980476D01*
X76022419Y-96980476D02*
X75974800Y-96885238D01*
X75974800Y-96885238D02*
X75927180Y-96837619D01*
X75927180Y-96837619D02*
X75831942Y-96790000D01*
X75831942Y-96790000D02*
X75736704Y-96790000D01*
X75736704Y-96790000D02*
X75641466Y-96837619D01*
X75641466Y-96837619D02*
X75593847Y-96885238D01*
X75593847Y-96885238D02*
X75546228Y-96980476D01*
X75546228Y-96980476D02*
X75498609Y-97170952D01*
X75498609Y-97170952D02*
X75450990Y-97266190D01*
X75450990Y-97266190D02*
X75403371Y-97313809D01*
X75403371Y-97313809D02*
X75308133Y-97361428D01*
X75308133Y-97361428D02*
X75212895Y-97361428D01*
X75212895Y-97361428D02*
X75117657Y-97313809D01*
X75117657Y-97313809D02*
X75070038Y-97266190D01*
X75070038Y-97266190D02*
X75022419Y-97170952D01*
X75022419Y-97170952D02*
X75022419Y-96932857D01*
X75022419Y-96932857D02*
X75070038Y-96790000D01*
X135172217Y-105331109D02*
X134838884Y-105331109D01*
X134838884Y-105854919D02*
X134838884Y-104854919D01*
X134838884Y-104854919D02*
X135315074Y-104854919D01*
X136029360Y-105331109D02*
X136172217Y-105378728D01*
X136172217Y-105378728D02*
X136219836Y-105426347D01*
X136219836Y-105426347D02*
X136267455Y-105521585D01*
X136267455Y-105521585D02*
X136267455Y-105664442D01*
X136267455Y-105664442D02*
X136219836Y-105759680D01*
X136219836Y-105759680D02*
X136172217Y-105807300D01*
X136172217Y-105807300D02*
X136076979Y-105854919D01*
X136076979Y-105854919D02*
X135696027Y-105854919D01*
X135696027Y-105854919D02*
X135696027Y-104854919D01*
X135696027Y-104854919D02*
X136029360Y-104854919D01*
X136029360Y-104854919D02*
X136124598Y-104902538D01*
X136124598Y-104902538D02*
X136172217Y-104950157D01*
X136172217Y-104950157D02*
X136219836Y-105045395D01*
X136219836Y-105045395D02*
X136219836Y-105140633D01*
X136219836Y-105140633D02*
X136172217Y-105235871D01*
X136172217Y-105235871D02*
X136124598Y-105283490D01*
X136124598Y-105283490D02*
X136029360Y-105331109D01*
X136029360Y-105331109D02*
X135696027Y-105331109D01*
X136886503Y-104854919D02*
X137076979Y-104854919D01*
X137076979Y-104854919D02*
X137172217Y-104902538D01*
X137172217Y-104902538D02*
X137267455Y-104997776D01*
X137267455Y-104997776D02*
X137315074Y-105188252D01*
X137315074Y-105188252D02*
X137315074Y-105521585D01*
X137315074Y-105521585D02*
X137267455Y-105712061D01*
X137267455Y-105712061D02*
X137172217Y-105807300D01*
X137172217Y-105807300D02*
X137076979Y-105854919D01*
X137076979Y-105854919D02*
X136886503Y-105854919D01*
X136886503Y-105854919D02*
X136791265Y-105807300D01*
X136791265Y-105807300D02*
X136696027Y-105712061D01*
X136696027Y-105712061D02*
X136648408Y-105521585D01*
X136648408Y-105521585D02*
X136648408Y-105188252D01*
X136648408Y-105188252D02*
X136696027Y-104997776D01*
X136696027Y-104997776D02*
X136791265Y-104902538D01*
X136791265Y-104902538D02*
X136886503Y-104854919D01*
X137934122Y-104854919D02*
X138124598Y-104854919D01*
X138124598Y-104854919D02*
X138219836Y-104902538D01*
X138219836Y-104902538D02*
X138315074Y-104997776D01*
X138315074Y-104997776D02*
X138362693Y-105188252D01*
X138362693Y-105188252D02*
X138362693Y-105521585D01*
X138362693Y-105521585D02*
X138315074Y-105712061D01*
X138315074Y-105712061D02*
X138219836Y-105807300D01*
X138219836Y-105807300D02*
X138124598Y-105854919D01*
X138124598Y-105854919D02*
X137934122Y-105854919D01*
X137934122Y-105854919D02*
X137838884Y-105807300D01*
X137838884Y-105807300D02*
X137743646Y-105712061D01*
X137743646Y-105712061D02*
X137696027Y-105521585D01*
X137696027Y-105521585D02*
X137696027Y-105188252D01*
X137696027Y-105188252D02*
X137743646Y-104997776D01*
X137743646Y-104997776D02*
X137838884Y-104902538D01*
X137838884Y-104902538D02*
X137934122Y-104854919D01*
X138648408Y-104854919D02*
X139219836Y-104854919D01*
X138934122Y-105854919D02*
X138934122Y-104854919D01*
X102068571Y-82642419D02*
X102068571Y-83451942D01*
X102068571Y-83451942D02*
X102116190Y-83547180D01*
X102116190Y-83547180D02*
X102163809Y-83594800D01*
X102163809Y-83594800D02*
X102259047Y-83642419D01*
X102259047Y-83642419D02*
X102449523Y-83642419D01*
X102449523Y-83642419D02*
X102544761Y-83594800D01*
X102544761Y-83594800D02*
X102592380Y-83547180D01*
X102592380Y-83547180D02*
X102639999Y-83451942D01*
X102639999Y-83451942D02*
X102639999Y-82642419D01*
X103068571Y-83356704D02*
X103544761Y-83356704D01*
X102973333Y-83642419D02*
X103306666Y-82642419D01*
X103306666Y-82642419D02*
X103639999Y-83642419D01*
X104544761Y-83642419D02*
X104211428Y-83166228D01*
X103973333Y-83642419D02*
X103973333Y-82642419D01*
X103973333Y-82642419D02*
X104354285Y-82642419D01*
X104354285Y-82642419D02*
X104449523Y-82690038D01*
X104449523Y-82690038D02*
X104497142Y-82737657D01*
X104497142Y-82737657D02*
X104544761Y-82832895D01*
X104544761Y-82832895D02*
X104544761Y-82975752D01*
X104544761Y-82975752D02*
X104497142Y-83070990D01*
X104497142Y-83070990D02*
X104449523Y-83118609D01*
X104449523Y-83118609D02*
X104354285Y-83166228D01*
X104354285Y-83166228D02*
X103973333Y-83166228D01*
X104830476Y-82642419D02*
X105401904Y-82642419D01*
X105116190Y-83642419D02*
X105116190Y-82642419D01*
X106259047Y-83642419D02*
X105687619Y-83642419D01*
X105973333Y-83642419D02*
X105973333Y-82642419D01*
X105973333Y-82642419D02*
X105878095Y-82785276D01*
X105878095Y-82785276D02*
X105782857Y-82880514D01*
X105782857Y-82880514D02*
X105687619Y-82928133D01*
X60628884Y-83007419D02*
X60628884Y-82007419D01*
X60628884Y-82007419D02*
X61009836Y-82007419D01*
X61009836Y-82007419D02*
X61105074Y-82055038D01*
X61105074Y-82055038D02*
X61152693Y-82102657D01*
X61152693Y-82102657D02*
X61200312Y-82197895D01*
X61200312Y-82197895D02*
X61200312Y-82340752D01*
X61200312Y-82340752D02*
X61152693Y-82435990D01*
X61152693Y-82435990D02*
X61105074Y-82483609D01*
X61105074Y-82483609D02*
X61009836Y-82531228D01*
X61009836Y-82531228D02*
X60628884Y-82531228D01*
X62200312Y-82912180D02*
X62152693Y-82959800D01*
X62152693Y-82959800D02*
X62009836Y-83007419D01*
X62009836Y-83007419D02*
X61914598Y-83007419D01*
X61914598Y-83007419D02*
X61771741Y-82959800D01*
X61771741Y-82959800D02*
X61676503Y-82864561D01*
X61676503Y-82864561D02*
X61628884Y-82769323D01*
X61628884Y-82769323D02*
X61581265Y-82578847D01*
X61581265Y-82578847D02*
X61581265Y-82435990D01*
X61581265Y-82435990D02*
X61628884Y-82245514D01*
X61628884Y-82245514D02*
X61676503Y-82150276D01*
X61676503Y-82150276D02*
X61771741Y-82055038D01*
X61771741Y-82055038D02*
X61914598Y-82007419D01*
X61914598Y-82007419D02*
X62009836Y-82007419D01*
X62009836Y-82007419D02*
X62152693Y-82055038D01*
X62152693Y-82055038D02*
X62200312Y-82102657D01*
X63152693Y-83007419D02*
X62581265Y-83007419D01*
X62866979Y-83007419D02*
X62866979Y-82007419D01*
X62866979Y-82007419D02*
X62771741Y-82150276D01*
X62771741Y-82150276D02*
X62676503Y-82245514D01*
X62676503Y-82245514D02*
X62581265Y-82293133D01*
X63771741Y-82007419D02*
X63866979Y-82007419D01*
X63866979Y-82007419D02*
X63962217Y-82055038D01*
X63962217Y-82055038D02*
X64009836Y-82102657D01*
X64009836Y-82102657D02*
X64057455Y-82197895D01*
X64057455Y-82197895D02*
X64105074Y-82388371D01*
X64105074Y-82388371D02*
X64105074Y-82626466D01*
X64105074Y-82626466D02*
X64057455Y-82816942D01*
X64057455Y-82816942D02*
X64009836Y-82912180D01*
X64009836Y-82912180D02*
X63962217Y-82959800D01*
X63962217Y-82959800D02*
X63866979Y-83007419D01*
X63866979Y-83007419D02*
X63771741Y-83007419D01*
X63771741Y-83007419D02*
X63676503Y-82959800D01*
X63676503Y-82959800D02*
X63628884Y-82912180D01*
X63628884Y-82912180D02*
X63581265Y-82816942D01*
X63581265Y-82816942D02*
X63533646Y-82626466D01*
X63533646Y-82626466D02*
X63533646Y-82388371D01*
X63533646Y-82388371D02*
X63581265Y-82197895D01*
X63581265Y-82197895D02*
X63628884Y-82102657D01*
X63628884Y-82102657D02*
X63676503Y-82055038D01*
X63676503Y-82055038D02*
X63771741Y-82007419D01*
X135749360Y-74387419D02*
X135844598Y-74387419D01*
X135844598Y-74387419D02*
X135939836Y-74435038D01*
X135939836Y-74435038D02*
X135987455Y-74482657D01*
X135987455Y-74482657D02*
X136035074Y-74577895D01*
X136035074Y-74577895D02*
X136082693Y-74768371D01*
X136082693Y-74768371D02*
X136082693Y-75006466D01*
X136082693Y-75006466D02*
X136035074Y-75196942D01*
X136035074Y-75196942D02*
X135987455Y-75292180D01*
X135987455Y-75292180D02*
X135939836Y-75339800D01*
X135939836Y-75339800D02*
X135844598Y-75387419D01*
X135844598Y-75387419D02*
X135749360Y-75387419D01*
X135749360Y-75387419D02*
X135654122Y-75339800D01*
X135654122Y-75339800D02*
X135606503Y-75292180D01*
X135606503Y-75292180D02*
X135558884Y-75196942D01*
X135558884Y-75196942D02*
X135511265Y-75006466D01*
X135511265Y-75006466D02*
X135511265Y-74768371D01*
X135511265Y-74768371D02*
X135558884Y-74577895D01*
X135558884Y-74577895D02*
X135606503Y-74482657D01*
X135606503Y-74482657D02*
X135654122Y-74435038D01*
X135654122Y-74435038D02*
X135749360Y-74387419D01*
X60628884Y-85547419D02*
X60628884Y-84547419D01*
X60628884Y-84547419D02*
X61009836Y-84547419D01*
X61009836Y-84547419D02*
X61105074Y-84595038D01*
X61105074Y-84595038D02*
X61152693Y-84642657D01*
X61152693Y-84642657D02*
X61200312Y-84737895D01*
X61200312Y-84737895D02*
X61200312Y-84880752D01*
X61200312Y-84880752D02*
X61152693Y-84975990D01*
X61152693Y-84975990D02*
X61105074Y-85023609D01*
X61105074Y-85023609D02*
X61009836Y-85071228D01*
X61009836Y-85071228D02*
X60628884Y-85071228D01*
X62200312Y-85452180D02*
X62152693Y-85499800D01*
X62152693Y-85499800D02*
X62009836Y-85547419D01*
X62009836Y-85547419D02*
X61914598Y-85547419D01*
X61914598Y-85547419D02*
X61771741Y-85499800D01*
X61771741Y-85499800D02*
X61676503Y-85404561D01*
X61676503Y-85404561D02*
X61628884Y-85309323D01*
X61628884Y-85309323D02*
X61581265Y-85118847D01*
X61581265Y-85118847D02*
X61581265Y-84975990D01*
X61581265Y-84975990D02*
X61628884Y-84785514D01*
X61628884Y-84785514D02*
X61676503Y-84690276D01*
X61676503Y-84690276D02*
X61771741Y-84595038D01*
X61771741Y-84595038D02*
X61914598Y-84547419D01*
X61914598Y-84547419D02*
X62009836Y-84547419D01*
X62009836Y-84547419D02*
X62152693Y-84595038D01*
X62152693Y-84595038D02*
X62200312Y-84642657D01*
X63152693Y-85547419D02*
X62581265Y-85547419D01*
X62866979Y-85547419D02*
X62866979Y-84547419D01*
X62866979Y-84547419D02*
X62771741Y-84690276D01*
X62771741Y-84690276D02*
X62676503Y-84785514D01*
X62676503Y-84785514D02*
X62581265Y-84833133D01*
X64105074Y-85547419D02*
X63533646Y-85547419D01*
X63819360Y-85547419D02*
X63819360Y-84547419D01*
X63819360Y-84547419D02*
X63724122Y-84690276D01*
X63724122Y-84690276D02*
X63628884Y-84785514D01*
X63628884Y-84785514D02*
X63533646Y-84833133D01*
X106285312Y-78562419D02*
X105951979Y-78086228D01*
X105713884Y-78562419D02*
X105713884Y-77562419D01*
X105713884Y-77562419D02*
X106094836Y-77562419D01*
X106094836Y-77562419D02*
X106190074Y-77610038D01*
X106190074Y-77610038D02*
X106237693Y-77657657D01*
X106237693Y-77657657D02*
X106285312Y-77752895D01*
X106285312Y-77752895D02*
X106285312Y-77895752D01*
X106285312Y-77895752D02*
X106237693Y-77990990D01*
X106237693Y-77990990D02*
X106190074Y-78038609D01*
X106190074Y-78038609D02*
X106094836Y-78086228D01*
X106094836Y-78086228D02*
X105713884Y-78086228D01*
X106618646Y-77562419D02*
X107285312Y-78562419D01*
X107285312Y-77562419D02*
X106618646Y-78562419D01*
X91400476Y-125028609D02*
X91543333Y-125076228D01*
X91543333Y-125076228D02*
X91590952Y-125123847D01*
X91590952Y-125123847D02*
X91638571Y-125219085D01*
X91638571Y-125219085D02*
X91638571Y-125361942D01*
X91638571Y-125361942D02*
X91590952Y-125457180D01*
X91590952Y-125457180D02*
X91543333Y-125504800D01*
X91543333Y-125504800D02*
X91448095Y-125552419D01*
X91448095Y-125552419D02*
X91067143Y-125552419D01*
X91067143Y-125552419D02*
X91067143Y-124552419D01*
X91067143Y-124552419D02*
X91400476Y-124552419D01*
X91400476Y-124552419D02*
X91495714Y-124600038D01*
X91495714Y-124600038D02*
X91543333Y-124647657D01*
X91543333Y-124647657D02*
X91590952Y-124742895D01*
X91590952Y-124742895D02*
X91590952Y-124838133D01*
X91590952Y-124838133D02*
X91543333Y-124933371D01*
X91543333Y-124933371D02*
X91495714Y-124980990D01*
X91495714Y-124980990D02*
X91400476Y-125028609D01*
X91400476Y-125028609D02*
X91067143Y-125028609D01*
X91924286Y-124552419D02*
X92495714Y-124552419D01*
X92210000Y-125552419D02*
X92210000Y-124552419D01*
X92829048Y-125552419D02*
X92829048Y-124552419D01*
X92829048Y-124552419D02*
X93400476Y-125552419D01*
X93400476Y-125552419D02*
X93400476Y-124552419D01*
X94067143Y-124552419D02*
X94162381Y-124552419D01*
X94162381Y-124552419D02*
X94257619Y-124600038D01*
X94257619Y-124600038D02*
X94305238Y-124647657D01*
X94305238Y-124647657D02*
X94352857Y-124742895D01*
X94352857Y-124742895D02*
X94400476Y-124933371D01*
X94400476Y-124933371D02*
X94400476Y-125171466D01*
X94400476Y-125171466D02*
X94352857Y-125361942D01*
X94352857Y-125361942D02*
X94305238Y-125457180D01*
X94305238Y-125457180D02*
X94257619Y-125504800D01*
X94257619Y-125504800D02*
X94162381Y-125552419D01*
X94162381Y-125552419D02*
X94067143Y-125552419D01*
X94067143Y-125552419D02*
X93971905Y-125504800D01*
X93971905Y-125504800D02*
X93924286Y-125457180D01*
X93924286Y-125457180D02*
X93876667Y-125361942D01*
X93876667Y-125361942D02*
X93829048Y-125171466D01*
X93829048Y-125171466D02*
X93829048Y-124933371D01*
X93829048Y-124933371D02*
X93876667Y-124742895D01*
X93876667Y-124742895D02*
X93924286Y-124647657D01*
X93924286Y-124647657D02*
X93971905Y-124600038D01*
X93971905Y-124600038D02*
X94067143Y-124552419D01*
X95977419Y-65878972D02*
X96977419Y-65545639D01*
X96977419Y-65545639D02*
X95977419Y-65212306D01*
X96453609Y-64545639D02*
X96501228Y-64402782D01*
X96501228Y-64402782D02*
X96548847Y-64355163D01*
X96548847Y-64355163D02*
X96644085Y-64307544D01*
X96644085Y-64307544D02*
X96786942Y-64307544D01*
X96786942Y-64307544D02*
X96882180Y-64355163D01*
X96882180Y-64355163D02*
X96929800Y-64402782D01*
X96929800Y-64402782D02*
X96977419Y-64498020D01*
X96977419Y-64498020D02*
X96977419Y-64878972D01*
X96977419Y-64878972D02*
X95977419Y-64878972D01*
X95977419Y-64878972D02*
X95977419Y-64545639D01*
X95977419Y-64545639D02*
X96025038Y-64450401D01*
X96025038Y-64450401D02*
X96072657Y-64402782D01*
X96072657Y-64402782D02*
X96167895Y-64355163D01*
X96167895Y-64355163D02*
X96263133Y-64355163D01*
X96263133Y-64355163D02*
X96358371Y-64402782D01*
X96358371Y-64402782D02*
X96405990Y-64450401D01*
X96405990Y-64450401D02*
X96453609Y-64545639D01*
X96453609Y-64545639D02*
X96453609Y-64878972D01*
X95977419Y-63878972D02*
X96786942Y-63878972D01*
X96786942Y-63878972D02*
X96882180Y-63831353D01*
X96882180Y-63831353D02*
X96929800Y-63783734D01*
X96929800Y-63783734D02*
X96977419Y-63688496D01*
X96977419Y-63688496D02*
X96977419Y-63498020D01*
X96977419Y-63498020D02*
X96929800Y-63402782D01*
X96929800Y-63402782D02*
X96882180Y-63355163D01*
X96882180Y-63355163D02*
X96786942Y-63307544D01*
X96786942Y-63307544D02*
X95977419Y-63307544D01*
X96929800Y-62878972D02*
X96977419Y-62736115D01*
X96977419Y-62736115D02*
X96977419Y-62498020D01*
X96977419Y-62498020D02*
X96929800Y-62402782D01*
X96929800Y-62402782D02*
X96882180Y-62355163D01*
X96882180Y-62355163D02*
X96786942Y-62307544D01*
X96786942Y-62307544D02*
X96691704Y-62307544D01*
X96691704Y-62307544D02*
X96596466Y-62355163D01*
X96596466Y-62355163D02*
X96548847Y-62402782D01*
X96548847Y-62402782D02*
X96501228Y-62498020D01*
X96501228Y-62498020D02*
X96453609Y-62688496D01*
X96453609Y-62688496D02*
X96405990Y-62783734D01*
X96405990Y-62783734D02*
X96358371Y-62831353D01*
X96358371Y-62831353D02*
X96263133Y-62878972D01*
X96263133Y-62878972D02*
X96167895Y-62878972D01*
X96167895Y-62878972D02*
X96072657Y-62831353D01*
X96072657Y-62831353D02*
X96025038Y-62783734D01*
X96025038Y-62783734D02*
X95977419Y-62688496D01*
X95977419Y-62688496D02*
X95977419Y-62450401D01*
X95977419Y-62450401D02*
X96025038Y-62307544D01*
X61039524Y-75339800D02*
X61182381Y-75387419D01*
X61182381Y-75387419D02*
X61420476Y-75387419D01*
X61420476Y-75387419D02*
X61515714Y-75339800D01*
X61515714Y-75339800D02*
X61563333Y-75292180D01*
X61563333Y-75292180D02*
X61610952Y-75196942D01*
X61610952Y-75196942D02*
X61610952Y-75101704D01*
X61610952Y-75101704D02*
X61563333Y-75006466D01*
X61563333Y-75006466D02*
X61515714Y-74958847D01*
X61515714Y-74958847D02*
X61420476Y-74911228D01*
X61420476Y-74911228D02*
X61230000Y-74863609D01*
X61230000Y-74863609D02*
X61134762Y-74815990D01*
X61134762Y-74815990D02*
X61087143Y-74768371D01*
X61087143Y-74768371D02*
X61039524Y-74673133D01*
X61039524Y-74673133D02*
X61039524Y-74577895D01*
X61039524Y-74577895D02*
X61087143Y-74482657D01*
X61087143Y-74482657D02*
X61134762Y-74435038D01*
X61134762Y-74435038D02*
X61230000Y-74387419D01*
X61230000Y-74387419D02*
X61468095Y-74387419D01*
X61468095Y-74387419D02*
X61610952Y-74435038D01*
X62610952Y-75292180D02*
X62563333Y-75339800D01*
X62563333Y-75339800D02*
X62420476Y-75387419D01*
X62420476Y-75387419D02*
X62325238Y-75387419D01*
X62325238Y-75387419D02*
X62182381Y-75339800D01*
X62182381Y-75339800D02*
X62087143Y-75244561D01*
X62087143Y-75244561D02*
X62039524Y-75149323D01*
X62039524Y-75149323D02*
X61991905Y-74958847D01*
X61991905Y-74958847D02*
X61991905Y-74815990D01*
X61991905Y-74815990D02*
X62039524Y-74625514D01*
X62039524Y-74625514D02*
X62087143Y-74530276D01*
X62087143Y-74530276D02*
X62182381Y-74435038D01*
X62182381Y-74435038D02*
X62325238Y-74387419D01*
X62325238Y-74387419D02*
X62420476Y-74387419D01*
X62420476Y-74387419D02*
X62563333Y-74435038D01*
X62563333Y-74435038D02*
X62610952Y-74482657D01*
X63515714Y-75387419D02*
X63039524Y-75387419D01*
X63039524Y-75387419D02*
X63039524Y-74387419D01*
X105571027Y-80737419D02*
X106142455Y-80737419D01*
X105856741Y-81737419D02*
X105856741Y-80737419D01*
X106380551Y-80737419D02*
X107047217Y-81737419D01*
X107047217Y-80737419D02*
X106380551Y-81737419D01*
X72630312Y-100692180D02*
X72582693Y-100739800D01*
X72582693Y-100739800D02*
X72439836Y-100787419D01*
X72439836Y-100787419D02*
X72344598Y-100787419D01*
X72344598Y-100787419D02*
X72201741Y-100739800D01*
X72201741Y-100739800D02*
X72106503Y-100644561D01*
X72106503Y-100644561D02*
X72058884Y-100549323D01*
X72058884Y-100549323D02*
X72011265Y-100358847D01*
X72011265Y-100358847D02*
X72011265Y-100215990D01*
X72011265Y-100215990D02*
X72058884Y-100025514D01*
X72058884Y-100025514D02*
X72106503Y-99930276D01*
X72106503Y-99930276D02*
X72201741Y-99835038D01*
X72201741Y-99835038D02*
X72344598Y-99787419D01*
X72344598Y-99787419D02*
X72439836Y-99787419D01*
X72439836Y-99787419D02*
X72582693Y-99835038D01*
X72582693Y-99835038D02*
X72630312Y-99882657D01*
X73058884Y-100787419D02*
X73058884Y-99787419D01*
X73630312Y-100787419D02*
X73201741Y-100215990D01*
X73630312Y-99787419D02*
X73058884Y-100358847D01*
X60628884Y-113487419D02*
X60628884Y-112487419D01*
X60628884Y-112487419D02*
X61009836Y-112487419D01*
X61009836Y-112487419D02*
X61105074Y-112535038D01*
X61105074Y-112535038D02*
X61152693Y-112582657D01*
X61152693Y-112582657D02*
X61200312Y-112677895D01*
X61200312Y-112677895D02*
X61200312Y-112820752D01*
X61200312Y-112820752D02*
X61152693Y-112915990D01*
X61152693Y-112915990D02*
X61105074Y-112963609D01*
X61105074Y-112963609D02*
X61009836Y-113011228D01*
X61009836Y-113011228D02*
X60628884Y-113011228D01*
X62200312Y-113392180D02*
X62152693Y-113439800D01*
X62152693Y-113439800D02*
X62009836Y-113487419D01*
X62009836Y-113487419D02*
X61914598Y-113487419D01*
X61914598Y-113487419D02*
X61771741Y-113439800D01*
X61771741Y-113439800D02*
X61676503Y-113344561D01*
X61676503Y-113344561D02*
X61628884Y-113249323D01*
X61628884Y-113249323D02*
X61581265Y-113058847D01*
X61581265Y-113058847D02*
X61581265Y-112915990D01*
X61581265Y-112915990D02*
X61628884Y-112725514D01*
X61628884Y-112725514D02*
X61676503Y-112630276D01*
X61676503Y-112630276D02*
X61771741Y-112535038D01*
X61771741Y-112535038D02*
X61914598Y-112487419D01*
X61914598Y-112487419D02*
X62009836Y-112487419D01*
X62009836Y-112487419D02*
X62152693Y-112535038D01*
X62152693Y-112535038D02*
X62200312Y-112582657D01*
X62533646Y-112487419D02*
X63152693Y-112487419D01*
X63152693Y-112487419D02*
X62819360Y-112868371D01*
X62819360Y-112868371D02*
X62962217Y-112868371D01*
X62962217Y-112868371D02*
X63057455Y-112915990D01*
X63057455Y-112915990D02*
X63105074Y-112963609D01*
X63105074Y-112963609D02*
X63152693Y-113058847D01*
X63152693Y-113058847D02*
X63152693Y-113296942D01*
X63152693Y-113296942D02*
X63105074Y-113392180D01*
X63105074Y-113392180D02*
X63057455Y-113439800D01*
X63057455Y-113439800D02*
X62962217Y-113487419D01*
X62962217Y-113487419D02*
X62676503Y-113487419D01*
X62676503Y-113487419D02*
X62581265Y-113439800D01*
X62581265Y-113439800D02*
X62533646Y-113392180D01*
X72011265Y-105819800D02*
X72154122Y-105867419D01*
X72154122Y-105867419D02*
X72392217Y-105867419D01*
X72392217Y-105867419D02*
X72487455Y-105819800D01*
X72487455Y-105819800D02*
X72535074Y-105772180D01*
X72535074Y-105772180D02*
X72582693Y-105676942D01*
X72582693Y-105676942D02*
X72582693Y-105581704D01*
X72582693Y-105581704D02*
X72535074Y-105486466D01*
X72535074Y-105486466D02*
X72487455Y-105438847D01*
X72487455Y-105438847D02*
X72392217Y-105391228D01*
X72392217Y-105391228D02*
X72201741Y-105343609D01*
X72201741Y-105343609D02*
X72106503Y-105295990D01*
X72106503Y-105295990D02*
X72058884Y-105248371D01*
X72058884Y-105248371D02*
X72011265Y-105153133D01*
X72011265Y-105153133D02*
X72011265Y-105057895D01*
X72011265Y-105057895D02*
X72058884Y-104962657D01*
X72058884Y-104962657D02*
X72106503Y-104915038D01*
X72106503Y-104915038D02*
X72201741Y-104867419D01*
X72201741Y-104867419D02*
X72439836Y-104867419D01*
X72439836Y-104867419D02*
X72582693Y-104915038D01*
X73582693Y-105772180D02*
X73535074Y-105819800D01*
X73535074Y-105819800D02*
X73392217Y-105867419D01*
X73392217Y-105867419D02*
X73296979Y-105867419D01*
X73296979Y-105867419D02*
X73154122Y-105819800D01*
X73154122Y-105819800D02*
X73058884Y-105724561D01*
X73058884Y-105724561D02*
X73011265Y-105629323D01*
X73011265Y-105629323D02*
X72963646Y-105438847D01*
X72963646Y-105438847D02*
X72963646Y-105295990D01*
X72963646Y-105295990D02*
X73011265Y-105105514D01*
X73011265Y-105105514D02*
X73058884Y-105010276D01*
X73058884Y-105010276D02*
X73154122Y-104915038D01*
X73154122Y-104915038D02*
X73296979Y-104867419D01*
X73296979Y-104867419D02*
X73392217Y-104867419D01*
X73392217Y-104867419D02*
X73535074Y-104915038D01*
X73535074Y-104915038D02*
X73582693Y-104962657D01*
X74011265Y-105867419D02*
X74011265Y-104867419D01*
X74582693Y-105867419D02*
X74154122Y-105295990D01*
X74582693Y-104867419D02*
X74011265Y-105438847D01*
X101057419Y-128541741D02*
X101057419Y-128351265D01*
X101057419Y-128351265D02*
X101105038Y-128256027D01*
X101105038Y-128256027D02*
X101200276Y-128160789D01*
X101200276Y-128160789D02*
X101390752Y-128113170D01*
X101390752Y-128113170D02*
X101724085Y-128113170D01*
X101724085Y-128113170D02*
X101914561Y-128160789D01*
X101914561Y-128160789D02*
X102009800Y-128256027D01*
X102009800Y-128256027D02*
X102057419Y-128351265D01*
X102057419Y-128351265D02*
X102057419Y-128541741D01*
X102057419Y-128541741D02*
X102009800Y-128636979D01*
X102009800Y-128636979D02*
X101914561Y-128732217D01*
X101914561Y-128732217D02*
X101724085Y-128779836D01*
X101724085Y-128779836D02*
X101390752Y-128779836D01*
X101390752Y-128779836D02*
X101200276Y-128732217D01*
X101200276Y-128732217D02*
X101105038Y-128636979D01*
X101105038Y-128636979D02*
X101057419Y-128541741D01*
X101057419Y-127684598D02*
X101866942Y-127684598D01*
X101866942Y-127684598D02*
X101962180Y-127636979D01*
X101962180Y-127636979D02*
X102009800Y-127589360D01*
X102009800Y-127589360D02*
X102057419Y-127494122D01*
X102057419Y-127494122D02*
X102057419Y-127303646D01*
X102057419Y-127303646D02*
X102009800Y-127208408D01*
X102009800Y-127208408D02*
X101962180Y-127160789D01*
X101962180Y-127160789D02*
X101866942Y-127113170D01*
X101866942Y-127113170D02*
X101057419Y-127113170D01*
X101057419Y-126779836D02*
X101057419Y-126208408D01*
X102057419Y-126494122D02*
X101057419Y-126494122D01*
X102057419Y-125351265D02*
X102057419Y-125922693D01*
X102057419Y-125636979D02*
X101057419Y-125636979D01*
X101057419Y-125636979D02*
X101200276Y-125732217D01*
X101200276Y-125732217D02*
X101295514Y-125827455D01*
X101295514Y-125827455D02*
X101343133Y-125922693D01*
X136082693Y-88087419D02*
X135511265Y-88087419D01*
X135796979Y-88087419D02*
X135796979Y-87087419D01*
X135796979Y-87087419D02*
X135701741Y-87230276D01*
X135701741Y-87230276D02*
X135606503Y-87325514D01*
X135606503Y-87325514D02*
X135511265Y-87373133D01*
X134923884Y-116027419D02*
X134923884Y-115027419D01*
X135400074Y-116027419D02*
X135400074Y-115027419D01*
X135400074Y-115027419D02*
X135971502Y-116027419D01*
X135971502Y-116027419D02*
X135971502Y-115027419D01*
X136400074Y-115122657D02*
X136447693Y-115075038D01*
X136447693Y-115075038D02*
X136542931Y-115027419D01*
X136542931Y-115027419D02*
X136781026Y-115027419D01*
X136781026Y-115027419D02*
X136876264Y-115075038D01*
X136876264Y-115075038D02*
X136923883Y-115122657D01*
X136923883Y-115122657D02*
X136971502Y-115217895D01*
X136971502Y-115217895D02*
X136971502Y-115313133D01*
X136971502Y-115313133D02*
X136923883Y-115455990D01*
X136923883Y-115455990D02*
X136352455Y-116027419D01*
X136352455Y-116027419D02*
X136971502Y-116027419D01*
X60628884Y-108407419D02*
X60628884Y-107407419D01*
X60628884Y-107407419D02*
X61009836Y-107407419D01*
X61009836Y-107407419D02*
X61105074Y-107455038D01*
X61105074Y-107455038D02*
X61152693Y-107502657D01*
X61152693Y-107502657D02*
X61200312Y-107597895D01*
X61200312Y-107597895D02*
X61200312Y-107740752D01*
X61200312Y-107740752D02*
X61152693Y-107835990D01*
X61152693Y-107835990D02*
X61105074Y-107883609D01*
X61105074Y-107883609D02*
X61009836Y-107931228D01*
X61009836Y-107931228D02*
X60628884Y-107931228D01*
X62200312Y-108312180D02*
X62152693Y-108359800D01*
X62152693Y-108359800D02*
X62009836Y-108407419D01*
X62009836Y-108407419D02*
X61914598Y-108407419D01*
X61914598Y-108407419D02*
X61771741Y-108359800D01*
X61771741Y-108359800D02*
X61676503Y-108264561D01*
X61676503Y-108264561D02*
X61628884Y-108169323D01*
X61628884Y-108169323D02*
X61581265Y-107978847D01*
X61581265Y-107978847D02*
X61581265Y-107835990D01*
X61581265Y-107835990D02*
X61628884Y-107645514D01*
X61628884Y-107645514D02*
X61676503Y-107550276D01*
X61676503Y-107550276D02*
X61771741Y-107455038D01*
X61771741Y-107455038D02*
X61914598Y-107407419D01*
X61914598Y-107407419D02*
X62009836Y-107407419D01*
X62009836Y-107407419D02*
X62152693Y-107455038D01*
X62152693Y-107455038D02*
X62200312Y-107502657D01*
X63152693Y-108407419D02*
X62581265Y-108407419D01*
X62866979Y-108407419D02*
X62866979Y-107407419D01*
X62866979Y-107407419D02*
X62771741Y-107550276D01*
X62771741Y-107550276D02*
X62676503Y-107645514D01*
X62676503Y-107645514D02*
X62581265Y-107693133D01*
X138887419Y-88320476D02*
X138411228Y-88653809D01*
X138887419Y-88891904D02*
X137887419Y-88891904D01*
X137887419Y-88891904D02*
X137887419Y-88510952D01*
X137887419Y-88510952D02*
X137935038Y-88415714D01*
X137935038Y-88415714D02*
X137982657Y-88368095D01*
X137982657Y-88368095D02*
X138077895Y-88320476D01*
X138077895Y-88320476D02*
X138220752Y-88320476D01*
X138220752Y-88320476D02*
X138315990Y-88368095D01*
X138315990Y-88368095D02*
X138363609Y-88415714D01*
X138363609Y-88415714D02*
X138411228Y-88510952D01*
X138411228Y-88510952D02*
X138411228Y-88891904D01*
X137935038Y-87368095D02*
X137887419Y-87463333D01*
X137887419Y-87463333D02*
X137887419Y-87606190D01*
X137887419Y-87606190D02*
X137935038Y-87749047D01*
X137935038Y-87749047D02*
X138030276Y-87844285D01*
X138030276Y-87844285D02*
X138125514Y-87891904D01*
X138125514Y-87891904D02*
X138315990Y-87939523D01*
X138315990Y-87939523D02*
X138458847Y-87939523D01*
X138458847Y-87939523D02*
X138649323Y-87891904D01*
X138649323Y-87891904D02*
X138744561Y-87844285D01*
X138744561Y-87844285D02*
X138839800Y-87749047D01*
X138839800Y-87749047D02*
X138887419Y-87606190D01*
X138887419Y-87606190D02*
X138887419Y-87510952D01*
X138887419Y-87510952D02*
X138839800Y-87368095D01*
X138839800Y-87368095D02*
X138792180Y-87320476D01*
X138792180Y-87320476D02*
X138458847Y-87320476D01*
X138458847Y-87320476D02*
X138458847Y-87510952D01*
X138363609Y-86558571D02*
X138411228Y-86415714D01*
X138411228Y-86415714D02*
X138458847Y-86368095D01*
X138458847Y-86368095D02*
X138554085Y-86320476D01*
X138554085Y-86320476D02*
X138696942Y-86320476D01*
X138696942Y-86320476D02*
X138792180Y-86368095D01*
X138792180Y-86368095D02*
X138839800Y-86415714D01*
X138839800Y-86415714D02*
X138887419Y-86510952D01*
X138887419Y-86510952D02*
X138887419Y-86891904D01*
X138887419Y-86891904D02*
X137887419Y-86891904D01*
X137887419Y-86891904D02*
X137887419Y-86558571D01*
X137887419Y-86558571D02*
X137935038Y-86463333D01*
X137935038Y-86463333D02*
X137982657Y-86415714D01*
X137982657Y-86415714D02*
X138077895Y-86368095D01*
X138077895Y-86368095D02*
X138173133Y-86368095D01*
X138173133Y-86368095D02*
X138268371Y-86415714D01*
X138268371Y-86415714D02*
X138315990Y-86463333D01*
X138315990Y-86463333D02*
X138363609Y-86558571D01*
X138363609Y-86558571D02*
X138363609Y-86891904D01*
X72630312Y-121107419D02*
X72296979Y-120631228D01*
X72058884Y-121107419D02*
X72058884Y-120107419D01*
X72058884Y-120107419D02*
X72439836Y-120107419D01*
X72439836Y-120107419D02*
X72535074Y-120155038D01*
X72535074Y-120155038D02*
X72582693Y-120202657D01*
X72582693Y-120202657D02*
X72630312Y-120297895D01*
X72630312Y-120297895D02*
X72630312Y-120440752D01*
X72630312Y-120440752D02*
X72582693Y-120535990D01*
X72582693Y-120535990D02*
X72535074Y-120583609D01*
X72535074Y-120583609D02*
X72439836Y-120631228D01*
X72439836Y-120631228D02*
X72058884Y-120631228D01*
X72963646Y-120107419D02*
X73630312Y-121107419D01*
X73630312Y-120107419D02*
X72963646Y-121107419D01*
X71963646Y-122647419D02*
X72582693Y-122647419D01*
X72582693Y-122647419D02*
X72249360Y-123028371D01*
X72249360Y-123028371D02*
X72392217Y-123028371D01*
X72392217Y-123028371D02*
X72487455Y-123075990D01*
X72487455Y-123075990D02*
X72535074Y-123123609D01*
X72535074Y-123123609D02*
X72582693Y-123218847D01*
X72582693Y-123218847D02*
X72582693Y-123456942D01*
X72582693Y-123456942D02*
X72535074Y-123552180D01*
X72535074Y-123552180D02*
X72487455Y-123599800D01*
X72487455Y-123599800D02*
X72392217Y-123647419D01*
X72392217Y-123647419D02*
X72106503Y-123647419D01*
X72106503Y-123647419D02*
X72011265Y-123599800D01*
X72011265Y-123599800D02*
X71963646Y-123552180D01*
X72868408Y-122647419D02*
X73201741Y-123647419D01*
X73201741Y-123647419D02*
X73535074Y-122647419D01*
X73773170Y-122647419D02*
X74392217Y-122647419D01*
X74392217Y-122647419D02*
X74058884Y-123028371D01*
X74058884Y-123028371D02*
X74201741Y-123028371D01*
X74201741Y-123028371D02*
X74296979Y-123075990D01*
X74296979Y-123075990D02*
X74344598Y-123123609D01*
X74344598Y-123123609D02*
X74392217Y-123218847D01*
X74392217Y-123218847D02*
X74392217Y-123456942D01*
X74392217Y-123456942D02*
X74344598Y-123552180D01*
X74344598Y-123552180D02*
X74296979Y-123599800D01*
X74296979Y-123599800D02*
X74201741Y-123647419D01*
X74201741Y-123647419D02*
X73916027Y-123647419D01*
X73916027Y-123647419D02*
X73820789Y-123599800D01*
X73820789Y-123599800D02*
X73773170Y-123552180D01*
X122377419Y-128668883D02*
X121377419Y-128668883D01*
X122377419Y-128192693D02*
X121377419Y-128192693D01*
X121377419Y-128192693D02*
X122377419Y-127621265D01*
X122377419Y-127621265D02*
X121377419Y-127621265D01*
X121377419Y-127240312D02*
X121377419Y-126621265D01*
X121377419Y-126621265D02*
X121758371Y-126954598D01*
X121758371Y-126954598D02*
X121758371Y-126811741D01*
X121758371Y-126811741D02*
X121805990Y-126716503D01*
X121805990Y-126716503D02*
X121853609Y-126668884D01*
X121853609Y-126668884D02*
X121948847Y-126621265D01*
X121948847Y-126621265D02*
X122186942Y-126621265D01*
X122186942Y-126621265D02*
X122282180Y-126668884D01*
X122282180Y-126668884D02*
X122329800Y-126716503D01*
X122329800Y-126716503D02*
X122377419Y-126811741D01*
X122377419Y-126811741D02*
X122377419Y-127097455D01*
X122377419Y-127097455D02*
X122329800Y-127192693D01*
X122329800Y-127192693D02*
X122282180Y-127240312D01*
X134923884Y-113487419D02*
X134923884Y-112487419D01*
X135400074Y-113487419D02*
X135400074Y-112487419D01*
X135400074Y-112487419D02*
X135971502Y-113487419D01*
X135971502Y-113487419D02*
X135971502Y-112487419D01*
X136971502Y-113487419D02*
X136400074Y-113487419D01*
X136685788Y-113487419D02*
X136685788Y-112487419D01*
X136685788Y-112487419D02*
X136590550Y-112630276D01*
X136590550Y-112630276D02*
X136495312Y-112725514D01*
X136495312Y-112725514D02*
X136400074Y-112773133D01*
X95977419Y-128541741D02*
X95977419Y-128351265D01*
X95977419Y-128351265D02*
X96025038Y-128256027D01*
X96025038Y-128256027D02*
X96120276Y-128160789D01*
X96120276Y-128160789D02*
X96310752Y-128113170D01*
X96310752Y-128113170D02*
X96644085Y-128113170D01*
X96644085Y-128113170D02*
X96834561Y-128160789D01*
X96834561Y-128160789D02*
X96929800Y-128256027D01*
X96929800Y-128256027D02*
X96977419Y-128351265D01*
X96977419Y-128351265D02*
X96977419Y-128541741D01*
X96977419Y-128541741D02*
X96929800Y-128636979D01*
X96929800Y-128636979D02*
X96834561Y-128732217D01*
X96834561Y-128732217D02*
X96644085Y-128779836D01*
X96644085Y-128779836D02*
X96310752Y-128779836D01*
X96310752Y-128779836D02*
X96120276Y-128732217D01*
X96120276Y-128732217D02*
X96025038Y-128636979D01*
X96025038Y-128636979D02*
X95977419Y-128541741D01*
X95977419Y-127684598D02*
X96786942Y-127684598D01*
X96786942Y-127684598D02*
X96882180Y-127636979D01*
X96882180Y-127636979D02*
X96929800Y-127589360D01*
X96929800Y-127589360D02*
X96977419Y-127494122D01*
X96977419Y-127494122D02*
X96977419Y-127303646D01*
X96977419Y-127303646D02*
X96929800Y-127208408D01*
X96929800Y-127208408D02*
X96882180Y-127160789D01*
X96882180Y-127160789D02*
X96786942Y-127113170D01*
X96786942Y-127113170D02*
X95977419Y-127113170D01*
X95977419Y-126779836D02*
X95977419Y-126208408D01*
X96977419Y-126494122D02*
X95977419Y-126494122D01*
X95977419Y-125970312D02*
X95977419Y-125351265D01*
X95977419Y-125351265D02*
X96358371Y-125684598D01*
X96358371Y-125684598D02*
X96358371Y-125541741D01*
X96358371Y-125541741D02*
X96405990Y-125446503D01*
X96405990Y-125446503D02*
X96453609Y-125398884D01*
X96453609Y-125398884D02*
X96548847Y-125351265D01*
X96548847Y-125351265D02*
X96786942Y-125351265D01*
X96786942Y-125351265D02*
X96882180Y-125398884D01*
X96882180Y-125398884D02*
X96929800Y-125446503D01*
X96929800Y-125446503D02*
X96977419Y-125541741D01*
X96977419Y-125541741D02*
X96977419Y-125827455D01*
X96977419Y-125827455D02*
X96929800Y-125922693D01*
X96929800Y-125922693D02*
X96882180Y-125970312D01*
X135241666Y-100251109D02*
X135384523Y-100298728D01*
X135384523Y-100298728D02*
X135432142Y-100346347D01*
X135432142Y-100346347D02*
X135479761Y-100441585D01*
X135479761Y-100441585D02*
X135479761Y-100584442D01*
X135479761Y-100584442D02*
X135432142Y-100679680D01*
X135432142Y-100679680D02*
X135384523Y-100727300D01*
X135384523Y-100727300D02*
X135289285Y-100774919D01*
X135289285Y-100774919D02*
X134908333Y-100774919D01*
X134908333Y-100774919D02*
X134908333Y-99774919D01*
X134908333Y-99774919D02*
X135241666Y-99774919D01*
X135241666Y-99774919D02*
X135336904Y-99822538D01*
X135336904Y-99822538D02*
X135384523Y-99870157D01*
X135384523Y-99870157D02*
X135432142Y-99965395D01*
X135432142Y-99965395D02*
X135432142Y-100060633D01*
X135432142Y-100060633D02*
X135384523Y-100155871D01*
X135384523Y-100155871D02*
X135336904Y-100203490D01*
X135336904Y-100203490D02*
X135241666Y-100251109D01*
X135241666Y-100251109D02*
X134908333Y-100251109D01*
X136098809Y-99774919D02*
X136289285Y-99774919D01*
X136289285Y-99774919D02*
X136384523Y-99822538D01*
X136384523Y-99822538D02*
X136479761Y-99917776D01*
X136479761Y-99917776D02*
X136527380Y-100108252D01*
X136527380Y-100108252D02*
X136527380Y-100441585D01*
X136527380Y-100441585D02*
X136479761Y-100632061D01*
X136479761Y-100632061D02*
X136384523Y-100727300D01*
X136384523Y-100727300D02*
X136289285Y-100774919D01*
X136289285Y-100774919D02*
X136098809Y-100774919D01*
X136098809Y-100774919D02*
X136003571Y-100727300D01*
X136003571Y-100727300D02*
X135908333Y-100632061D01*
X135908333Y-100632061D02*
X135860714Y-100441585D01*
X135860714Y-100441585D02*
X135860714Y-100108252D01*
X135860714Y-100108252D02*
X135908333Y-99917776D01*
X135908333Y-99917776D02*
X136003571Y-99822538D01*
X136003571Y-99822538D02*
X136098809Y-99774919D01*
X137146428Y-99774919D02*
X137336904Y-99774919D01*
X137336904Y-99774919D02*
X137432142Y-99822538D01*
X137432142Y-99822538D02*
X137527380Y-99917776D01*
X137527380Y-99917776D02*
X137574999Y-100108252D01*
X137574999Y-100108252D02*
X137574999Y-100441585D01*
X137574999Y-100441585D02*
X137527380Y-100632061D01*
X137527380Y-100632061D02*
X137432142Y-100727300D01*
X137432142Y-100727300D02*
X137336904Y-100774919D01*
X137336904Y-100774919D02*
X137146428Y-100774919D01*
X137146428Y-100774919D02*
X137051190Y-100727300D01*
X137051190Y-100727300D02*
X136955952Y-100632061D01*
X136955952Y-100632061D02*
X136908333Y-100441585D01*
X136908333Y-100441585D02*
X136908333Y-100108252D01*
X136908333Y-100108252D02*
X136955952Y-99917776D01*
X136955952Y-99917776D02*
X137051190Y-99822538D01*
X137051190Y-99822538D02*
X137146428Y-99774919D01*
X137860714Y-99774919D02*
X138432142Y-99774919D01*
X138146428Y-100774919D02*
X138146428Y-99774919D01*
X138955952Y-99774919D02*
X139051190Y-99774919D01*
X139051190Y-99774919D02*
X139146428Y-99822538D01*
X139146428Y-99822538D02*
X139194047Y-99870157D01*
X139194047Y-99870157D02*
X139241666Y-99965395D01*
X139241666Y-99965395D02*
X139289285Y-100155871D01*
X139289285Y-100155871D02*
X139289285Y-100393966D01*
X139289285Y-100393966D02*
X139241666Y-100584442D01*
X139241666Y-100584442D02*
X139194047Y-100679680D01*
X139194047Y-100679680D02*
X139146428Y-100727300D01*
X139146428Y-100727300D02*
X139051190Y-100774919D01*
X139051190Y-100774919D02*
X138955952Y-100774919D01*
X138955952Y-100774919D02*
X138860714Y-100727300D01*
X138860714Y-100727300D02*
X138813095Y-100679680D01*
X138813095Y-100679680D02*
X138765476Y-100584442D01*
X138765476Y-100584442D02*
X138717857Y-100393966D01*
X138717857Y-100393966D02*
X138717857Y-100155871D01*
X138717857Y-100155871D02*
X138765476Y-99965395D01*
X138765476Y-99965395D02*
X138813095Y-99870157D01*
X138813095Y-99870157D02*
X138860714Y-99822538D01*
X138860714Y-99822538D02*
X138955952Y-99774919D01*
X104502180Y-65164687D02*
X104549800Y-65212306D01*
X104549800Y-65212306D02*
X104597419Y-65355163D01*
X104597419Y-65355163D02*
X104597419Y-65450401D01*
X104597419Y-65450401D02*
X104549800Y-65593258D01*
X104549800Y-65593258D02*
X104454561Y-65688496D01*
X104454561Y-65688496D02*
X104359323Y-65736115D01*
X104359323Y-65736115D02*
X104168847Y-65783734D01*
X104168847Y-65783734D02*
X104025990Y-65783734D01*
X104025990Y-65783734D02*
X103835514Y-65736115D01*
X103835514Y-65736115D02*
X103740276Y-65688496D01*
X103740276Y-65688496D02*
X103645038Y-65593258D01*
X103645038Y-65593258D02*
X103597419Y-65450401D01*
X103597419Y-65450401D02*
X103597419Y-65355163D01*
X103597419Y-65355163D02*
X103645038Y-65212306D01*
X103645038Y-65212306D02*
X103692657Y-65164687D01*
X104597419Y-64736115D02*
X103597419Y-64736115D01*
X103597419Y-64736115D02*
X103597419Y-64498020D01*
X103597419Y-64498020D02*
X103645038Y-64355163D01*
X103645038Y-64355163D02*
X103740276Y-64259925D01*
X103740276Y-64259925D02*
X103835514Y-64212306D01*
X103835514Y-64212306D02*
X104025990Y-64164687D01*
X104025990Y-64164687D02*
X104168847Y-64164687D01*
X104168847Y-64164687D02*
X104359323Y-64212306D01*
X104359323Y-64212306D02*
X104454561Y-64259925D01*
X104454561Y-64259925D02*
X104549800Y-64355163D01*
X104549800Y-64355163D02*
X104597419Y-64498020D01*
X104597419Y-64498020D02*
X104597419Y-64736115D01*
X103597419Y-63545639D02*
X103597419Y-63355163D01*
X103597419Y-63355163D02*
X103645038Y-63259925D01*
X103645038Y-63259925D02*
X103740276Y-63164687D01*
X103740276Y-63164687D02*
X103930752Y-63117068D01*
X103930752Y-63117068D02*
X104264085Y-63117068D01*
X104264085Y-63117068D02*
X104454561Y-63164687D01*
X104454561Y-63164687D02*
X104549800Y-63259925D01*
X104549800Y-63259925D02*
X104597419Y-63355163D01*
X104597419Y-63355163D02*
X104597419Y-63545639D01*
X104597419Y-63545639D02*
X104549800Y-63640877D01*
X104549800Y-63640877D02*
X104454561Y-63736115D01*
X104454561Y-63736115D02*
X104264085Y-63783734D01*
X104264085Y-63783734D02*
X103930752Y-63783734D01*
X103930752Y-63783734D02*
X103740276Y-63736115D01*
X103740276Y-63736115D02*
X103645038Y-63640877D01*
X103645038Y-63640877D02*
X103597419Y-63545639D01*
X104597419Y-62688496D02*
X103597419Y-62688496D01*
X103597419Y-62688496D02*
X104597419Y-62117068D01*
X104597419Y-62117068D02*
X103597419Y-62117068D01*
X104073609Y-61640877D02*
X104073609Y-61307544D01*
X104597419Y-61164687D02*
X104597419Y-61640877D01*
X104597419Y-61640877D02*
X103597419Y-61640877D01*
X103597419Y-61640877D02*
X103597419Y-61164687D01*
X134923884Y-118567419D02*
X134923884Y-117567419D01*
X135400074Y-118567419D02*
X135400074Y-117567419D01*
X135400074Y-117567419D02*
X135971502Y-118567419D01*
X135971502Y-118567419D02*
X135971502Y-117567419D01*
X136352455Y-117567419D02*
X136971502Y-117567419D01*
X136971502Y-117567419D02*
X136638169Y-117948371D01*
X136638169Y-117948371D02*
X136781026Y-117948371D01*
X136781026Y-117948371D02*
X136876264Y-117995990D01*
X136876264Y-117995990D02*
X136923883Y-118043609D01*
X136923883Y-118043609D02*
X136971502Y-118138847D01*
X136971502Y-118138847D02*
X136971502Y-118376942D01*
X136971502Y-118376942D02*
X136923883Y-118472180D01*
X136923883Y-118472180D02*
X136876264Y-118519800D01*
X136876264Y-118519800D02*
X136781026Y-118567419D01*
X136781026Y-118567419D02*
X136495312Y-118567419D01*
X136495312Y-118567419D02*
X136400074Y-118519800D01*
X136400074Y-118519800D02*
X136352455Y-118472180D01*
X72011265Y-95659800D02*
X72154122Y-95707419D01*
X72154122Y-95707419D02*
X72392217Y-95707419D01*
X72392217Y-95707419D02*
X72487455Y-95659800D01*
X72487455Y-95659800D02*
X72535074Y-95612180D01*
X72535074Y-95612180D02*
X72582693Y-95516942D01*
X72582693Y-95516942D02*
X72582693Y-95421704D01*
X72582693Y-95421704D02*
X72535074Y-95326466D01*
X72535074Y-95326466D02*
X72487455Y-95278847D01*
X72487455Y-95278847D02*
X72392217Y-95231228D01*
X72392217Y-95231228D02*
X72201741Y-95183609D01*
X72201741Y-95183609D02*
X72106503Y-95135990D01*
X72106503Y-95135990D02*
X72058884Y-95088371D01*
X72058884Y-95088371D02*
X72011265Y-94993133D01*
X72011265Y-94993133D02*
X72011265Y-94897895D01*
X72011265Y-94897895D02*
X72058884Y-94802657D01*
X72058884Y-94802657D02*
X72106503Y-94755038D01*
X72106503Y-94755038D02*
X72201741Y-94707419D01*
X72201741Y-94707419D02*
X72439836Y-94707419D01*
X72439836Y-94707419D02*
X72582693Y-94755038D01*
X73011265Y-95707419D02*
X73011265Y-94707419D01*
X73011265Y-94707419D02*
X73249360Y-94707419D01*
X73249360Y-94707419D02*
X73392217Y-94755038D01*
X73392217Y-94755038D02*
X73487455Y-94850276D01*
X73487455Y-94850276D02*
X73535074Y-94945514D01*
X73535074Y-94945514D02*
X73582693Y-95135990D01*
X73582693Y-95135990D02*
X73582693Y-95278847D01*
X73582693Y-95278847D02*
X73535074Y-95469323D01*
X73535074Y-95469323D02*
X73487455Y-95564561D01*
X73487455Y-95564561D02*
X73392217Y-95659800D01*
X73392217Y-95659800D02*
X73249360Y-95707419D01*
X73249360Y-95707419D02*
X73011265Y-95707419D01*
X60628884Y-100787419D02*
X60628884Y-99787419D01*
X60628884Y-99787419D02*
X61009836Y-99787419D01*
X61009836Y-99787419D02*
X61105074Y-99835038D01*
X61105074Y-99835038D02*
X61152693Y-99882657D01*
X61152693Y-99882657D02*
X61200312Y-99977895D01*
X61200312Y-99977895D02*
X61200312Y-100120752D01*
X61200312Y-100120752D02*
X61152693Y-100215990D01*
X61152693Y-100215990D02*
X61105074Y-100263609D01*
X61105074Y-100263609D02*
X61009836Y-100311228D01*
X61009836Y-100311228D02*
X60628884Y-100311228D01*
X62200312Y-100692180D02*
X62152693Y-100739800D01*
X62152693Y-100739800D02*
X62009836Y-100787419D01*
X62009836Y-100787419D02*
X61914598Y-100787419D01*
X61914598Y-100787419D02*
X61771741Y-100739800D01*
X61771741Y-100739800D02*
X61676503Y-100644561D01*
X61676503Y-100644561D02*
X61628884Y-100549323D01*
X61628884Y-100549323D02*
X61581265Y-100358847D01*
X61581265Y-100358847D02*
X61581265Y-100215990D01*
X61581265Y-100215990D02*
X61628884Y-100025514D01*
X61628884Y-100025514D02*
X61676503Y-99930276D01*
X61676503Y-99930276D02*
X61771741Y-99835038D01*
X61771741Y-99835038D02*
X61914598Y-99787419D01*
X61914598Y-99787419D02*
X62009836Y-99787419D01*
X62009836Y-99787419D02*
X62152693Y-99835038D01*
X62152693Y-99835038D02*
X62200312Y-99882657D01*
X63152693Y-100787419D02*
X62581265Y-100787419D01*
X62866979Y-100787419D02*
X62866979Y-99787419D01*
X62866979Y-99787419D02*
X62771741Y-99930276D01*
X62771741Y-99930276D02*
X62676503Y-100025514D01*
X62676503Y-100025514D02*
X62581265Y-100073133D01*
X64009836Y-100120752D02*
X64009836Y-100787419D01*
X63771741Y-99739800D02*
X63533646Y-100454085D01*
X63533646Y-100454085D02*
X64152693Y-100454085D01*
X72011265Y-110899800D02*
X72154122Y-110947419D01*
X72154122Y-110947419D02*
X72392217Y-110947419D01*
X72392217Y-110947419D02*
X72487455Y-110899800D01*
X72487455Y-110899800D02*
X72535074Y-110852180D01*
X72535074Y-110852180D02*
X72582693Y-110756942D01*
X72582693Y-110756942D02*
X72582693Y-110661704D01*
X72582693Y-110661704D02*
X72535074Y-110566466D01*
X72535074Y-110566466D02*
X72487455Y-110518847D01*
X72487455Y-110518847D02*
X72392217Y-110471228D01*
X72392217Y-110471228D02*
X72201741Y-110423609D01*
X72201741Y-110423609D02*
X72106503Y-110375990D01*
X72106503Y-110375990D02*
X72058884Y-110328371D01*
X72058884Y-110328371D02*
X72011265Y-110233133D01*
X72011265Y-110233133D02*
X72011265Y-110137895D01*
X72011265Y-110137895D02*
X72058884Y-110042657D01*
X72058884Y-110042657D02*
X72106503Y-109995038D01*
X72106503Y-109995038D02*
X72201741Y-109947419D01*
X72201741Y-109947419D02*
X72439836Y-109947419D01*
X72439836Y-109947419D02*
X72582693Y-109995038D01*
X73011265Y-110947419D02*
X73011265Y-109947419D01*
X60628884Y-90627419D02*
X60628884Y-89627419D01*
X60628884Y-89627419D02*
X61009836Y-89627419D01*
X61009836Y-89627419D02*
X61105074Y-89675038D01*
X61105074Y-89675038D02*
X61152693Y-89722657D01*
X61152693Y-89722657D02*
X61200312Y-89817895D01*
X61200312Y-89817895D02*
X61200312Y-89960752D01*
X61200312Y-89960752D02*
X61152693Y-90055990D01*
X61152693Y-90055990D02*
X61105074Y-90103609D01*
X61105074Y-90103609D02*
X61009836Y-90151228D01*
X61009836Y-90151228D02*
X60628884Y-90151228D01*
X61628884Y-90627419D02*
X61628884Y-89627419D01*
X61628884Y-89627419D02*
X61866979Y-89627419D01*
X61866979Y-89627419D02*
X62009836Y-89675038D01*
X62009836Y-89675038D02*
X62105074Y-89770276D01*
X62105074Y-89770276D02*
X62152693Y-89865514D01*
X62152693Y-89865514D02*
X62200312Y-90055990D01*
X62200312Y-90055990D02*
X62200312Y-90198847D01*
X62200312Y-90198847D02*
X62152693Y-90389323D01*
X62152693Y-90389323D02*
X62105074Y-90484561D01*
X62105074Y-90484561D02*
X62009836Y-90579800D01*
X62009836Y-90579800D02*
X61866979Y-90627419D01*
X61866979Y-90627419D02*
X61628884Y-90627419D01*
X62581265Y-89722657D02*
X62628884Y-89675038D01*
X62628884Y-89675038D02*
X62724122Y-89627419D01*
X62724122Y-89627419D02*
X62962217Y-89627419D01*
X62962217Y-89627419D02*
X63057455Y-89675038D01*
X63057455Y-89675038D02*
X63105074Y-89722657D01*
X63105074Y-89722657D02*
X63152693Y-89817895D01*
X63152693Y-89817895D02*
X63152693Y-89913133D01*
X63152693Y-89913133D02*
X63105074Y-90055990D01*
X63105074Y-90055990D02*
X62533646Y-90627419D01*
X62533646Y-90627419D02*
X63152693Y-90627419D01*
X135463646Y-69307419D02*
X136082693Y-69307419D01*
X136082693Y-69307419D02*
X135749360Y-69688371D01*
X135749360Y-69688371D02*
X135892217Y-69688371D01*
X135892217Y-69688371D02*
X135987455Y-69735990D01*
X135987455Y-69735990D02*
X136035074Y-69783609D01*
X136035074Y-69783609D02*
X136082693Y-69878847D01*
X136082693Y-69878847D02*
X136082693Y-70116942D01*
X136082693Y-70116942D02*
X136035074Y-70212180D01*
X136035074Y-70212180D02*
X135987455Y-70259800D01*
X135987455Y-70259800D02*
X135892217Y-70307419D01*
X135892217Y-70307419D02*
X135606503Y-70307419D01*
X135606503Y-70307419D02*
X135511265Y-70259800D01*
X135511265Y-70259800D02*
X135463646Y-70212180D01*
X136368408Y-69307419D02*
X136701741Y-70307419D01*
X136701741Y-70307419D02*
X137035074Y-69307419D01*
X137273170Y-69307419D02*
X137892217Y-69307419D01*
X137892217Y-69307419D02*
X137558884Y-69688371D01*
X137558884Y-69688371D02*
X137701741Y-69688371D01*
X137701741Y-69688371D02*
X137796979Y-69735990D01*
X137796979Y-69735990D02*
X137844598Y-69783609D01*
X137844598Y-69783609D02*
X137892217Y-69878847D01*
X137892217Y-69878847D02*
X137892217Y-70116942D01*
X137892217Y-70116942D02*
X137844598Y-70212180D01*
X137844598Y-70212180D02*
X137796979Y-70259800D01*
X137796979Y-70259800D02*
X137701741Y-70307419D01*
X137701741Y-70307419D02*
X137416027Y-70307419D01*
X137416027Y-70307419D02*
X137320789Y-70259800D01*
X137320789Y-70259800D02*
X137273170Y-70212180D01*
X71916027Y-117567419D02*
X72487455Y-117567419D01*
X72201741Y-118567419D02*
X72201741Y-117567419D01*
X72725551Y-117567419D02*
X73392217Y-118567419D01*
X73392217Y-117567419D02*
X72725551Y-118567419D01*
X135463646Y-92167419D02*
X136082693Y-92167419D01*
X136082693Y-92167419D02*
X135749360Y-92548371D01*
X135749360Y-92548371D02*
X135892217Y-92548371D01*
X135892217Y-92548371D02*
X135987455Y-92595990D01*
X135987455Y-92595990D02*
X136035074Y-92643609D01*
X136035074Y-92643609D02*
X136082693Y-92738847D01*
X136082693Y-92738847D02*
X136082693Y-92976942D01*
X136082693Y-92976942D02*
X136035074Y-93072180D01*
X136035074Y-93072180D02*
X135987455Y-93119800D01*
X135987455Y-93119800D02*
X135892217Y-93167419D01*
X135892217Y-93167419D02*
X135606503Y-93167419D01*
X135606503Y-93167419D02*
X135511265Y-93119800D01*
X135511265Y-93119800D02*
X135463646Y-93072180D01*
X136368408Y-92167419D02*
X136701741Y-93167419D01*
X136701741Y-93167419D02*
X137035074Y-92167419D01*
X137273170Y-92167419D02*
X137892217Y-92167419D01*
X137892217Y-92167419D02*
X137558884Y-92548371D01*
X137558884Y-92548371D02*
X137701741Y-92548371D01*
X137701741Y-92548371D02*
X137796979Y-92595990D01*
X137796979Y-92595990D02*
X137844598Y-92643609D01*
X137844598Y-92643609D02*
X137892217Y-92738847D01*
X137892217Y-92738847D02*
X137892217Y-92976942D01*
X137892217Y-92976942D02*
X137844598Y-93072180D01*
X137844598Y-93072180D02*
X137796979Y-93119800D01*
X137796979Y-93119800D02*
X137701741Y-93167419D01*
X137701741Y-93167419D02*
X137416027Y-93167419D01*
X137416027Y-93167419D02*
X137320789Y-93119800D01*
X137320789Y-93119800D02*
X137273170Y-93072180D01*
X124917419Y-128668883D02*
X123917419Y-128668883D01*
X124917419Y-128192693D02*
X123917419Y-128192693D01*
X123917419Y-128192693D02*
X124917419Y-127621265D01*
X124917419Y-127621265D02*
X123917419Y-127621265D01*
X124012657Y-127192693D02*
X123965038Y-127145074D01*
X123965038Y-127145074D02*
X123917419Y-127049836D01*
X123917419Y-127049836D02*
X123917419Y-126811741D01*
X123917419Y-126811741D02*
X123965038Y-126716503D01*
X123965038Y-126716503D02*
X124012657Y-126668884D01*
X124012657Y-126668884D02*
X124107895Y-126621265D01*
X124107895Y-126621265D02*
X124203133Y-126621265D01*
X124203133Y-126621265D02*
X124345990Y-126668884D01*
X124345990Y-126668884D02*
X124917419Y-127240312D01*
X124917419Y-127240312D02*
X124917419Y-126621265D01*
X60628884Y-116027419D02*
X60628884Y-115027419D01*
X60628884Y-115027419D02*
X61009836Y-115027419D01*
X61009836Y-115027419D02*
X61105074Y-115075038D01*
X61105074Y-115075038D02*
X61152693Y-115122657D01*
X61152693Y-115122657D02*
X61200312Y-115217895D01*
X61200312Y-115217895D02*
X61200312Y-115360752D01*
X61200312Y-115360752D02*
X61152693Y-115455990D01*
X61152693Y-115455990D02*
X61105074Y-115503609D01*
X61105074Y-115503609D02*
X61009836Y-115551228D01*
X61009836Y-115551228D02*
X60628884Y-115551228D01*
X61581265Y-115741704D02*
X62057455Y-115741704D01*
X61486027Y-116027419D02*
X61819360Y-115027419D01*
X61819360Y-115027419D02*
X62152693Y-116027419D01*
X62676503Y-115027419D02*
X62771741Y-115027419D01*
X62771741Y-115027419D02*
X62866979Y-115075038D01*
X62866979Y-115075038D02*
X62914598Y-115122657D01*
X62914598Y-115122657D02*
X62962217Y-115217895D01*
X62962217Y-115217895D02*
X63009836Y-115408371D01*
X63009836Y-115408371D02*
X63009836Y-115646466D01*
X63009836Y-115646466D02*
X62962217Y-115836942D01*
X62962217Y-115836942D02*
X62914598Y-115932180D01*
X62914598Y-115932180D02*
X62866979Y-115979800D01*
X62866979Y-115979800D02*
X62771741Y-116027419D01*
X62771741Y-116027419D02*
X62676503Y-116027419D01*
X62676503Y-116027419D02*
X62581265Y-115979800D01*
X62581265Y-115979800D02*
X62533646Y-115932180D01*
X62533646Y-115932180D02*
X62486027Y-115836942D01*
X62486027Y-115836942D02*
X62438408Y-115646466D01*
X62438408Y-115646466D02*
X62438408Y-115408371D01*
X62438408Y-115408371D02*
X62486027Y-115217895D01*
X62486027Y-115217895D02*
X62533646Y-115122657D01*
X62533646Y-115122657D02*
X62581265Y-115075038D01*
X62581265Y-115075038D02*
X62676503Y-115027419D01*
X135463646Y-82007419D02*
X136082693Y-82007419D01*
X136082693Y-82007419D02*
X135749360Y-82388371D01*
X135749360Y-82388371D02*
X135892217Y-82388371D01*
X135892217Y-82388371D02*
X135987455Y-82435990D01*
X135987455Y-82435990D02*
X136035074Y-82483609D01*
X136035074Y-82483609D02*
X136082693Y-82578847D01*
X136082693Y-82578847D02*
X136082693Y-82816942D01*
X136082693Y-82816942D02*
X136035074Y-82912180D01*
X136035074Y-82912180D02*
X135987455Y-82959800D01*
X135987455Y-82959800D02*
X135892217Y-83007419D01*
X135892217Y-83007419D02*
X135606503Y-83007419D01*
X135606503Y-83007419D02*
X135511265Y-82959800D01*
X135511265Y-82959800D02*
X135463646Y-82912180D01*
X136082693Y-71895038D02*
X135987455Y-71847419D01*
X135987455Y-71847419D02*
X135844598Y-71847419D01*
X135844598Y-71847419D02*
X135701741Y-71895038D01*
X135701741Y-71895038D02*
X135606503Y-71990276D01*
X135606503Y-71990276D02*
X135558884Y-72085514D01*
X135558884Y-72085514D02*
X135511265Y-72275990D01*
X135511265Y-72275990D02*
X135511265Y-72418847D01*
X135511265Y-72418847D02*
X135558884Y-72609323D01*
X135558884Y-72609323D02*
X135606503Y-72704561D01*
X135606503Y-72704561D02*
X135701741Y-72799800D01*
X135701741Y-72799800D02*
X135844598Y-72847419D01*
X135844598Y-72847419D02*
X135939836Y-72847419D01*
X135939836Y-72847419D02*
X136082693Y-72799800D01*
X136082693Y-72799800D02*
X136130312Y-72752180D01*
X136130312Y-72752180D02*
X136130312Y-72418847D01*
X136130312Y-72418847D02*
X135939836Y-72418847D01*
X136558884Y-72847419D02*
X136558884Y-71847419D01*
X136558884Y-71847419D02*
X137130312Y-72847419D01*
X137130312Y-72847419D02*
X137130312Y-71847419D01*
X137606503Y-72847419D02*
X137606503Y-71847419D01*
X137606503Y-71847419D02*
X137844598Y-71847419D01*
X137844598Y-71847419D02*
X137987455Y-71895038D01*
X137987455Y-71895038D02*
X138082693Y-71990276D01*
X138082693Y-71990276D02*
X138130312Y-72085514D01*
X138130312Y-72085514D02*
X138177931Y-72275990D01*
X138177931Y-72275990D02*
X138177931Y-72418847D01*
X138177931Y-72418847D02*
X138130312Y-72609323D01*
X138130312Y-72609323D02*
X138082693Y-72704561D01*
X138082693Y-72704561D02*
X137987455Y-72799800D01*
X137987455Y-72799800D02*
X137844598Y-72847419D01*
X137844598Y-72847419D02*
X137606503Y-72847419D01*
X71963646Y-115027419D02*
X72582693Y-115027419D01*
X72582693Y-115027419D02*
X72249360Y-115408371D01*
X72249360Y-115408371D02*
X72392217Y-115408371D01*
X72392217Y-115408371D02*
X72487455Y-115455990D01*
X72487455Y-115455990D02*
X72535074Y-115503609D01*
X72535074Y-115503609D02*
X72582693Y-115598847D01*
X72582693Y-115598847D02*
X72582693Y-115836942D01*
X72582693Y-115836942D02*
X72535074Y-115932180D01*
X72535074Y-115932180D02*
X72487455Y-115979800D01*
X72487455Y-115979800D02*
X72392217Y-116027419D01*
X72392217Y-116027419D02*
X72106503Y-116027419D01*
X72106503Y-116027419D02*
X72011265Y-115979800D01*
X72011265Y-115979800D02*
X71963646Y-115932180D01*
X72868408Y-115027419D02*
X73201741Y-116027419D01*
X73201741Y-116027419D02*
X73535074Y-115027419D01*
X73773170Y-115027419D02*
X74392217Y-115027419D01*
X74392217Y-115027419D02*
X74058884Y-115408371D01*
X74058884Y-115408371D02*
X74201741Y-115408371D01*
X74201741Y-115408371D02*
X74296979Y-115455990D01*
X74296979Y-115455990D02*
X74344598Y-115503609D01*
X74344598Y-115503609D02*
X74392217Y-115598847D01*
X74392217Y-115598847D02*
X74392217Y-115836942D01*
X74392217Y-115836942D02*
X74344598Y-115932180D01*
X74344598Y-115932180D02*
X74296979Y-115979800D01*
X74296979Y-115979800D02*
X74201741Y-116027419D01*
X74201741Y-116027419D02*
X73916027Y-116027419D01*
X73916027Y-116027419D02*
X73820789Y-115979800D01*
X73820789Y-115979800D02*
X73773170Y-115932180D01*
X71963646Y-97247419D02*
X72201741Y-98247419D01*
X72201741Y-98247419D02*
X72392217Y-97533133D01*
X72392217Y-97533133D02*
X72582693Y-98247419D01*
X72582693Y-98247419D02*
X72820789Y-97247419D01*
X73154122Y-98199800D02*
X73296979Y-98247419D01*
X73296979Y-98247419D02*
X73535074Y-98247419D01*
X73535074Y-98247419D02*
X73630312Y-98199800D01*
X73630312Y-98199800D02*
X73677931Y-98152180D01*
X73677931Y-98152180D02*
X73725550Y-98056942D01*
X73725550Y-98056942D02*
X73725550Y-97961704D01*
X73725550Y-97961704D02*
X73677931Y-97866466D01*
X73677931Y-97866466D02*
X73630312Y-97818847D01*
X73630312Y-97818847D02*
X73535074Y-97771228D01*
X73535074Y-97771228D02*
X73344598Y-97723609D01*
X73344598Y-97723609D02*
X73249360Y-97675990D01*
X73249360Y-97675990D02*
X73201741Y-97628371D01*
X73201741Y-97628371D02*
X73154122Y-97533133D01*
X73154122Y-97533133D02*
X73154122Y-97437895D01*
X73154122Y-97437895D02*
X73201741Y-97342657D01*
X73201741Y-97342657D02*
X73249360Y-97295038D01*
X73249360Y-97295038D02*
X73344598Y-97247419D01*
X73344598Y-97247419D02*
X73582693Y-97247419D01*
X73582693Y-97247419D02*
X73725550Y-97295038D01*
X136082693Y-77927419D02*
X135511265Y-77927419D01*
X135796979Y-77927419D02*
X135796979Y-76927419D01*
X135796979Y-76927419D02*
X135701741Y-77070276D01*
X135701741Y-77070276D02*
X135606503Y-77165514D01*
X135606503Y-77165514D02*
X135511265Y-77213133D01*
X127457419Y-128668883D02*
X126457419Y-128668883D01*
X127457419Y-128192693D02*
X126457419Y-128192693D01*
X126457419Y-128192693D02*
X127457419Y-127621265D01*
X127457419Y-127621265D02*
X126457419Y-127621265D01*
X127457419Y-126621265D02*
X127457419Y-127192693D01*
X127457419Y-126906979D02*
X126457419Y-126906979D01*
X126457419Y-126906979D02*
X126600276Y-127002217D01*
X126600276Y-127002217D02*
X126695514Y-127097455D01*
X126695514Y-127097455D02*
X126743133Y-127192693D01*
X121467381Y-62677552D02*
X121800714Y-63153743D01*
X122038809Y-62677552D02*
X122038809Y-63677552D01*
X122038809Y-63677552D02*
X121657857Y-63677552D01*
X121657857Y-63677552D02*
X121562619Y-63629933D01*
X121562619Y-63629933D02*
X121515000Y-63582314D01*
X121515000Y-63582314D02*
X121467381Y-63487076D01*
X121467381Y-63487076D02*
X121467381Y-63344219D01*
X121467381Y-63344219D02*
X121515000Y-63248981D01*
X121515000Y-63248981D02*
X121562619Y-63201362D01*
X121562619Y-63201362D02*
X121657857Y-63153743D01*
X121657857Y-63153743D02*
X122038809Y-63153743D01*
X121038809Y-63201362D02*
X120705476Y-63201362D01*
X120562619Y-62677552D02*
X121038809Y-62677552D01*
X121038809Y-62677552D02*
X121038809Y-63677552D01*
X121038809Y-63677552D02*
X120562619Y-63677552D01*
X120181666Y-62725172D02*
X120038809Y-62677552D01*
X120038809Y-62677552D02*
X119800714Y-62677552D01*
X119800714Y-62677552D02*
X119705476Y-62725172D01*
X119705476Y-62725172D02*
X119657857Y-62772791D01*
X119657857Y-62772791D02*
X119610238Y-62868029D01*
X119610238Y-62868029D02*
X119610238Y-62963267D01*
X119610238Y-62963267D02*
X119657857Y-63058505D01*
X119657857Y-63058505D02*
X119705476Y-63106124D01*
X119705476Y-63106124D02*
X119800714Y-63153743D01*
X119800714Y-63153743D02*
X119991190Y-63201362D01*
X119991190Y-63201362D02*
X120086428Y-63248981D01*
X120086428Y-63248981D02*
X120134047Y-63296600D01*
X120134047Y-63296600D02*
X120181666Y-63391838D01*
X120181666Y-63391838D02*
X120181666Y-63487076D01*
X120181666Y-63487076D02*
X120134047Y-63582314D01*
X120134047Y-63582314D02*
X120086428Y-63629933D01*
X120086428Y-63629933D02*
X119991190Y-63677552D01*
X119991190Y-63677552D02*
X119753095Y-63677552D01*
X119753095Y-63677552D02*
X119610238Y-63629933D01*
X119181666Y-63201362D02*
X118848333Y-63201362D01*
X118705476Y-62677552D02*
X119181666Y-62677552D01*
X119181666Y-62677552D02*
X119181666Y-63677552D01*
X119181666Y-63677552D02*
X118705476Y-63677552D01*
X118419761Y-63677552D02*
X117848333Y-63677552D01*
X118134047Y-62677552D02*
X118134047Y-63677552D01*
X121300714Y-61591418D02*
X121634047Y-61591418D01*
X121634047Y-61067608D02*
X121634047Y-62067608D01*
X121634047Y-62067608D02*
X121157857Y-62067608D01*
X120776904Y-61067608D02*
X120776904Y-62067608D01*
X120776904Y-62067608D02*
X120395952Y-62067608D01*
X120395952Y-62067608D02*
X120300714Y-62019989D01*
X120300714Y-62019989D02*
X120253095Y-61972370D01*
X120253095Y-61972370D02*
X120205476Y-61877132D01*
X120205476Y-61877132D02*
X120205476Y-61734275D01*
X120205476Y-61734275D02*
X120253095Y-61639037D01*
X120253095Y-61639037D02*
X120300714Y-61591418D01*
X120300714Y-61591418D02*
X120395952Y-61543799D01*
X120395952Y-61543799D02*
X120776904Y-61543799D01*
X119253095Y-62019989D02*
X119348333Y-62067608D01*
X119348333Y-62067608D02*
X119491190Y-62067608D01*
X119491190Y-62067608D02*
X119634047Y-62019989D01*
X119634047Y-62019989D02*
X119729285Y-61924751D01*
X119729285Y-61924751D02*
X119776904Y-61829513D01*
X119776904Y-61829513D02*
X119824523Y-61639037D01*
X119824523Y-61639037D02*
X119824523Y-61496180D01*
X119824523Y-61496180D02*
X119776904Y-61305704D01*
X119776904Y-61305704D02*
X119729285Y-61210466D01*
X119729285Y-61210466D02*
X119634047Y-61115228D01*
X119634047Y-61115228D02*
X119491190Y-61067608D01*
X119491190Y-61067608D02*
X119395952Y-61067608D01*
X119395952Y-61067608D02*
X119253095Y-61115228D01*
X119253095Y-61115228D02*
X119205476Y-61162847D01*
X119205476Y-61162847D02*
X119205476Y-61496180D01*
X119205476Y-61496180D02*
X119395952Y-61496180D01*
X118824523Y-61353323D02*
X118348333Y-61353323D01*
X118919761Y-61067608D02*
X118586428Y-62067608D01*
X118586428Y-62067608D02*
X118253095Y-61067608D01*
X135172217Y-107871109D02*
X134838884Y-107871109D01*
X134838884Y-108394919D02*
X134838884Y-107394919D01*
X134838884Y-107394919D02*
X135315074Y-107394919D01*
X135696027Y-108013966D02*
X136457932Y-108013966D01*
X137505550Y-108299680D02*
X137457931Y-108347300D01*
X137457931Y-108347300D02*
X137315074Y-108394919D01*
X137315074Y-108394919D02*
X137219836Y-108394919D01*
X137219836Y-108394919D02*
X137076979Y-108347300D01*
X137076979Y-108347300D02*
X136981741Y-108252061D01*
X136981741Y-108252061D02*
X136934122Y-108156823D01*
X136934122Y-108156823D02*
X136886503Y-107966347D01*
X136886503Y-107966347D02*
X136886503Y-107823490D01*
X136886503Y-107823490D02*
X136934122Y-107633014D01*
X136934122Y-107633014D02*
X136981741Y-107537776D01*
X136981741Y-107537776D02*
X137076979Y-107442538D01*
X137076979Y-107442538D02*
X137219836Y-107394919D01*
X137219836Y-107394919D02*
X137315074Y-107394919D01*
X137315074Y-107394919D02*
X137457931Y-107442538D01*
X137457931Y-107442538D02*
X137505550Y-107490157D01*
X137886503Y-108347300D02*
X138029360Y-108394919D01*
X138029360Y-108394919D02*
X138267455Y-108394919D01*
X138267455Y-108394919D02*
X138362693Y-108347300D01*
X138362693Y-108347300D02*
X138410312Y-108299680D01*
X138410312Y-108299680D02*
X138457931Y-108204442D01*
X138457931Y-108204442D02*
X138457931Y-108109204D01*
X138457931Y-108109204D02*
X138410312Y-108013966D01*
X138410312Y-108013966D02*
X138362693Y-107966347D01*
X138362693Y-107966347D02*
X138267455Y-107918728D01*
X138267455Y-107918728D02*
X138076979Y-107871109D01*
X138076979Y-107871109D02*
X137981741Y-107823490D01*
X137981741Y-107823490D02*
X137934122Y-107775871D01*
X137934122Y-107775871D02*
X137886503Y-107680633D01*
X137886503Y-107680633D02*
X137886503Y-107585395D01*
X137886503Y-107585395D02*
X137934122Y-107490157D01*
X137934122Y-107490157D02*
X137981741Y-107442538D01*
X137981741Y-107442538D02*
X138076979Y-107394919D01*
X138076979Y-107394919D02*
X138315074Y-107394919D01*
X138315074Y-107394919D02*
X138457931Y-107442538D01*
X60628884Y-95707419D02*
X60628884Y-94707419D01*
X60628884Y-94707419D02*
X61009836Y-94707419D01*
X61009836Y-94707419D02*
X61105074Y-94755038D01*
X61105074Y-94755038D02*
X61152693Y-94802657D01*
X61152693Y-94802657D02*
X61200312Y-94897895D01*
X61200312Y-94897895D02*
X61200312Y-95040752D01*
X61200312Y-95040752D02*
X61152693Y-95135990D01*
X61152693Y-95135990D02*
X61105074Y-95183609D01*
X61105074Y-95183609D02*
X61009836Y-95231228D01*
X61009836Y-95231228D02*
X60628884Y-95231228D01*
X61962217Y-95183609D02*
X62105074Y-95231228D01*
X62105074Y-95231228D02*
X62152693Y-95278847D01*
X62152693Y-95278847D02*
X62200312Y-95374085D01*
X62200312Y-95374085D02*
X62200312Y-95516942D01*
X62200312Y-95516942D02*
X62152693Y-95612180D01*
X62152693Y-95612180D02*
X62105074Y-95659800D01*
X62105074Y-95659800D02*
X62009836Y-95707419D01*
X62009836Y-95707419D02*
X61628884Y-95707419D01*
X61628884Y-95707419D02*
X61628884Y-94707419D01*
X61628884Y-94707419D02*
X61962217Y-94707419D01*
X61962217Y-94707419D02*
X62057455Y-94755038D01*
X62057455Y-94755038D02*
X62105074Y-94802657D01*
X62105074Y-94802657D02*
X62152693Y-94897895D01*
X62152693Y-94897895D02*
X62152693Y-94993133D01*
X62152693Y-94993133D02*
X62105074Y-95088371D01*
X62105074Y-95088371D02*
X62057455Y-95135990D01*
X62057455Y-95135990D02*
X61962217Y-95183609D01*
X61962217Y-95183609D02*
X61628884Y-95183609D01*
X62676503Y-95707419D02*
X62866979Y-95707419D01*
X62866979Y-95707419D02*
X62962217Y-95659800D01*
X62962217Y-95659800D02*
X63009836Y-95612180D01*
X63009836Y-95612180D02*
X63105074Y-95469323D01*
X63105074Y-95469323D02*
X63152693Y-95278847D01*
X63152693Y-95278847D02*
X63152693Y-94897895D01*
X63152693Y-94897895D02*
X63105074Y-94802657D01*
X63105074Y-94802657D02*
X63057455Y-94755038D01*
X63057455Y-94755038D02*
X62962217Y-94707419D01*
X62962217Y-94707419D02*
X62771741Y-94707419D01*
X62771741Y-94707419D02*
X62676503Y-94755038D01*
X62676503Y-94755038D02*
X62628884Y-94802657D01*
X62628884Y-94802657D02*
X62581265Y-94897895D01*
X62581265Y-94897895D02*
X62581265Y-95135990D01*
X62581265Y-95135990D02*
X62628884Y-95231228D01*
X62628884Y-95231228D02*
X62676503Y-95278847D01*
X62676503Y-95278847D02*
X62771741Y-95326466D01*
X62771741Y-95326466D02*
X62962217Y-95326466D01*
X62962217Y-95326466D02*
X63057455Y-95278847D01*
X63057455Y-95278847D02*
X63105074Y-95231228D01*
X63105074Y-95231228D02*
X63152693Y-95135990D01*
X60628884Y-118567419D02*
X60628884Y-117567419D01*
X60628884Y-117567419D02*
X61009836Y-117567419D01*
X61009836Y-117567419D02*
X61105074Y-117615038D01*
X61105074Y-117615038D02*
X61152693Y-117662657D01*
X61152693Y-117662657D02*
X61200312Y-117757895D01*
X61200312Y-117757895D02*
X61200312Y-117900752D01*
X61200312Y-117900752D02*
X61152693Y-117995990D01*
X61152693Y-117995990D02*
X61105074Y-118043609D01*
X61105074Y-118043609D02*
X61009836Y-118091228D01*
X61009836Y-118091228D02*
X60628884Y-118091228D01*
X61581265Y-118281704D02*
X62057455Y-118281704D01*
X61486027Y-118567419D02*
X61819360Y-117567419D01*
X61819360Y-117567419D02*
X62152693Y-118567419D01*
X63009836Y-118567419D02*
X62438408Y-118567419D01*
X62724122Y-118567419D02*
X62724122Y-117567419D01*
X62724122Y-117567419D02*
X62628884Y-117710276D01*
X62628884Y-117710276D02*
X62533646Y-117805514D01*
X62533646Y-117805514D02*
X62438408Y-117853133D01*
X60628884Y-110947419D02*
X60628884Y-109947419D01*
X60628884Y-109947419D02*
X61009836Y-109947419D01*
X61009836Y-109947419D02*
X61105074Y-109995038D01*
X61105074Y-109995038D02*
X61152693Y-110042657D01*
X61152693Y-110042657D02*
X61200312Y-110137895D01*
X61200312Y-110137895D02*
X61200312Y-110280752D01*
X61200312Y-110280752D02*
X61152693Y-110375990D01*
X61152693Y-110375990D02*
X61105074Y-110423609D01*
X61105074Y-110423609D02*
X61009836Y-110471228D01*
X61009836Y-110471228D02*
X60628884Y-110471228D01*
X62200312Y-110852180D02*
X62152693Y-110899800D01*
X62152693Y-110899800D02*
X62009836Y-110947419D01*
X62009836Y-110947419D02*
X61914598Y-110947419D01*
X61914598Y-110947419D02*
X61771741Y-110899800D01*
X61771741Y-110899800D02*
X61676503Y-110804561D01*
X61676503Y-110804561D02*
X61628884Y-110709323D01*
X61628884Y-110709323D02*
X61581265Y-110518847D01*
X61581265Y-110518847D02*
X61581265Y-110375990D01*
X61581265Y-110375990D02*
X61628884Y-110185514D01*
X61628884Y-110185514D02*
X61676503Y-110090276D01*
X61676503Y-110090276D02*
X61771741Y-109995038D01*
X61771741Y-109995038D02*
X61914598Y-109947419D01*
X61914598Y-109947419D02*
X62009836Y-109947419D01*
X62009836Y-109947419D02*
X62152693Y-109995038D01*
X62152693Y-109995038D02*
X62200312Y-110042657D01*
X62581265Y-110042657D02*
X62628884Y-109995038D01*
X62628884Y-109995038D02*
X62724122Y-109947419D01*
X62724122Y-109947419D02*
X62962217Y-109947419D01*
X62962217Y-109947419D02*
X63057455Y-109995038D01*
X63057455Y-109995038D02*
X63105074Y-110042657D01*
X63105074Y-110042657D02*
X63152693Y-110137895D01*
X63152693Y-110137895D02*
X63152693Y-110233133D01*
X63152693Y-110233133D02*
X63105074Y-110375990D01*
X63105074Y-110375990D02*
X62533646Y-110947419D01*
X62533646Y-110947419D02*
X63152693Y-110947419D01*
X136082693Y-94755038D02*
X135987455Y-94707419D01*
X135987455Y-94707419D02*
X135844598Y-94707419D01*
X135844598Y-94707419D02*
X135701741Y-94755038D01*
X135701741Y-94755038D02*
X135606503Y-94850276D01*
X135606503Y-94850276D02*
X135558884Y-94945514D01*
X135558884Y-94945514D02*
X135511265Y-95135990D01*
X135511265Y-95135990D02*
X135511265Y-95278847D01*
X135511265Y-95278847D02*
X135558884Y-95469323D01*
X135558884Y-95469323D02*
X135606503Y-95564561D01*
X135606503Y-95564561D02*
X135701741Y-95659800D01*
X135701741Y-95659800D02*
X135844598Y-95707419D01*
X135844598Y-95707419D02*
X135939836Y-95707419D01*
X135939836Y-95707419D02*
X136082693Y-95659800D01*
X136082693Y-95659800D02*
X136130312Y-95612180D01*
X136130312Y-95612180D02*
X136130312Y-95278847D01*
X136130312Y-95278847D02*
X135939836Y-95278847D01*
X136558884Y-95707419D02*
X136558884Y-94707419D01*
X136558884Y-94707419D02*
X137130312Y-95707419D01*
X137130312Y-95707419D02*
X137130312Y-94707419D01*
X137606503Y-95707419D02*
X137606503Y-94707419D01*
X137606503Y-94707419D02*
X137844598Y-94707419D01*
X137844598Y-94707419D02*
X137987455Y-94755038D01*
X137987455Y-94755038D02*
X138082693Y-94850276D01*
X138082693Y-94850276D02*
X138130312Y-94945514D01*
X138130312Y-94945514D02*
X138177931Y-95135990D01*
X138177931Y-95135990D02*
X138177931Y-95278847D01*
X138177931Y-95278847D02*
X138130312Y-95469323D01*
X138130312Y-95469323D02*
X138082693Y-95564561D01*
X138082693Y-95564561D02*
X137987455Y-95659800D01*
X137987455Y-95659800D02*
X137844598Y-95707419D01*
X137844598Y-95707419D02*
X137606503Y-95707419D01*
X72011265Y-108359800D02*
X72154122Y-108407419D01*
X72154122Y-108407419D02*
X72392217Y-108407419D01*
X72392217Y-108407419D02*
X72487455Y-108359800D01*
X72487455Y-108359800D02*
X72535074Y-108312180D01*
X72535074Y-108312180D02*
X72582693Y-108216942D01*
X72582693Y-108216942D02*
X72582693Y-108121704D01*
X72582693Y-108121704D02*
X72535074Y-108026466D01*
X72535074Y-108026466D02*
X72487455Y-107978847D01*
X72487455Y-107978847D02*
X72392217Y-107931228D01*
X72392217Y-107931228D02*
X72201741Y-107883609D01*
X72201741Y-107883609D02*
X72106503Y-107835990D01*
X72106503Y-107835990D02*
X72058884Y-107788371D01*
X72058884Y-107788371D02*
X72011265Y-107693133D01*
X72011265Y-107693133D02*
X72011265Y-107597895D01*
X72011265Y-107597895D02*
X72058884Y-107502657D01*
X72058884Y-107502657D02*
X72106503Y-107455038D01*
X72106503Y-107455038D02*
X72201741Y-107407419D01*
X72201741Y-107407419D02*
X72439836Y-107407419D01*
X72439836Y-107407419D02*
X72582693Y-107455038D01*
X73201741Y-107407419D02*
X73392217Y-107407419D01*
X73392217Y-107407419D02*
X73487455Y-107455038D01*
X73487455Y-107455038D02*
X73582693Y-107550276D01*
X73582693Y-107550276D02*
X73630312Y-107740752D01*
X73630312Y-107740752D02*
X73630312Y-108074085D01*
X73630312Y-108074085D02*
X73582693Y-108264561D01*
X73582693Y-108264561D02*
X73487455Y-108359800D01*
X73487455Y-108359800D02*
X73392217Y-108407419D01*
X73392217Y-108407419D02*
X73201741Y-108407419D01*
X73201741Y-108407419D02*
X73106503Y-108359800D01*
X73106503Y-108359800D02*
X73011265Y-108264561D01*
X73011265Y-108264561D02*
X72963646Y-108074085D01*
X72963646Y-108074085D02*
X72963646Y-107740752D01*
X72963646Y-107740752D02*
X73011265Y-107550276D01*
X73011265Y-107550276D02*
X73106503Y-107455038D01*
X73106503Y-107455038D02*
X73201741Y-107407419D01*
X72630312Y-113392180D02*
X72582693Y-113439800D01*
X72582693Y-113439800D02*
X72439836Y-113487419D01*
X72439836Y-113487419D02*
X72344598Y-113487419D01*
X72344598Y-113487419D02*
X72201741Y-113439800D01*
X72201741Y-113439800D02*
X72106503Y-113344561D01*
X72106503Y-113344561D02*
X72058884Y-113249323D01*
X72058884Y-113249323D02*
X72011265Y-113058847D01*
X72011265Y-113058847D02*
X72011265Y-112915990D01*
X72011265Y-112915990D02*
X72058884Y-112725514D01*
X72058884Y-112725514D02*
X72106503Y-112630276D01*
X72106503Y-112630276D02*
X72201741Y-112535038D01*
X72201741Y-112535038D02*
X72344598Y-112487419D01*
X72344598Y-112487419D02*
X72439836Y-112487419D01*
X72439836Y-112487419D02*
X72582693Y-112535038D01*
X72582693Y-112535038D02*
X72630312Y-112582657D01*
X73011265Y-113439800D02*
X73154122Y-113487419D01*
X73154122Y-113487419D02*
X73392217Y-113487419D01*
X73392217Y-113487419D02*
X73487455Y-113439800D01*
X73487455Y-113439800D02*
X73535074Y-113392180D01*
X73535074Y-113392180D02*
X73582693Y-113296942D01*
X73582693Y-113296942D02*
X73582693Y-113201704D01*
X73582693Y-113201704D02*
X73535074Y-113106466D01*
X73535074Y-113106466D02*
X73487455Y-113058847D01*
X73487455Y-113058847D02*
X73392217Y-113011228D01*
X73392217Y-113011228D02*
X73201741Y-112963609D01*
X73201741Y-112963609D02*
X73106503Y-112915990D01*
X73106503Y-112915990D02*
X73058884Y-112868371D01*
X73058884Y-112868371D02*
X73011265Y-112773133D01*
X73011265Y-112773133D02*
X73011265Y-112677895D01*
X73011265Y-112677895D02*
X73058884Y-112582657D01*
X73058884Y-112582657D02*
X73106503Y-112535038D01*
X73106503Y-112535038D02*
X73201741Y-112487419D01*
X73201741Y-112487419D02*
X73439836Y-112487419D01*
X73439836Y-112487419D02*
X73582693Y-112535038D01*
X61015714Y-77879800D02*
X61158571Y-77927419D01*
X61158571Y-77927419D02*
X61396666Y-77927419D01*
X61396666Y-77927419D02*
X61491904Y-77879800D01*
X61491904Y-77879800D02*
X61539523Y-77832180D01*
X61539523Y-77832180D02*
X61587142Y-77736942D01*
X61587142Y-77736942D02*
X61587142Y-77641704D01*
X61587142Y-77641704D02*
X61539523Y-77546466D01*
X61539523Y-77546466D02*
X61491904Y-77498847D01*
X61491904Y-77498847D02*
X61396666Y-77451228D01*
X61396666Y-77451228D02*
X61206190Y-77403609D01*
X61206190Y-77403609D02*
X61110952Y-77355990D01*
X61110952Y-77355990D02*
X61063333Y-77308371D01*
X61063333Y-77308371D02*
X61015714Y-77213133D01*
X61015714Y-77213133D02*
X61015714Y-77117895D01*
X61015714Y-77117895D02*
X61063333Y-77022657D01*
X61063333Y-77022657D02*
X61110952Y-76975038D01*
X61110952Y-76975038D02*
X61206190Y-76927419D01*
X61206190Y-76927419D02*
X61444285Y-76927419D01*
X61444285Y-76927419D02*
X61587142Y-76975038D01*
X62015714Y-77927419D02*
X62015714Y-76927419D01*
X62015714Y-76927419D02*
X62253809Y-76927419D01*
X62253809Y-76927419D02*
X62396666Y-76975038D01*
X62396666Y-76975038D02*
X62491904Y-77070276D01*
X62491904Y-77070276D02*
X62539523Y-77165514D01*
X62539523Y-77165514D02*
X62587142Y-77355990D01*
X62587142Y-77355990D02*
X62587142Y-77498847D01*
X62587142Y-77498847D02*
X62539523Y-77689323D01*
X62539523Y-77689323D02*
X62491904Y-77784561D01*
X62491904Y-77784561D02*
X62396666Y-77879800D01*
X62396666Y-77879800D02*
X62253809Y-77927419D01*
X62253809Y-77927419D02*
X62015714Y-77927419D01*
X62968095Y-77641704D02*
X63444285Y-77641704D01*
X62872857Y-77927419D02*
X63206190Y-76927419D01*
X63206190Y-76927419D02*
X63539523Y-77927419D01*
X98517419Y-128541741D02*
X98517419Y-128351265D01*
X98517419Y-128351265D02*
X98565038Y-128256027D01*
X98565038Y-128256027D02*
X98660276Y-128160789D01*
X98660276Y-128160789D02*
X98850752Y-128113170D01*
X98850752Y-128113170D02*
X99184085Y-128113170D01*
X99184085Y-128113170D02*
X99374561Y-128160789D01*
X99374561Y-128160789D02*
X99469800Y-128256027D01*
X99469800Y-128256027D02*
X99517419Y-128351265D01*
X99517419Y-128351265D02*
X99517419Y-128541741D01*
X99517419Y-128541741D02*
X99469800Y-128636979D01*
X99469800Y-128636979D02*
X99374561Y-128732217D01*
X99374561Y-128732217D02*
X99184085Y-128779836D01*
X99184085Y-128779836D02*
X98850752Y-128779836D01*
X98850752Y-128779836D02*
X98660276Y-128732217D01*
X98660276Y-128732217D02*
X98565038Y-128636979D01*
X98565038Y-128636979D02*
X98517419Y-128541741D01*
X98517419Y-127684598D02*
X99326942Y-127684598D01*
X99326942Y-127684598D02*
X99422180Y-127636979D01*
X99422180Y-127636979D02*
X99469800Y-127589360D01*
X99469800Y-127589360D02*
X99517419Y-127494122D01*
X99517419Y-127494122D02*
X99517419Y-127303646D01*
X99517419Y-127303646D02*
X99469800Y-127208408D01*
X99469800Y-127208408D02*
X99422180Y-127160789D01*
X99422180Y-127160789D02*
X99326942Y-127113170D01*
X99326942Y-127113170D02*
X98517419Y-127113170D01*
X98517419Y-126779836D02*
X98517419Y-126208408D01*
X99517419Y-126494122D02*
X98517419Y-126494122D01*
X98612657Y-125922693D02*
X98565038Y-125875074D01*
X98565038Y-125875074D02*
X98517419Y-125779836D01*
X98517419Y-125779836D02*
X98517419Y-125541741D01*
X98517419Y-125541741D02*
X98565038Y-125446503D01*
X98565038Y-125446503D02*
X98612657Y-125398884D01*
X98612657Y-125398884D02*
X98707895Y-125351265D01*
X98707895Y-125351265D02*
X98803133Y-125351265D01*
X98803133Y-125351265D02*
X98945990Y-125398884D01*
X98945990Y-125398884D02*
X99517419Y-125970312D01*
X99517419Y-125970312D02*
X99517419Y-125351265D01*
D11*
X114387079Y-84560424D02*
X113814659Y-85132844D01*
X113814659Y-85132844D02*
X113780987Y-85233859D01*
X113780987Y-85233859D02*
X113780987Y-85301203D01*
X113780987Y-85301203D02*
X113814659Y-85402218D01*
X113814659Y-85402218D02*
X113949346Y-85536905D01*
X113949346Y-85536905D02*
X114050361Y-85570577D01*
X114050361Y-85570577D02*
X114117705Y-85570577D01*
X114117705Y-85570577D02*
X114218720Y-85536905D01*
X114218720Y-85536905D02*
X114791140Y-84964485D01*
X115195201Y-85839951D02*
X114723796Y-86311355D01*
X115296216Y-85402218D02*
X114622781Y-85738936D01*
X114622781Y-85738936D02*
X115060514Y-86176668D01*
X82895750Y-83338246D02*
X83468170Y-83910666D01*
X83468170Y-83910666D02*
X83569185Y-83944338D01*
X83569185Y-83944338D02*
X83636529Y-83944338D01*
X83636529Y-83944338D02*
X83737544Y-83910666D01*
X83737544Y-83910666D02*
X83872231Y-83775979D01*
X83872231Y-83775979D02*
X83905903Y-83674964D01*
X83905903Y-83674964D02*
X83905903Y-83607620D01*
X83905903Y-83607620D02*
X83872231Y-83506605D01*
X83872231Y-83506605D02*
X83299811Y-82934185D01*
X83569185Y-82664811D02*
X84006918Y-82227079D01*
X84006918Y-82227079D02*
X84040590Y-82732155D01*
X84040590Y-82732155D02*
X84141605Y-82631140D01*
X84141605Y-82631140D02*
X84242620Y-82597468D01*
X84242620Y-82597468D02*
X84309964Y-82597468D01*
X84309964Y-82597468D02*
X84410979Y-82631140D01*
X84410979Y-82631140D02*
X84579338Y-82799498D01*
X84579338Y-82799498D02*
X84613010Y-82900514D01*
X84613010Y-82900514D02*
X84613010Y-82967857D01*
X84613010Y-82967857D02*
X84579338Y-83068872D01*
X84579338Y-83068872D02*
X84377307Y-83270903D01*
X84377307Y-83270903D02*
X84276292Y-83304575D01*
X84276292Y-83304575D02*
X84208949Y-83304575D01*
X84328095Y-108506819D02*
X84328095Y-109316342D01*
X84328095Y-109316342D02*
X84375714Y-109411580D01*
X84375714Y-109411580D02*
X84423333Y-109459200D01*
X84423333Y-109459200D02*
X84518571Y-109506819D01*
X84518571Y-109506819D02*
X84709047Y-109506819D01*
X84709047Y-109506819D02*
X84804285Y-109459200D01*
X84804285Y-109459200D02*
X84851904Y-109411580D01*
X84851904Y-109411580D02*
X84899523Y-109316342D01*
X84899523Y-109316342D02*
X84899523Y-108506819D01*
X85804285Y-108506819D02*
X85613809Y-108506819D01*
X85613809Y-108506819D02*
X85518571Y-108554438D01*
X85518571Y-108554438D02*
X85470952Y-108602057D01*
X85470952Y-108602057D02*
X85375714Y-108744914D01*
X85375714Y-108744914D02*
X85328095Y-108935390D01*
X85328095Y-108935390D02*
X85328095Y-109316342D01*
X85328095Y-109316342D02*
X85375714Y-109411580D01*
X85375714Y-109411580D02*
X85423333Y-109459200D01*
X85423333Y-109459200D02*
X85518571Y-109506819D01*
X85518571Y-109506819D02*
X85709047Y-109506819D01*
X85709047Y-109506819D02*
X85804285Y-109459200D01*
X85804285Y-109459200D02*
X85851904Y-109411580D01*
X85851904Y-109411580D02*
X85899523Y-109316342D01*
X85899523Y-109316342D02*
X85899523Y-109078247D01*
X85899523Y-109078247D02*
X85851904Y-108983009D01*
X85851904Y-108983009D02*
X85804285Y-108935390D01*
X85804285Y-108935390D02*
X85709047Y-108887771D01*
X85709047Y-108887771D02*
X85518571Y-108887771D01*
X85518571Y-108887771D02*
X85423333Y-108935390D01*
X85423333Y-108935390D02*
X85375714Y-108983009D01*
X85375714Y-108983009D02*
X85328095Y-109078247D01*
X132540476Y-72004819D02*
X132540476Y-72719104D01*
X132540476Y-72719104D02*
X132492857Y-72861961D01*
X132492857Y-72861961D02*
X132397619Y-72957200D01*
X132397619Y-72957200D02*
X132254762Y-73004819D01*
X132254762Y-73004819D02*
X132159524Y-73004819D01*
X133540476Y-73004819D02*
X132969048Y-73004819D01*
X133254762Y-73004819D02*
X133254762Y-72004819D01*
X133254762Y-72004819D02*
X133159524Y-72147676D01*
X133159524Y-72147676D02*
X133064286Y-72242914D01*
X133064286Y-72242914D02*
X132969048Y-72290533D01*
X134492857Y-73004819D02*
X133921429Y-73004819D01*
X134207143Y-73004819D02*
X134207143Y-72004819D01*
X134207143Y-72004819D02*
X134111905Y-72147676D01*
X134111905Y-72147676D02*
X134016667Y-72242914D01*
X134016667Y-72242914D02*
X133921429Y-72290533D01*
%TO.C,D3*%
X95560000Y-70270000D02*
X97480000Y-70270000D01*
X97480000Y-70270000D02*
X97480000Y-67580000D01*
X95560000Y-67580000D02*
X95560000Y-70270000D01*
%TO.C,U5*%
X102510000Y-108485000D02*
X102510000Y-113765000D01*
X98150000Y-108485000D02*
X102510000Y-108485000D01*
X102510000Y-113765000D02*
X98150000Y-113765000D01*
X98150000Y-113765000D02*
X98150000Y-108485000D01*
X97860000Y-108625000D02*
G75*
G02*
X97800000Y-108625000I-30000J0D01*
G01*
X97800000Y-108625000D02*
G75*
G02*
X97860000Y-108625000I30000J0D01*
G01*
%TO.C,U2*%
X130965000Y-63835000D02*
X130965000Y-66775000D01*
X124305000Y-63835000D02*
X130965000Y-63835000D01*
X130965000Y-66775000D02*
X124305000Y-66775000D01*
X124305000Y-66775000D02*
X124305000Y-63835000D01*
X124665000Y-67155000D02*
G75*
G02*
X124605000Y-67155000I-30000J0D01*
G01*
X124605000Y-67155000D02*
G75*
G02*
X124665000Y-67155000I30000J0D01*
G01*
%TO.C,D5*%
X105100000Y-121170000D02*
X103180000Y-121170000D01*
X103180000Y-121170000D02*
X103180000Y-123860000D01*
X105100000Y-123860000D02*
X105100000Y-121170000D01*
D12*
%TO.C,JP1*%
X125278800Y-75749200D02*
X125878800Y-75749200D01*
X126578800Y-76449200D02*
X126578800Y-77849200D01*
X124578800Y-77849200D02*
X124578800Y-76449200D01*
X125878800Y-78549200D02*
X125278800Y-78549200D01*
X125878800Y-75749200D02*
G75*
G02*
X126578800Y-76449200I1J-699999D01*
G01*
X124578800Y-76449200D02*
G75*
G02*
X125278800Y-75749200I699999J1D01*
G01*
X126578800Y-77849200D02*
G75*
G02*
X125878800Y-78549200I-700000J0D01*
G01*
X125278800Y-78549200D02*
G75*
G02*
X124578800Y-77849200I0J700000D01*
G01*
D11*
%TO.C,D2*%
X98100000Y-70270000D02*
X100020000Y-70270000D01*
X100020000Y-70270000D02*
X100020000Y-67580000D01*
X98100000Y-67580000D02*
X98100000Y-70270000D01*
D12*
%TO.C,J4*%
X68470000Y-121810000D02*
X69850000Y-121810000D01*
X68470000Y-123190000D02*
X68470000Y-121810000D01*
X68470000Y-124460000D02*
X68470000Y-127110000D01*
X68470000Y-124460000D02*
X71230000Y-124460000D01*
X68470000Y-127110000D02*
X71230000Y-127110000D01*
X71230000Y-124460000D02*
X71230000Y-127110000D01*
%TO.C,J10*%
X134730000Y-91550000D02*
X133350000Y-91550000D01*
X134730000Y-90170000D02*
X134730000Y-91550000D01*
X134730000Y-88900000D02*
X134730000Y-83710000D01*
X134730000Y-88900000D02*
X131970000Y-88900000D01*
X134730000Y-83710000D02*
X131970000Y-83710000D01*
X131970000Y-88900000D02*
X131970000Y-83710000D01*
%TO.C,SW1*%
X125890000Y-97980000D02*
X125890000Y-99290000D01*
X125890000Y-97980000D02*
X127273000Y-97980000D01*
X126130000Y-98220000D02*
X126130000Y-99290000D01*
X126130000Y-98220000D02*
X132950000Y-98220000D01*
X126130000Y-101370000D02*
X126130000Y-101910000D01*
X126130000Y-103830000D02*
X126130000Y-104450000D01*
X126130000Y-106370000D02*
X126130000Y-106990000D01*
X126130000Y-108910000D02*
X126130000Y-109530000D01*
X126130000Y-111450000D02*
X126130000Y-112070000D01*
X126130000Y-113990000D02*
X126130000Y-114610000D01*
X126130000Y-116530000D02*
X126130000Y-117150000D01*
X126130000Y-119070000D02*
X126130000Y-120220000D01*
X126130000Y-120220000D02*
X132950000Y-120220000D01*
X128936667Y-99695000D02*
X128936667Y-100965000D01*
X128936667Y-102235000D02*
X128936667Y-103505000D01*
X128936667Y-104775000D02*
X128936667Y-106045000D01*
X128936667Y-107315000D02*
X128936667Y-108585000D01*
X128936667Y-109855000D02*
X128936667Y-111125000D01*
X128936667Y-112395000D02*
X128936667Y-113665000D01*
X128936667Y-114935000D02*
X128936667Y-116205000D01*
X128936667Y-117475000D02*
X128936667Y-118745000D01*
X132950000Y-98220000D02*
X132950000Y-99370000D01*
X132950000Y-101290000D02*
X132950000Y-101910000D01*
X132950000Y-103830000D02*
X132950000Y-104450000D01*
X132950000Y-106370000D02*
X132950000Y-106990000D01*
X132950000Y-108910000D02*
X132950000Y-109530000D01*
X132950000Y-111450000D02*
X132950000Y-112070000D01*
X132950000Y-113990000D02*
X132950000Y-114610000D01*
X132950000Y-116530000D02*
X132950000Y-117150000D01*
X132950000Y-119070000D02*
X132950000Y-120220000D01*
X127730000Y-99695000D02*
X128936667Y-99695000D01*
X128936667Y-100965000D01*
X127730000Y-100965000D01*
X127730000Y-99695000D01*
G36*
X127730000Y-99695000D02*
G01*
X128936667Y-99695000D01*
X128936667Y-100965000D01*
X127730000Y-100965000D01*
X127730000Y-99695000D01*
G37*
X127730000Y-99695000D02*
X131350000Y-99695000D01*
X131350000Y-100965000D01*
X127730000Y-100965000D01*
X127730000Y-99695000D01*
X127730000Y-102235000D02*
X128936667Y-102235000D01*
X128936667Y-103505000D01*
X127730000Y-103505000D01*
X127730000Y-102235000D01*
G36*
X127730000Y-102235000D02*
G01*
X128936667Y-102235000D01*
X128936667Y-103505000D01*
X127730000Y-103505000D01*
X127730000Y-102235000D01*
G37*
X127730000Y-102235000D02*
X131350000Y-102235000D01*
X131350000Y-103505000D01*
X127730000Y-103505000D01*
X127730000Y-102235000D01*
X127730000Y-104775000D02*
X128936667Y-104775000D01*
X128936667Y-106045000D01*
X127730000Y-106045000D01*
X127730000Y-104775000D01*
G36*
X127730000Y-104775000D02*
G01*
X128936667Y-104775000D01*
X128936667Y-106045000D01*
X127730000Y-106045000D01*
X127730000Y-104775000D01*
G37*
X127730000Y-104775000D02*
X131350000Y-104775000D01*
X131350000Y-106045000D01*
X127730000Y-106045000D01*
X127730000Y-104775000D01*
X127730000Y-107315000D02*
X128936667Y-107315000D01*
X128936667Y-108585000D01*
X127730000Y-108585000D01*
X127730000Y-107315000D01*
G36*
X127730000Y-107315000D02*
G01*
X128936667Y-107315000D01*
X128936667Y-108585000D01*
X127730000Y-108585000D01*
X127730000Y-107315000D01*
G37*
X127730000Y-107315000D02*
X131350000Y-107315000D01*
X131350000Y-108585000D01*
X127730000Y-108585000D01*
X127730000Y-107315000D01*
X127730000Y-109855000D02*
X128936667Y-109855000D01*
X128936667Y-111125000D01*
X127730000Y-111125000D01*
X127730000Y-109855000D01*
G36*
X127730000Y-109855000D02*
G01*
X128936667Y-109855000D01*
X128936667Y-111125000D01*
X127730000Y-111125000D01*
X127730000Y-109855000D01*
G37*
X127730000Y-109855000D02*
X131350000Y-109855000D01*
X131350000Y-111125000D01*
X127730000Y-111125000D01*
X127730000Y-109855000D01*
X127730000Y-112395000D02*
X128936667Y-112395000D01*
X128936667Y-113665000D01*
X127730000Y-113665000D01*
X127730000Y-112395000D01*
G36*
X127730000Y-112395000D02*
G01*
X128936667Y-112395000D01*
X128936667Y-113665000D01*
X127730000Y-113665000D01*
X127730000Y-112395000D01*
G37*
X127730000Y-112395000D02*
X131350000Y-112395000D01*
X131350000Y-113665000D01*
X127730000Y-113665000D01*
X127730000Y-112395000D01*
X127730000Y-114935000D02*
X128936667Y-114935000D01*
X128936667Y-116205000D01*
X127730000Y-116205000D01*
X127730000Y-114935000D01*
G36*
X127730000Y-114935000D02*
G01*
X128936667Y-114935000D01*
X128936667Y-116205000D01*
X127730000Y-116205000D01*
X127730000Y-114935000D01*
G37*
X127730000Y-114935000D02*
X131350000Y-114935000D01*
X131350000Y-116205000D01*
X127730000Y-116205000D01*
X127730000Y-114935000D01*
X127730000Y-117475000D02*
X128936667Y-117475000D01*
X128936667Y-118745000D01*
X127730000Y-118745000D01*
X127730000Y-117475000D01*
G36*
X127730000Y-117475000D02*
G01*
X128936667Y-117475000D01*
X128936667Y-118745000D01*
X127730000Y-118745000D01*
X127730000Y-117475000D01*
G37*
X127730000Y-117475000D02*
X131350000Y-117475000D01*
X131350000Y-118745000D01*
X127730000Y-118745000D01*
X127730000Y-117475000D01*
D11*
%TO.C,D7*%
X100020000Y-121170000D02*
X98100000Y-121170000D01*
X98100000Y-121170000D02*
X98100000Y-123860000D01*
X100020000Y-123860000D02*
X100020000Y-121170000D01*
%TO.C,D4*%
X105100000Y-66890000D02*
X103180000Y-66890000D01*
X103180000Y-66890000D02*
X103180000Y-69580000D01*
X105100000Y-69580000D02*
X105100000Y-66890000D01*
%TO.C,S3*%
X86460000Y-124470000D02*
X88800000Y-124470000D01*
X89290000Y-124090000D02*
X90180000Y-123200000D01*
X86630000Y-123720000D02*
X85830000Y-122920000D01*
X88630000Y-123720000D02*
X86630000Y-123720000D01*
X85080000Y-123200000D02*
X85970000Y-124090000D01*
X85080000Y-123200000D02*
X85080000Y-120640000D01*
X90180000Y-123200000D02*
X90180000Y-120640000D01*
X85830000Y-122920000D02*
X85830000Y-121020000D01*
X89530000Y-122820000D02*
X88630000Y-123720000D01*
X89530000Y-121120000D02*
X89530000Y-122820000D01*
X85830000Y-121020000D02*
X86730000Y-120120000D01*
X85080000Y-120640000D02*
X85970000Y-119750000D01*
X86730000Y-120120000D02*
X88530000Y-120120000D01*
X88530000Y-120120000D02*
X89530000Y-121120000D01*
X89290000Y-119750000D02*
X90180000Y-120640000D01*
X86460000Y-119370000D02*
X88800000Y-119370000D01*
X85160000Y-125170000D02*
G75*
G02*
X85100000Y-125170000I-30000J0D01*
G01*
X85100000Y-125170000D02*
G75*
G02*
X85160000Y-125170000I30000J0D01*
G01*
X88910000Y-121920000D02*
G75*
G02*
X86350000Y-121920000I-1280000J0D01*
G01*
X86350000Y-121920000D02*
G75*
G02*
X88910000Y-121920000I1280000J0D01*
G01*
%TO.C,U1*%
X76355000Y-63835000D02*
X76355000Y-66775000D01*
X69695000Y-63835000D02*
X76355000Y-63835000D01*
X76355000Y-66775000D02*
X69695000Y-66775000D01*
X69695000Y-66775000D02*
X69695000Y-63835000D01*
X70055000Y-67155000D02*
G75*
G02*
X69995000Y-67155000I-30000J0D01*
G01*
X69995000Y-67155000D02*
G75*
G02*
X70055000Y-67155000I30000J0D01*
G01*
%TO.C,S1*%
X81815000Y-66030000D02*
X79475000Y-66030000D01*
X78985000Y-66410000D02*
X78095000Y-67300000D01*
X81645000Y-66780000D02*
X82445000Y-67580000D01*
X79645000Y-66780000D02*
X81645000Y-66780000D01*
X83195000Y-67300000D02*
X82305000Y-66410000D01*
X83195000Y-67300000D02*
X83195000Y-69860000D01*
X78095000Y-67300000D02*
X78095000Y-69860000D01*
X82445000Y-67580000D02*
X82445000Y-69480000D01*
X78745000Y-67680000D02*
X79645000Y-66780000D01*
X78745000Y-69380000D02*
X78745000Y-67680000D01*
X82445000Y-69480000D02*
X81545000Y-70380000D01*
X83195000Y-69860000D02*
X82305000Y-70750000D01*
X81545000Y-70380000D02*
X79745000Y-70380000D01*
X79745000Y-70380000D02*
X78745000Y-69380000D01*
X78985000Y-70750000D02*
X78095000Y-69860000D01*
X81815000Y-71130000D02*
X79475000Y-71130000D01*
X83175000Y-65330000D02*
G75*
G02*
X83115000Y-65330000I-30000J0D01*
G01*
X83115000Y-65330000D02*
G75*
G02*
X83175000Y-65330000I30000J0D01*
G01*
X81925000Y-68580000D02*
G75*
G02*
X79365000Y-68580000I-1280000J0D01*
G01*
X79365000Y-68580000D02*
G75*
G02*
X81925000Y-68580000I1280000J0D01*
G01*
D12*
%TO.C,J7*%
X130920000Y-123080000D02*
X130920000Y-124460000D01*
X129540000Y-123080000D02*
X130920000Y-123080000D01*
X128270000Y-123080000D02*
X120540000Y-123080000D01*
X128270000Y-123080000D02*
X128270000Y-125840000D01*
X120540000Y-123080000D02*
X120540000Y-125840000D01*
X128270000Y-125840000D02*
X120540000Y-125840000D01*
D11*
%TO.C,S4*%
X108685000Y-124470000D02*
X111025000Y-124470000D01*
X111515000Y-124090000D02*
X112405000Y-123200000D01*
X108855000Y-123720000D02*
X108055000Y-122920000D01*
X110855000Y-123720000D02*
X108855000Y-123720000D01*
X107305000Y-123200000D02*
X108195000Y-124090000D01*
X107305000Y-123200000D02*
X107305000Y-120640000D01*
X112405000Y-123200000D02*
X112405000Y-120640000D01*
X108055000Y-122920000D02*
X108055000Y-121020000D01*
X111755000Y-122820000D02*
X110855000Y-123720000D01*
X111755000Y-121120000D02*
X111755000Y-122820000D01*
X108055000Y-121020000D02*
X108955000Y-120120000D01*
X107305000Y-120640000D02*
X108195000Y-119750000D01*
X108955000Y-120120000D02*
X110755000Y-120120000D01*
X110755000Y-120120000D02*
X111755000Y-121120000D01*
X111515000Y-119750000D02*
X112405000Y-120640000D01*
X108685000Y-119370000D02*
X111025000Y-119370000D01*
X107385000Y-125170000D02*
G75*
G02*
X107325000Y-125170000I-30000J0D01*
G01*
X107325000Y-125170000D02*
G75*
G02*
X107385000Y-125170000I30000J0D01*
G01*
X111135000Y-121920000D02*
G75*
G02*
X108575000Y-121920000I-1280000J0D01*
G01*
X108575000Y-121920000D02*
G75*
G02*
X111135000Y-121920000I1280000J0D01*
G01*
D12*
%TO.C,U4*%
X110789124Y-84130565D02*
X110955294Y-83964395D01*
X106019689Y-88900000D02*
X106355565Y-88564124D01*
X111460876Y-84130565D02*
X111337132Y-84006821D01*
X106355565Y-89235876D02*
X106019689Y-88900000D01*
X115894435Y-88564124D02*
X116230311Y-88900000D01*
X110789124Y-93669435D02*
X111125000Y-94005311D01*
X116230311Y-88900000D02*
X115894435Y-89235876D01*
X111125000Y-94005311D02*
X111460876Y-93669435D01*
X111528051Y-83731049D02*
X111125000Y-83794689D01*
X111188640Y-83391638D01*
X111528051Y-83731049D01*
G36*
X111528051Y-83731049D02*
G01*
X111125000Y-83794689D01*
X111188640Y-83391638D01*
X111528051Y-83731049D01*
G37*
D11*
%TO.C,X1*%
X78348299Y-94718274D02*
X77393705Y-95672868D01*
X77393705Y-95672868D02*
X78525076Y-96804239D01*
%TO.C,Q1*%
X98770000Y-76200000D02*
X98770000Y-76850000D01*
X98770000Y-76200000D02*
X98770000Y-75550000D01*
X101890000Y-76200000D02*
X101890000Y-76850000D01*
X101890000Y-76200000D02*
X101890000Y-75550000D01*
D12*
X98820000Y-77362500D02*
X98490000Y-77602500D01*
X98490000Y-77122500D01*
X98820000Y-77362500D01*
G36*
X98820000Y-77362500D02*
G01*
X98490000Y-77602500D01*
X98490000Y-77122500D01*
X98820000Y-77362500D01*
G37*
%TO.C,J2*%
X64660000Y-78630000D02*
X66040000Y-78630000D01*
X64660000Y-80010000D02*
X64660000Y-78630000D01*
X64660000Y-81280000D02*
X64660000Y-119490000D01*
X64660000Y-81280000D02*
X67420000Y-81280000D01*
X64660000Y-119490000D02*
X67420000Y-119490000D01*
X67420000Y-81280000D02*
X67420000Y-119490000D01*
D11*
%TO.C,D8*%
X97480000Y-121170000D02*
X95560000Y-121170000D01*
X95560000Y-121170000D02*
X95560000Y-123860000D01*
X97480000Y-123860000D02*
X97480000Y-121170000D01*
D12*
%TO.C,JP6*%
X103362183Y-100897082D02*
X102937918Y-100472817D01*
X102937918Y-99482868D02*
X103927868Y-98492918D01*
X105342082Y-99907132D02*
X104352132Y-100897082D01*
X104917817Y-98492918D02*
X105342082Y-98917183D01*
X102937918Y-100472817D02*
G75*
G02*
X102937918Y-99482869I494974J494974D01*
G01*
X104352132Y-100897082D02*
G75*
G02*
X103362182Y-100897083I-494975J494974D01*
G01*
X103927868Y-98492918D02*
G75*
G02*
X104917817Y-98492917I494975J-494975D01*
G01*
X105342082Y-98917183D02*
G75*
G02*
X105342082Y-99907132I-494975J-494974D01*
G01*
D11*
%TO.C,D1*%
X100640000Y-70270000D02*
X102560000Y-70270000D01*
X102560000Y-70270000D02*
X102560000Y-67580000D01*
X100640000Y-67580000D02*
X100640000Y-70270000D01*
%TO.C,D6*%
X102560000Y-121170000D02*
X100640000Y-121170000D01*
X100640000Y-121170000D02*
X100640000Y-123860000D01*
X102560000Y-123860000D02*
X102560000Y-121170000D01*
D12*
%TO.C,JP3*%
X91507918Y-102727183D02*
X91932183Y-102302918D01*
X92922132Y-102302918D02*
X93912082Y-103292868D01*
X92497868Y-104707082D02*
X91507918Y-103717132D01*
X93912082Y-104282817D02*
X93487817Y-104707082D01*
X91932183Y-102302918D02*
G75*
G02*
X92922131Y-102302918I494974J-494974D01*
G01*
X91507918Y-103717132D02*
G75*
G02*
X91507917Y-102727182I494974J494975D01*
G01*
X93912082Y-103292868D02*
G75*
G02*
X93912083Y-104282817I-494975J-494975D01*
G01*
X93487817Y-104707082D02*
G75*
G02*
X92497868Y-104707082I-494974J494975D01*
G01*
%TO.C,JP9*%
X107172183Y-104707082D02*
X106747918Y-104282817D01*
X106747918Y-103292868D02*
X107737868Y-102302918D01*
X109152082Y-103717132D02*
X108162132Y-104707082D01*
X108727817Y-102302918D02*
X109152082Y-102727183D01*
X106747918Y-104282817D02*
G75*
G02*
X106747918Y-103292869I494974J494974D01*
G01*
X108162132Y-104707082D02*
G75*
G02*
X107172182Y-104707083I-494975J494974D01*
G01*
X107737868Y-102302918D02*
G75*
G02*
X108727817Y-102302917I494975J-494975D01*
G01*
X109152082Y-102727183D02*
G75*
G02*
X109152082Y-103717132I-494975J-494974D01*
G01*
%TO.C,U3*%
X82308369Y-88900000D02*
X82980120Y-89571751D01*
X89535000Y-96126631D02*
X88863249Y-95454880D01*
X82980120Y-88228249D02*
X82308369Y-88900000D01*
X90206751Y-95454880D02*
X89535000Y-96126631D01*
X88863249Y-82345120D02*
X89535000Y-81673369D01*
X96089880Y-89571751D02*
X96761631Y-88900000D01*
X89535000Y-81673369D02*
X90206751Y-82345120D01*
X96761631Y-88900000D02*
X96089880Y-88228249D01*
X82545249Y-90006622D02*
X81972493Y-89914698D01*
X82453326Y-89433866D01*
X82545249Y-90006622D01*
G36*
X82545249Y-90006622D02*
G01*
X81972493Y-89914698D01*
X82453326Y-89433866D01*
X82545249Y-90006622D01*
G37*
%TO.C,JP7*%
X109077183Y-106612082D02*
X108652918Y-106187817D01*
X108652918Y-105197868D02*
X109642868Y-104207918D01*
X111057082Y-105622132D02*
X110067132Y-106612082D01*
X110632817Y-104207918D02*
X111057082Y-104632183D01*
X108652918Y-106187817D02*
G75*
G02*
X108652918Y-105197869I494974J494974D01*
G01*
X110067132Y-106612082D02*
G75*
G02*
X109077182Y-106612083I-494975J494974D01*
G01*
X109642868Y-104207918D02*
G75*
G02*
X110632817Y-104207917I494975J-494975D01*
G01*
X111057082Y-104632183D02*
G75*
G02*
X111057082Y-105622132I-494975J-494974D01*
G01*
%TO.C,J15*%
X71230000Y-116950000D02*
X69850000Y-116950000D01*
X71230000Y-115570000D02*
X71230000Y-116950000D01*
X71230000Y-114300000D02*
X71230000Y-101490000D01*
X71230000Y-114300000D02*
X68470000Y-114300000D01*
X71230000Y-101490000D02*
X68470000Y-101490000D01*
X68470000Y-114300000D02*
X68470000Y-101490000D01*
%TO.C,J13*%
X68470000Y-116730000D02*
X69850000Y-116730000D01*
X68470000Y-118110000D02*
X68470000Y-116730000D01*
X68470000Y-119380000D02*
X68470000Y-122030000D01*
X68470000Y-119380000D02*
X71230000Y-119380000D01*
X68470000Y-122030000D02*
X71230000Y-122030000D01*
X71230000Y-119380000D02*
X71230000Y-122030000D01*
D11*
%TO.C,D9*%
X90495000Y-76415000D02*
X88575000Y-76415000D01*
X88575000Y-76415000D02*
X88575000Y-79105000D01*
X90495000Y-79105000D02*
X90495000Y-76415000D01*
D12*
%TO.C,J12*%
X64660000Y-73550000D02*
X66040000Y-73550000D01*
X64660000Y-74930000D02*
X64660000Y-73550000D01*
X64660000Y-76200000D02*
X64660000Y-78850000D01*
X64660000Y-76200000D02*
X67420000Y-76200000D01*
X64660000Y-78850000D02*
X67420000Y-78850000D01*
X67420000Y-76200000D02*
X67420000Y-78850000D01*
%TO.C,J5*%
X131970000Y-68470000D02*
X133350000Y-68470000D01*
X131970000Y-69850000D02*
X131970000Y-68470000D01*
X131970000Y-71120000D02*
X131970000Y-73770000D01*
X131970000Y-71120000D02*
X134730000Y-71120000D01*
X131970000Y-73770000D02*
X134730000Y-73770000D01*
X134730000Y-71120000D02*
X134730000Y-73770000D01*
%TO.C,J9*%
X71230000Y-101710000D02*
X69850000Y-101710000D01*
X71230000Y-100330000D02*
X71230000Y-101710000D01*
X71230000Y-99060000D02*
X71230000Y-93870000D01*
X71230000Y-99060000D02*
X68470000Y-99060000D01*
X71230000Y-93870000D02*
X68470000Y-93870000D01*
X68470000Y-99060000D02*
X68470000Y-93870000D01*
D11*
%TO.C,S2*%
X121185000Y-66030000D02*
X118845000Y-66030000D01*
X118355000Y-66410000D02*
X117465000Y-67300000D01*
X121015000Y-66780000D02*
X121815000Y-67580000D01*
X119015000Y-66780000D02*
X121015000Y-66780000D01*
X122565000Y-67300000D02*
X121675000Y-66410000D01*
X122565000Y-67300000D02*
X122565000Y-69860000D01*
X117465000Y-67300000D02*
X117465000Y-69860000D01*
X121815000Y-67580000D02*
X121815000Y-69480000D01*
X118115000Y-67680000D02*
X119015000Y-66780000D01*
X118115000Y-69380000D02*
X118115000Y-67680000D01*
X121815000Y-69480000D02*
X120915000Y-70380000D01*
X122565000Y-69860000D02*
X121675000Y-70750000D01*
X120915000Y-70380000D02*
X119115000Y-70380000D01*
X119115000Y-70380000D02*
X118115000Y-69380000D01*
X118355000Y-70750000D02*
X117465000Y-69860000D01*
X121185000Y-71130000D02*
X118845000Y-71130000D01*
X122545000Y-65330000D02*
G75*
G02*
X122485000Y-65330000I-30000J0D01*
G01*
X122485000Y-65330000D02*
G75*
G02*
X122545000Y-65330000I30000J0D01*
G01*
X121295000Y-68580000D02*
G75*
G02*
X118735000Y-68580000I-1280000J0D01*
G01*
X118735000Y-68580000D02*
G75*
G02*
X121295000Y-68580000I1280000J0D01*
G01*
D12*
%TO.C,U6*%
X83480000Y-112612000D02*
X83480000Y-112437000D01*
X84155000Y-109892000D02*
X83780000Y-109892000D01*
X84155000Y-112612000D02*
X83480000Y-112612000D01*
X86025000Y-109892000D02*
X86700000Y-109892000D01*
X86025000Y-112612000D02*
X86700000Y-112612000D01*
X86700000Y-109892000D02*
X86700000Y-110067000D01*
X86700000Y-112612000D02*
X86700000Y-112437000D01*
X83480000Y-109892000D02*
X83340000Y-109702000D01*
X83620000Y-109702000D01*
X83480000Y-109892000D01*
G36*
X83480000Y-109892000D02*
G01*
X83340000Y-109702000D01*
X83620000Y-109702000D01*
X83480000Y-109892000D01*
G37*
%TO.C,J14*%
X105520000Y-82025000D02*
X104140000Y-82025000D01*
X105520000Y-80645000D02*
X105520000Y-82025000D01*
X105520000Y-79375000D02*
X105520000Y-76725000D01*
X105520000Y-79375000D02*
X102760000Y-79375000D01*
X105520000Y-76725000D02*
X102760000Y-76725000D01*
X102760000Y-79375000D02*
X102760000Y-76725000D01*
%TO.C,JP5*%
X95317918Y-98917183D02*
X95742183Y-98492918D01*
X96732132Y-98492918D02*
X97722082Y-99482868D01*
X96307868Y-100897082D02*
X95317918Y-99907132D01*
X97722082Y-100472817D02*
X97297817Y-100897082D01*
X95742183Y-98492918D02*
G75*
G02*
X96732131Y-98492918I494974J-494974D01*
G01*
X95317918Y-99907132D02*
G75*
G02*
X95317917Y-98917182I494974J494975D01*
G01*
X97722082Y-99482868D02*
G75*
G02*
X97722083Y-100472817I-494975J-494975D01*
G01*
X97297817Y-100897082D02*
G75*
G02*
X96307868Y-100897082I-494974J494975D01*
G01*
%TO.C,J11*%
X131970000Y-73550000D02*
X133350000Y-73550000D01*
X131970000Y-74930000D02*
X131970000Y-73550000D01*
X131970000Y-76200000D02*
X131970000Y-83930000D01*
X131970000Y-76200000D02*
X134730000Y-76200000D01*
X131970000Y-83930000D02*
X134730000Y-83930000D01*
X134730000Y-76200000D02*
X134730000Y-83930000D01*
%TO.C,JP4*%
X93412918Y-100822183D02*
X93837183Y-100397918D01*
X94827132Y-100397918D02*
X95817082Y-101387868D01*
X94402868Y-102802082D02*
X93412918Y-101812132D01*
X95817082Y-102377817D02*
X95392817Y-102802082D01*
X93837183Y-100397918D02*
G75*
G02*
X94827131Y-100397918I494974J-494974D01*
G01*
X93412918Y-101812132D02*
G75*
G02*
X93412917Y-100822182I494974J494975D01*
G01*
X95817082Y-101387868D02*
G75*
G02*
X95817083Y-102377817I-494975J-494975D01*
G01*
X95392817Y-102802082D02*
G75*
G02*
X94402868Y-102802082I-494974J494975D01*
G01*
%TO.C,J3*%
X68470000Y-78630000D02*
X69850000Y-78630000D01*
X68470000Y-80010000D02*
X68470000Y-78630000D01*
X68470000Y-81280000D02*
X68470000Y-94090000D01*
X68470000Y-81280000D02*
X71230000Y-81280000D01*
X68470000Y-94090000D02*
X71230000Y-94090000D01*
X71230000Y-81280000D02*
X71230000Y-94090000D01*
%TO.C,JP2*%
X89602918Y-104632183D02*
X90027183Y-104207918D01*
X91017132Y-104207918D02*
X92007082Y-105197868D01*
X90592868Y-106612082D02*
X89602918Y-105622132D01*
X92007082Y-106187817D02*
X91582817Y-106612082D01*
X90027183Y-104207918D02*
G75*
G02*
X91017131Y-104207918I494974J-494974D01*
G01*
X89602918Y-105622132D02*
G75*
G02*
X89602917Y-104632182I494974J494975D01*
G01*
X92007082Y-105197868D02*
G75*
G02*
X92007083Y-106187817I-494975J-494975D01*
G01*
X91582817Y-106612082D02*
G75*
G02*
X90592868Y-106612082I-494974J494975D01*
G01*
%TO.C,JP8*%
X105267183Y-102802082D02*
X104842918Y-102377817D01*
X104842918Y-101387868D02*
X105832868Y-100397918D01*
X107247082Y-101812132D02*
X106257132Y-102802082D01*
X106822817Y-100397918D02*
X107247082Y-100822183D01*
X104842918Y-102377817D02*
G75*
G02*
X104842918Y-101387869I494974J494974D01*
G01*
X106257132Y-102802082D02*
G75*
G02*
X105267182Y-102802083I-494975J494974D01*
G01*
X105832868Y-100397918D02*
G75*
G02*
X106822817Y-100397917I494975J-494975D01*
G01*
X107247082Y-100822183D02*
G75*
G02*
X107247082Y-101812132I-494975J-494974D01*
G01*
%TO.C,J6*%
X131970000Y-91330000D02*
X133350000Y-91330000D01*
X131970000Y-92710000D02*
X131970000Y-91330000D01*
X131970000Y-93980000D02*
X131970000Y-96630000D01*
X131970000Y-93980000D02*
X134730000Y-93980000D01*
X131970000Y-96630000D02*
X134730000Y-96630000D01*
X134730000Y-93980000D02*
X134730000Y-96630000D01*
D11*
%TO.C,FB1*%
X82330000Y-101554000D02*
X82330000Y-102354000D01*
X81210000Y-101554000D02*
X81210000Y-102354000D01*
%TD*%
%LPC*%
%TO.C,JP1*%
G36*
X126328800Y-76999200D02*
G01*
X124828800Y-76999200D01*
X124828800Y-77299200D01*
X126328800Y-77299200D01*
X126328800Y-76999200D01*
G37*
D13*
%TO.C,JP6*%
G36*
X104776396Y-100119264D02*
G01*
X104564264Y-100331396D01*
X103503604Y-99270736D01*
X103715736Y-99058604D01*
X104776396Y-100119264D01*
G37*
%TO.C,JP3*%
G36*
X93346396Y-103080736D02*
G01*
X92285736Y-104141396D01*
X92073604Y-103929264D01*
X93134264Y-102868604D01*
X93346396Y-103080736D01*
G37*
%TO.C,JP9*%
G36*
X108586396Y-103929264D02*
G01*
X108374264Y-104141396D01*
X107313604Y-103080736D01*
X107525736Y-102868604D01*
X108586396Y-103929264D01*
G37*
%TO.C,JP7*%
G36*
X110491396Y-105834264D02*
G01*
X110279264Y-106046396D01*
X109218604Y-104985736D01*
X109430736Y-104773604D01*
X110491396Y-105834264D01*
G37*
%TO.C,JP5*%
G36*
X97156396Y-99270736D02*
G01*
X96095736Y-100331396D01*
X95883604Y-100119264D01*
X96944264Y-99058604D01*
X97156396Y-99270736D01*
G37*
%TO.C,JP4*%
G36*
X95251396Y-101175736D02*
G01*
X94190736Y-102236396D01*
X93978604Y-102024264D01*
X95039264Y-100963604D01*
X95251396Y-101175736D01*
G37*
%TO.C,JP2*%
G36*
X91441396Y-104985736D02*
G01*
X90380736Y-106046396D01*
X90168604Y-105834264D01*
X91229264Y-104773604D01*
X91441396Y-104985736D01*
G37*
%TO.C,JP8*%
G36*
X106681396Y-102024264D02*
G01*
X106469264Y-102236396D01*
X105408604Y-101175736D01*
X105620736Y-100963604D01*
X106681396Y-102024264D01*
G37*
%TD*%
D14*
%TO.C,D3*%
X96520000Y-69520000D03*
X96520000Y-67640000D03*
%TD*%
D15*
%TO.C,C29*%
X108585000Y-80960000D03*
X108585000Y-79060000D03*
%TD*%
D16*
%TO.C,R17*%
X122740000Y-109220000D03*
X121100000Y-109220000D03*
%TD*%
D17*
%TO.C,R10*%
X121100000Y-107442000D03*
X122740000Y-107442000D03*
%TD*%
D18*
%TO.C,U5*%
X96800000Y-109215000D03*
X96800000Y-110485000D03*
X96800000Y-111765000D03*
X96800000Y-113035000D03*
X103860000Y-113035000D03*
X103860000Y-111765000D03*
X103860000Y-110485000D03*
X103860000Y-109215000D03*
%TD*%
D19*
%TO.C,C10*%
X81425000Y-74295000D03*
X79865000Y-74295000D03*
%TD*%
D20*
%TO.C,U2*%
X125335000Y-68375000D03*
X127635000Y-68375000D03*
X129935000Y-68375000D03*
D21*
X128635000Y-62405000D03*
X127635000Y-62405000D03*
D22*
X127635000Y-62405000D03*
D21*
X126635000Y-62405000D03*
%TD*%
D23*
%TO.C,C4*%
X124735000Y-71405000D03*
X126635000Y-71405000D03*
%TD*%
D24*
%TO.C,H2*%
X136000000Y-64000000D03*
%TD*%
D16*
%TO.C,R8*%
X122740000Y-100330000D03*
X121100000Y-100330000D03*
%TD*%
%TO.C,R21*%
X122486000Y-76200000D03*
X120846000Y-76200000D03*
%TD*%
D25*
%TO.C,C24*%
X116542457Y-91396457D03*
X117645543Y-92499543D03*
%TD*%
D26*
%TO.C,D5*%
X104140000Y-121920000D03*
X104140000Y-123800000D03*
%TD*%
D27*
%TO.C,JP1*%
X125578800Y-76499200D03*
D28*
X125578800Y-77799200D03*
%TD*%
D29*
%TO.C,R23*%
X104140000Y-119870000D03*
X104140000Y-118230000D03*
%TD*%
D19*
%TO.C,C27*%
X105682000Y-84582000D03*
X104122000Y-84582000D03*
%TD*%
D16*
%TO.C,R30*%
X93060000Y-122095000D03*
X91420000Y-122095000D03*
%TD*%
D23*
%TO.C,C1*%
X74185000Y-71425000D03*
X76085000Y-71425000D03*
%TD*%
D30*
%TO.C,C30*%
X108247543Y-94444457D03*
X107144457Y-95547543D03*
%TD*%
D31*
%TO.C,C23*%
X121666000Y-91506000D03*
X121666000Y-93406000D03*
%TD*%
D24*
%TO.C,H1*%
X64000000Y-64000000D03*
%TD*%
D30*
%TO.C,C7*%
X109263543Y-95460457D03*
X108160457Y-96563543D03*
%TD*%
D14*
%TO.C,D2*%
X99060000Y-69520000D03*
X99060000Y-67640000D03*
%TD*%
D32*
%TO.C,J4*%
X69850000Y-123190000D03*
D33*
X69850000Y-125730000D03*
%TD*%
D23*
%TO.C,C2*%
X128735000Y-71405000D03*
X130635000Y-71405000D03*
%TD*%
D25*
%TO.C,C26*%
X115018457Y-93809457D03*
X116121543Y-94912543D03*
%TD*%
D16*
%TO.C,R38*%
X109590000Y-69850000D03*
X107950000Y-69850000D03*
%TD*%
D32*
%TO.C,J10*%
X133350000Y-90170000D03*
D33*
X133350000Y-87630000D03*
X133350000Y-85090000D03*
%TD*%
D34*
%TO.C,R5*%
X99060000Y-71570000D03*
X99060000Y-73210000D03*
%TD*%
D19*
%TO.C,C16*%
X82550000Y-104394000D03*
X80990000Y-104394000D03*
%TD*%
D17*
%TO.C,R3*%
X91059000Y-69850000D03*
X92699000Y-69850000D03*
%TD*%
D35*
%TO.C,C32*%
X114025000Y-120345000D03*
X115585000Y-120345000D03*
%TD*%
D36*
%TO.C,SW1*%
X125730000Y-100330000D03*
D37*
X125730000Y-102870000D03*
X125730000Y-105410000D03*
X125730000Y-107950000D03*
X125730000Y-110490000D03*
X125730000Y-113030000D03*
X125730000Y-115570000D03*
X125730000Y-118110000D03*
X133350000Y-118110000D03*
X133350000Y-115570000D03*
X133350000Y-113030000D03*
X133350000Y-110490000D03*
X133350000Y-107950000D03*
X133350000Y-105410000D03*
X133350000Y-102870000D03*
X133350000Y-100330000D03*
%TD*%
D34*
%TO.C,R6*%
X96520000Y-71545000D03*
X96520000Y-73185000D03*
%TD*%
%TO.C,R41*%
X88340000Y-109182000D03*
X88340000Y-110822000D03*
%TD*%
%TO.C,R28*%
X94488000Y-109035000D03*
X94488000Y-110675000D03*
%TD*%
D26*
%TO.C,D7*%
X99060000Y-121920000D03*
X99060000Y-123800000D03*
%TD*%
%TO.C,D4*%
X104140000Y-67640000D03*
X104140000Y-69520000D03*
%TD*%
D24*
%TO.C,H4*%
X136000000Y-126000000D03*
%TD*%
D38*
%TO.C,S3*%
X85780000Y-125220000D03*
X85780000Y-118620000D03*
X89480000Y-125220000D03*
X89480000Y-118620000D03*
%TD*%
D34*
%TO.C,R19*%
X79756000Y-77920000D03*
X79756000Y-79560000D03*
%TD*%
D19*
%TO.C,C31*%
X101110000Y-114935000D03*
X99550000Y-114935000D03*
%TD*%
D39*
%TO.C,C12*%
X81026000Y-85598000D03*
X82129086Y-84494914D03*
%TD*%
D20*
%TO.C,U1*%
X70725000Y-68375000D03*
X73025000Y-68375000D03*
X75325000Y-68375000D03*
D21*
X74025000Y-62405000D03*
X73025000Y-62405000D03*
D22*
X73025000Y-62405000D03*
D21*
X72025000Y-62405000D03*
%TD*%
D30*
%TO.C,C8*%
X98893086Y-91352914D03*
X97790000Y-92456000D03*
%TD*%
D16*
%TO.C,R33*%
X115625000Y-122095000D03*
X113985000Y-122095000D03*
%TD*%
D40*
%TO.C,S1*%
X82495000Y-65280000D03*
X82495000Y-71880000D03*
X78795000Y-65280000D03*
X78795000Y-71880000D03*
%TD*%
D32*
%TO.C,J7*%
X129540000Y-124460000D03*
D33*
X127000000Y-124460000D03*
X124460000Y-124460000D03*
X121920000Y-124460000D03*
%TD*%
D19*
%TO.C,C18*%
X82550000Y-99454000D03*
X80990000Y-99454000D03*
%TD*%
D29*
%TO.C,R22*%
X104140000Y-73185000D03*
X104140000Y-71545000D03*
%TD*%
%TO.C,R25*%
X99060000Y-119870000D03*
X99060000Y-118230000D03*
%TD*%
D38*
%TO.C,S4*%
X108005000Y-125220000D03*
X108005000Y-118620000D03*
X111705000Y-125220000D03*
X111705000Y-118620000D03*
%TD*%
D35*
%TO.C,C34*%
X84310000Y-114252000D03*
X85870000Y-114252000D03*
%TD*%
D29*
%TO.C,R26*%
X96520000Y-119870000D03*
X96520000Y-118230000D03*
%TD*%
D34*
%TO.C,R42*%
X112395000Y-75576000D03*
X112395000Y-77216000D03*
%TD*%
D24*
%TO.C,H3*%
X64000000Y-126000000D03*
%TD*%
D41*
%TO.C,U4*%
X110638864Y-84524777D03*
X110285311Y-84878330D03*
X109931757Y-85231884D03*
X109578204Y-85585437D03*
X109224651Y-85938990D03*
X108871097Y-86292544D03*
X108517544Y-86646097D03*
X108163990Y-86999651D03*
X107810437Y-87353204D03*
X107456884Y-87706757D03*
X107103330Y-88060311D03*
X106749777Y-88413864D03*
D42*
X106749777Y-89386136D03*
X107103330Y-89739689D03*
X107456884Y-90093243D03*
X107810437Y-90446796D03*
X108163990Y-90800349D03*
X108517544Y-91153903D03*
X108871097Y-91507456D03*
X109224651Y-91861010D03*
X109578204Y-92214563D03*
X109931757Y-92568116D03*
X110285311Y-92921670D03*
X110638864Y-93275223D03*
D41*
X111611136Y-93275223D03*
X111964689Y-92921670D03*
X112318243Y-92568116D03*
X112671796Y-92214563D03*
X113025349Y-91861010D03*
X113378903Y-91507456D03*
X113732456Y-91153903D03*
X114086010Y-90800349D03*
X114439563Y-90446796D03*
X114793116Y-90093243D03*
X115146670Y-89739689D03*
X115500223Y-89386136D03*
D42*
X115500223Y-88413864D03*
X115146670Y-88060311D03*
X114793116Y-87706757D03*
X114439563Y-87353204D03*
X114086010Y-86999651D03*
X113732456Y-86646097D03*
X113378903Y-86292544D03*
X113025349Y-85938990D03*
X112671796Y-85585437D03*
X112318243Y-85231884D03*
X111964689Y-84878330D03*
X111611136Y-84524777D03*
D43*
X111125000Y-88900000D03*
%TD*%
D44*
%TO.C,X1*%
X78609929Y-95729437D03*
X80165563Y-97285071D03*
X81410071Y-96040563D03*
X79854437Y-94484929D03*
%TD*%
D45*
%TO.C,Q1*%
X99380000Y-77140000D03*
X101280000Y-77140000D03*
X100330000Y-75260000D03*
%TD*%
D23*
%TO.C,C5*%
X127878800Y-78399200D03*
X129778800Y-78399200D03*
%TD*%
D46*
%TO.C,J16*%
X114003000Y-66324000D03*
X108223000Y-66324000D03*
D47*
X112363000Y-67524000D03*
X111363000Y-67524000D03*
X110863000Y-67524000D03*
X109863000Y-67524000D03*
D48*
X108713000Y-67524000D03*
X107913000Y-67524000D03*
D47*
X109363000Y-67524000D03*
X110363000Y-67524000D03*
X111863000Y-67524000D03*
X112863000Y-67524000D03*
D48*
X113513000Y-67524000D03*
X114313000Y-67524000D03*
D49*
X115443000Y-66844000D03*
D50*
X115443000Y-62644000D03*
D21*
X113113000Y-64024000D03*
X113113000Y-62024000D03*
D51*
X111113000Y-63024000D03*
D21*
X109113000Y-64024000D03*
X109113000Y-62024000D03*
D49*
X106783000Y-66844000D03*
D50*
X106783000Y-62644000D03*
%TD*%
D17*
%TO.C,R14*%
X121100000Y-118110000D03*
X122740000Y-118110000D03*
%TD*%
%TO.C,R9*%
X121100000Y-103886000D03*
X122740000Y-103886000D03*
%TD*%
D32*
%TO.C,J2*%
X66040000Y-80010000D03*
D33*
X66040000Y-82550000D03*
X66040000Y-85090000D03*
X66040000Y-87630000D03*
X66040000Y-90170000D03*
X66040000Y-92710000D03*
X66040000Y-95250000D03*
X66040000Y-97790000D03*
X66040000Y-100330000D03*
X66040000Y-102870000D03*
X66040000Y-105410000D03*
X66040000Y-107950000D03*
X66040000Y-110490000D03*
X66040000Y-113030000D03*
X66040000Y-115570000D03*
X66040000Y-118110000D03*
%TD*%
D29*
%TO.C,R27*%
X89535000Y-75115000D03*
X89535000Y-73475000D03*
%TD*%
D23*
%TO.C,C3*%
X70375000Y-71425000D03*
X72275000Y-71425000D03*
%TD*%
D52*
%TO.C,C33*%
X88392000Y-112758000D03*
X88392000Y-114318000D03*
%TD*%
D16*
%TO.C,R16*%
X122740000Y-105664000D03*
X121100000Y-105664000D03*
%TD*%
D26*
%TO.C,D8*%
X96520000Y-121920000D03*
X96520000Y-123800000D03*
%TD*%
D17*
%TO.C,R34*%
X84270000Y-107502000D03*
X85910000Y-107502000D03*
%TD*%
D53*
%TO.C,JP6*%
X103680381Y-100154619D03*
D54*
X104599619Y-99235381D03*
%TD*%
D25*
%TO.C,C13*%
X92031457Y-79331457D03*
X93134543Y-80434543D03*
%TD*%
D16*
%TO.C,R15*%
X122740000Y-102108000D03*
X121100000Y-102108000D03*
%TD*%
D34*
%TO.C,R2*%
X101600000Y-71570000D03*
X101600000Y-73210000D03*
%TD*%
D35*
%TO.C,C28*%
X91460000Y-120345000D03*
X93020000Y-120345000D03*
%TD*%
D30*
%TO.C,C19*%
X85387543Y-96984457D03*
X84284457Y-98087543D03*
%TD*%
D14*
%TO.C,D1*%
X101600000Y-69520000D03*
X101600000Y-67640000D03*
%TD*%
D26*
%TO.C,D6*%
X101600000Y-121920000D03*
X101600000Y-123800000D03*
%TD*%
D55*
%TO.C,JP3*%
X92250381Y-103045381D03*
D56*
X93169619Y-103964619D03*
%TD*%
D57*
%TO.C,C25*%
X110490000Y-82314000D03*
X110490000Y-80754000D03*
%TD*%
D23*
%TO.C,C22*%
X127878800Y-76149200D03*
X129778800Y-76149200D03*
%TD*%
D53*
%TO.C,JP9*%
X107490381Y-103964619D03*
D54*
X108409619Y-103045381D03*
%TD*%
D58*
%TO.C,C15*%
X79817000Y-90297000D03*
X77917000Y-90297000D03*
%TD*%
D34*
%TO.C,R36*%
X81840000Y-112682000D03*
X81840000Y-114322000D03*
%TD*%
D16*
%TO.C,R18*%
X122740000Y-110998000D03*
X121100000Y-110998000D03*
%TD*%
D59*
%TO.C,U3*%
X82870519Y-90261181D03*
X83224072Y-90614734D03*
X83577625Y-90968287D03*
X83931179Y-91321841D03*
X84284732Y-91675394D03*
X84638286Y-92028948D03*
X84991839Y-92382501D03*
X85345392Y-92736054D03*
X85698946Y-93089608D03*
X86052499Y-93443161D03*
X86406052Y-93796714D03*
X86759606Y-94150268D03*
X87113159Y-94503821D03*
X87466713Y-94857375D03*
X87820266Y-95210928D03*
X88173819Y-95564481D03*
D60*
X90896181Y-95564481D03*
X91249734Y-95210928D03*
X91603287Y-94857375D03*
X91956841Y-94503821D03*
X92310394Y-94150268D03*
X92663948Y-93796714D03*
X93017501Y-93443161D03*
X93371054Y-93089608D03*
X93724608Y-92736054D03*
X94078161Y-92382501D03*
X94431714Y-92028948D03*
X94785268Y-91675394D03*
X95138821Y-91321841D03*
X95492375Y-90968287D03*
X95845928Y-90614734D03*
X96199481Y-90261181D03*
D59*
X96199481Y-87538819D03*
X95845928Y-87185266D03*
X95492375Y-86831713D03*
X95138821Y-86478159D03*
X94785268Y-86124606D03*
X94431714Y-85771052D03*
X94078161Y-85417499D03*
X93724608Y-85063946D03*
X93371054Y-84710392D03*
X93017501Y-84356839D03*
X92663948Y-84003286D03*
X92310394Y-83649732D03*
X91956841Y-83296179D03*
X91603287Y-82942625D03*
X91249734Y-82589072D03*
X90896181Y-82235519D03*
D60*
X88173819Y-82235519D03*
X87820266Y-82589072D03*
X87466713Y-82942625D03*
X87113159Y-83296179D03*
X86759606Y-83649732D03*
X86406052Y-84003286D03*
X86052499Y-84356839D03*
X85698946Y-84710392D03*
X85345392Y-85063946D03*
X84991839Y-85417499D03*
X84638286Y-85771052D03*
X84284732Y-86124606D03*
X83931179Y-86478159D03*
X83577625Y-86831713D03*
X83224072Y-87185266D03*
X82870519Y-87538819D03*
%TD*%
D53*
%TO.C,JP7*%
X109395381Y-105869619D03*
D54*
X110314619Y-104950381D03*
%TD*%
D32*
%TO.C,J15*%
X69850000Y-115570000D03*
D33*
X69850000Y-113030000D03*
X69850000Y-110490000D03*
X69850000Y-107950000D03*
X69850000Y-105410000D03*
X69850000Y-102870000D03*
%TD*%
D17*
%TO.C,R12*%
X121100000Y-114554000D03*
X122740000Y-114554000D03*
%TD*%
D31*
%TO.C,C9*%
X114808000Y-97830600D03*
X114808000Y-99730600D03*
%TD*%
D61*
%TO.C,C14*%
X97877086Y-94575086D03*
X96774000Y-93472000D03*
%TD*%
D17*
%TO.C,R1*%
X99510000Y-80010000D03*
X101150000Y-80010000D03*
%TD*%
D32*
%TO.C,J13*%
X69850000Y-118110000D03*
D33*
X69850000Y-120650000D03*
%TD*%
D17*
%TO.C,R11*%
X121100000Y-112776000D03*
X122740000Y-112776000D03*
%TD*%
D26*
%TO.C,D9*%
X89535000Y-77165000D03*
X89535000Y-79045000D03*
%TD*%
D32*
%TO.C,J12*%
X66040000Y-74930000D03*
D33*
X66040000Y-77470000D03*
%TD*%
D46*
%TO.C,J1*%
X92425000Y-66300000D03*
X86645000Y-66300000D03*
D47*
X90785000Y-67500000D03*
X89785000Y-67500000D03*
X89285000Y-67500000D03*
X88285000Y-67500000D03*
D48*
X87135000Y-67500000D03*
X86335000Y-67500000D03*
D47*
X87785000Y-67500000D03*
X88785000Y-67500000D03*
X90285000Y-67500000D03*
X91285000Y-67500000D03*
D48*
X91935000Y-67500000D03*
X92735000Y-67500000D03*
D49*
X93865000Y-66820000D03*
D50*
X93865000Y-62620000D03*
D21*
X91535000Y-64000000D03*
X91535000Y-62000000D03*
D51*
X89535000Y-63000000D03*
D21*
X87535000Y-64000000D03*
X87535000Y-62000000D03*
D49*
X85205000Y-66820000D03*
D50*
X85205000Y-62620000D03*
%TD*%
D32*
%TO.C,J5*%
X133350000Y-69850000D03*
D33*
X133350000Y-72390000D03*
%TD*%
D32*
%TO.C,J9*%
X69850000Y-100330000D03*
D33*
X69850000Y-97790000D03*
X69850000Y-95250000D03*
%TD*%
D40*
%TO.C,S2*%
X121865000Y-65280000D03*
X121865000Y-71880000D03*
X118165000Y-65280000D03*
X118165000Y-71880000D03*
%TD*%
D29*
%TO.C,R7*%
X116713000Y-98686200D03*
X116713000Y-97046200D03*
%TD*%
D34*
%TO.C,R31*%
X106045000Y-109035000D03*
X106045000Y-110675000D03*
%TD*%
%TO.C,R20*%
X81280000Y-77920000D03*
X81280000Y-79560000D03*
%TD*%
%TO.C,R43*%
X110871000Y-75576000D03*
X110871000Y-77216000D03*
%TD*%
D16*
%TO.C,R29*%
X93060000Y-118595000D03*
X91420000Y-118595000D03*
%TD*%
D62*
%TO.C,U6*%
X83927500Y-110502000D03*
X83927500Y-111002000D03*
X83927500Y-111502000D03*
X83927500Y-112002000D03*
D63*
X84590000Y-112164500D03*
X85090000Y-112164500D03*
X85590000Y-112164500D03*
D62*
X86252500Y-112002000D03*
X86252500Y-111502000D03*
X86252500Y-111002000D03*
X86252500Y-110502000D03*
D63*
X85590000Y-110339500D03*
X85090000Y-110339500D03*
X84590000Y-110339500D03*
%TD*%
D32*
%TO.C,J14*%
X104140000Y-80645000D03*
D33*
X104140000Y-78105000D03*
%TD*%
D25*
%TO.C,C20*%
X83268457Y-94698457D03*
X84371543Y-95801543D03*
%TD*%
D55*
%TO.C,JP5*%
X96060381Y-99235381D03*
D56*
X96979619Y-100154619D03*
%TD*%
D32*
%TO.C,J11*%
X133350000Y-74930000D03*
D33*
X133350000Y-77470000D03*
X133350000Y-80010000D03*
X133350000Y-82550000D03*
%TD*%
D55*
%TO.C,JP4*%
X94155381Y-101140381D03*
D56*
X95074619Y-102059619D03*
%TD*%
D16*
%TO.C,R40*%
X115374000Y-76581000D03*
X113734000Y-76581000D03*
%TD*%
D25*
%TO.C,C6*%
X114256457Y-94952457D03*
X115359543Y-96055543D03*
%TD*%
D32*
%TO.C,J3*%
X69850000Y-80010000D03*
D33*
X69850000Y-82550000D03*
X69850000Y-85090000D03*
X69850000Y-87630000D03*
X69850000Y-90170000D03*
X69850000Y-92710000D03*
%TD*%
D16*
%TO.C,R39*%
X115374000Y-75184000D03*
X113734000Y-75184000D03*
%TD*%
D19*
%TO.C,C21*%
X120795000Y-74280000D03*
X119235000Y-74280000D03*
%TD*%
D25*
%TO.C,C17*%
X80728457Y-92158457D03*
X81831543Y-93261543D03*
%TD*%
D55*
%TO.C,JP2*%
X90345381Y-104950381D03*
D56*
X91264619Y-105869619D03*
%TD*%
D17*
%TO.C,R13*%
X121100000Y-116332000D03*
X122740000Y-116332000D03*
%TD*%
D16*
%TO.C,R32*%
X115625000Y-118595000D03*
X113985000Y-118595000D03*
%TD*%
D53*
%TO.C,JP8*%
X105585381Y-102059619D03*
D54*
X106504619Y-101140381D03*
%TD*%
D30*
%TO.C,C11*%
X93261543Y-96603457D03*
X92158457Y-97706543D03*
%TD*%
D17*
%TO.C,R37*%
X112718000Y-69850000D03*
X114358000Y-69850000D03*
%TD*%
D32*
%TO.C,J6*%
X133350000Y-92710000D03*
D33*
X133350000Y-95250000D03*
%TD*%
D29*
%TO.C,R24*%
X101600000Y-119870000D03*
X101600000Y-118230000D03*
%TD*%
D64*
%TO.C,FB1*%
X81770000Y-100894000D03*
X81770000Y-103014000D03*
%TD*%
D16*
%TO.C,R4*%
X87815000Y-69850000D03*
X86175000Y-69850000D03*
%TD*%
D29*
%TO.C,R35*%
X81840000Y-110822000D03*
X81840000Y-109182000D03*
%TD*%
%LPD*%
M02*
