%TF.GenerationSoftware,KiCad,Pcbnew,9.0.4*%
%TF.CreationDate,2025-11-27T13:39:18+01:00*%
%TF.ProjectId,iCEBrainstorm,69434542-7261-4696-9e73-746f726d2e6b,rev?*%
%TF.SameCoordinates,Original*%
%TF.FileFunction,Legend,Top*%
%TF.FilePolarity,Positive*%
%FSLAX46Y46*%
G04 Gerber Fmt 4.6, Leading zero omitted, Abs format (unit mm)*
G04 Created by KiCad (PCBNEW 9.0.4) date 2025-11-27 13:39:18*
%MOMM*%
%LPD*%
G01*
G04 APERTURE LIST*
G04 Aperture macros list*
%AMRoundRect*
0 Rectangle with rounded corners*
0 $1 Rounding radius*
0 $2 $3 $4 $5 $6 $7 $8 $9 X,Y pos of 4 corners*
0 Add a 4 corners polygon primitive as box body*
4,1,4,$2,$3,$4,$5,$6,$7,$8,$9,$2,$3,0*
0 Add four circle primitives for the rounded corners*
1,1,$1+$1,$2,$3*
1,1,$1+$1,$4,$5*
1,1,$1+$1,$6,$7*
1,1,$1+$1,$8,$9*
0 Add four rect primitives between the rounded corners*
20,1,$1+$1,$2,$3,$4,$5,0*
20,1,$1+$1,$4,$5,$6,$7,0*
20,1,$1+$1,$6,$7,$8,$9,0*
20,1,$1+$1,$8,$9,$2,$3,0*%
%AMFreePoly0*
4,1,23,0.500000,-0.750000,0.000000,-0.750000,0.000000,-0.745722,-0.065263,-0.745722,-0.191342,-0.711940,-0.304381,-0.646677,-0.396677,-0.554381,-0.461940,-0.441342,-0.495722,-0.315263,-0.495722,-0.250000,-0.500000,-0.250000,-0.500000,0.250000,-0.495722,0.250000,-0.495722,0.315263,-0.461940,0.441342,-0.396677,0.554381,-0.304381,0.646677,-0.191342,0.711940,-0.065263,0.745722,0.000000,0.745722,
0.000000,0.750000,0.500000,0.750000,0.500000,-0.750000,0.500000,-0.750000,$1*%
%AMFreePoly1*
4,1,23,0.000000,0.745722,0.065263,0.745722,0.191342,0.711940,0.304381,0.646677,0.396677,0.554381,0.461940,0.441342,0.495722,0.315263,0.495722,0.250000,0.500000,0.250000,0.500000,-0.250000,0.495722,-0.250000,0.495722,-0.315263,0.461940,-0.441342,0.396677,-0.554381,0.304381,-0.646677,0.191342,-0.711940,0.065263,-0.745722,0.000000,-0.745722,0.000000,-0.750000,-0.500000,-0.750000,
-0.500000,0.750000,0.000000,0.750000,0.000000,0.745722,0.000000,0.745722,$1*%
G04 Aperture macros list end*
%ADD10C,0.100000*%
%ADD11C,0.150000*%
%ADD12C,0.120000*%
%ADD13RoundRect,0.261500X0.476500X-0.261500X0.476500X0.261500X-0.476500X0.261500X-0.476500X-0.261500X0*%
%ADD14RoundRect,0.219000X0.219000X0.294000X-0.219000X0.294000X-0.219000X-0.294000X0.219000X-0.294000X0*%
%ADD15RoundRect,0.269000X-0.269000X-0.494000X0.269000X-0.494000X0.269000X0.494000X-0.269000X0.494000X0*%
%ADD16RoundRect,0.219000X-0.219000X-0.294000X0.219000X-0.294000X0.219000X0.294000X-0.219000X0.294000X0*%
%ADD17O,2.250000X0.630000*%
%ADD18RoundRect,0.244000X-0.269000X0.244000X-0.269000X-0.244000X0.269000X-0.244000X0.269000X0.244000X0*%
%ADD19RoundRect,0.250000X1.000000X0.300000X-1.000000X0.300000X-1.000000X-0.300000X1.000000X-0.300000X0*%
%ADD20C,0.500000*%
%ADD21RoundRect,0.250000X0.920000X1.550000X-0.920000X1.550000X-0.920000X-1.550000X0.920000X-1.550000X0*%
%ADD22RoundRect,0.269000X-0.494000X0.269000X-0.494000X-0.269000X0.494000X-0.269000X0.494000X0.269000X0*%
%ADD23RoundRect,0.244000X-0.244000X-0.269000X0.244000X-0.269000X0.244000X0.269000X-0.244000X0.269000X0*%
%ADD24C,5.400000*%
%ADD25RoundRect,0.244000X0.244000X0.269000X-0.244000X0.269000X-0.244000X-0.269000X0.244000X-0.269000X0*%
%ADD26RoundRect,0.261500X0.261500X0.476500X-0.261500X0.476500X-0.261500X-0.476500X0.261500X-0.476500X0*%
%ADD27FreePoly0,0.000000*%
%ADD28FreePoly1,0.000000*%
%ADD29R,1.000000X1.000000*%
%ADD30C,1.000000*%
%ADD31RoundRect,0.269000X0.494000X-0.269000X0.494000X0.269000X-0.494000X0.269000X-0.494000X-0.269000X0*%
%ADD32RoundRect,0.250000X-0.600000X-0.250000X0.600000X-0.250000X0.600000X0.250000X-0.600000X0.250000X0*%
%ADD33RoundRect,0.269000X0.269000X0.494000X-0.269000X0.494000X-0.269000X-0.494000X0.269000X-0.494000X0*%
%ADD34RoundRect,0.219000X-0.294000X0.219000X-0.294000X-0.219000X0.294000X-0.219000X0.294000X0.219000X0*%
%ADD35RoundRect,0.250000X-0.550000X-0.550000X0.550000X-0.550000X0.550000X0.550000X-0.550000X0.550000X0*%
%ADD36C,1.600000*%
%ADD37RoundRect,0.219000X0.294000X-0.219000X0.294000X0.219000X-0.294000X0.219000X-0.294000X-0.219000X0*%
%ADD38RoundRect,0.250000X-1.000000X-0.300000X1.000000X-0.300000X1.000000X0.300000X-1.000000X0.300000X0*%
%ADD39RoundRect,0.250000X-0.920000X-1.550000X0.920000X-1.550000X0.920000X1.550000X-0.920000X1.550000X0*%
%ADD40RoundRect,0.062500X0.375000X0.062500X-0.375000X0.062500X-0.375000X-0.062500X0.375000X-0.062500X0*%
%ADD41RoundRect,0.062500X0.062500X0.375000X-0.062500X0.375000X-0.062500X-0.375000X0.062500X-0.375000X0*%
%ADD42R,5.600000X5.600000*%
%ADD43RoundRect,0.250000X-0.350000X0.450000X-0.350000X-0.450000X0.350000X-0.450000X0.350000X0.450000X0*%
%ADD44RoundRect,0.150000X0.150000X-0.590000X0.150000X0.590000X-0.150000X0.590000X-0.150000X-0.590000X0*%
%ADD45C,0.600000*%
%ADD46R,0.300000X1.400000*%
%ADD47R,0.500000X1.400000*%
%ADD48O,1.300000X2.300000*%
%ADD49O,1.300000X2.100000*%
%ADD50RoundRect,0.500000X2.000000X1.000000X-2.000000X1.000000X-2.000000X-1.000000X2.000000X-1.000000X0*%
%ADD51FreePoly0,90.000000*%
%ADD52FreePoly1,90.000000*%
%ADD53RoundRect,0.244000X0.269000X-0.244000X0.269000X0.244000X-0.269000X0.244000X-0.269000X-0.244000X0*%
%ADD54FreePoly0,270.000000*%
%ADD55FreePoly1,270.000000*%
%ADD56RoundRect,0.075000X-0.700000X-0.075000X0.700000X-0.075000X0.700000X0.075000X-0.700000X0.075000X0*%
%ADD57RoundRect,0.075000X-0.075000X-0.700000X0.075000X-0.700000X0.075000X0.700000X-0.075000X0.700000X0*%
%ADD58RoundRect,0.250000X0.600000X0.250000X-0.600000X0.250000X-0.600000X-0.250000X0.600000X-0.250000X0*%
%ADD59RoundRect,0.250000X0.550000X0.550000X-0.550000X0.550000X-0.550000X-0.550000X0.550000X-0.550000X0*%
%ADD60RoundRect,0.220000X-0.380000X0.220000X-0.380000X-0.220000X0.380000X-0.220000X0.380000X0.220000X0*%
G04 APERTURE END LIST*
D10*
X101622419Y-73922306D02*
X101622419Y-74493734D01*
X101622419Y-74208020D02*
X100622419Y-74208020D01*
X100622419Y-74208020D02*
X100765276Y-74303258D01*
X100765276Y-74303258D02*
X100860514Y-74398496D01*
X100860514Y-74398496D02*
X100908133Y-74493734D01*
X100622419Y-73636591D02*
X101622419Y-73303258D01*
X101622419Y-73303258D02*
X100622419Y-72969925D01*
X100717657Y-72684210D02*
X100670038Y-72636591D01*
X100670038Y-72636591D02*
X100622419Y-72541353D01*
X100622419Y-72541353D02*
X100622419Y-72303258D01*
X100622419Y-72303258D02*
X100670038Y-72208020D01*
X100670038Y-72208020D02*
X100717657Y-72160401D01*
X100717657Y-72160401D02*
X100812895Y-72112782D01*
X100812895Y-72112782D02*
X100908133Y-72112782D01*
X100908133Y-72112782D02*
X101050990Y-72160401D01*
X101050990Y-72160401D02*
X101622419Y-72731829D01*
X101622419Y-72731829D02*
X101622419Y-72112782D01*
X98122419Y-74291353D02*
X98122419Y-73672306D01*
X98122419Y-73672306D02*
X98503371Y-74005639D01*
X98503371Y-74005639D02*
X98503371Y-73862782D01*
X98503371Y-73862782D02*
X98550990Y-73767544D01*
X98550990Y-73767544D02*
X98598609Y-73719925D01*
X98598609Y-73719925D02*
X98693847Y-73672306D01*
X98693847Y-73672306D02*
X98931942Y-73672306D01*
X98931942Y-73672306D02*
X99027180Y-73719925D01*
X99027180Y-73719925D02*
X99074800Y-73767544D01*
X99074800Y-73767544D02*
X99122419Y-73862782D01*
X99122419Y-73862782D02*
X99122419Y-74148496D01*
X99122419Y-74148496D02*
X99074800Y-74243734D01*
X99074800Y-74243734D02*
X99027180Y-74291353D01*
X98122419Y-73386591D02*
X99122419Y-73053258D01*
X99122419Y-73053258D02*
X98122419Y-72719925D01*
X98122419Y-72481829D02*
X98122419Y-71862782D01*
X98122419Y-71862782D02*
X98503371Y-72196115D01*
X98503371Y-72196115D02*
X98503371Y-72053258D01*
X98503371Y-72053258D02*
X98550990Y-71958020D01*
X98550990Y-71958020D02*
X98598609Y-71910401D01*
X98598609Y-71910401D02*
X98693847Y-71862782D01*
X98693847Y-71862782D02*
X98931942Y-71862782D01*
X98931942Y-71862782D02*
X99027180Y-71910401D01*
X99027180Y-71910401D02*
X99074800Y-71958020D01*
X99074800Y-71958020D02*
X99122419Y-72053258D01*
X99122419Y-72053258D02*
X99122419Y-72338972D01*
X99122419Y-72338972D02*
X99074800Y-72434210D01*
X99074800Y-72434210D02*
X99027180Y-72481829D01*
X95622419Y-74588972D02*
X96622419Y-74255639D01*
X96622419Y-74255639D02*
X95622419Y-73922306D01*
X96098609Y-73255639D02*
X96146228Y-73112782D01*
X96146228Y-73112782D02*
X96193847Y-73065163D01*
X96193847Y-73065163D02*
X96289085Y-73017544D01*
X96289085Y-73017544D02*
X96431942Y-73017544D01*
X96431942Y-73017544D02*
X96527180Y-73065163D01*
X96527180Y-73065163D02*
X96574800Y-73112782D01*
X96574800Y-73112782D02*
X96622419Y-73208020D01*
X96622419Y-73208020D02*
X96622419Y-73588972D01*
X96622419Y-73588972D02*
X95622419Y-73588972D01*
X95622419Y-73588972D02*
X95622419Y-73255639D01*
X95622419Y-73255639D02*
X95670038Y-73160401D01*
X95670038Y-73160401D02*
X95717657Y-73112782D01*
X95717657Y-73112782D02*
X95812895Y-73065163D01*
X95812895Y-73065163D02*
X95908133Y-73065163D01*
X95908133Y-73065163D02*
X96003371Y-73112782D01*
X96003371Y-73112782D02*
X96050990Y-73160401D01*
X96050990Y-73160401D02*
X96098609Y-73255639D01*
X96098609Y-73255639D02*
X96098609Y-73588972D01*
X95622419Y-72588972D02*
X96431942Y-72588972D01*
X96431942Y-72588972D02*
X96527180Y-72541353D01*
X96527180Y-72541353D02*
X96574800Y-72493734D01*
X96574800Y-72493734D02*
X96622419Y-72398496D01*
X96622419Y-72398496D02*
X96622419Y-72208020D01*
X96622419Y-72208020D02*
X96574800Y-72112782D01*
X96574800Y-72112782D02*
X96527180Y-72065163D01*
X96527180Y-72065163D02*
X96431942Y-72017544D01*
X96431942Y-72017544D02*
X95622419Y-72017544D01*
X96574800Y-71588972D02*
X96622419Y-71446115D01*
X96622419Y-71446115D02*
X96622419Y-71208020D01*
X96622419Y-71208020D02*
X96574800Y-71112782D01*
X96574800Y-71112782D02*
X96527180Y-71065163D01*
X96527180Y-71065163D02*
X96431942Y-71017544D01*
X96431942Y-71017544D02*
X96336704Y-71017544D01*
X96336704Y-71017544D02*
X96241466Y-71065163D01*
X96241466Y-71065163D02*
X96193847Y-71112782D01*
X96193847Y-71112782D02*
X96146228Y-71208020D01*
X96146228Y-71208020D02*
X96098609Y-71398496D01*
X96098609Y-71398496D02*
X96050990Y-71493734D01*
X96050990Y-71493734D02*
X96003371Y-71541353D01*
X96003371Y-71541353D02*
X95908133Y-71588972D01*
X95908133Y-71588972D02*
X95812895Y-71588972D01*
X95812895Y-71588972D02*
X95717657Y-71541353D01*
X95717657Y-71541353D02*
X95670038Y-71493734D01*
X95670038Y-71493734D02*
X95622419Y-71398496D01*
X95622419Y-71398496D02*
X95622419Y-71160401D01*
X95622419Y-71160401D02*
X95670038Y-71017544D01*
X103598609Y-74112782D02*
X103598609Y-74446115D01*
X104122419Y-74446115D02*
X103122419Y-74446115D01*
X103122419Y-74446115D02*
X103122419Y-73969925D01*
X104122419Y-73588972D02*
X103122419Y-73588972D01*
X103122419Y-73588972D02*
X103122419Y-73208020D01*
X103122419Y-73208020D02*
X103170038Y-73112782D01*
X103170038Y-73112782D02*
X103217657Y-73065163D01*
X103217657Y-73065163D02*
X103312895Y-73017544D01*
X103312895Y-73017544D02*
X103455752Y-73017544D01*
X103455752Y-73017544D02*
X103550990Y-73065163D01*
X103550990Y-73065163D02*
X103598609Y-73112782D01*
X103598609Y-73112782D02*
X103646228Y-73208020D01*
X103646228Y-73208020D02*
X103646228Y-73588972D01*
X103170038Y-72065163D02*
X103122419Y-72160401D01*
X103122419Y-72160401D02*
X103122419Y-72303258D01*
X103122419Y-72303258D02*
X103170038Y-72446115D01*
X103170038Y-72446115D02*
X103265276Y-72541353D01*
X103265276Y-72541353D02*
X103360514Y-72588972D01*
X103360514Y-72588972D02*
X103550990Y-72636591D01*
X103550990Y-72636591D02*
X103693847Y-72636591D01*
X103693847Y-72636591D02*
X103884323Y-72588972D01*
X103884323Y-72588972D02*
X103979561Y-72541353D01*
X103979561Y-72541353D02*
X104074800Y-72446115D01*
X104074800Y-72446115D02*
X104122419Y-72303258D01*
X104122419Y-72303258D02*
X104122419Y-72208020D01*
X104122419Y-72208020D02*
X104074800Y-72065163D01*
X104074800Y-72065163D02*
X104027180Y-72017544D01*
X104027180Y-72017544D02*
X103693847Y-72017544D01*
X103693847Y-72017544D02*
X103693847Y-72208020D01*
X103836704Y-71636591D02*
X103836704Y-71160401D01*
X104122419Y-71731829D02*
X103122419Y-71398496D01*
X103122419Y-71398496D02*
X104122419Y-71065163D01*
D11*
X129696666Y-141254819D02*
X129696666Y-141969104D01*
X129696666Y-141969104D02*
X129649047Y-142111961D01*
X129649047Y-142111961D02*
X129553809Y-142207200D01*
X129553809Y-142207200D02*
X129410952Y-142254819D01*
X129410952Y-142254819D02*
X129315714Y-142254819D01*
X130172857Y-142254819D02*
X130172857Y-141254819D01*
X130172857Y-141254819D02*
X130553809Y-141254819D01*
X130553809Y-141254819D02*
X130649047Y-141302438D01*
X130649047Y-141302438D02*
X130696666Y-141350057D01*
X130696666Y-141350057D02*
X130744285Y-141445295D01*
X130744285Y-141445295D02*
X130744285Y-141588152D01*
X130744285Y-141588152D02*
X130696666Y-141683390D01*
X130696666Y-141683390D02*
X130649047Y-141731009D01*
X130649047Y-141731009D02*
X130553809Y-141778628D01*
X130553809Y-141778628D02*
X130172857Y-141778628D01*
X131696666Y-142254819D02*
X131125238Y-142254819D01*
X131410952Y-142254819D02*
X131410952Y-141254819D01*
X131410952Y-141254819D02*
X131315714Y-141397676D01*
X131315714Y-141397676D02*
X131220476Y-141492914D01*
X131220476Y-141492914D02*
X131125238Y-141540533D01*
X170690476Y-107719819D02*
X170690476Y-108434104D01*
X170690476Y-108434104D02*
X170642857Y-108576961D01*
X170642857Y-108576961D02*
X170547619Y-108672200D01*
X170547619Y-108672200D02*
X170404762Y-108719819D01*
X170404762Y-108719819D02*
X170309524Y-108719819D01*
X171690476Y-108719819D02*
X171119048Y-108719819D01*
X171404762Y-108719819D02*
X171404762Y-107719819D01*
X171404762Y-107719819D02*
X171309524Y-107862676D01*
X171309524Y-107862676D02*
X171214286Y-107957914D01*
X171214286Y-107957914D02*
X171119048Y-108005533D01*
X172642857Y-108719819D02*
X172071429Y-108719819D01*
X172357143Y-108719819D02*
X172357143Y-107719819D01*
X172357143Y-107719819D02*
X172261905Y-107862676D01*
X172261905Y-107862676D02*
X172166667Y-107957914D01*
X172166667Y-107957914D02*
X172071429Y-108005533D01*
X109689819Y-176833333D02*
X110404104Y-176833333D01*
X110404104Y-176833333D02*
X110546961Y-176880952D01*
X110546961Y-176880952D02*
X110642200Y-176976190D01*
X110642200Y-176976190D02*
X110689819Y-177119047D01*
X110689819Y-177119047D02*
X110689819Y-177214285D01*
X110118390Y-176214285D02*
X110070771Y-176309523D01*
X110070771Y-176309523D02*
X110023152Y-176357142D01*
X110023152Y-176357142D02*
X109927914Y-176404761D01*
X109927914Y-176404761D02*
X109880295Y-176404761D01*
X109880295Y-176404761D02*
X109785057Y-176357142D01*
X109785057Y-176357142D02*
X109737438Y-176309523D01*
X109737438Y-176309523D02*
X109689819Y-176214285D01*
X109689819Y-176214285D02*
X109689819Y-176023809D01*
X109689819Y-176023809D02*
X109737438Y-175928571D01*
X109737438Y-175928571D02*
X109785057Y-175880952D01*
X109785057Y-175880952D02*
X109880295Y-175833333D01*
X109880295Y-175833333D02*
X109927914Y-175833333D01*
X109927914Y-175833333D02*
X110023152Y-175880952D01*
X110023152Y-175880952D02*
X110070771Y-175928571D01*
X110070771Y-175928571D02*
X110118390Y-176023809D01*
X110118390Y-176023809D02*
X110118390Y-176214285D01*
X110118390Y-176214285D02*
X110166009Y-176309523D01*
X110166009Y-176309523D02*
X110213628Y-176357142D01*
X110213628Y-176357142D02*
X110308866Y-176404761D01*
X110308866Y-176404761D02*
X110499342Y-176404761D01*
X110499342Y-176404761D02*
X110594580Y-176357142D01*
X110594580Y-176357142D02*
X110642200Y-176309523D01*
X110642200Y-176309523D02*
X110689819Y-176214285D01*
X110689819Y-176214285D02*
X110689819Y-176023809D01*
X110689819Y-176023809D02*
X110642200Y-175928571D01*
X110642200Y-175928571D02*
X110594580Y-175880952D01*
X110594580Y-175880952D02*
X110499342Y-175833333D01*
X110499342Y-175833333D02*
X110308866Y-175833333D01*
X110308866Y-175833333D02*
X110213628Y-175880952D01*
X110213628Y-175880952D02*
X110166009Y-175928571D01*
X110166009Y-175928571D02*
X110118390Y-176023809D01*
X27976667Y-82597200D02*
X28119524Y-82644819D01*
X28119524Y-82644819D02*
X28357619Y-82644819D01*
X28357619Y-82644819D02*
X28452857Y-82597200D01*
X28452857Y-82597200D02*
X28500476Y-82549580D01*
X28500476Y-82549580D02*
X28548095Y-82454342D01*
X28548095Y-82454342D02*
X28548095Y-82359104D01*
X28548095Y-82359104D02*
X28500476Y-82263866D01*
X28500476Y-82263866D02*
X28452857Y-82216247D01*
X28452857Y-82216247D02*
X28357619Y-82168628D01*
X28357619Y-82168628D02*
X28167143Y-82121009D01*
X28167143Y-82121009D02*
X28071905Y-82073390D01*
X28071905Y-82073390D02*
X28024286Y-82025771D01*
X28024286Y-82025771D02*
X27976667Y-81930533D01*
X27976667Y-81930533D02*
X27976667Y-81835295D01*
X27976667Y-81835295D02*
X28024286Y-81740057D01*
X28024286Y-81740057D02*
X28071905Y-81692438D01*
X28071905Y-81692438D02*
X28167143Y-81644819D01*
X28167143Y-81644819D02*
X28405238Y-81644819D01*
X28405238Y-81644819D02*
X28548095Y-81692438D01*
X28881429Y-81644819D02*
X29119524Y-82644819D01*
X29119524Y-82644819D02*
X29310000Y-81930533D01*
X29310000Y-81930533D02*
X29500476Y-82644819D01*
X29500476Y-82644819D02*
X29738572Y-81644819D01*
X30643333Y-82644819D02*
X30071905Y-82644819D01*
X30357619Y-82644819D02*
X30357619Y-81644819D01*
X30357619Y-81644819D02*
X30262381Y-81787676D01*
X30262381Y-81787676D02*
X30167143Y-81882914D01*
X30167143Y-81882914D02*
X30071905Y-81930533D01*
X116138095Y-163184819D02*
X116138095Y-163994342D01*
X116138095Y-163994342D02*
X116185714Y-164089580D01*
X116185714Y-164089580D02*
X116233333Y-164137200D01*
X116233333Y-164137200D02*
X116328571Y-164184819D01*
X116328571Y-164184819D02*
X116519047Y-164184819D01*
X116519047Y-164184819D02*
X116614285Y-164137200D01*
X116614285Y-164137200D02*
X116661904Y-164089580D01*
X116661904Y-164089580D02*
X116709523Y-163994342D01*
X116709523Y-163994342D02*
X116709523Y-163184819D01*
X117614285Y-163518152D02*
X117614285Y-164184819D01*
X117376190Y-163137200D02*
X117138095Y-163851485D01*
X117138095Y-163851485D02*
X117757142Y-163851485D01*
X116439819Y-177309523D02*
X117154104Y-177309523D01*
X117154104Y-177309523D02*
X117296961Y-177357142D01*
X117296961Y-177357142D02*
X117392200Y-177452380D01*
X117392200Y-177452380D02*
X117439819Y-177595237D01*
X117439819Y-177595237D02*
X117439819Y-177690475D01*
X117439819Y-176309523D02*
X117439819Y-176880951D01*
X117439819Y-176595237D02*
X116439819Y-176595237D01*
X116439819Y-176595237D02*
X116582676Y-176690475D01*
X116582676Y-176690475D02*
X116677914Y-176785713D01*
X116677914Y-176785713D02*
X116725533Y-176880951D01*
X116439819Y-175690475D02*
X116439819Y-175595237D01*
X116439819Y-175595237D02*
X116487438Y-175499999D01*
X116487438Y-175499999D02*
X116535057Y-175452380D01*
X116535057Y-175452380D02*
X116630295Y-175404761D01*
X116630295Y-175404761D02*
X116820771Y-175357142D01*
X116820771Y-175357142D02*
X117058866Y-175357142D01*
X117058866Y-175357142D02*
X117249342Y-175404761D01*
X117249342Y-175404761D02*
X117344580Y-175452380D01*
X117344580Y-175452380D02*
X117392200Y-175499999D01*
X117392200Y-175499999D02*
X117439819Y-175595237D01*
X117439819Y-175595237D02*
X117439819Y-175690475D01*
X117439819Y-175690475D02*
X117392200Y-175785713D01*
X117392200Y-175785713D02*
X117344580Y-175833332D01*
X117344580Y-175833332D02*
X117249342Y-175880951D01*
X117249342Y-175880951D02*
X117058866Y-175928570D01*
X117058866Y-175928570D02*
X116820771Y-175928570D01*
X116820771Y-175928570D02*
X116630295Y-175880951D01*
X116630295Y-175880951D02*
X116535057Y-175833332D01*
X116535057Y-175833332D02*
X116487438Y-175785713D01*
X116487438Y-175785713D02*
X116439819Y-175690475D01*
X70416666Y-161759819D02*
X70416666Y-162474104D01*
X70416666Y-162474104D02*
X70369047Y-162616961D01*
X70369047Y-162616961D02*
X70273809Y-162712200D01*
X70273809Y-162712200D02*
X70130952Y-162759819D01*
X70130952Y-162759819D02*
X70035714Y-162759819D01*
X71321428Y-162093152D02*
X71321428Y-162759819D01*
X71083333Y-161712200D02*
X70845238Y-162426485D01*
X70845238Y-162426485D02*
X71464285Y-162426485D01*
X121666666Y-144104819D02*
X121666666Y-144819104D01*
X121666666Y-144819104D02*
X121619047Y-144961961D01*
X121619047Y-144961961D02*
X121523809Y-145057200D01*
X121523809Y-145057200D02*
X121380952Y-145104819D01*
X121380952Y-145104819D02*
X121285714Y-145104819D01*
X122142857Y-145104819D02*
X122142857Y-144104819D01*
X122142857Y-144104819D02*
X122523809Y-144104819D01*
X122523809Y-144104819D02*
X122619047Y-144152438D01*
X122619047Y-144152438D02*
X122666666Y-144200057D01*
X122666666Y-144200057D02*
X122714285Y-144295295D01*
X122714285Y-144295295D02*
X122714285Y-144438152D01*
X122714285Y-144438152D02*
X122666666Y-144533390D01*
X122666666Y-144533390D02*
X122619047Y-144581009D01*
X122619047Y-144581009D02*
X122523809Y-144628628D01*
X122523809Y-144628628D02*
X122142857Y-144628628D01*
X123095238Y-144200057D02*
X123142857Y-144152438D01*
X123142857Y-144152438D02*
X123238095Y-144104819D01*
X123238095Y-144104819D02*
X123476190Y-144104819D01*
X123476190Y-144104819D02*
X123571428Y-144152438D01*
X123571428Y-144152438D02*
X123619047Y-144200057D01*
X123619047Y-144200057D02*
X123666666Y-144295295D01*
X123666666Y-144295295D02*
X123666666Y-144390533D01*
X123666666Y-144390533D02*
X123619047Y-144533390D01*
X123619047Y-144533390D02*
X123047619Y-145104819D01*
X123047619Y-145104819D02*
X123666666Y-145104819D01*
X91166666Y-164454819D02*
X91166666Y-165169104D01*
X91166666Y-165169104D02*
X91119047Y-165311961D01*
X91119047Y-165311961D02*
X91023809Y-165407200D01*
X91023809Y-165407200D02*
X90880952Y-165454819D01*
X90880952Y-165454819D02*
X90785714Y-165454819D01*
X91642857Y-165454819D02*
X91642857Y-164454819D01*
X91642857Y-164454819D02*
X92023809Y-164454819D01*
X92023809Y-164454819D02*
X92119047Y-164502438D01*
X92119047Y-164502438D02*
X92166666Y-164550057D01*
X92166666Y-164550057D02*
X92214285Y-164645295D01*
X92214285Y-164645295D02*
X92214285Y-164788152D01*
X92214285Y-164788152D02*
X92166666Y-164883390D01*
X92166666Y-164883390D02*
X92119047Y-164931009D01*
X92119047Y-164931009D02*
X92023809Y-164978628D01*
X92023809Y-164978628D02*
X91642857Y-164978628D01*
X92547619Y-164454819D02*
X93214285Y-164454819D01*
X93214285Y-164454819D02*
X92785714Y-165454819D01*
X113316666Y-144104819D02*
X113316666Y-144819104D01*
X113316666Y-144819104D02*
X113269047Y-144961961D01*
X113269047Y-144961961D02*
X113173809Y-145057200D01*
X113173809Y-145057200D02*
X113030952Y-145104819D01*
X113030952Y-145104819D02*
X112935714Y-145104819D01*
X113792857Y-145104819D02*
X113792857Y-144104819D01*
X113792857Y-144104819D02*
X114173809Y-144104819D01*
X114173809Y-144104819D02*
X114269047Y-144152438D01*
X114269047Y-144152438D02*
X114316666Y-144200057D01*
X114316666Y-144200057D02*
X114364285Y-144295295D01*
X114364285Y-144295295D02*
X114364285Y-144438152D01*
X114364285Y-144438152D02*
X114316666Y-144533390D01*
X114316666Y-144533390D02*
X114269047Y-144581009D01*
X114269047Y-144581009D02*
X114173809Y-144628628D01*
X114173809Y-144628628D02*
X113792857Y-144628628D01*
X115269047Y-144104819D02*
X114792857Y-144104819D01*
X114792857Y-144104819D02*
X114745238Y-144581009D01*
X114745238Y-144581009D02*
X114792857Y-144533390D01*
X114792857Y-144533390D02*
X114888095Y-144485771D01*
X114888095Y-144485771D02*
X115126190Y-144485771D01*
X115126190Y-144485771D02*
X115221428Y-144533390D01*
X115221428Y-144533390D02*
X115269047Y-144581009D01*
X115269047Y-144581009D02*
X115316666Y-144676247D01*
X115316666Y-144676247D02*
X115316666Y-144914342D01*
X115316666Y-144914342D02*
X115269047Y-145009580D01*
X115269047Y-145009580D02*
X115221428Y-145057200D01*
X115221428Y-145057200D02*
X115126190Y-145104819D01*
X115126190Y-145104819D02*
X114888095Y-145104819D01*
X114888095Y-145104819D02*
X114792857Y-145057200D01*
X114792857Y-145057200D02*
X114745238Y-145009580D01*
X92738095Y-146054819D02*
X92738095Y-146864342D01*
X92738095Y-146864342D02*
X92785714Y-146959580D01*
X92785714Y-146959580D02*
X92833333Y-147007200D01*
X92833333Y-147007200D02*
X92928571Y-147054819D01*
X92928571Y-147054819D02*
X93119047Y-147054819D01*
X93119047Y-147054819D02*
X93214285Y-147007200D01*
X93214285Y-147007200D02*
X93261904Y-146959580D01*
X93261904Y-146959580D02*
X93309523Y-146864342D01*
X93309523Y-146864342D02*
X93309523Y-146054819D01*
X93690476Y-146054819D02*
X94309523Y-146054819D01*
X94309523Y-146054819D02*
X93976190Y-146435771D01*
X93976190Y-146435771D02*
X94119047Y-146435771D01*
X94119047Y-146435771D02*
X94214285Y-146483390D01*
X94214285Y-146483390D02*
X94261904Y-146531009D01*
X94261904Y-146531009D02*
X94309523Y-146626247D01*
X94309523Y-146626247D02*
X94309523Y-146864342D01*
X94309523Y-146864342D02*
X94261904Y-146959580D01*
X94261904Y-146959580D02*
X94214285Y-147007200D01*
X94214285Y-147007200D02*
X94119047Y-147054819D01*
X94119047Y-147054819D02*
X93833333Y-147054819D01*
X93833333Y-147054819D02*
X93738095Y-147007200D01*
X93738095Y-147007200D02*
X93690476Y-146959580D01*
X118966666Y-144104819D02*
X118966666Y-144819104D01*
X118966666Y-144819104D02*
X118919047Y-144961961D01*
X118919047Y-144961961D02*
X118823809Y-145057200D01*
X118823809Y-145057200D02*
X118680952Y-145104819D01*
X118680952Y-145104819D02*
X118585714Y-145104819D01*
X119442857Y-145104819D02*
X119442857Y-144104819D01*
X119442857Y-144104819D02*
X119823809Y-144104819D01*
X119823809Y-144104819D02*
X119919047Y-144152438D01*
X119919047Y-144152438D02*
X119966666Y-144200057D01*
X119966666Y-144200057D02*
X120014285Y-144295295D01*
X120014285Y-144295295D02*
X120014285Y-144438152D01*
X120014285Y-144438152D02*
X119966666Y-144533390D01*
X119966666Y-144533390D02*
X119919047Y-144581009D01*
X119919047Y-144581009D02*
X119823809Y-144628628D01*
X119823809Y-144628628D02*
X119442857Y-144628628D01*
X120347619Y-144104819D02*
X120966666Y-144104819D01*
X120966666Y-144104819D02*
X120633333Y-144485771D01*
X120633333Y-144485771D02*
X120776190Y-144485771D01*
X120776190Y-144485771D02*
X120871428Y-144533390D01*
X120871428Y-144533390D02*
X120919047Y-144581009D01*
X120919047Y-144581009D02*
X120966666Y-144676247D01*
X120966666Y-144676247D02*
X120966666Y-144914342D01*
X120966666Y-144914342D02*
X120919047Y-145009580D01*
X120919047Y-145009580D02*
X120871428Y-145057200D01*
X120871428Y-145057200D02*
X120776190Y-145104819D01*
X120776190Y-145104819D02*
X120490476Y-145104819D01*
X120490476Y-145104819D02*
X120395238Y-145057200D01*
X120395238Y-145057200D02*
X120347619Y-145009580D01*
X108204819Y-104833333D02*
X108919104Y-104833333D01*
X108919104Y-104833333D02*
X109061961Y-104880952D01*
X109061961Y-104880952D02*
X109157200Y-104976190D01*
X109157200Y-104976190D02*
X109204819Y-105119047D01*
X109204819Y-105119047D02*
X109204819Y-105214285D01*
X108204819Y-103880952D02*
X108204819Y-104357142D01*
X108204819Y-104357142D02*
X108681009Y-104404761D01*
X108681009Y-104404761D02*
X108633390Y-104357142D01*
X108633390Y-104357142D02*
X108585771Y-104261904D01*
X108585771Y-104261904D02*
X108585771Y-104023809D01*
X108585771Y-104023809D02*
X108633390Y-103928571D01*
X108633390Y-103928571D02*
X108681009Y-103880952D01*
X108681009Y-103880952D02*
X108776247Y-103833333D01*
X108776247Y-103833333D02*
X109014342Y-103833333D01*
X109014342Y-103833333D02*
X109109580Y-103880952D01*
X109109580Y-103880952D02*
X109157200Y-103928571D01*
X109157200Y-103928571D02*
X109204819Y-104023809D01*
X109204819Y-104023809D02*
X109204819Y-104261904D01*
X109204819Y-104261904D02*
X109157200Y-104357142D01*
X109157200Y-104357142D02*
X109109580Y-104404761D01*
X70166666Y-164209819D02*
X70166666Y-164924104D01*
X70166666Y-164924104D02*
X70119047Y-165066961D01*
X70119047Y-165066961D02*
X70023809Y-165162200D01*
X70023809Y-165162200D02*
X69880952Y-165209819D01*
X69880952Y-165209819D02*
X69785714Y-165209819D01*
X70690476Y-165209819D02*
X70880952Y-165209819D01*
X70880952Y-165209819D02*
X70976190Y-165162200D01*
X70976190Y-165162200D02*
X71023809Y-165114580D01*
X71023809Y-165114580D02*
X71119047Y-164971723D01*
X71119047Y-164971723D02*
X71166666Y-164781247D01*
X71166666Y-164781247D02*
X71166666Y-164400295D01*
X71166666Y-164400295D02*
X71119047Y-164305057D01*
X71119047Y-164305057D02*
X71071428Y-164257438D01*
X71071428Y-164257438D02*
X70976190Y-164209819D01*
X70976190Y-164209819D02*
X70785714Y-164209819D01*
X70785714Y-164209819D02*
X70690476Y-164257438D01*
X70690476Y-164257438D02*
X70642857Y-164305057D01*
X70642857Y-164305057D02*
X70595238Y-164400295D01*
X70595238Y-164400295D02*
X70595238Y-164638390D01*
X70595238Y-164638390D02*
X70642857Y-164733628D01*
X70642857Y-164733628D02*
X70690476Y-164781247D01*
X70690476Y-164781247D02*
X70785714Y-164828866D01*
X70785714Y-164828866D02*
X70976190Y-164828866D01*
X70976190Y-164828866D02*
X71071428Y-164781247D01*
X71071428Y-164781247D02*
X71119047Y-164733628D01*
X71119047Y-164733628D02*
X71166666Y-164638390D01*
X100166666Y-176939819D02*
X100166666Y-177654104D01*
X100166666Y-177654104D02*
X100119047Y-177796961D01*
X100119047Y-177796961D02*
X100023809Y-177892200D01*
X100023809Y-177892200D02*
X99880952Y-177939819D01*
X99880952Y-177939819D02*
X99785714Y-177939819D01*
X101071428Y-176939819D02*
X100880952Y-176939819D01*
X100880952Y-176939819D02*
X100785714Y-176987438D01*
X100785714Y-176987438D02*
X100738095Y-177035057D01*
X100738095Y-177035057D02*
X100642857Y-177177914D01*
X100642857Y-177177914D02*
X100595238Y-177368390D01*
X100595238Y-177368390D02*
X100595238Y-177749342D01*
X100595238Y-177749342D02*
X100642857Y-177844580D01*
X100642857Y-177844580D02*
X100690476Y-177892200D01*
X100690476Y-177892200D02*
X100785714Y-177939819D01*
X100785714Y-177939819D02*
X100976190Y-177939819D01*
X100976190Y-177939819D02*
X101071428Y-177892200D01*
X101071428Y-177892200D02*
X101119047Y-177844580D01*
X101119047Y-177844580D02*
X101166666Y-177749342D01*
X101166666Y-177749342D02*
X101166666Y-177511247D01*
X101166666Y-177511247D02*
X101119047Y-177416009D01*
X101119047Y-177416009D02*
X101071428Y-177368390D01*
X101071428Y-177368390D02*
X100976190Y-177320771D01*
X100976190Y-177320771D02*
X100785714Y-177320771D01*
X100785714Y-177320771D02*
X100690476Y-177368390D01*
X100690476Y-177368390D02*
X100642857Y-177416009D01*
X100642857Y-177416009D02*
X100595238Y-177511247D01*
X92666666Y-171959819D02*
X92666666Y-172674104D01*
X92666666Y-172674104D02*
X92619047Y-172816961D01*
X92619047Y-172816961D02*
X92523809Y-172912200D01*
X92523809Y-172912200D02*
X92380952Y-172959819D01*
X92380952Y-172959819D02*
X92285714Y-172959819D01*
X93047619Y-171959819D02*
X93714285Y-171959819D01*
X93714285Y-171959819D02*
X93285714Y-172959819D01*
X96836666Y-164454819D02*
X96836666Y-165169104D01*
X96836666Y-165169104D02*
X96789047Y-165311961D01*
X96789047Y-165311961D02*
X96693809Y-165407200D01*
X96693809Y-165407200D02*
X96550952Y-165454819D01*
X96550952Y-165454819D02*
X96455714Y-165454819D01*
X97312857Y-165454819D02*
X97312857Y-164454819D01*
X97312857Y-164454819D02*
X97693809Y-164454819D01*
X97693809Y-164454819D02*
X97789047Y-164502438D01*
X97789047Y-164502438D02*
X97836666Y-164550057D01*
X97836666Y-164550057D02*
X97884285Y-164645295D01*
X97884285Y-164645295D02*
X97884285Y-164788152D01*
X97884285Y-164788152D02*
X97836666Y-164883390D01*
X97836666Y-164883390D02*
X97789047Y-164931009D01*
X97789047Y-164931009D02*
X97693809Y-164978628D01*
X97693809Y-164978628D02*
X97312857Y-164978628D01*
X98360476Y-165454819D02*
X98550952Y-165454819D01*
X98550952Y-165454819D02*
X98646190Y-165407200D01*
X98646190Y-165407200D02*
X98693809Y-165359580D01*
X98693809Y-165359580D02*
X98789047Y-165216723D01*
X98789047Y-165216723D02*
X98836666Y-165026247D01*
X98836666Y-165026247D02*
X98836666Y-164645295D01*
X98836666Y-164645295D02*
X98789047Y-164550057D01*
X98789047Y-164550057D02*
X98741428Y-164502438D01*
X98741428Y-164502438D02*
X98646190Y-164454819D01*
X98646190Y-164454819D02*
X98455714Y-164454819D01*
X98455714Y-164454819D02*
X98360476Y-164502438D01*
X98360476Y-164502438D02*
X98312857Y-164550057D01*
X98312857Y-164550057D02*
X98265238Y-164645295D01*
X98265238Y-164645295D02*
X98265238Y-164883390D01*
X98265238Y-164883390D02*
X98312857Y-164978628D01*
X98312857Y-164978628D02*
X98360476Y-165026247D01*
X98360476Y-165026247D02*
X98455714Y-165073866D01*
X98455714Y-165073866D02*
X98646190Y-165073866D01*
X98646190Y-165073866D02*
X98741428Y-165026247D01*
X98741428Y-165026247D02*
X98789047Y-164978628D01*
X98789047Y-164978628D02*
X98836666Y-164883390D01*
X94001666Y-164454819D02*
X94001666Y-165169104D01*
X94001666Y-165169104D02*
X93954047Y-165311961D01*
X93954047Y-165311961D02*
X93858809Y-165407200D01*
X93858809Y-165407200D02*
X93715952Y-165454819D01*
X93715952Y-165454819D02*
X93620714Y-165454819D01*
X94477857Y-165454819D02*
X94477857Y-164454819D01*
X94477857Y-164454819D02*
X94858809Y-164454819D01*
X94858809Y-164454819D02*
X94954047Y-164502438D01*
X94954047Y-164502438D02*
X95001666Y-164550057D01*
X95001666Y-164550057D02*
X95049285Y-164645295D01*
X95049285Y-164645295D02*
X95049285Y-164788152D01*
X95049285Y-164788152D02*
X95001666Y-164883390D01*
X95001666Y-164883390D02*
X94954047Y-164931009D01*
X94954047Y-164931009D02*
X94858809Y-164978628D01*
X94858809Y-164978628D02*
X94477857Y-164978628D01*
X95620714Y-164883390D02*
X95525476Y-164835771D01*
X95525476Y-164835771D02*
X95477857Y-164788152D01*
X95477857Y-164788152D02*
X95430238Y-164692914D01*
X95430238Y-164692914D02*
X95430238Y-164645295D01*
X95430238Y-164645295D02*
X95477857Y-164550057D01*
X95477857Y-164550057D02*
X95525476Y-164502438D01*
X95525476Y-164502438D02*
X95620714Y-164454819D01*
X95620714Y-164454819D02*
X95811190Y-164454819D01*
X95811190Y-164454819D02*
X95906428Y-164502438D01*
X95906428Y-164502438D02*
X95954047Y-164550057D01*
X95954047Y-164550057D02*
X96001666Y-164645295D01*
X96001666Y-164645295D02*
X96001666Y-164692914D01*
X96001666Y-164692914D02*
X95954047Y-164788152D01*
X95954047Y-164788152D02*
X95906428Y-164835771D01*
X95906428Y-164835771D02*
X95811190Y-164883390D01*
X95811190Y-164883390D02*
X95620714Y-164883390D01*
X95620714Y-164883390D02*
X95525476Y-164931009D01*
X95525476Y-164931009D02*
X95477857Y-164978628D01*
X95477857Y-164978628D02*
X95430238Y-165073866D01*
X95430238Y-165073866D02*
X95430238Y-165264342D01*
X95430238Y-165264342D02*
X95477857Y-165359580D01*
X95477857Y-165359580D02*
X95525476Y-165407200D01*
X95525476Y-165407200D02*
X95620714Y-165454819D01*
X95620714Y-165454819D02*
X95811190Y-165454819D01*
X95811190Y-165454819D02*
X95906428Y-165407200D01*
X95906428Y-165407200D02*
X95954047Y-165359580D01*
X95954047Y-165359580D02*
X96001666Y-165264342D01*
X96001666Y-165264342D02*
X96001666Y-165073866D01*
X96001666Y-165073866D02*
X95954047Y-164978628D01*
X95954047Y-164978628D02*
X95906428Y-164931009D01*
X95906428Y-164931009D02*
X95811190Y-164883390D01*
X96029819Y-140333333D02*
X96744104Y-140333333D01*
X96744104Y-140333333D02*
X96886961Y-140380952D01*
X96886961Y-140380952D02*
X96982200Y-140476190D01*
X96982200Y-140476190D02*
X97029819Y-140619047D01*
X97029819Y-140619047D02*
X97029819Y-140714285D01*
X96125057Y-139904761D02*
X96077438Y-139857142D01*
X96077438Y-139857142D02*
X96029819Y-139761904D01*
X96029819Y-139761904D02*
X96029819Y-139523809D01*
X96029819Y-139523809D02*
X96077438Y-139428571D01*
X96077438Y-139428571D02*
X96125057Y-139380952D01*
X96125057Y-139380952D02*
X96220295Y-139333333D01*
X96220295Y-139333333D02*
X96315533Y-139333333D01*
X96315533Y-139333333D02*
X96458390Y-139380952D01*
X96458390Y-139380952D02*
X97029819Y-139952380D01*
X97029819Y-139952380D02*
X97029819Y-139333333D01*
X88331666Y-164454819D02*
X88331666Y-165169104D01*
X88331666Y-165169104D02*
X88284047Y-165311961D01*
X88284047Y-165311961D02*
X88188809Y-165407200D01*
X88188809Y-165407200D02*
X88045952Y-165454819D01*
X88045952Y-165454819D02*
X87950714Y-165454819D01*
X88807857Y-165454819D02*
X88807857Y-164454819D01*
X88807857Y-164454819D02*
X89188809Y-164454819D01*
X89188809Y-164454819D02*
X89284047Y-164502438D01*
X89284047Y-164502438D02*
X89331666Y-164550057D01*
X89331666Y-164550057D02*
X89379285Y-164645295D01*
X89379285Y-164645295D02*
X89379285Y-164788152D01*
X89379285Y-164788152D02*
X89331666Y-164883390D01*
X89331666Y-164883390D02*
X89284047Y-164931009D01*
X89284047Y-164931009D02*
X89188809Y-164978628D01*
X89188809Y-164978628D02*
X88807857Y-164978628D01*
X90236428Y-164454819D02*
X90045952Y-164454819D01*
X90045952Y-164454819D02*
X89950714Y-164502438D01*
X89950714Y-164502438D02*
X89903095Y-164550057D01*
X89903095Y-164550057D02*
X89807857Y-164692914D01*
X89807857Y-164692914D02*
X89760238Y-164883390D01*
X89760238Y-164883390D02*
X89760238Y-165264342D01*
X89760238Y-165264342D02*
X89807857Y-165359580D01*
X89807857Y-165359580D02*
X89855476Y-165407200D01*
X89855476Y-165407200D02*
X89950714Y-165454819D01*
X89950714Y-165454819D02*
X90141190Y-165454819D01*
X90141190Y-165454819D02*
X90236428Y-165407200D01*
X90236428Y-165407200D02*
X90284047Y-165359580D01*
X90284047Y-165359580D02*
X90331666Y-165264342D01*
X90331666Y-165264342D02*
X90331666Y-165026247D01*
X90331666Y-165026247D02*
X90284047Y-164931009D01*
X90284047Y-164931009D02*
X90236428Y-164883390D01*
X90236428Y-164883390D02*
X90141190Y-164835771D01*
X90141190Y-164835771D02*
X89950714Y-164835771D01*
X89950714Y-164835771D02*
X89855476Y-164883390D01*
X89855476Y-164883390D02*
X89807857Y-164931009D01*
X89807857Y-164931009D02*
X89760238Y-165026247D01*
X155011667Y-116394700D02*
X155154524Y-116442319D01*
X155154524Y-116442319D02*
X155392619Y-116442319D01*
X155392619Y-116442319D02*
X155487857Y-116394700D01*
X155487857Y-116394700D02*
X155535476Y-116347080D01*
X155535476Y-116347080D02*
X155583095Y-116251842D01*
X155583095Y-116251842D02*
X155583095Y-116156604D01*
X155583095Y-116156604D02*
X155535476Y-116061366D01*
X155535476Y-116061366D02*
X155487857Y-116013747D01*
X155487857Y-116013747D02*
X155392619Y-115966128D01*
X155392619Y-115966128D02*
X155202143Y-115918509D01*
X155202143Y-115918509D02*
X155106905Y-115870890D01*
X155106905Y-115870890D02*
X155059286Y-115823271D01*
X155059286Y-115823271D02*
X155011667Y-115728033D01*
X155011667Y-115728033D02*
X155011667Y-115632795D01*
X155011667Y-115632795D02*
X155059286Y-115537557D01*
X155059286Y-115537557D02*
X155106905Y-115489938D01*
X155106905Y-115489938D02*
X155202143Y-115442319D01*
X155202143Y-115442319D02*
X155440238Y-115442319D01*
X155440238Y-115442319D02*
X155583095Y-115489938D01*
X155916429Y-115442319D02*
X156154524Y-116442319D01*
X156154524Y-116442319D02*
X156345000Y-115728033D01*
X156345000Y-115728033D02*
X156535476Y-116442319D01*
X156535476Y-116442319D02*
X156773572Y-115442319D01*
X157106905Y-115537557D02*
X157154524Y-115489938D01*
X157154524Y-115489938D02*
X157249762Y-115442319D01*
X157249762Y-115442319D02*
X157487857Y-115442319D01*
X157487857Y-115442319D02*
X157583095Y-115489938D01*
X157583095Y-115489938D02*
X157630714Y-115537557D01*
X157630714Y-115537557D02*
X157678333Y-115632795D01*
X157678333Y-115632795D02*
X157678333Y-115728033D01*
X157678333Y-115728033D02*
X157630714Y-115870890D01*
X157630714Y-115870890D02*
X157059286Y-116442319D01*
X157059286Y-116442319D02*
X157678333Y-116442319D01*
X116166666Y-144104819D02*
X116166666Y-144819104D01*
X116166666Y-144819104D02*
X116119047Y-144961961D01*
X116119047Y-144961961D02*
X116023809Y-145057200D01*
X116023809Y-145057200D02*
X115880952Y-145104819D01*
X115880952Y-145104819D02*
X115785714Y-145104819D01*
X116642857Y-145104819D02*
X116642857Y-144104819D01*
X116642857Y-144104819D02*
X117023809Y-144104819D01*
X117023809Y-144104819D02*
X117119047Y-144152438D01*
X117119047Y-144152438D02*
X117166666Y-144200057D01*
X117166666Y-144200057D02*
X117214285Y-144295295D01*
X117214285Y-144295295D02*
X117214285Y-144438152D01*
X117214285Y-144438152D02*
X117166666Y-144533390D01*
X117166666Y-144533390D02*
X117119047Y-144581009D01*
X117119047Y-144581009D02*
X117023809Y-144628628D01*
X117023809Y-144628628D02*
X116642857Y-144628628D01*
X118071428Y-144438152D02*
X118071428Y-145104819D01*
X117833333Y-144057200D02*
X117595238Y-144771485D01*
X117595238Y-144771485D02*
X118214285Y-144771485D01*
X184940476Y-112509819D02*
X184940476Y-113224104D01*
X184940476Y-113224104D02*
X184892857Y-113366961D01*
X184892857Y-113366961D02*
X184797619Y-113462200D01*
X184797619Y-113462200D02*
X184654762Y-113509819D01*
X184654762Y-113509819D02*
X184559524Y-113509819D01*
X185940476Y-113509819D02*
X185369048Y-113509819D01*
X185654762Y-113509819D02*
X185654762Y-112509819D01*
X185654762Y-112509819D02*
X185559524Y-112652676D01*
X185559524Y-112652676D02*
X185464286Y-112747914D01*
X185464286Y-112747914D02*
X185369048Y-112795533D01*
X186321429Y-112605057D02*
X186369048Y-112557438D01*
X186369048Y-112557438D02*
X186464286Y-112509819D01*
X186464286Y-112509819D02*
X186702381Y-112509819D01*
X186702381Y-112509819D02*
X186797619Y-112557438D01*
X186797619Y-112557438D02*
X186845238Y-112605057D01*
X186845238Y-112605057D02*
X186892857Y-112700295D01*
X186892857Y-112700295D02*
X186892857Y-112795533D01*
X186892857Y-112795533D02*
X186845238Y-112938390D01*
X186845238Y-112938390D02*
X186273810Y-113509819D01*
X186273810Y-113509819D02*
X186892857Y-113509819D01*
%TO.C,D4*%
X95290000Y-76060000D02*
X95290000Y-78750000D01*
X95290000Y-78750000D02*
X97210000Y-78750000D01*
X97210000Y-78750000D02*
X97210000Y-76060000D01*
%TO.C,U5*%
X100070000Y-95610000D02*
X104430000Y-95610000D01*
X100070000Y-100890000D02*
X100070000Y-95610000D01*
X104430000Y-95610000D02*
X104430000Y-100890000D01*
X104430000Y-100890000D02*
X100070000Y-100890000D01*
X104780000Y-100750000D02*
G75*
G02*
X104720000Y-100750000I-30000J0D01*
G01*
X104720000Y-100750000D02*
G75*
G02*
X104780000Y-100750000I30000J0D01*
G01*
%TO.C,U2*%
X150630000Y-77170000D02*
X153570000Y-77170000D01*
X150630000Y-83830000D02*
X150630000Y-77170000D01*
X153570000Y-77170000D02*
X153570000Y-83830000D01*
X153570000Y-83830000D02*
X150630000Y-83830000D01*
X150280000Y-77500000D02*
G75*
G02*
X150220000Y-77500000I-30000J0D01*
G01*
X150220000Y-77500000D02*
G75*
G02*
X150280000Y-77500000I30000J0D01*
G01*
%TO.C,D1*%
X191000000Y-118645000D02*
X193690000Y-118645000D01*
X193690000Y-116725000D02*
X191000000Y-116725000D01*
X193690000Y-118645000D02*
X193690000Y-116725000D01*
D12*
%TO.C,JP1*%
X129130000Y-143900000D02*
X129130000Y-143300000D01*
X129830000Y-142600000D02*
X131230000Y-142600000D01*
X131230000Y-144600000D02*
X129830000Y-144600000D01*
X131930000Y-143300000D02*
X131930000Y-143900000D01*
X129130000Y-143300000D02*
G75*
G02*
X129830000Y-142600000I699999J1D01*
G01*
X129830000Y-144600000D02*
G75*
G02*
X129130000Y-143900000I-1J699999D01*
G01*
X131230000Y-142600000D02*
G75*
G02*
X131930000Y-143300000I0J-700000D01*
G01*
X131930000Y-143900000D02*
G75*
G02*
X131230000Y-144600000I-700000J0D01*
G01*
%TO.C,J11*%
X170340000Y-105710000D02*
X170340000Y-96885000D01*
X170833292Y-105710000D02*
X170340000Y-105710000D01*
X171182077Y-96885000D02*
X170340000Y-96885000D01*
X172660000Y-96885000D02*
X171817923Y-96885000D01*
X172660000Y-105710000D02*
X172166708Y-105710000D01*
X172660000Y-105710000D02*
X172660000Y-96885000D01*
X172660000Y-106520000D02*
X172660000Y-107330000D01*
X172660000Y-107330000D02*
X171500000Y-107330000D01*
D11*
%TO.C,S6*%
X197000000Y-160430000D02*
X197000000Y-162770000D01*
X197380000Y-163260000D02*
X198270000Y-164150000D01*
X197750000Y-160600000D02*
X198550000Y-159800000D01*
X197750000Y-162600000D02*
X197750000Y-160600000D01*
X198270000Y-159050000D02*
X197380000Y-159940000D01*
X198270000Y-159050000D02*
X200830000Y-159050000D01*
X198270000Y-164150000D02*
X200830000Y-164150000D01*
X198550000Y-159800000D02*
X200450000Y-159800000D01*
X198650000Y-163500000D02*
X197750000Y-162600000D01*
X200350000Y-163500000D02*
X198650000Y-163500000D01*
X200450000Y-159800000D02*
X201350000Y-160700000D01*
X200830000Y-159050000D02*
X201720000Y-159940000D01*
X201350000Y-160700000D02*
X201350000Y-162500000D01*
X201350000Y-162500000D02*
X200350000Y-163500000D01*
X201720000Y-163260000D02*
X200830000Y-164150000D01*
X202100000Y-160430000D02*
X202100000Y-162770000D01*
X196330000Y-159100000D02*
G75*
G02*
X196270000Y-159100000I-30000J0D01*
G01*
X196270000Y-159100000D02*
G75*
G02*
X196330000Y-159100000I30000J0D01*
G01*
X200830000Y-161600000D02*
G75*
G02*
X198270000Y-161600000I-1280000J0D01*
G01*
X198270000Y-161600000D02*
G75*
G02*
X200830000Y-161600000I1280000J0D01*
G01*
%TO.C,D11*%
X191000000Y-100225000D02*
X193690000Y-100225000D01*
X193690000Y-98305000D02*
X191000000Y-98305000D01*
X193690000Y-100225000D02*
X193690000Y-98305000D01*
%TO.C,D3*%
X97890000Y-75940000D02*
X97890000Y-78630000D01*
X97890000Y-78630000D02*
X99810000Y-78630000D01*
X99810000Y-78630000D02*
X99810000Y-75940000D01*
D12*
%TO.C,J8*%
X111170000Y-177660000D02*
X111170000Y-176500000D01*
X111980000Y-177660000D02*
X111170000Y-177660000D01*
X112790000Y-175340000D02*
X115265000Y-175340000D01*
X112790000Y-175833292D02*
X112790000Y-175340000D01*
X112790000Y-177660000D02*
X112790000Y-177166708D01*
X112790000Y-177660000D02*
X115265000Y-177660000D01*
X115265000Y-176182077D02*
X115265000Y-175340000D01*
X115265000Y-177660000D02*
X115265000Y-176817923D01*
D11*
%TO.C,D12*%
X191000000Y-97155000D02*
X193690000Y-97155000D01*
X193690000Y-95235000D02*
X191000000Y-95235000D01*
X193690000Y-97155000D02*
X193690000Y-95235000D01*
D12*
%TO.C,SW1*%
X25660000Y-82950000D02*
X25660000Y-84260000D01*
X25660000Y-82950000D02*
X27043000Y-82950000D01*
X25900000Y-83190000D02*
X25900000Y-84260000D01*
X25900000Y-83190000D02*
X32720000Y-83190000D01*
X25900000Y-86340000D02*
X25900000Y-86880000D01*
X25900000Y-88800000D02*
X25900000Y-89420000D01*
X25900000Y-91340000D02*
X25900000Y-91960000D01*
X25900000Y-93880000D02*
X25900000Y-94500000D01*
X25900000Y-96420000D02*
X25900000Y-97040000D01*
X25900000Y-98960000D02*
X25900000Y-99580000D01*
X25900000Y-101500000D02*
X25900000Y-102120000D01*
X25900000Y-104040000D02*
X25900000Y-105190000D01*
X25900000Y-105190000D02*
X32720000Y-105190000D01*
X28706667Y-84665000D02*
X28706667Y-85935000D01*
X28706667Y-87205000D02*
X28706667Y-88475000D01*
X28706667Y-89745000D02*
X28706667Y-91015000D01*
X28706667Y-92285000D02*
X28706667Y-93555000D01*
X28706667Y-94825000D02*
X28706667Y-96095000D01*
X28706667Y-97365000D02*
X28706667Y-98635000D01*
X28706667Y-99905000D02*
X28706667Y-101175000D01*
X28706667Y-102445000D02*
X28706667Y-103715000D01*
X32720000Y-83190000D02*
X32720000Y-84340000D01*
X32720000Y-86260000D02*
X32720000Y-86880000D01*
X32720000Y-88800000D02*
X32720000Y-89420000D01*
X32720000Y-91340000D02*
X32720000Y-91960000D01*
X32720000Y-93880000D02*
X32720000Y-94500000D01*
X32720000Y-96420000D02*
X32720000Y-97040000D01*
X32720000Y-98960000D02*
X32720000Y-99580000D01*
X32720000Y-101500000D02*
X32720000Y-102120000D01*
X32720000Y-104040000D02*
X32720000Y-105190000D01*
X27500000Y-84665000D02*
X28706667Y-84665000D01*
X28706667Y-85935000D01*
X27500000Y-85935000D01*
X27500000Y-84665000D01*
G36*
X27500000Y-84665000D02*
G01*
X28706667Y-84665000D01*
X28706667Y-85935000D01*
X27500000Y-85935000D01*
X27500000Y-84665000D01*
G37*
X27500000Y-84665000D02*
X31120000Y-84665000D01*
X31120000Y-85935000D01*
X27500000Y-85935000D01*
X27500000Y-84665000D01*
X27500000Y-87205000D02*
X28706667Y-87205000D01*
X28706667Y-88475000D01*
X27500000Y-88475000D01*
X27500000Y-87205000D01*
G36*
X27500000Y-87205000D02*
G01*
X28706667Y-87205000D01*
X28706667Y-88475000D01*
X27500000Y-88475000D01*
X27500000Y-87205000D01*
G37*
X27500000Y-87205000D02*
X31120000Y-87205000D01*
X31120000Y-88475000D01*
X27500000Y-88475000D01*
X27500000Y-87205000D01*
X27500000Y-89745000D02*
X28706667Y-89745000D01*
X28706667Y-91015000D01*
X27500000Y-91015000D01*
X27500000Y-89745000D01*
G36*
X27500000Y-89745000D02*
G01*
X28706667Y-89745000D01*
X28706667Y-91015000D01*
X27500000Y-91015000D01*
X27500000Y-89745000D01*
G37*
X27500000Y-89745000D02*
X31120000Y-89745000D01*
X31120000Y-91015000D01*
X27500000Y-91015000D01*
X27500000Y-89745000D01*
X27500000Y-92285000D02*
X28706667Y-92285000D01*
X28706667Y-93555000D01*
X27500000Y-93555000D01*
X27500000Y-92285000D01*
G36*
X27500000Y-92285000D02*
G01*
X28706667Y-92285000D01*
X28706667Y-93555000D01*
X27500000Y-93555000D01*
X27500000Y-92285000D01*
G37*
X27500000Y-92285000D02*
X31120000Y-92285000D01*
X31120000Y-93555000D01*
X27500000Y-93555000D01*
X27500000Y-92285000D01*
X27500000Y-94825000D02*
X28706667Y-94825000D01*
X28706667Y-96095000D01*
X27500000Y-96095000D01*
X27500000Y-94825000D01*
G36*
X27500000Y-94825000D02*
G01*
X28706667Y-94825000D01*
X28706667Y-96095000D01*
X27500000Y-96095000D01*
X27500000Y-94825000D01*
G37*
X27500000Y-94825000D02*
X31120000Y-94825000D01*
X31120000Y-96095000D01*
X27500000Y-96095000D01*
X27500000Y-94825000D01*
X27500000Y-97365000D02*
X28706667Y-97365000D01*
X28706667Y-98635000D01*
X27500000Y-98635000D01*
X27500000Y-97365000D01*
G36*
X27500000Y-97365000D02*
G01*
X28706667Y-97365000D01*
X28706667Y-98635000D01*
X27500000Y-98635000D01*
X27500000Y-97365000D01*
G37*
X27500000Y-97365000D02*
X31120000Y-97365000D01*
X31120000Y-98635000D01*
X27500000Y-98635000D01*
X27500000Y-97365000D01*
X27500000Y-99905000D02*
X28706667Y-99905000D01*
X28706667Y-101175000D01*
X27500000Y-101175000D01*
X27500000Y-99905000D01*
G36*
X27500000Y-99905000D02*
G01*
X28706667Y-99905000D01*
X28706667Y-101175000D01*
X27500000Y-101175000D01*
X27500000Y-99905000D01*
G37*
X27500000Y-99905000D02*
X31120000Y-99905000D01*
X31120000Y-101175000D01*
X27500000Y-101175000D01*
X27500000Y-99905000D01*
X27500000Y-102445000D02*
X28706667Y-102445000D01*
X28706667Y-103715000D01*
X27500000Y-103715000D01*
X27500000Y-102445000D01*
G36*
X27500000Y-102445000D02*
G01*
X28706667Y-102445000D01*
X28706667Y-103715000D01*
X27500000Y-103715000D01*
X27500000Y-102445000D01*
G37*
X27500000Y-102445000D02*
X31120000Y-102445000D01*
X31120000Y-103715000D01*
X27500000Y-103715000D01*
X27500000Y-102445000D01*
D11*
%TO.C,D9*%
X191000000Y-106365000D02*
X193690000Y-106365000D01*
X193690000Y-104445000D02*
X191000000Y-104445000D01*
X193690000Y-106365000D02*
X193690000Y-104445000D01*
%TO.C,D7*%
X191000000Y-112505000D02*
X193690000Y-112505000D01*
X193690000Y-110585000D02*
X191000000Y-110585000D01*
X193690000Y-112505000D02*
X193690000Y-110585000D01*
%TO.C,D5*%
X102790000Y-76000000D02*
X102790000Y-78690000D01*
X102790000Y-78690000D02*
X104710000Y-78690000D01*
X104710000Y-78690000D02*
X104710000Y-76000000D01*
%TO.C,S4*%
X182150000Y-151930000D02*
X182150000Y-154270000D01*
X182530000Y-154760000D02*
X183420000Y-155650000D01*
X182900000Y-152100000D02*
X183700000Y-151300000D01*
X182900000Y-154100000D02*
X182900000Y-152100000D01*
X183420000Y-150550000D02*
X182530000Y-151440000D01*
X183420000Y-150550000D02*
X185980000Y-150550000D01*
X183420000Y-155650000D02*
X185980000Y-155650000D01*
X183700000Y-151300000D02*
X185600000Y-151300000D01*
X183800000Y-155000000D02*
X182900000Y-154100000D01*
X185500000Y-155000000D02*
X183800000Y-155000000D01*
X185600000Y-151300000D02*
X186500000Y-152200000D01*
X185980000Y-150550000D02*
X186870000Y-151440000D01*
X186500000Y-152200000D02*
X186500000Y-154000000D01*
X186500000Y-154000000D02*
X185500000Y-155000000D01*
X186870000Y-154760000D02*
X185980000Y-155650000D01*
X187250000Y-151930000D02*
X187250000Y-154270000D01*
X181480000Y-150600000D02*
G75*
G02*
X181420000Y-150600000I-30000J0D01*
G01*
X181420000Y-150600000D02*
G75*
G02*
X181480000Y-150600000I30000J0D01*
G01*
X185980000Y-153100000D02*
G75*
G02*
X183420000Y-153100000I-1280000J0D01*
G01*
X183420000Y-153100000D02*
G75*
G02*
X185980000Y-153100000I1280000J0D01*
G01*
%TO.C,U1*%
X56680000Y-75670000D02*
X59620000Y-75670000D01*
X56680000Y-82330000D02*
X56680000Y-75670000D01*
X59620000Y-75670000D02*
X59620000Y-82330000D01*
X59620000Y-82330000D02*
X56680000Y-82330000D01*
X60030000Y-82000000D02*
G75*
G02*
X59970000Y-82000000I-30000J0D01*
G01*
X59970000Y-82000000D02*
G75*
G02*
X60030000Y-82000000I30000J0D01*
G01*
%TO.C,S2*%
X33700000Y-137080000D02*
X33700000Y-139420000D01*
X34080000Y-139910000D02*
X34970000Y-140800000D01*
X34450000Y-137250000D02*
X35250000Y-136450000D01*
X34450000Y-139250000D02*
X34450000Y-137250000D01*
X34970000Y-135700000D02*
X34080000Y-136590000D01*
X34970000Y-135700000D02*
X37530000Y-135700000D01*
X34970000Y-140800000D02*
X37530000Y-140800000D01*
X35250000Y-136450000D02*
X37150000Y-136450000D01*
X35350000Y-140150000D02*
X34450000Y-139250000D01*
X37050000Y-140150000D02*
X35350000Y-140150000D01*
X37150000Y-136450000D02*
X38050000Y-137350000D01*
X37530000Y-135700000D02*
X38420000Y-136590000D01*
X38050000Y-137350000D02*
X38050000Y-139150000D01*
X38050000Y-139150000D02*
X37050000Y-140150000D01*
X38420000Y-139910000D02*
X37530000Y-140800000D01*
X38800000Y-137080000D02*
X38800000Y-139420000D01*
X33030000Y-135750000D02*
G75*
G02*
X32970000Y-135750000I-30000J0D01*
G01*
X32970000Y-135750000D02*
G75*
G02*
X33030000Y-135750000I30000J0D01*
G01*
X37530000Y-138250000D02*
G75*
G02*
X34970000Y-138250000I-1280000J0D01*
G01*
X34970000Y-138250000D02*
G75*
G02*
X37530000Y-138250000I1280000J0D01*
G01*
%TO.C,S3*%
X181950000Y-159830000D02*
X181950000Y-162170000D01*
X182330000Y-162660000D02*
X183220000Y-163550000D01*
X182700000Y-160000000D02*
X183500000Y-159200000D01*
X182700000Y-162000000D02*
X182700000Y-160000000D01*
X183220000Y-158450000D02*
X182330000Y-159340000D01*
X183220000Y-158450000D02*
X185780000Y-158450000D01*
X183220000Y-163550000D02*
X185780000Y-163550000D01*
X183500000Y-159200000D02*
X185400000Y-159200000D01*
X183600000Y-162900000D02*
X182700000Y-162000000D01*
X185300000Y-162900000D02*
X183600000Y-162900000D01*
X185400000Y-159200000D02*
X186300000Y-160100000D01*
X185780000Y-158450000D02*
X186670000Y-159340000D01*
X186300000Y-160100000D02*
X186300000Y-161900000D01*
X186300000Y-161900000D02*
X185300000Y-162900000D01*
X186670000Y-162660000D02*
X185780000Y-163550000D01*
X187050000Y-159830000D02*
X187050000Y-162170000D01*
X181280000Y-158500000D02*
G75*
G02*
X181220000Y-158500000I-30000J0D01*
G01*
X181220000Y-158500000D02*
G75*
G02*
X181280000Y-158500000I30000J0D01*
G01*
X185780000Y-161000000D02*
G75*
G02*
X183220000Y-161000000I-1280000J0D01*
G01*
X183220000Y-161000000D02*
G75*
G02*
X185780000Y-161000000I1280000J0D01*
G01*
D12*
%TO.C,U4*%
X113290000Y-155290000D02*
X113290000Y-155765000D01*
X113290000Y-162510000D02*
X113290000Y-162035000D01*
X113765000Y-155290000D02*
X113290000Y-155290000D01*
X113765000Y-162510000D02*
X113290000Y-162510000D01*
X120035000Y-155290000D02*
X120510000Y-155290000D01*
X120035000Y-162510000D02*
X120210000Y-162510000D01*
X120510000Y-155290000D02*
X120510000Y-155765000D01*
X120510000Y-162035000D02*
X120510000Y-162270000D01*
X120750000Y-162840000D02*
X120270000Y-162840000D01*
X120510000Y-162510000D01*
X120750000Y-162840000D01*
G36*
X120750000Y-162840000D02*
G01*
X120270000Y-162840000D01*
X120510000Y-162510000D01*
X120750000Y-162840000D01*
G37*
D11*
%TO.C,X1*%
X77300000Y-150000000D02*
X77300000Y-151600000D01*
X78650000Y-150000000D02*
X77300000Y-150000000D01*
%TO.C,Q1*%
X99690000Y-84940000D02*
X99690000Y-84290000D01*
X99690000Y-84940000D02*
X99690000Y-85590000D01*
X102810000Y-84940000D02*
X102810000Y-84290000D01*
X102810000Y-84940000D02*
X102810000Y-85590000D01*
D12*
X99740000Y-86102500D02*
X99410000Y-86342500D01*
X99410000Y-85862500D01*
X99740000Y-86102500D01*
G36*
X99740000Y-86102500D02*
G01*
X99410000Y-86342500D01*
X99410000Y-85862500D01*
X99740000Y-86102500D01*
G37*
%TO.C,J10*%
X117920000Y-177660000D02*
X117920000Y-176500000D01*
X118730000Y-177660000D02*
X117920000Y-177660000D01*
X119540000Y-175340000D02*
X120745000Y-175340000D01*
X119540000Y-175833292D02*
X119540000Y-175340000D01*
X119540000Y-177660000D02*
X119540000Y-177166708D01*
X119540000Y-177660000D02*
X120745000Y-177660000D01*
X120745000Y-176182077D02*
X120745000Y-175340000D01*
X120745000Y-177660000D02*
X120745000Y-176817923D01*
%TO.C,J4*%
X69590000Y-159750000D02*
X69590000Y-140765000D01*
X70083292Y-159750000D02*
X69590000Y-159750000D01*
X70432077Y-140765000D02*
X69590000Y-140765000D01*
X71910000Y-140765000D02*
X71067923Y-140765000D01*
X71910000Y-159750000D02*
X71416708Y-159750000D01*
X71910000Y-159750000D02*
X71910000Y-140765000D01*
X71910000Y-160560000D02*
X71910000Y-161370000D01*
X71910000Y-161370000D02*
X70750000Y-161370000D01*
D11*
%TO.C,D8*%
X191000000Y-109435000D02*
X193690000Y-109435000D01*
X193690000Y-107515000D02*
X191000000Y-107515000D01*
X193690000Y-109435000D02*
X193690000Y-107515000D01*
D12*
%TO.C,JP2*%
X121500000Y-147600000D02*
X121500000Y-146200000D01*
X122200000Y-145500000D02*
X122800000Y-145500000D01*
X122800000Y-148300000D02*
X122200000Y-148300000D01*
X123500000Y-146200000D02*
X123500000Y-147600000D01*
X121500000Y-146200000D02*
G75*
G02*
X122200000Y-145500000I700000J0D01*
G01*
X122200000Y-148300000D02*
G75*
G02*
X121500000Y-147600000I-1J699999D01*
G01*
X122800000Y-145500000D02*
G75*
G02*
X123500000Y-146200000I0J-700000D01*
G01*
X123500000Y-147600000D02*
G75*
G02*
X122800000Y-148300000I-699999J-1D01*
G01*
D11*
%TO.C,D2*%
X100390000Y-75940000D02*
X100390000Y-78630000D01*
X100390000Y-78630000D02*
X102310000Y-78630000D01*
X102310000Y-78630000D02*
X102310000Y-75940000D01*
%TO.C,D6*%
X191000000Y-115575000D02*
X193690000Y-115575000D01*
X193690000Y-113655000D02*
X191000000Y-113655000D01*
X193690000Y-115575000D02*
X193690000Y-113655000D01*
D12*
%TO.C,JP7*%
X91000000Y-168350000D02*
X91000000Y-166950000D01*
X91700000Y-166250000D02*
X92300000Y-166250000D01*
X92300000Y-169050000D02*
X91700000Y-169050000D01*
X93000000Y-166950000D02*
X93000000Y-168350000D01*
X91000000Y-166950000D02*
G75*
G02*
X91700000Y-166250000I699999J1D01*
G01*
X91700000Y-169050000D02*
G75*
G02*
X91000000Y-168350000I0J700000D01*
G01*
X92300000Y-166250000D02*
G75*
G02*
X93000000Y-166950000I1J-699999D01*
G01*
X93000000Y-168350000D02*
G75*
G02*
X92300000Y-169050000I-700000J0D01*
G01*
%TO.C,JP5*%
X113000000Y-147600000D02*
X113000000Y-146200000D01*
X113700000Y-145500000D02*
X114300000Y-145500000D01*
X114300000Y-148300000D02*
X113700000Y-148300000D01*
X115000000Y-146200000D02*
X115000000Y-147600000D01*
X113000000Y-146200000D02*
G75*
G02*
X113700000Y-145500000I700000J0D01*
G01*
X113700000Y-148300000D02*
G75*
G02*
X113000000Y-147600000I-1J699999D01*
G01*
X114300000Y-145500000D02*
G75*
G02*
X115000000Y-146200000I0J-700000D01*
G01*
X115000000Y-147600000D02*
G75*
G02*
X114300000Y-148300000I-699999J-1D01*
G01*
%TO.C,U3*%
X88390000Y-148890000D02*
X88390000Y-149840000D01*
X88390000Y-159110000D02*
X88390000Y-158160000D01*
X89340000Y-148890000D02*
X88390000Y-148890000D01*
X89340000Y-159110000D02*
X88390000Y-159110000D01*
X97660000Y-148890000D02*
X98610000Y-148890000D01*
X97660000Y-159110000D02*
X98610000Y-159110000D01*
X98610000Y-148890000D02*
X98610000Y-149840000D01*
X98610000Y-159110000D02*
X98610000Y-158160000D01*
X87775000Y-149840000D02*
X87435000Y-149370000D01*
X88115000Y-149370000D01*
X87775000Y-149840000D01*
G36*
X87775000Y-149840000D02*
G01*
X87435000Y-149370000D01*
X88115000Y-149370000D01*
X87775000Y-149840000D01*
G37*
%TO.C,JP3*%
X118750000Y-147600000D02*
X118750000Y-146200000D01*
X119450000Y-145500000D02*
X120050000Y-145500000D01*
X120050000Y-148300000D02*
X119450000Y-148300000D01*
X120750000Y-146200000D02*
X120750000Y-147600000D01*
X118750000Y-146200000D02*
G75*
G02*
X119450000Y-145500000I700000J0D01*
G01*
X119450000Y-148300000D02*
G75*
G02*
X118750000Y-147600000I-1J699999D01*
G01*
X120050000Y-145500000D02*
G75*
G02*
X120750000Y-146200000I0J-700000D01*
G01*
X120750000Y-147600000D02*
G75*
G02*
X120050000Y-148300000I-699999J-1D01*
G01*
%TO.C,J5*%
X99465000Y-103340000D02*
X99465000Y-104182077D01*
X99465000Y-104817923D02*
X99465000Y-105660000D01*
X105750000Y-103340000D02*
X99465000Y-103340000D01*
X105750000Y-103340000D02*
X105750000Y-103833292D01*
X105750000Y-105166708D02*
X105750000Y-105660000D01*
X105750000Y-105660000D02*
X99465000Y-105660000D01*
X106560000Y-103340000D02*
X107370000Y-103340000D01*
X107370000Y-103340000D02*
X107370000Y-104500000D01*
%TO.C,J9*%
X69340000Y-165690000D02*
X70500000Y-165690000D01*
X69340000Y-166500000D02*
X69340000Y-165690000D01*
X69340000Y-167310000D02*
X69340000Y-168515000D01*
X69340000Y-167310000D02*
X69833292Y-167310000D01*
X69340000Y-168515000D02*
X70182077Y-168515000D01*
X70817923Y-168515000D02*
X71660000Y-168515000D01*
X71166708Y-167310000D02*
X71660000Y-167310000D01*
X71660000Y-167310000D02*
X71660000Y-168515000D01*
D11*
%TO.C,D13*%
X191060000Y-121615000D02*
X193750000Y-121615000D01*
X193750000Y-119695000D02*
X191060000Y-119695000D01*
X193750000Y-121615000D02*
X193750000Y-119695000D01*
D12*
%TO.C,J6*%
X99340000Y-178420000D02*
X100500000Y-178420000D01*
X99340000Y-179230000D02*
X99340000Y-178420000D01*
X99340000Y-180040000D02*
X99340000Y-181245000D01*
X99340000Y-180040000D02*
X99833292Y-180040000D01*
X99340000Y-181245000D02*
X100182077Y-181245000D01*
X100817923Y-181245000D02*
X101660000Y-181245000D01*
X101166708Y-180040000D02*
X101660000Y-180040000D01*
X101660000Y-180040000D02*
X101660000Y-181245000D01*
%TO.C,J7*%
X91840000Y-173440000D02*
X93000000Y-173440000D01*
X91840000Y-174250000D02*
X91840000Y-173440000D01*
X91840000Y-175060000D02*
X91840000Y-177535000D01*
X91840000Y-175060000D02*
X92333292Y-175060000D01*
X91840000Y-177535000D02*
X92682077Y-177535000D01*
X93317923Y-177535000D02*
X94160000Y-177535000D01*
X93666708Y-175060000D02*
X94160000Y-175060000D01*
X94160000Y-175060000D02*
X94160000Y-177535000D01*
D11*
%TO.C,S1*%
X148650000Y-151570000D02*
X148650000Y-149230000D01*
X149030000Y-148740000D02*
X149920000Y-147850000D01*
X149400000Y-149500000D02*
X150400000Y-148500000D01*
X149400000Y-151300000D02*
X149400000Y-149500000D01*
X149920000Y-152950000D02*
X149030000Y-152060000D01*
X150300000Y-152200000D02*
X149400000Y-151300000D01*
X150400000Y-148500000D02*
X152100000Y-148500000D01*
X152100000Y-148500000D02*
X153000000Y-149400000D01*
X152200000Y-152200000D02*
X150300000Y-152200000D01*
X152480000Y-147850000D02*
X149920000Y-147850000D01*
X152480000Y-152950000D02*
X149920000Y-152950000D01*
X152480000Y-152950000D02*
X153370000Y-152060000D01*
X153000000Y-149400000D02*
X153000000Y-151400000D01*
X153000000Y-151400000D02*
X152200000Y-152200000D01*
X153370000Y-148740000D02*
X152480000Y-147850000D01*
X153750000Y-151570000D02*
X153750000Y-149230000D01*
X152480000Y-150400000D02*
G75*
G02*
X149920000Y-150400000I-1280000J0D01*
G01*
X149920000Y-150400000D02*
G75*
G02*
X152480000Y-150400000I1280000J0D01*
G01*
X154480000Y-152900000D02*
G75*
G02*
X154420000Y-152900000I-30000J0D01*
G01*
X154420000Y-152900000D02*
G75*
G02*
X154480000Y-152900000I30000J0D01*
G01*
D12*
%TO.C,JP9*%
X97000000Y-168350000D02*
X97000000Y-166950000D01*
X97700000Y-166250000D02*
X98300000Y-166250000D01*
X98300000Y-169050000D02*
X97700000Y-169050000D01*
X99000000Y-166950000D02*
X99000000Y-168350000D01*
X97000000Y-166950000D02*
G75*
G02*
X97700000Y-166250000I699999J1D01*
G01*
X97700000Y-169050000D02*
G75*
G02*
X97000000Y-168350000I0J700000D01*
G01*
X98300000Y-166250000D02*
G75*
G02*
X99000000Y-166950000I1J-699999D01*
G01*
X99000000Y-168350000D02*
G75*
G02*
X98300000Y-169050000I-700000J0D01*
G01*
%TO.C,JP8*%
X94000000Y-168350000D02*
X94000000Y-166950000D01*
X94700000Y-166250000D02*
X95300000Y-166250000D01*
X95300000Y-169050000D02*
X94700000Y-169050000D01*
X96000000Y-166950000D02*
X96000000Y-168350000D01*
X94000000Y-166950000D02*
G75*
G02*
X94700000Y-166250000I699999J1D01*
G01*
X94700000Y-169050000D02*
G75*
G02*
X94000000Y-168350000I0J700000D01*
G01*
X95300000Y-166250000D02*
G75*
G02*
X96000000Y-166950000I1J-699999D01*
G01*
X96000000Y-168350000D02*
G75*
G02*
X95300000Y-169050000I-700000J0D01*
G01*
%TO.C,J2*%
X87735000Y-138840000D02*
X87735000Y-139682077D01*
X87735000Y-140317923D02*
X87735000Y-141160000D01*
X94020000Y-138840000D02*
X87735000Y-138840000D01*
X94020000Y-138840000D02*
X94020000Y-139333292D01*
X94020000Y-140666708D02*
X94020000Y-141160000D01*
X94020000Y-141160000D02*
X87735000Y-141160000D01*
X94830000Y-138840000D02*
X95640000Y-138840000D01*
X95640000Y-138840000D02*
X95640000Y-140000000D01*
%TO.C,JP6*%
X88000000Y-168350000D02*
X88000000Y-166950000D01*
X88700000Y-166250000D02*
X89300000Y-166250000D01*
X89300000Y-169050000D02*
X88700000Y-169050000D01*
X90000000Y-166950000D02*
X90000000Y-168350000D01*
X88000000Y-166950000D02*
G75*
G02*
X88700000Y-166250000I699999J1D01*
G01*
X88700000Y-169050000D02*
G75*
G02*
X88000000Y-168350000I0J700000D01*
G01*
X89300000Y-166250000D02*
G75*
G02*
X90000000Y-166950000I1J-699999D01*
G01*
X90000000Y-168350000D02*
G75*
G02*
X89300000Y-169050000I-700000J0D01*
G01*
%TO.C,SW2*%
X155085000Y-94137500D02*
X155085000Y-92987500D01*
X155085000Y-96677500D02*
X155085000Y-96057500D01*
X155085000Y-99217500D02*
X155085000Y-98597500D01*
X155085000Y-101757500D02*
X155085000Y-101137500D01*
X155085000Y-104297500D02*
X155085000Y-103677500D01*
X155085000Y-106837500D02*
X155085000Y-106217500D01*
X155085000Y-109377500D02*
X155085000Y-108757500D01*
X155085000Y-111917500D02*
X155085000Y-111297500D01*
X155085000Y-114987500D02*
X155085000Y-113837500D01*
X159098333Y-95732500D02*
X159098333Y-94462500D01*
X159098333Y-98272500D02*
X159098333Y-97002500D01*
X159098333Y-100812500D02*
X159098333Y-99542500D01*
X159098333Y-103352500D02*
X159098333Y-102082500D01*
X159098333Y-105892500D02*
X159098333Y-104622500D01*
X159098333Y-108432500D02*
X159098333Y-107162500D01*
X159098333Y-110972500D02*
X159098333Y-109702500D01*
X159098333Y-113512500D02*
X159098333Y-112242500D01*
X161905000Y-92987500D02*
X155085000Y-92987500D01*
X161905000Y-94137500D02*
X161905000Y-92987500D01*
X161905000Y-96677500D02*
X161905000Y-96057500D01*
X161905000Y-99217500D02*
X161905000Y-98597500D01*
X161905000Y-101757500D02*
X161905000Y-101137500D01*
X161905000Y-104297500D02*
X161905000Y-103677500D01*
X161905000Y-106837500D02*
X161905000Y-106217500D01*
X161905000Y-109377500D02*
X161905000Y-108757500D01*
X161905000Y-111837500D02*
X161905000Y-111297500D01*
X161905000Y-114987500D02*
X155085000Y-114987500D01*
X161905000Y-114987500D02*
X161905000Y-113917500D01*
X162145000Y-115227500D02*
X160762000Y-115227500D01*
X162145000Y-115227500D02*
X162145000Y-113917500D01*
X160305000Y-95732500D02*
X156685000Y-95732500D01*
X156685000Y-94462500D01*
X160305000Y-94462500D01*
X160305000Y-95732500D01*
X160305000Y-95732500D02*
X159098333Y-95732500D01*
X159098333Y-94462500D01*
X160305000Y-94462500D01*
X160305000Y-95732500D01*
G36*
X160305000Y-95732500D02*
G01*
X159098333Y-95732500D01*
X159098333Y-94462500D01*
X160305000Y-94462500D01*
X160305000Y-95732500D01*
G37*
X160305000Y-98272500D02*
X156685000Y-98272500D01*
X156685000Y-97002500D01*
X160305000Y-97002500D01*
X160305000Y-98272500D01*
X160305000Y-98272500D02*
X159098333Y-98272500D01*
X159098333Y-97002500D01*
X160305000Y-97002500D01*
X160305000Y-98272500D01*
G36*
X160305000Y-98272500D02*
G01*
X159098333Y-98272500D01*
X159098333Y-97002500D01*
X160305000Y-97002500D01*
X160305000Y-98272500D01*
G37*
X160305000Y-100812500D02*
X156685000Y-100812500D01*
X156685000Y-99542500D01*
X160305000Y-99542500D01*
X160305000Y-100812500D01*
X160305000Y-100812500D02*
X159098333Y-100812500D01*
X159098333Y-99542500D01*
X160305000Y-99542500D01*
X160305000Y-100812500D01*
G36*
X160305000Y-100812500D02*
G01*
X159098333Y-100812500D01*
X159098333Y-99542500D01*
X160305000Y-99542500D01*
X160305000Y-100812500D01*
G37*
X160305000Y-103352500D02*
X156685000Y-103352500D01*
X156685000Y-102082500D01*
X160305000Y-102082500D01*
X160305000Y-103352500D01*
X160305000Y-103352500D02*
X159098333Y-103352500D01*
X159098333Y-102082500D01*
X160305000Y-102082500D01*
X160305000Y-103352500D01*
G36*
X160305000Y-103352500D02*
G01*
X159098333Y-103352500D01*
X159098333Y-102082500D01*
X160305000Y-102082500D01*
X160305000Y-103352500D01*
G37*
X160305000Y-105892500D02*
X156685000Y-105892500D01*
X156685000Y-104622500D01*
X160305000Y-104622500D01*
X160305000Y-105892500D01*
X160305000Y-105892500D02*
X159098333Y-105892500D01*
X159098333Y-104622500D01*
X160305000Y-104622500D01*
X160305000Y-105892500D01*
G36*
X160305000Y-105892500D02*
G01*
X159098333Y-105892500D01*
X159098333Y-104622500D01*
X160305000Y-104622500D01*
X160305000Y-105892500D01*
G37*
X160305000Y-108432500D02*
X156685000Y-108432500D01*
X156685000Y-107162500D01*
X160305000Y-107162500D01*
X160305000Y-108432500D01*
X160305000Y-108432500D02*
X159098333Y-108432500D01*
X159098333Y-107162500D01*
X160305000Y-107162500D01*
X160305000Y-108432500D01*
G36*
X160305000Y-108432500D02*
G01*
X159098333Y-108432500D01*
X159098333Y-107162500D01*
X160305000Y-107162500D01*
X160305000Y-108432500D01*
G37*
X160305000Y-110972500D02*
X156685000Y-110972500D01*
X156685000Y-109702500D01*
X160305000Y-109702500D01*
X160305000Y-110972500D01*
X160305000Y-110972500D02*
X159098333Y-110972500D01*
X159098333Y-109702500D01*
X160305000Y-109702500D01*
X160305000Y-110972500D01*
G36*
X160305000Y-110972500D02*
G01*
X159098333Y-110972500D01*
X159098333Y-109702500D01*
X160305000Y-109702500D01*
X160305000Y-110972500D01*
G37*
X160305000Y-113512500D02*
X156685000Y-113512500D01*
X156685000Y-112242500D01*
X160305000Y-112242500D01*
X160305000Y-113512500D01*
X160305000Y-113512500D02*
X159098333Y-113512500D01*
X159098333Y-112242500D01*
X160305000Y-112242500D01*
X160305000Y-113512500D01*
G36*
X160305000Y-113512500D02*
G01*
X159098333Y-113512500D01*
X159098333Y-112242500D01*
X160305000Y-112242500D01*
X160305000Y-113512500D01*
G37*
%TO.C,JP4*%
X115900000Y-147600000D02*
X115900000Y-146200000D01*
X116600000Y-145500000D02*
X117200000Y-145500000D01*
X117200000Y-148300000D02*
X116600000Y-148300000D01*
X117900000Y-146200000D02*
X117900000Y-147600000D01*
X115900000Y-146200000D02*
G75*
G02*
X116600000Y-145500000I700000J0D01*
G01*
X116600000Y-148300000D02*
G75*
G02*
X115900000Y-147600000I-1J699999D01*
G01*
X117200000Y-145500000D02*
G75*
G02*
X117900000Y-146200000I0J-700000D01*
G01*
X117900000Y-147600000D02*
G75*
G02*
X117200000Y-148300000I-699999J-1D01*
G01*
D11*
%TO.C,S5*%
X196200000Y-151830000D02*
X196200000Y-154170000D01*
X196580000Y-154660000D02*
X197470000Y-155550000D01*
X196950000Y-152000000D02*
X197750000Y-151200000D01*
X196950000Y-154000000D02*
X196950000Y-152000000D01*
X197470000Y-150450000D02*
X196580000Y-151340000D01*
X197470000Y-150450000D02*
X200030000Y-150450000D01*
X197470000Y-155550000D02*
X200030000Y-155550000D01*
X197750000Y-151200000D02*
X199650000Y-151200000D01*
X197850000Y-154900000D02*
X196950000Y-154000000D01*
X199550000Y-154900000D02*
X197850000Y-154900000D01*
X199650000Y-151200000D02*
X200550000Y-152100000D01*
X200030000Y-150450000D02*
X200920000Y-151340000D01*
X200550000Y-152100000D02*
X200550000Y-153900000D01*
X200550000Y-153900000D02*
X199550000Y-154900000D01*
X200920000Y-154660000D02*
X200030000Y-155550000D01*
X201300000Y-151830000D02*
X201300000Y-154170000D01*
X195530000Y-150500000D02*
G75*
G02*
X195470000Y-150500000I-30000J0D01*
G01*
X195470000Y-150500000D02*
G75*
G02*
X195530000Y-150500000I30000J0D01*
G01*
X200030000Y-153000000D02*
G75*
G02*
X197470000Y-153000000I-1280000J0D01*
G01*
X197470000Y-153000000D02*
G75*
G02*
X200030000Y-153000000I1280000J0D01*
G01*
%TO.C,FB1*%
X81440000Y-160100000D02*
X81440000Y-160900000D01*
X82560000Y-160100000D02*
X82560000Y-160900000D01*
%TO.C,D10*%
X191000000Y-103295000D02*
X193690000Y-103295000D01*
X193690000Y-101375000D02*
X191000000Y-101375000D01*
X193690000Y-103295000D02*
X193690000Y-101375000D01*
D12*
%TO.C,J12*%
X184590000Y-110500000D02*
X184590000Y-101675000D01*
X185083292Y-110500000D02*
X184590000Y-110500000D01*
X185432077Y-101675000D02*
X184590000Y-101675000D01*
X186910000Y-101675000D02*
X186067923Y-101675000D01*
X186910000Y-110500000D02*
X186416708Y-110500000D01*
X186910000Y-110500000D02*
X186910000Y-101675000D01*
X186910000Y-111310000D02*
X186910000Y-112120000D01*
X186910000Y-112120000D02*
X185750000Y-112120000D01*
%TD*%
%LPC*%
%TO.C,JP1*%
G36*
X130380000Y-142850000D02*
G01*
X130680000Y-142850000D01*
X130680000Y-144350000D01*
X130380000Y-144350000D01*
X130380000Y-142850000D01*
G37*
%TO.C,JP2*%
G36*
X121750000Y-147050000D02*
G01*
X123250000Y-147050000D01*
X123250000Y-146750000D01*
X121750000Y-146750000D01*
X121750000Y-147050000D01*
G37*
%TO.C,JP7*%
G36*
X92750000Y-167500000D02*
G01*
X91250000Y-167500000D01*
X91250000Y-167800000D01*
X92750000Y-167800000D01*
X92750000Y-167500000D01*
G37*
%TO.C,JP5*%
G36*
X113250000Y-147050000D02*
G01*
X114750000Y-147050000D01*
X114750000Y-146750000D01*
X113250000Y-146750000D01*
X113250000Y-147050000D01*
G37*
%TO.C,JP3*%
G36*
X119000000Y-147050000D02*
G01*
X120500000Y-147050000D01*
X120500000Y-146750000D01*
X119000000Y-146750000D01*
X119000000Y-147050000D01*
G37*
%TO.C,JP9*%
G36*
X98750000Y-167500000D02*
G01*
X97250000Y-167500000D01*
X97250000Y-167800000D01*
X98750000Y-167800000D01*
X98750000Y-167500000D01*
G37*
%TO.C,JP8*%
G36*
X95750000Y-167500000D02*
G01*
X94250000Y-167500000D01*
X94250000Y-167800000D01*
X95750000Y-167800000D01*
X95750000Y-167500000D01*
G37*
%TO.C,JP6*%
G36*
X89750000Y-167500000D02*
G01*
X88250000Y-167500000D01*
X88250000Y-167800000D01*
X89750000Y-167800000D01*
X89750000Y-167500000D01*
G37*
%TO.C,JP4*%
G36*
X116150000Y-147050000D02*
G01*
X117650000Y-147050000D01*
X117650000Y-146750000D01*
X116150000Y-146750000D01*
X116150000Y-147050000D01*
G37*
%TD*%
D13*
%TO.C,D4*%
X96250000Y-78000000D03*
X96250000Y-76120000D03*
%TD*%
D14*
%TO.C,R24*%
X167320000Y-112500000D03*
X165680000Y-112500000D03*
%TD*%
D15*
%TO.C,C26*%
X121900000Y-163650000D03*
X123800000Y-163650000D03*
%TD*%
D16*
%TO.C,R13*%
X35400000Y-90400000D03*
X37040000Y-90400000D03*
%TD*%
%TO.C,R22*%
X21260000Y-90900000D03*
X22900000Y-90900000D03*
%TD*%
D14*
%TO.C,R31*%
X166820000Y-95000000D03*
X165180000Y-95000000D03*
%TD*%
D17*
%TO.C,U5*%
X105780000Y-100160000D03*
X105780000Y-98890000D03*
X105780000Y-97610000D03*
X105780000Y-96340000D03*
X98720000Y-96340000D03*
X98720000Y-97610000D03*
X98720000Y-98890000D03*
X98720000Y-100160000D03*
%TD*%
D18*
%TO.C,C11*%
X42250000Y-137720000D03*
X42250000Y-139280000D03*
%TD*%
D14*
%TO.C,R30*%
X166500000Y-97500000D03*
X164860000Y-97500000D03*
%TD*%
D19*
%TO.C,U2*%
X149030000Y-78200000D03*
X149030000Y-80500000D03*
X149030000Y-82800000D03*
D20*
X155000000Y-81500000D03*
X155000000Y-80500000D03*
D21*
X155000000Y-80500000D03*
D20*
X155000000Y-79500000D03*
%TD*%
D22*
%TO.C,C8*%
X146000000Y-77600000D03*
X146000000Y-79500000D03*
%TD*%
D23*
%TO.C,C31*%
X204020000Y-152900000D03*
X205580000Y-152900000D03*
%TD*%
D24*
%TO.C,H2*%
X130000000Y-130000000D03*
%TD*%
D14*
%TO.C,R1*%
X23470000Y-85150000D03*
X21830000Y-85150000D03*
%TD*%
D16*
%TO.C,R12*%
X130110000Y-160250000D03*
X131750000Y-160250000D03*
%TD*%
D25*
%TO.C,C23*%
X111710000Y-160150000D03*
X110150000Y-160150000D03*
%TD*%
D26*
%TO.C,D1*%
X192940000Y-117685000D03*
X191060000Y-117685000D03*
%TD*%
D27*
%TO.C,JP1*%
X129880000Y-143600000D03*
D28*
X131180000Y-143600000D03*
%TD*%
D29*
%TO.C,J11*%
X171500000Y-106520000D03*
D30*
X171500000Y-105250000D03*
X171500000Y-103980000D03*
X171500000Y-102710000D03*
X171500000Y-101440000D03*
X171500000Y-100170000D03*
X171500000Y-98900000D03*
X171500000Y-97630000D03*
%TD*%
D16*
%TO.C,R32*%
X195030000Y-117845000D03*
X196670000Y-117845000D03*
%TD*%
D14*
%TO.C,R63*%
X206370000Y-159850000D03*
X204730000Y-159850000D03*
%TD*%
%TO.C,R59*%
X191820000Y-151250000D03*
X190180000Y-151250000D03*
%TD*%
D31*
%TO.C,C4*%
X64250000Y-77950000D03*
X64250000Y-76050000D03*
%TD*%
D32*
%TO.C,S6*%
X196250000Y-159750000D03*
X202850000Y-159750000D03*
X196250000Y-163450000D03*
X202850000Y-163450000D03*
%TD*%
D23*
%TO.C,C27*%
X121870000Y-161650000D03*
X123430000Y-161650000D03*
%TD*%
D33*
%TO.C,C22*%
X111850000Y-162400000D03*
X109950000Y-162400000D03*
%TD*%
D26*
%TO.C,D11*%
X192940000Y-99265000D03*
X191060000Y-99265000D03*
%TD*%
D24*
%TO.C,H1*%
X70000000Y-130000000D03*
%TD*%
D18*
%TO.C,C1*%
X124500000Y-92970000D03*
X124500000Y-94530000D03*
%TD*%
D13*
%TO.C,D3*%
X98850000Y-77880000D03*
X98850000Y-76000000D03*
%TD*%
D34*
%TO.C,R18*%
X111000000Y-81180000D03*
X111000000Y-82820000D03*
%TD*%
D22*
%TO.C,C5*%
X146000000Y-81600000D03*
X146000000Y-83500000D03*
%TD*%
D14*
%TO.C,R15*%
X107320000Y-79500000D03*
X105680000Y-79500000D03*
%TD*%
D29*
%TO.C,J8*%
X111980000Y-176500000D03*
D30*
X113250000Y-176500000D03*
X114520000Y-176500000D03*
%TD*%
D34*
%TO.C,R10*%
X98850000Y-80425000D03*
X98850000Y-82065000D03*
%TD*%
D26*
%TO.C,D12*%
X192940000Y-96195000D03*
X191060000Y-96195000D03*
%TD*%
D25*
%TO.C,C19*%
X81780000Y-162940000D03*
X80220000Y-162940000D03*
%TD*%
D16*
%TO.C,R3*%
X92680000Y-79500000D03*
X94320000Y-79500000D03*
%TD*%
D25*
%TO.C,C29*%
X191800000Y-161100000D03*
X190240000Y-161100000D03*
%TD*%
D35*
%TO.C,SW1*%
X25500000Y-85300000D03*
D36*
X25500000Y-87840000D03*
X25500000Y-90380000D03*
X25500000Y-92920000D03*
X25500000Y-95460000D03*
X25500000Y-98000000D03*
X25500000Y-100540000D03*
X25500000Y-103080000D03*
X33120000Y-103080000D03*
X33120000Y-100540000D03*
X33120000Y-98000000D03*
X33120000Y-95460000D03*
X33120000Y-92920000D03*
X33120000Y-90380000D03*
X33120000Y-87840000D03*
X33120000Y-85300000D03*
%TD*%
D34*
%TO.C,R11*%
X96250000Y-79485000D03*
X96250000Y-81125000D03*
%TD*%
D26*
%TO.C,D9*%
X192940000Y-105405000D03*
X191060000Y-105405000D03*
%TD*%
D37*
%TO.C,R19*%
X108000000Y-100250000D03*
X108000000Y-98610000D03*
%TD*%
D26*
%TO.C,D7*%
X192940000Y-111545000D03*
X191060000Y-111545000D03*
%TD*%
D23*
%TO.C,C32*%
X204770000Y-161600000D03*
X206330000Y-161600000D03*
%TD*%
D13*
%TO.C,D5*%
X103750000Y-77940000D03*
X103750000Y-76060000D03*
%TD*%
D16*
%TO.C,R36*%
X194850000Y-105345000D03*
X196490000Y-105345000D03*
%TD*%
D24*
%TO.C,H4*%
X130000000Y-70000000D03*
%TD*%
D32*
%TO.C,S4*%
X181400000Y-151250000D03*
X188000000Y-151250000D03*
X181400000Y-154950000D03*
X188000000Y-154950000D03*
%TD*%
D23*
%TO.C,C28*%
X98720000Y-102000000D03*
X100280000Y-102000000D03*
%TD*%
D25*
%TO.C,C15*%
X98560000Y-162000000D03*
X97000000Y-162000000D03*
%TD*%
D38*
%TO.C,U1*%
X61220000Y-81300000D03*
X61220000Y-79000000D03*
X61220000Y-76700000D03*
D20*
X55250000Y-78000000D03*
X55250000Y-79000000D03*
D39*
X55250000Y-79000000D03*
D20*
X55250000Y-80000000D03*
%TD*%
D25*
%TO.C,C12*%
X90780000Y-162000000D03*
X89220000Y-162000000D03*
%TD*%
D14*
%TO.C,R57*%
X191620000Y-159100000D03*
X189980000Y-159100000D03*
%TD*%
D16*
%TO.C,R38*%
X194850000Y-99345000D03*
X196490000Y-99345000D03*
%TD*%
D14*
%TO.C,R62*%
X206370000Y-163350000D03*
X204730000Y-163350000D03*
%TD*%
D32*
%TO.C,S2*%
X32950000Y-136400000D03*
X39550000Y-136400000D03*
X32950000Y-140100000D03*
X39550000Y-140100000D03*
%TD*%
D25*
%TO.C,C20*%
X82000000Y-158000000D03*
X80440000Y-158000000D03*
%TD*%
D37*
%TO.C,R21*%
X103600000Y-82080000D03*
X103600000Y-80440000D03*
%TD*%
D16*
%TO.C,R34*%
X194850000Y-111845000D03*
X196490000Y-111845000D03*
%TD*%
D32*
%TO.C,S3*%
X181200000Y-159150000D03*
X187800000Y-159150000D03*
X181200000Y-162850000D03*
X187800000Y-162850000D03*
%TD*%
D16*
%TO.C,R35*%
X194850000Y-108345000D03*
X196490000Y-108345000D03*
%TD*%
%TO.C,R37*%
X195030000Y-102345000D03*
X196670000Y-102345000D03*
%TD*%
D24*
%TO.C,H3*%
X70000000Y-70000000D03*
%TD*%
D40*
%TO.C,U4*%
X120337500Y-161650000D03*
X120337500Y-161150000D03*
X120337500Y-160650000D03*
X120337500Y-160150000D03*
X120337500Y-159650000D03*
X120337500Y-159150000D03*
X120337500Y-158650000D03*
X120337500Y-158150000D03*
X120337500Y-157650000D03*
X120337500Y-157150000D03*
X120337500Y-156650000D03*
X120337500Y-156150000D03*
D41*
X119650000Y-155462500D03*
X119150000Y-155462500D03*
X118650000Y-155462500D03*
X118150000Y-155462500D03*
X117650000Y-155462500D03*
X117150000Y-155462500D03*
X116650000Y-155462500D03*
X116150000Y-155462500D03*
X115650000Y-155462500D03*
X115150000Y-155462500D03*
X114650000Y-155462500D03*
X114150000Y-155462500D03*
D40*
X113462500Y-156150000D03*
X113462500Y-156650000D03*
X113462500Y-157150000D03*
X113462500Y-157650000D03*
X113462500Y-158150000D03*
X113462500Y-158650000D03*
X113462500Y-159150000D03*
X113462500Y-159650000D03*
X113462500Y-160150000D03*
X113462500Y-160650000D03*
X113462500Y-161150000D03*
X113462500Y-161650000D03*
D41*
X114150000Y-162337500D03*
X114650000Y-162337500D03*
X115150000Y-162337500D03*
X115650000Y-162337500D03*
X116150000Y-162337500D03*
X116650000Y-162337500D03*
X117150000Y-162337500D03*
X117650000Y-162337500D03*
X118150000Y-162337500D03*
X118650000Y-162337500D03*
X119150000Y-162337500D03*
X119650000Y-162337500D03*
D42*
X116900000Y-158900000D03*
%TD*%
D43*
%TO.C,X1*%
X78120000Y-150900000D03*
X78120000Y-153100000D03*
X79880000Y-153100000D03*
X79880000Y-150900000D03*
%TD*%
D44*
%TO.C,Q1*%
X100300000Y-85880000D03*
X102200000Y-85880000D03*
X101250000Y-84000000D03*
%TD*%
D31*
%TO.C,C2*%
X125000000Y-98700000D03*
X125000000Y-96800000D03*
%TD*%
D45*
%TO.C,J3*%
X117890000Y-71300000D03*
X112110000Y-71300000D03*
D46*
X116250000Y-72500000D03*
X115250000Y-72500000D03*
X114750000Y-72500000D03*
X113750000Y-72500000D03*
D47*
X112600000Y-72500000D03*
X111800000Y-72500000D03*
D46*
X113250000Y-72500000D03*
X114250000Y-72500000D03*
X115750000Y-72500000D03*
X116750000Y-72500000D03*
D47*
X117400000Y-72500000D03*
X118200000Y-72500000D03*
D48*
X119330000Y-71820000D03*
D49*
X119330000Y-67620000D03*
D20*
X117000000Y-69000000D03*
X117000000Y-67000000D03*
D50*
X115000000Y-68000000D03*
D20*
X113000000Y-69000000D03*
X113000000Y-67000000D03*
D48*
X110670000Y-71820000D03*
D49*
X110670000Y-67620000D03*
%TD*%
D16*
%TO.C,R2*%
X22080000Y-87400000D03*
X23720000Y-87400000D03*
%TD*%
D29*
%TO.C,J10*%
X118730000Y-176500000D03*
D30*
X120000000Y-176500000D03*
%TD*%
D29*
%TO.C,J4*%
X70750000Y-160560000D03*
D30*
X70750000Y-159290000D03*
X70750000Y-158020000D03*
X70750000Y-156750000D03*
X70750000Y-155480000D03*
X70750000Y-154210000D03*
X70750000Y-152940000D03*
X70750000Y-151670000D03*
X70750000Y-150400000D03*
X70750000Y-149130000D03*
X70750000Y-147860000D03*
X70750000Y-146590000D03*
X70750000Y-145320000D03*
X70750000Y-144050000D03*
X70750000Y-142780000D03*
X70750000Y-141510000D03*
%TD*%
D16*
%TO.C,R40*%
X194930000Y-120655000D03*
X196570000Y-120655000D03*
%TD*%
D22*
%TO.C,C7*%
X64250000Y-80050000D03*
X64250000Y-81950000D03*
%TD*%
D16*
%TO.C,R7*%
X34830000Y-87650000D03*
X36470000Y-87650000D03*
%TD*%
D26*
%TO.C,D8*%
X192940000Y-108475000D03*
X191060000Y-108475000D03*
%TD*%
D51*
%TO.C,JP2*%
X122500000Y-147550000D03*
D52*
X122500000Y-146250000D03*
%TD*%
D23*
%TO.C,C16*%
X88720000Y-146000000D03*
X90280000Y-146000000D03*
%TD*%
D16*
%TO.C,R6*%
X35080000Y-85150000D03*
X36720000Y-85150000D03*
%TD*%
D34*
%TO.C,R9*%
X101350000Y-80440000D03*
X101350000Y-82080000D03*
%TD*%
D23*
%TO.C,C30*%
X190220000Y-153000000D03*
X191780000Y-153000000D03*
%TD*%
D53*
%TO.C,C21*%
X85500000Y-157280000D03*
X85500000Y-155720000D03*
%TD*%
D13*
%TO.C,D2*%
X101350000Y-77880000D03*
X101350000Y-76000000D03*
%TD*%
D14*
%TO.C,R28*%
X166320000Y-102500000D03*
X164680000Y-102500000D03*
%TD*%
D26*
%TO.C,D6*%
X192940000Y-114615000D03*
X191060000Y-114615000D03*
%TD*%
D54*
%TO.C,JP7*%
X92000000Y-167000000D03*
D55*
X92000000Y-168300000D03*
%TD*%
D53*
%TO.C,C25*%
X122400000Y-157180000D03*
X122400000Y-155620000D03*
%TD*%
D14*
%TO.C,R25*%
X167320000Y-110000000D03*
X165680000Y-110000000D03*
%TD*%
D31*
%TO.C,C24*%
X124400000Y-157350000D03*
X124400000Y-155450000D03*
%TD*%
D51*
%TO.C,JP5*%
X114000000Y-147550000D03*
D52*
X114000000Y-146250000D03*
%TD*%
D22*
%TO.C,C18*%
X103400000Y-146400000D03*
X103400000Y-148300000D03*
%TD*%
D16*
%TO.C,R23*%
X35430000Y-93250000D03*
X37070000Y-93250000D03*
%TD*%
D56*
%TO.C,U3*%
X87825000Y-150250000D03*
X87825000Y-150750000D03*
X87825000Y-151250000D03*
X87825000Y-151750000D03*
X87825000Y-152250000D03*
X87825000Y-152750000D03*
X87825000Y-153250000D03*
X87825000Y-153750000D03*
X87825000Y-154250000D03*
X87825000Y-154750000D03*
X87825000Y-155250000D03*
X87825000Y-155750000D03*
X87825000Y-156250000D03*
X87825000Y-156750000D03*
X87825000Y-157250000D03*
X87825000Y-157750000D03*
D57*
X89750000Y-159675000D03*
X90250000Y-159675000D03*
X90750000Y-159675000D03*
X91250000Y-159675000D03*
X91750000Y-159675000D03*
X92250000Y-159675000D03*
X92750000Y-159675000D03*
X93250000Y-159675000D03*
X93750000Y-159675000D03*
X94250000Y-159675000D03*
X94750000Y-159675000D03*
X95250000Y-159675000D03*
X95750000Y-159675000D03*
X96250000Y-159675000D03*
X96750000Y-159675000D03*
X97250000Y-159675000D03*
D56*
X99175000Y-157750000D03*
X99175000Y-157250000D03*
X99175000Y-156750000D03*
X99175000Y-156250000D03*
X99175000Y-155750000D03*
X99175000Y-155250000D03*
X99175000Y-154750000D03*
X99175000Y-154250000D03*
X99175000Y-153750000D03*
X99175000Y-153250000D03*
X99175000Y-152750000D03*
X99175000Y-152250000D03*
X99175000Y-151750000D03*
X99175000Y-151250000D03*
X99175000Y-150750000D03*
X99175000Y-150250000D03*
D57*
X97250000Y-148325000D03*
X96750000Y-148325000D03*
X96250000Y-148325000D03*
X95750000Y-148325000D03*
X95250000Y-148325000D03*
X94750000Y-148325000D03*
X94250000Y-148325000D03*
X93750000Y-148325000D03*
X93250000Y-148325000D03*
X92750000Y-148325000D03*
X92250000Y-148325000D03*
X91750000Y-148325000D03*
X91250000Y-148325000D03*
X90750000Y-148325000D03*
X90250000Y-148325000D03*
X89750000Y-148325000D03*
%TD*%
D51*
%TO.C,JP3*%
X119750000Y-147550000D03*
D52*
X119750000Y-146250000D03*
%TD*%
D29*
%TO.C,J5*%
X106560000Y-104500000D03*
D30*
X105290000Y-104500000D03*
X104020000Y-104500000D03*
X102750000Y-104500000D03*
X101480000Y-104500000D03*
X100210000Y-104500000D03*
%TD*%
D33*
%TO.C,C6*%
X120750000Y-103750000D03*
X118850000Y-103750000D03*
%TD*%
D23*
%TO.C,C17*%
X93970000Y-162000000D03*
X95530000Y-162000000D03*
%TD*%
D16*
%TO.C,R8*%
X100180000Y-87800000D03*
X101820000Y-87800000D03*
%TD*%
D29*
%TO.C,J9*%
X70500000Y-166500000D03*
D30*
X70500000Y-167770000D03*
%TD*%
D26*
%TO.C,D13*%
X193000000Y-120655000D03*
X191120000Y-120655000D03*
%TD*%
D29*
%TO.C,J6*%
X100500000Y-179230000D03*
D30*
X100500000Y-180500000D03*
%TD*%
D45*
%TO.C,J1*%
X87890000Y-71300000D03*
X82110000Y-71300000D03*
D46*
X86250000Y-72500000D03*
X85250000Y-72500000D03*
X84750000Y-72500000D03*
X83750000Y-72500000D03*
D47*
X82600000Y-72500000D03*
X81800000Y-72500000D03*
D46*
X83250000Y-72500000D03*
X84250000Y-72500000D03*
X85750000Y-72500000D03*
X86750000Y-72500000D03*
D47*
X87400000Y-72500000D03*
X88200000Y-72500000D03*
D48*
X89330000Y-71820000D03*
D49*
X89330000Y-67620000D03*
D20*
X87000000Y-69000000D03*
X87000000Y-67000000D03*
D50*
X85000000Y-68000000D03*
D20*
X83000000Y-69000000D03*
X83000000Y-67000000D03*
D48*
X80670000Y-71820000D03*
D49*
X80670000Y-67620000D03*
%TD*%
D29*
%TO.C,J7*%
X93000000Y-174250000D03*
D30*
X93000000Y-175520000D03*
X93000000Y-176790000D03*
%TD*%
D58*
%TO.C,S1*%
X154500000Y-152250000D03*
X147900000Y-152250000D03*
X154500000Y-148550000D03*
X147900000Y-148550000D03*
%TD*%
D16*
%TO.C,R5*%
X122480000Y-103750000D03*
X124120000Y-103750000D03*
%TD*%
D37*
%TO.C,R20*%
X96500000Y-100070000D03*
X96500000Y-98430000D03*
%TD*%
D14*
%TO.C,R26*%
X166820000Y-107500000D03*
X165180000Y-107500000D03*
%TD*%
D34*
%TO.C,R17*%
X109500000Y-81180000D03*
X109500000Y-82820000D03*
%TD*%
D14*
%TO.C,R29*%
X166820000Y-100000000D03*
X165180000Y-100000000D03*
%TD*%
%TO.C,R58*%
X191820000Y-154750000D03*
X190180000Y-154750000D03*
%TD*%
D18*
%TO.C,C13*%
X82000000Y-153220000D03*
X82000000Y-154780000D03*
%TD*%
D54*
%TO.C,JP9*%
X98000000Y-167000000D03*
D55*
X98000000Y-168300000D03*
%TD*%
D14*
%TO.C,R27*%
X166820000Y-105000000D03*
X165180000Y-105000000D03*
%TD*%
D54*
%TO.C,JP8*%
X95000000Y-167000000D03*
D55*
X95000000Y-168300000D03*
%TD*%
D16*
%TO.C,R16*%
X105930000Y-81500000D03*
X107570000Y-81500000D03*
%TD*%
D25*
%TO.C,C3*%
X111710000Y-158150000D03*
X110150000Y-158150000D03*
%TD*%
D29*
%TO.C,J2*%
X94830000Y-140000000D03*
D30*
X93560000Y-140000000D03*
X92290000Y-140000000D03*
X91020000Y-140000000D03*
X89750000Y-140000000D03*
X88480000Y-140000000D03*
%TD*%
D53*
%TO.C,C10*%
X145500000Y-152080000D03*
X145500000Y-150520000D03*
%TD*%
D18*
%TO.C,C9*%
X82000000Y-149220000D03*
X82000000Y-150780000D03*
%TD*%
D14*
%TO.C,R60*%
X205620000Y-154900000D03*
X203980000Y-154900000D03*
%TD*%
D16*
%TO.C,R39*%
X195030000Y-96345000D03*
X196670000Y-96345000D03*
%TD*%
D14*
%TO.C,R61*%
X205620000Y-150900000D03*
X203980000Y-150900000D03*
%TD*%
D54*
%TO.C,JP6*%
X89000000Y-167000000D03*
D55*
X89000000Y-168300000D03*
%TD*%
D16*
%TO.C,R56*%
X189980000Y-162850000D03*
X191620000Y-162850000D03*
%TD*%
D59*
%TO.C,SW2*%
X162305000Y-112877500D03*
D36*
X162305000Y-110337500D03*
X162305000Y-107797500D03*
X162305000Y-105257500D03*
X162305000Y-102717500D03*
X162305000Y-100177500D03*
X162305000Y-97637500D03*
X162305000Y-95097500D03*
X154685000Y-95097500D03*
X154685000Y-97637500D03*
X154685000Y-100177500D03*
X154685000Y-102717500D03*
X154685000Y-105257500D03*
X154685000Y-107797500D03*
X154685000Y-110337500D03*
X154685000Y-112877500D03*
%TD*%
D51*
%TO.C,JP4*%
X116900000Y-147550000D03*
D52*
X116900000Y-146250000D03*
%TD*%
D32*
%TO.C,S5*%
X195450000Y-151150000D03*
X202050000Y-151150000D03*
X195450000Y-154850000D03*
X202050000Y-154850000D03*
%TD*%
D18*
%TO.C,C14*%
X101500000Y-147070000D03*
X101500000Y-148630000D03*
%TD*%
D16*
%TO.C,R14*%
X112680000Y-79500000D03*
X114320000Y-79500000D03*
%TD*%
%TO.C,R33*%
X194850000Y-114845000D03*
X196490000Y-114845000D03*
%TD*%
D60*
%TO.C,FB1*%
X82000000Y-159440000D03*
X82000000Y-161560000D03*
%TD*%
D26*
%TO.C,D10*%
X192940000Y-102335000D03*
X191060000Y-102335000D03*
%TD*%
D14*
%TO.C,R4*%
X86820000Y-79000000D03*
X85180000Y-79000000D03*
%TD*%
D29*
%TO.C,J12*%
X185750000Y-111310000D03*
D30*
X185750000Y-110040000D03*
X185750000Y-108770000D03*
X185750000Y-107500000D03*
X185750000Y-106230000D03*
X185750000Y-104960000D03*
X185750000Y-103690000D03*
X185750000Y-102420000D03*
%TD*%
%LPD*%
M02*
